<svg width="24" height="24" viewBox="0 0 24 24" fill="none" xmlns="http://www.w3.org/2000/svg">
<rect width="24" height="24" fill="#0E218F" fill-opacity="0.05"/>
<path d="M17.5 13H14.5C14.2348 13 13.9804 13.1054 13.7929 13.2929C13.6054 13.4804 13.5 13.7348 13.5 14V18.5C13.5 18.6326 13.5527 18.7598 13.6464 18.8536C13.7402 18.9473 13.8674 19 14 19H15.5V18C15.5 17.8674 15.5527 17.7402 15.6464 17.6464C15.7402 17.5527 15.8674 17.5 16 17.5C16.1326 17.5 16.2598 17.5527 16.3536 17.6464C16.4473 17.7402 16.5 17.8674 16.5 18V19H18C18.1326 19 18.2598 18.9473 18.3536 18.8536C18.4473 18.7598 18.5 18.6326 18.5 18.5V14C18.5 13.7348 18.3946 13.4804 18.2071 13.2929C18.0196 13.1054 17.7652 13 17.5 13ZM16.5 16H15.5C15.3674 16 15.2402 15.9473 15.1464 15.8536C15.0527 15.7598 15 15.6326 15 15.5C15 15.3674 15.0527 15.2402 15.1464 15.1464C15.2402 15.0527 15.3674 15 15.5 15H16.5C16.6326 15 16.7598 15.0527 16.8536 15.1464C16.9473 15.2402 17 15.3674 17 15.5C17 15.6326 16.9473 15.7598 16.8536 15.8536C16.7598 15.9473 16.6326 16 16.5 16Z" fill="#0E218F"/>
<path d="M15.23 12C15.4033 11.3473 15.494 10.6753 15.5 10C15.5 8.67392 14.9732 7.40215 14.0355 6.46447C13.0979 5.52678 11.8261 5 10.5 5C9.17392 5 7.90215 5.52678 6.96447 6.46447C6.02678 7.40215 5.5 8.67392 5.5 10C5.5 14.67 10 18.705 10.17 18.875C10.2612 18.9552 10.3785 18.9994 10.5 18.9994C10.6215 18.9994 10.7388 18.9552 10.83 18.875C11.4302 18.3222 11.9884 17.7256 12.5 17.09V14C12.5 13.4696 12.7107 12.9609 13.0858 12.5858C13.4609 12.2107 13.9696 12 14.5 12H15.23ZM10.5 12.5C10.0055 12.5 9.5222 12.3534 9.11107 12.0787C8.69995 11.804 8.37952 11.4135 8.1903 10.9567C8.00108 10.4999 7.95157 9.99723 8.04804 9.51227C8.1445 9.02732 8.3826 8.58186 8.73223 8.23223C9.08186 7.8826 9.52732 7.6445 10.0123 7.54804C10.4972 7.45157 10.9999 7.50108 11.4567 7.6903C11.9135 7.87952 12.304 8.19995 12.5787 8.61107C12.8534 9.0222 13 9.50555 13 10C13 10.663 12.7366 11.2989 12.2678 11.7678C11.7989 12.2366 11.163 12.5 10.5 12.5Z" fill="#0E218F"/>
</svg>
