<svg width="10" height="6" viewBox="0 0 10 6" fill="none" xmlns="http://www.w3.org/2000/svg">
<path d="M4.99947 5.66614C4.91174 5.66665 4.82476 5.64983 4.74354 5.61665C4.66231 5.58348 4.58843 5.53459 4.52614 5.47281L0.526139 1.47281C0.400603 1.34727 0.330078 1.17701 0.330078 0.999473C0.330078 0.821938 0.400603 0.651675 0.526139 0.526139C0.651675 0.400603 0.821938 0.330078 0.999473 0.330078C1.17701 0.330078 1.34727 0.400603 1.47281 0.526139L4.99947 4.05947L8.52614 0.532806C8.65367 0.423588 8.81772 0.366517 8.98551 0.372998C9.15329 0.379479 9.31245 0.449034 9.43118 0.567764C9.54991 0.686494 9.61947 0.845653 9.62595 1.01344C9.63243 1.18122 9.57536 1.34527 9.46614 1.47281L5.46614 5.47281C5.34197 5.59597 5.17437 5.6654 4.99947 5.66614Z" fill="#ffffff"/>
</svg>
