<svg width="34" height="25" viewBox="0 0 34 25" fill="none" xmlns="http://www.w3.org/2000/svg">
<path d="M0.591694 11.0729L0.59351 11.071L11.1282 0.587091C11.9174 -0.198293 13.1939 -0.19537 13.9795 0.593945C14.765 1.38316 14.762 2.65967 13.9727 3.44516L6.89976 10.4839L31.5972 10.4839C32.7107 10.4839 33.6133 11.3865 33.6133 12.5C33.6133 13.6135 32.7107 14.5161 31.5972 14.5161L6.89986 14.5161L13.9726 21.5548C14.7619 22.3403 14.7649 23.6168 13.9794 24.4061C13.1938 25.1955 11.9172 25.1982 11.1281 24.4129L0.593407 13.929L0.591591 13.9271C-0.198025 13.139 -0.195503 11.8584 0.591694 11.0729Z" fill="#333333"/>
</svg>
