<svg width="28" height="28" viewBox="0 0 28 28" fill="none" xmlns="http://www.w3.org/2000/svg">
<path d="M26.4198 0.0908232C26.4192 0.0908232 26.4186 0.0907187 26.4179 0.0907727L15.444 0.117297C14.6219 0.119296 13.9569 0.787297 13.9589 1.60956C13.9608 2.43172 14.6289 3.09661 15.451 3.09466L22.8188 3.07677L0.526312 25.3693C-0.0550567 25.9507 -0.0550563 26.8932 0.526312 27.4746C1.10768 28.0559 2.05021 28.0559 2.63157 27.4746L24.924 5.18209L24.9063 12.5498C24.9043 13.3719 25.5692 14.04 26.3914 14.0419C27.2137 14.0439 27.8816 13.3788 27.8836 12.5568L27.9101 1.58293C27.9101 1.5823 27.91 1.58167 27.9101 1.58098C27.9109 0.757244 27.2409 0.0899284 26.4198 0.0908232Z" fill="#0E218F"/>
</svg>
