<svg width="15" height="26" viewBox="0 0 15 26" fill="none" xmlns="http://www.w3.org/2000/svg">
<path d="M10.2188 13.7226C12.1896 10.9172 11.9244 8.48828 11.2684 7.83398C14.1087 9.41725 15.5916 13.0004 12.9747 16.7503C10.2872 20.6013 11.0497 24.1528 11.9244 25.4999C6.60681 19.9168 7.3777 17.7668 10.2188 13.7226Z" fill="#0E218F"/>
<path d="M6.96989 6.11087C9.20823 3.20729 8.52068 1.10491 7.91243 0.5C10.079 1.58329 12.187 4.68668 9.66235 8.99964C7.66243 12.4162 7.74576 14.9161 8.32907 16.9993C4.41257 14.2494 4.17197 9.74035 6.96989 6.11087Z" fill="#0E218F"/>
<path d="M1.55527 9.27775C3.31881 6.90748 2.80125 5.3273 2.32203 4.8335C3.7597 6.05349 5.29321 8.49347 3.56801 11.5434C1.87022 14.545 2.16229 17.1496 2.80125 18.1663C-0.744996 13.8963 -0.649151 12.2406 1.55527 9.27775Z" fill="#0E218F"/>
</svg>
