<svg width="34" height="34" viewBox="0 0 34 34" fill="none" xmlns="http://www.w3.org/2000/svg">
<g clip-path="url(#clip0_1_7792)">
<path d="M1.66022 34.0002C1.33183 34.0003 1.0108 33.9029 0.737727 33.7205C0.464659 33.5381 0.251825 33.2788 0.126146 32.9754C0.000467015 32.672 -0.0324101 32.3382 0.031673 32.0161C0.0957561 31.694 0.25392 31.3982 0.48616 31.166L31.1658 0.486313C31.4772 0.174932 31.8996 0 32.3399 0C32.7803 0 33.2026 0.174932 33.514 0.486313C33.8254 0.797693 34.0003 1.22002 34.0003 1.66038C34.0003 2.10073 33.8254 2.52306 33.514 2.83444L2.83429 33.5141C2.68025 33.6685 2.49723 33.7909 2.29575 33.8743C2.09427 33.9577 1.87829 34.0005 1.66022 34.0002Z" fill="#9C9C9C"/>
<path d="M32.3401 34.0002C32.122 34.0005 31.906 33.9577 31.7045 33.8743C31.5031 33.7909 31.32 33.6685 31.166 33.5141L0.486313 2.83444C0.174932 2.52306 0 2.10073 0 1.66038C0 1.22002 0.174932 0.797693 0.486313 0.486313C0.797693 0.174932 1.22002 0 1.66038 0C2.10073 0 2.52306 0.174932 2.83444 0.486313L33.5141 31.166C33.7464 31.3982 33.9045 31.694 33.9686 32.0161C34.0327 32.3382 33.9998 32.672 33.8741 32.9754C33.7485 33.2788 33.5356 33.5381 33.2626 33.7205C32.9895 33.9029 32.6685 34.0003 32.3401 34.0002Z" fill="#9C9C9C"/>
</g>
<defs>
<clipPath id="clip0_1_7792">
<rect width="34" height="34" fill="white"/>
</clipPath>
</defs>
</svg>
