<svg width="267" height="205" viewBox="0 0 267 205" fill="none" xmlns="http://www.w3.org/2000/svg">
<g opacity="0.09" clip-path="url(#clip0_1_720)">
<path fill-rule="evenodd" clip-rule="evenodd" d="M142.174 99.7206C102.427 48.116 114.636 10.751 125.437 0C86.9641 19.253 49.531 74.4088 94.3627 151.062C129.876 211.783 128.397 256.213 118.039 293.238C187.586 244.365 191.858 164.226 142.174 99.7206ZM73.0936 235.685C38.0965 185.824 42.8055 142.656 54.4548 131.027C4.01831 159.166 -22.3149 222.849 24.1555 289.494C71.8792 357.937 58.3379 421.058 42.8055 444.999C137.233 345.772 123.544 307.562 73.0936 235.685ZM225.767 77.0137C217.257 85.79 208.066 113.874 239.382 156C278.527 208.658 280.229 238.085 217.257 313.974C228.603 295.905 233.789 249.613 203.641 196.268C173.006 142.061 200.237 98.6963 225.767 77.0137Z" fill="#0E218F"/>
</g>
<defs>
<clipPath id="clip0_1_720">
<rect width="267" height="205" fill="white" transform="matrix(-1 0 0 1 267 0)"/>
</clipPath>
</defs>
</svg>
