<svg width="145" height="56" viewBox="0 0 145 56" fill="none" xmlns="http://www.w3.org/2000/svg">
<g filter="url(#filter0_b_1_35)">
<rect width="145" height="56" rx="28" fill="#E8BF5C" fill-opacity="0.2"/>
<rect x="0.5" y="0.5" width="144" height="55" rx="27.5" stroke="white" stroke-opacity="0.25"/>
<path d="M20.3125 27.2008L20.3134 27.1997L25.8801 21.3288C26.2971 20.889 26.9716 20.8906 27.3867 21.3326C27.8018 21.7746 27.8002 22.4894 27.3831 22.9293L23.6457 26.871H38.9347C39.523 26.871 40 27.3764 40 28C40 28.6236 39.523 29.129 38.9347 29.129H23.6458L27.3831 33.0707C27.8001 33.5106 27.8017 34.2254 27.3867 34.6674C26.9715 35.1095 26.297 35.111 25.88 34.6712L20.3134 28.8003L20.3124 28.7992C19.8952 28.3578 19.8965 27.6407 20.3125 27.2008Z" fill="white"/>
<path d="M51.52 35V21H56C57.4267 21 58.6867 21.3 59.78 21.9C60.8867 22.5 61.7467 23.3267 62.36 24.38C62.9867 25.42 63.3 26.6267 63.3 28C63.3 29.36 62.9867 30.5667 62.36 31.62C61.7467 32.6733 60.8867 33.5 59.78 34.1C58.6867 34.7 57.4267 35 56 35H51.52ZM54.26 32.44H56C56.64 32.44 57.2333 32.3267 57.78 32.1C58.3267 31.8733 58.8 31.56 59.2 31.16C59.6133 30.76 59.9333 30.2933 60.16 29.76C60.3867 29.2133 60.5 28.6267 60.5 28C60.5 27.3733 60.3867 26.7933 60.16 26.26C59.9333 25.7133 59.6133 25.24 59.2 24.84C58.8 24.44 58.3267 24.1267 57.78 23.9C57.2333 23.6733 56.64 23.56 56 23.56H54.26V32.44ZM67.0039 29.74C67.0039 28.66 67.2106 27.7667 67.6239 27.06C68.0506 26.3533 68.5906 25.8267 69.2439 25.48C69.9106 25.1333 70.6039 24.96 71.3239 24.96V27.52C70.7106 27.52 70.1306 27.5933 69.5839 27.74C69.0506 27.8867 68.6172 28.1267 68.2839 28.46C67.9506 28.7933 67.7839 29.22 67.7839 29.74H67.0039ZM65.1439 35V25H67.7839V35H65.1439ZM78.762 35L78.682 32.98V29.94C78.682 29.34 78.6154 28.8267 78.482 28.4C78.362 27.9733 78.162 27.6467 77.882 27.42C77.6154 27.18 77.2487 27.06 76.782 27.06C76.3554 27.06 75.9687 27.1533 75.622 27.34C75.2754 27.5267 74.982 27.8133 74.742 28.2L72.422 27.4C72.6087 26.9733 72.882 26.56 73.242 26.16C73.602 25.7467 74.0687 25.4133 74.642 25.16C75.2287 24.8933 75.942 24.76 76.782 24.76C77.7954 24.76 78.6354 24.9533 79.302 25.34C79.982 25.7267 80.482 26.2733 80.802 26.98C81.1354 27.6733 81.2954 28.5 81.282 29.46L81.222 35H78.762ZM75.962 35.24C74.762 35.24 73.8287 34.9733 73.162 34.44C72.5087 33.9067 72.182 33.1533 72.182 32.18C72.182 31.1133 72.5354 30.3133 73.242 29.78C73.962 29.2333 74.9687 28.96 76.262 28.96H78.802V30.92H77.182C76.3154 30.92 75.7154 31.0267 75.382 31.24C75.0487 31.44 74.882 31.7267 74.882 32.1C74.882 32.3933 75.0154 32.6267 75.282 32.8C75.5487 32.96 75.922 33.04 76.402 33.04C76.842 33.04 77.2287 32.94 77.562 32.74C77.9087 32.5267 78.182 32.26 78.382 31.94C78.582 31.6067 78.682 31.2667 78.682 30.92H79.322C79.322 32.28 79.062 33.34 78.542 34.1C78.0354 34.86 77.1754 35.24 75.962 35.24ZM87.8861 39.26C87.1261 39.26 86.4528 39.2067 85.8661 39.1C85.2794 38.9933 84.7861 38.8533 84.3861 38.68C83.9861 38.5067 83.6594 38.3333 83.4061 38.16L84.4461 36.04C84.6328 36.1467 84.8794 36.2667 85.1861 36.4C85.4928 36.5467 85.8594 36.6667 86.2861 36.76C86.7128 36.8667 87.2061 36.92 87.7661 36.92C88.2994 36.92 88.7661 36.8133 89.1661 36.6C89.5794 36.4 89.8994 36.08 90.1261 35.64C90.3661 35.2133 90.4861 34.6667 90.4861 34V25H93.1261V33.92C93.1261 35.04 92.9128 36 92.4861 36.8C92.0594 37.6133 91.4528 38.2267 90.6661 38.64C89.8928 39.0533 88.9661 39.26 87.8861 39.26ZM87.3661 34.72C86.4461 34.72 85.6461 34.52 84.9661 34.12C84.2994 33.72 83.7794 33.16 83.4061 32.44C83.0328 31.72 82.8461 30.8667 82.8461 29.88C82.8461 28.84 83.0328 27.94 83.4061 27.18C83.7794 26.4067 84.2994 25.8133 84.9661 25.4C85.6461 24.9733 86.4461 24.76 87.3661 24.76C88.1661 24.76 88.8594 24.9733 89.4461 25.4C90.0328 25.8133 90.4861 26.4067 90.8061 27.18C91.1261 27.9533 91.2861 28.8733 91.2861 29.94C91.2861 30.9 91.1261 31.74 90.8061 32.46C90.4861 33.18 90.0328 33.74 89.4461 34.14C88.8594 34.5267 88.1661 34.72 87.3661 34.72ZM88.1261 32.5C88.5794 32.5 88.9728 32.3867 89.3061 32.16C89.6528 31.92 89.9194 31.6 90.1061 31.2C90.2928 30.7867 90.3861 30.32 90.3861 29.8C90.3861 29.2667 90.2861 28.8 90.0861 28.4C89.8994 28 89.6328 27.6867 89.2861 27.46C88.9528 27.2333 88.5594 27.12 88.1061 27.12C87.6394 27.12 87.2261 27.2333 86.8661 27.46C86.5061 27.6867 86.2261 28 86.0261 28.4C85.8261 28.8 85.7194 29.2667 85.7061 29.8C85.7194 30.32 85.8261 30.7867 86.0261 31.2C86.2261 31.6 86.5061 31.92 86.8661 32.16C87.2394 32.3867 87.6594 32.5 88.1261 32.5Z" fill="white"/>
<path d="M124.688 27.2008L124.687 27.1997L119.12 21.3288C118.703 20.889 118.028 20.8906 117.613 21.3326C117.198 21.7746 117.2 22.4894 117.617 22.9293L121.354 26.871H106.065C105.477 26.871 105 27.3764 105 28C105 28.6236 105.477 29.129 106.065 29.129H121.354L117.617 33.0707C117.2 33.5106 117.198 34.2254 117.613 34.6674C118.028 35.1095 118.703 35.111 119.12 34.6712L124.687 28.8003L124.688 28.7992C125.105 28.3578 125.103 27.6407 124.688 27.2008Z" fill="white"/>
</g>
<defs>
<filter id="filter0_b_1_35" x="-51" y="-51" width="247" height="158" filterUnits="userSpaceOnUse" color-interpolation-filters="sRGB">
<feFlood flood-opacity="0" result="BackgroundImageFix"/>
<feGaussianBlur in="BackgroundImageFix" stdDeviation="25.5"/>
<feComposite in2="SourceAlpha" operator="in" result="effect1_backgroundBlur_1_35"/>
<feBlend mode="normal" in="SourceGraphic" in2="effect1_backgroundBlur_1_35" result="shape"/>
</filter>
</defs>
</svg>
