<svg width="70" height="48" viewBox="0 0 70 48" fill="none" xmlns="http://www.w3.org/2000/svg">
<path d="M46.2744 24.3581L69.809 39.2363V8.85156L46.2744 24.3581Z" fill="#F4C859"/>
<path d="M0 8.85156V39.2363L23.5346 24.3581L0 8.85156Z" fill="#F4C859"/>
<path d="M65.4476 0H4.36405C2.18686 0 0.459069 1.62308 0.131836 3.71301L34.9058 26.6237L69.6798 3.71301C69.3526 1.62308 67.6248 0 65.4476 0Z" fill="#F4C859"/>
<path d="M42.2795 26.9985L36.1057 31.0649C35.7392 31.3049 35.3247 31.4227 34.9059 31.4227C34.487 31.4227 34.0725 31.3049 33.706 31.0649L27.5322 26.9941L0.140625 44.32C0.476584 46.3925 2.19565 48.0025 4.36412 48.0025H65.4477C67.6161 48.0025 69.3352 46.3925 69.6711 44.32L42.2795 26.9985Z" fill="#F4C859"/>
</svg>
