<svg width="25" height="24" viewBox="0 0 25 24" fill="none" xmlns="http://www.w3.org/2000/svg">
<g clip-path="url(#clip0_1_875)">
<path d="M5.81891 14.5036L4.9835 17.6223L1.93011 17.6869C1.01759 15.9944 0.5 14.0579 0.5 12.0001C0.5 10.0102 0.983938 8.13374 1.84175 6.48145H1.84241L4.56078 6.97982L5.75159 9.68188C5.50236 10.4085 5.36652 11.1885 5.36652 12.0001C5.36661 12.881 5.52617 13.725 5.81891 14.5036Z" fill="#FBBB00"/>
<path d="M24.2902 9.7583C24.428 10.4842 24.4999 11.2339 24.4999 12.0001C24.4999 12.8592 24.4095 13.6972 24.2375 14.5056C23.6533 17.2563 22.1269 19.6583 20.0124 21.3581L20.0118 21.3574L16.5878 21.1827L16.1032 18.1576C17.5063 17.3348 18.6028 16.0471 19.1804 14.5056H12.7637V9.7583H19.274H24.2902Z" fill="#518EF8"/>
<path d="M20.0114 21.3572L20.0121 21.3579C17.9556 23.0109 15.3433 23.9999 12.4996 23.9999C7.92969 23.9999 3.95652 21.4456 1.92969 17.6867L5.81848 14.5034C6.83187 17.208 9.44089 19.1333 12.4996 19.1333C13.8143 19.1333 15.046 18.7779 16.1029 18.1575L20.0114 21.3572Z" fill="#28B446"/>
<path d="M20.1596 2.76262L16.2721 5.94525C15.1783 5.26153 13.8853 4.86656 12.5 4.86656C9.37213 4.86656 6.71431 6.88017 5.75169 9.68175L1.84245 6.48131H1.8418C3.83895 2.63077 7.86223 0 12.5 0C15.4117 0 18.0814 1.03716 20.1596 2.76262Z" fill="#F14336"/>
</g>
<defs>
<clipPath id="clip0_1_875">
<rect width="24" height="24" fill="white" transform="translate(0.5)"/>
</clipPath>
</defs>
</svg>
