<svg width="20" height="20" viewBox="0 0 20 20" fill="none" xmlns="http://www.w3.org/2000/svg">
<g clip-path="url(#clip0_1_3811)">
<path d="M5.36193 0H0.724242C0.404067 0 0.144531 0.259536 0.144531 0.579711V5.2174C0.144531 5.53757 0.404067 5.79711 0.724242 5.79711H5.36193C5.68211 5.79711 5.94164 5.53757 5.94164 5.2174V0.579711C5.94164 0.259536 5.68211 0 5.36193 0Z" fill="#949494"/>
<path d="M12.318 0H7.6803C7.36012 0 7.10059 0.259536 7.10059 0.579711V5.2174C7.10059 5.53757 7.36012 5.79711 7.6803 5.79711H12.318C12.6382 5.79711 12.8977 5.53757 12.8977 5.2174V0.579711C12.8977 0.259536 12.6382 0 12.318 0Z" fill="#949494"/>
<path d="M5.36193 6.95703H0.724242C0.404067 6.95703 0.144531 7.21657 0.144531 7.53674V12.1744C0.144531 12.4946 0.404067 12.7541 0.724242 12.7541H5.36193C5.68211 12.7541 5.94164 12.4946 5.94164 12.1744V7.53674C5.94164 7.21657 5.68211 6.95703 5.36193 6.95703Z" fill="#949494"/>
<path d="M12.318 6.95703H7.6803C7.36012 6.95703 7.10059 7.21657 7.10059 7.53674V12.1744C7.10059 12.4946 7.36012 12.7541 7.6803 12.7541H12.318C12.6382 12.7541 12.8977 12.4946 12.8977 12.1744V7.53674C12.8977 7.21657 12.6382 6.95703 12.318 6.95703Z" fill="#949494"/>
<path d="M19.275 0H14.6373C14.3171 0 14.0576 0.259536 14.0576 0.579711V5.2174C14.0576 5.53757 14.3171 5.79711 14.6373 5.79711H19.275C19.5952 5.79711 19.8547 5.53757 19.8547 5.2174V0.579711C19.8547 0.259536 19.5951 0 19.275 0Z" fill="#949494"/>
<path d="M19.275 6.95703H14.6373C14.3172 6.95703 14.0576 7.21657 14.0576 7.53674V12.1744C14.0576 12.4946 14.3172 12.7541 14.6373 12.7541H19.275C19.5952 12.7541 19.8547 12.4946 19.8547 12.1744V7.53674C19.8547 7.21657 19.5951 6.95703 19.275 6.95703Z" fill="#949494"/>
<path d="M5.36193 14.2029H0.724242C0.404067 14.2029 0.144531 14.4624 0.144531 14.7826V19.4203C0.144531 19.7405 0.404067 20 0.724242 20H5.36193C5.68211 20 5.94164 19.7405 5.94164 19.4203V14.7826C5.94164 14.4624 5.68211 14.2029 5.36193 14.2029Z" fill="#949494"/>
<path d="M12.318 14.2031H7.6803C7.36012 14.2031 7.10059 14.4627 7.10059 14.7828V19.4205C7.10059 19.7407 7.36012 20.0002 7.6803 20.0002H12.318C12.6382 20.0002 12.8977 19.7407 12.8977 19.4205V14.7828C12.8977 14.4627 12.6382 14.2031 12.318 14.2031Z" fill="#949494"/>
<path d="M19.275 14.2029H14.6373C14.3171 14.2029 14.0576 14.4624 14.0576 14.7826V19.4203C14.0576 19.7405 14.3171 20 14.6373 20H19.275C19.5952 20 19.8547 19.7405 19.8547 19.4203V14.7826C19.8547 14.4624 19.5951 14.2029 19.275 14.2029Z" fill="#949494"/>
</g>
<defs>
<clipPath id="clip0_1_3811">
<rect width="20" height="20" fill="white"/>
</clipPath>
</defs>
</svg>
