<svg width="420" height="700" viewBox="0 0 420 700" fill="none" xmlns="http://www.w3.org/2000/svg">
<path fill-rule="evenodd" clip-rule="evenodd" d="M196.356 156.864C258.88 75.6881 239.674 16.9116 222.684 0C283.203 30.2856 342.087 117.048 271.565 237.625C215.701 333.142 218.028 403.031 234.322 461.273C124.922 384.394 118.201 258.334 196.356 156.864ZM305.021 370.741C360.072 292.309 352.665 224.404 334.34 206.111C413.678 250.375 455.102 350.55 382.002 455.385C306.931 563.048 328.232 662.339 352.665 700C204.127 543.912 225.66 483.806 305.021 370.741ZM64.8617 121.145C78.2479 134.95 92.705 179.127 43.4437 245.393C-18.1329 328.226 -20.8101 374.514 78.2479 493.89C60.3996 465.468 52.2413 392.649 99.6658 308.736C147.856 223.467 105.02 155.252 64.8617 121.145Z" fill="#111D62"/>
</svg>
