<svg width="20" height="20" viewBox="0 0 20 20" fill="none" xmlns="http://www.w3.org/2000/svg">
<path d="M19.1667 19.1668H7.5C7 19.1668 6.66667 18.8335 6.66667 18.3335V15.0002C6.66667 14.5002 7 14.1668 7.5 14.1668H19.1667C19.6667 14.1668 20 14.5002 20 15.0002V18.3335C20 18.8335 19.6667 19.1668 19.1667 19.1668ZM4.16667 19.1668H0.833333C0.333333 19.1668 0 18.8335 0 18.3335V15.0002C0 14.5002 0.333333 14.1668 0.833333 14.1668H4.16667C4.66667 14.1668 5 14.5002 5 15.0002V18.3335C5 18.8335 4.66667 19.1668 4.16667 19.1668ZM19.1667 12.5002H7.5C7 12.5002 6.66667 12.1668 6.66667 11.6668V8.3335C6.66667 7.8335 7 7.50016 7.5 7.50016H19.1667C19.6667 7.50016 20 7.8335 20 8.3335V11.6668C20 12.1668 19.6667 12.5002 19.1667 12.5002ZM4.16667 12.5002H0.833333C0.333333 12.5002 0 12.1668 0 11.6668V8.3335C0 7.8335 0.333333 7.50016 0.833333 7.50016H4.16667C4.66667 7.50016 5 7.8335 5 8.3335V11.6668C5 12.1668 4.66667 12.5002 4.16667 12.5002ZM19.1667 5.8335H7.5C7 5.8335 6.66667 5.50016 6.66667 5.00016V1.66683C6.66667 1.16683 7 0.833496 7.5 0.833496H19.1667C19.6667 0.833496 20 1.16683 20 1.66683V5.00016C20 5.50016 19.6667 5.8335 19.1667 5.8335ZM4.16667 5.8335H0.833333C0.333333 5.8335 0 5.50016 0 5.00016V1.66683C0 1.16683 0.333333 0.833496 0.833333 0.833496H4.16667C4.66667 0.833496 5 1.16683 5 1.66683V5.00016C5 5.50016 4.66667 5.8335 4.16667 5.8335Z" fill="#949494"/>
</svg>
