<svg width="15" height="25" viewBox="0 0 15 25" fill="none" xmlns="http://www.w3.org/2000/svg">
<path d="M10.2188 13.2226C12.1896 10.4172 11.9244 7.98828 11.2684 7.33398C14.1087 8.91725 15.5916 12.5004 12.9747 16.2503C10.2872 20.1013 11.0497 23.6528 11.9244 24.9999C6.60681 19.4168 7.3777 17.2668 10.2188 13.2226Z" fill="#DFBD69"/>
<path d="M6.96892 5.61087C9.20725 2.70729 8.5197 0.604913 7.91146 0C10.078 1.08329 12.186 4.18668 9.66137 8.49964C7.66146 11.9162 7.74478 14.4161 8.32809 16.4993C4.41159 13.7494 4.17099 9.24035 6.96892 5.61087Z" fill="#DFBD69"/>
<path d="M1.55527 8.77775C3.31881 6.40748 2.80125 4.8273 2.32203 4.3335C3.7597 5.55349 5.29321 7.99347 3.56801 11.0434C1.87022 14.045 2.16229 16.6496 2.80125 17.6663C-0.744996 13.3963 -0.649151 11.7406 1.55527 8.77775Z" fill="#DFBD69"/>
</svg>
