<svg width="24" height="24" viewBox="0 0 24 24" fill="none" xmlns="http://www.w3.org/2000/svg">
<rect width="24" height="24" fill="#DC3027" fill-opacity="0.05"/>
<path d="M11.7143 16.857C11.6964 16.8094 11.6903 16.7689 11.6963 16.7362C11.7024 16.7036 11.6816 16.6767 11.6339 16.6559C11.5862 16.6351 11.5624 16.6187 11.5624 16.6069C11.5624 16.595 11.5282 16.586 11.4597 16.5802C11.3912 16.5742 11.357 16.5712 11.357 16.5712H11.241H11.1428H8.57137C8.17852 16.5712 7.84218 16.4314 7.56239 16.1514C7.28265 15.8717 7.1428 15.5354 7.1428 15.1427V8.85689C7.1428 8.46404 7.28262 8.12783 7.56239 7.84806C7.84218 7.56827 8.17852 7.42832 8.57137 7.42832H11.4285C11.5059 7.42832 11.5667 7.40912 11.6115 7.37034C11.6561 7.33166 11.6858 7.27358 11.7007 7.19621C11.7156 7.11884 11.7246 7.04898 11.7276 6.98647C11.7305 6.92402 11.7291 6.84508 11.7231 6.74986C11.7172 6.65466 11.7142 6.59515 11.7142 6.57123C11.7142 6.49386 11.6859 6.42703 11.6294 6.37036C11.5728 6.31395 11.5059 6.28564 11.4285 6.28564H8.57137C7.86311 6.28564 7.25741 6.53714 6.75439 7.0401C6.2515 7.54306 6 8.14866 6 8.85698V15.1426C6 15.8509 6.2515 16.4566 6.75439 16.9594C7.25741 17.4626 7.86311 17.7141 8.57137 17.7141H11.4286C11.506 17.7141 11.5669 17.6947 11.6116 17.6561C11.6562 17.6174 11.6859 17.5594 11.7008 17.4819C11.7157 17.4046 11.7247 17.3344 11.7277 17.2722C11.7306 17.2097 11.7292 17.1309 11.7232 17.0357C11.7172 16.9403 11.7143 16.8809 11.7143 16.857Z" fill="#DC3027"/>
<path d="M19.8305 11.5982L14.9734 6.74091C14.8604 6.62796 14.7264 6.57129 14.5717 6.57129C14.4169 6.57129 14.2829 6.62796 14.1698 6.74091C14.0567 6.85403 14.0002 6.98809 14.0002 7.14277V9.7142H10.0002C9.84533 9.7142 9.71145 9.77087 9.59833 9.88382C9.48522 9.99694 9.42871 10.1309 9.42871 10.2857V13.7143C9.42871 13.869 9.48522 14.003 9.59833 14.1161C9.71157 14.229 9.84542 14.2858 10.0002 14.2858H14.0002V16.8572C14.0002 17.0118 14.0567 17.1459 14.1698 17.2589C14.2829 17.3721 14.4169 17.4287 14.5717 17.4287C14.7264 17.4287 14.8604 17.3721 14.9735 17.2589L19.8305 12.4019C19.9436 12.2887 20.0002 12.1549 20.0002 12.0001C20.0002 11.8454 19.9436 11.7113 19.8305 11.5982Z" fill="#DC3027"/>
</svg>
