<svg width="370" height="60" viewBox="0 0 370 60" fill="none" xmlns="http://www.w3.org/2000/svg">
<mask id="path-1-outside-1_1_226" maskUnits="userSpaceOnUse" x="50.8848" y="21.7939" width="304" height="17" fill="black">
<rect fill="white" x="50.8848" y="21.7939" width="304" height="17"/>
<path d="M64.1485 23.2849H66.8919V23.4293C66.4684 23.4421 66.1764 23.532 66.016 23.6988C65.8619 23.8592 65.7849 24.2026 65.7849 24.7288V37.6375L54.4742 25.5952V36.0877C54.4742 36.3444 54.4902 36.5561 54.5223 36.723C54.5544 36.8834 54.6122 37.0054 54.6956 37.0888C54.779 37.1722 54.8657 37.2235 54.9555 37.2428C55.0454 37.2621 55.225 37.2909 55.4946 37.3294V37.4642H52.7704V37.3294C53.1297 37.323 53.3832 37.2749 53.5308 37.185C53.6849 37.0952 53.7779 36.9604 53.81 36.7807C53.8421 36.5946 53.8581 36.277 53.8581 35.8278V26.2305C53.8581 25.4283 53.7458 24.7545 53.5212 24.209C53.2966 23.6571 52.7511 23.3972 51.8848 23.4293V23.2849H54.5512L65.1785 34.6052V24.594C65.1785 24.1063 65.0951 23.7919 64.9282 23.6507C64.7678 23.5031 64.5079 23.4293 64.1485 23.4293V23.2849Z"/>
<path d="M77.3733 30.9377H73.234L71.0874 36.2994C71.0232 36.4599 70.9911 36.5465 70.9911 36.5593C70.9077 36.7262 70.866 36.877 70.866 37.0118C70.866 37.2235 71.0232 37.3294 71.3377 37.3294V37.4642H69.2296V37.3294C69.6082 37.323 69.8841 37.2171 70.0574 37.0118C70.2307 36.8064 70.4039 36.4855 70.5772 36.0492L75.7176 23.0731H75.9582L81.0216 35.6064C81.0216 35.6577 81.0408 35.7122 81.0793 35.77L81.1564 35.9818C81.3168 36.3797 81.4997 36.7037 81.705 36.954C81.9168 37.2043 82.2152 37.3294 82.6003 37.3294V37.4642H79.2889V37.3294C79.475 37.3294 79.5969 37.2877 79.6547 37.2043C79.7124 37.1209 79.7413 37.0439 79.7413 36.9733C79.7413 36.7936 79.6675 36.5369 79.5199 36.2032C79.5071 36.1775 79.491 36.139 79.4718 36.0877C79.4525 36.0299 79.4365 35.9946 79.4236 35.9818L77.3733 30.9377ZM73.3688 30.543H77.2L75.2844 25.7107L73.3688 30.543Z"/>
<path d="M95.4593 22.7939L94.7854 24.5074H94.6507C94.6764 24.424 94.6892 24.286 94.6892 24.0935C94.6892 23.933 94.6314 23.8368 94.5159 23.8047C94.4068 23.7662 94.2432 23.7469 94.025 23.7469H90.3189V35.8855C90.3189 36.1615 90.3317 36.3957 90.3574 36.5882C90.3831 36.7743 90.4312 36.9251 90.5018 37.0407C90.5724 37.1497 90.6751 37.2268 90.8098 37.2717C90.9446 37.3102 91.1532 37.3294 91.4355 37.3294V37.4642H87.5947V37.3294C87.9156 37.2974 88.1466 37.2524 88.2878 37.1947C88.4354 37.1369 88.5381 37.031 88.5958 36.877C88.6536 36.7166 88.6825 36.4535 88.6825 36.0877V23.7469H85.1304C84.7775 23.7469 84.5432 23.7662 84.4277 23.8047C84.3186 23.8432 84.2641 23.9491 84.2641 24.1224C84.2641 24.1929 84.2897 24.3213 84.3411 24.5074H84.2063L83.5325 22.7939H83.6672C83.7892 23.025 83.9143 23.1694 84.0427 23.2271C84.1518 23.2656 84.3828 23.2849 84.7357 23.2849H94.1597C94.5384 23.2849 94.8047 23.2624 94.9587 23.2175C95.1192 23.1726 95.2411 23.0314 95.3245 22.7939H95.4593Z"/>
<path d="M111.004 37.4642H108.328V35.2791C106.967 36.8 105.337 37.5605 103.438 37.5605C102.815 37.5605 102.235 37.477 101.695 37.3102C101.156 37.1433 100.672 36.8802 100.242 36.5208C99.8184 36.1615 99.4815 35.693 99.2312 35.1154C98.9809 34.5314 98.8558 33.8608 98.8558 33.1036V24.6133C98.8558 24.2603 98.8333 24.0036 98.7884 23.8432C98.7435 23.6828 98.644 23.5737 98.49 23.5159C98.336 23.4517 98.1113 23.4229 97.8161 23.4293V23.2849H101.58V23.4293C101.214 23.4293 100.941 23.4902 100.762 23.6122C100.582 23.7277 100.492 24.0261 100.492 24.5074V32.295C100.492 33.2255 100.605 33.9763 100.829 34.5475C101.054 35.1058 101.359 35.555 101.744 35.8951C102.135 36.2353 102.549 36.4759 102.985 36.6171C103.422 36.7583 103.842 36.8289 104.246 36.8289C105.78 36.8289 107.141 36.139 108.328 34.7593V25.162C108.328 24.6807 108.305 24.3277 108.261 24.1031C108.222 23.8721 108.139 23.702 108.01 23.5929C107.882 23.4838 107.683 23.4293 107.413 23.4293H107.279V23.2849H111.004V23.4293C110.625 23.4421 110.356 23.4999 110.195 23.6025C110.035 23.6988 109.955 23.9619 109.955 24.3919V35.9433C109.955 36.3091 109.971 36.5818 110.003 36.7615C110.035 36.9412 110.128 37.0824 110.282 37.185C110.442 37.2877 110.683 37.3359 111.004 37.3294V37.4642Z"/>
<path d="M114.16 23.4293V23.2849H118.184C119.063 23.2849 119.698 23.3009 120.09 23.333C120.487 23.3587 120.856 23.4293 121.197 23.5448C121.819 23.7309 122.316 24.071 122.689 24.5652C123.061 25.0529 123.247 25.6722 123.247 26.423C123.247 26.9428 123.131 27.4434 122.9 27.9247C122.676 28.406 122.374 28.8328 121.995 29.205C121.617 29.5772 121.206 29.8852 120.763 30.1291L121.764 31.6693L121.851 31.804C121.973 32.0286 122.365 32.6094 123.025 33.5464C123.693 34.4769 124.293 35.2502 124.826 35.8663C125.069 36.1422 125.397 36.4021 125.807 36.646C126.218 36.8898 126.674 37.0118 127.174 37.0118C127.534 37.0118 127.855 36.9444 128.137 36.8096C128.227 36.7711 128.336 36.7166 128.464 36.646C128.593 36.5754 128.708 36.5144 128.811 36.4631L128.869 36.6556C128.522 36.9251 128.159 37.1369 127.781 37.2909C127.575 37.3679 127.293 37.4385 126.934 37.5027C126.581 37.5669 126.225 37.599 125.865 37.599C125.57 37.599 125.272 37.5637 124.97 37.4931C124.675 37.4225 124.36 37.2845 124.027 37.0792C123.693 36.8674 123.382 36.5818 123.093 36.2224C122.348 35.3176 121.546 34.2202 120.686 32.9303C120.686 32.9174 120.68 32.8982 120.667 32.8725C120.654 32.8469 120.648 32.834 120.648 32.834L119.223 30.6393L118.694 30.6585C118.617 30.6713 118.373 30.6778 117.962 30.6778H116.817V36.1069C116.817 36.4599 116.852 36.723 116.923 36.8963C116.993 37.0695 117.093 37.1818 117.221 37.2332C117.349 37.2845 117.551 37.3166 117.827 37.3294V37.4642H114.16V37.3294C114.609 37.3102 114.891 37.2203 115.007 37.0599C115.122 36.8931 115.18 36.5337 115.18 35.9818V24.7095C115.18 24.3245 115.142 24.0421 115.065 23.8624C114.994 23.6828 114.895 23.5705 114.766 23.5255C114.638 23.4742 114.436 23.4421 114.16 23.4293ZM116.817 23.6603V30.312H118.299C118.588 30.312 118.941 30.2767 119.358 30.2061C119.781 30.1291 120.099 30.0328 120.311 29.9173C120.715 29.6927 121.055 29.3654 121.331 28.9354C121.607 28.499 121.745 27.9568 121.745 27.3086C121.745 27.0262 121.707 26.715 121.63 26.3749C121.553 26.0283 121.434 25.701 121.274 25.393C121.12 25.085 120.917 24.8058 120.667 24.5555C120.365 24.2539 120.006 24.0293 119.589 23.8817C119.178 23.7341 118.642 23.6603 117.981 23.6603H116.817Z"/>
<path d="M152.546 37.3294V37.4642H146.828C146.314 37.4642 145.836 37.445 145.394 37.4064C144.957 37.3679 144.453 37.2653 143.882 37.0984C143.311 36.9251 142.756 36.6652 142.217 36.3187C141.1 35.6192 140.208 34.7272 139.541 33.6426C138.88 32.5581 138.549 31.4254 138.549 30.2446C138.549 29.4424 138.726 28.6178 139.079 27.7707C139.438 26.9236 139.964 26.1438 140.658 25.4315C141.351 24.7192 142.198 24.148 143.199 23.7181C144.206 23.2881 145.323 23.0731 146.549 23.0731C147.961 23.0731 149.433 23.3811 150.967 23.9972L151.554 25.6337H151.42C150.919 24.9983 150.232 24.4753 149.36 24.0646C148.493 23.6539 147.55 23.4485 146.529 23.4485C145.567 23.4485 144.691 23.6443 143.902 24.0357C143.112 24.4272 142.451 24.9598 141.919 25.6337C141.386 26.3075 140.978 27.0808 140.696 27.9536C140.42 28.8199 140.282 29.7151 140.282 30.6393C140.282 32.1345 140.581 33.3314 141.177 34.2298C141.774 35.1218 142.435 35.7732 143.16 36.1839C143.796 36.5433 144.505 36.784 145.288 36.9059C146.077 37.0278 146.709 37.0888 147.184 37.0888L147.945 37.0695C148.516 37.0567 148.93 37.0278 149.186 36.9829C149.449 36.9316 149.629 36.8225 149.725 36.6556C149.828 36.4888 149.879 36.2192 149.879 35.847V33.7004C149.879 33.2832 149.796 33.0041 149.629 32.8629C149.462 32.7217 149.212 32.6575 148.878 32.6704V32.5356H152.546V32.6704C152.103 32.6768 151.821 32.7698 151.699 32.9495C151.577 33.1292 151.516 33.4244 151.516 33.8351V36.0684C151.516 36.5176 151.574 36.8417 151.689 37.0407C151.811 37.2332 152.029 37.3294 152.344 37.3294H152.546Z"/>
<path d="M154.691 37.4642V37.3294C155.147 37.3294 155.435 37.246 155.557 37.0792C155.686 36.9123 155.75 36.6267 155.75 36.2224V24.6133C155.75 24.1063 155.676 23.7854 155.528 23.6507C155.387 23.5159 155.102 23.4421 154.672 23.4293V23.2849H158.474V23.4293C158.134 23.4229 157.884 23.471 157.723 23.5737C157.563 23.6699 157.466 23.8015 157.434 23.9683C157.402 24.1352 157.386 24.3823 157.386 24.7095V34.663C157.386 35.1058 157.438 35.4748 157.54 35.77C157.643 36.0588 157.8 36.293 158.012 36.4727C158.23 36.6524 158.513 36.784 158.859 36.8674C159.212 36.9508 159.629 36.9925 160.11 36.9925H161.843C162.472 36.9925 162.963 36.8834 163.316 36.6652C163.669 36.447 163.916 36.1294 164.057 35.7122C164.205 35.2887 164.295 34.7368 164.327 34.0565H164.461V37.4642H154.691Z"/>
<path d="M182.085 29.4167C182.085 30.5013 181.909 31.5441 181.556 32.5452C181.203 33.5464 180.677 34.4352 179.977 35.2117C179.284 35.9882 178.434 36.5946 177.426 37.031C176.419 37.4674 175.299 37.6856 174.067 37.6856C173.072 37.6856 172.161 37.5155 171.333 37.1754C170.512 36.8289 169.799 36.3476 169.196 35.7315C168.599 35.109 168.144 34.4063 167.829 33.6234C167.521 32.834 167.367 32.0062 167.367 31.1398C167.367 30.2285 167.534 29.298 167.868 28.3482C168.201 27.392 168.699 26.5193 169.36 25.7299C170.021 24.9342 170.855 24.2924 171.862 23.8047C172.87 23.317 174.019 23.0731 175.309 23.0731C176.329 23.0731 177.253 23.2367 178.081 23.564C178.915 23.8849 179.634 24.3405 180.237 24.931C180.84 25.5149 181.299 26.192 181.614 26.9621C181.928 27.7257 182.085 28.544 182.085 29.4167ZM181.2 31.1591C181.2 30.0553 180.969 29.0477 180.507 28.1365C180.045 27.2252 179.445 26.4519 178.707 25.8166C177.975 25.1748 177.186 24.6839 176.339 24.3438C175.491 23.9972 174.709 23.8239 173.99 23.8239C173.104 23.8239 172.231 24.0582 171.372 24.5267C170.512 24.9887 169.809 25.6465 169.263 26.5C168.718 27.3471 168.445 28.3001 168.445 29.359C168.445 30.6617 168.763 31.8971 169.398 33.0651C170.04 34.2266 170.884 35.1636 171.93 35.8759C172.976 36.5818 174.083 36.9348 175.251 36.9348C175.995 36.9348 176.73 36.784 177.455 36.4823C178.18 36.1807 178.819 35.7732 179.371 35.2598C179.923 34.74 180.366 34.1239 180.699 33.4116C181.033 32.6928 181.2 31.942 181.2 31.1591Z"/>
<path d="M185.135 23.4293V23.2849H188.822C189.65 23.2849 190.289 23.3105 190.738 23.3619C191.187 23.4132 191.588 23.5191 191.941 23.6796C192.544 23.9619 193.019 24.363 193.366 24.8828C193.712 25.3962 193.886 25.9898 193.886 26.6637C193.886 27.8701 193.295 28.8167 192.114 29.5034C192.968 29.6574 193.626 29.959 194.088 30.4082C194.832 31.1142 195.204 32.0479 195.204 33.2094C195.204 34.0758 195.018 34.8298 194.646 35.4716C194.274 36.1069 193.837 36.5882 193.337 36.9155C193.125 37.0503 192.91 37.153 192.692 37.2235C192.48 37.2941 192.249 37.3487 191.999 37.3872C191.755 37.4193 191.534 37.4417 191.335 37.4546C191.136 37.461 190.889 37.4642 190.593 37.4642H185.116V37.3294C185.45 37.3294 185.687 37.2813 185.828 37.185C185.97 37.0888 186.056 36.9412 186.088 36.7422C186.12 36.5369 186.136 36.1936 186.136 35.7122V25.0272C186.136 24.5395 186.12 24.1994 186.088 24.0068C186.063 23.8143 185.979 23.6731 185.838 23.5833C185.697 23.487 185.463 23.4357 185.135 23.4293ZM187.773 23.5833V29.8114H189.496C190.664 29.8114 191.437 29.4809 191.816 28.8199C192.201 28.1525 192.393 27.4851 192.393 26.8177C192.393 25.4379 191.835 24.4914 190.719 23.978C190.135 23.7148 189.278 23.5833 188.148 23.5833H187.773ZM188.88 30.1098H187.773V34.6052C187.773 35.0545 187.789 35.4074 187.821 35.6641C187.86 35.9208 187.969 36.1615 188.148 36.3861C188.328 36.6107 188.614 36.784 189.005 36.9059C189.403 37.0278 189.945 37.0888 190.632 37.0888C191.44 37.0888 192.066 36.9572 192.509 36.6941C193.273 36.2385 193.655 35.3593 193.655 34.0565C193.655 33.3955 193.565 32.7987 193.385 32.2661C193.205 31.7334 192.945 31.2874 192.605 30.928C192.272 30.5687 191.864 30.3408 191.383 30.2446C190.927 30.1547 190.093 30.1098 188.88 30.1098Z"/>
<path d="M205.638 30.9377H201.498L199.352 36.2994C199.287 36.4599 199.255 36.5465 199.255 36.5593C199.172 36.7262 199.13 36.877 199.13 37.0118C199.13 37.2235 199.287 37.3294 199.602 37.3294V37.4642H197.494V37.3294C197.872 37.323 198.148 37.2171 198.322 37.0118C198.495 36.8064 198.668 36.4855 198.841 36.0492L203.982 23.0731H204.222L209.286 35.6064C209.286 35.6577 209.305 35.7122 209.344 35.77L209.421 35.9818C209.581 36.3797 209.764 36.7037 209.969 36.954C210.181 37.2043 210.479 37.3294 210.865 37.3294V37.4642H207.553V37.3294C207.739 37.3294 207.861 37.2877 207.919 37.2043C207.977 37.1209 208.006 37.0439 208.006 36.9733C208.006 36.7936 207.932 36.5369 207.784 36.2032C207.771 36.1775 207.755 36.139 207.736 36.0877C207.717 36.0299 207.701 35.9946 207.688 35.9818L205.638 30.9377ZM201.633 30.543H205.464L203.549 25.7107L201.633 30.543Z"/>
<path d="M212.788 37.4642V37.3294C213.244 37.3294 213.533 37.246 213.655 37.0792C213.783 36.9123 213.847 36.6267 213.847 36.2224V24.6133C213.847 24.1063 213.773 23.7854 213.626 23.6507C213.485 23.5159 213.199 23.4421 212.769 23.4293V23.2849H216.571V23.4293C216.231 23.4229 215.981 23.471 215.82 23.5737C215.66 23.6699 215.564 23.8015 215.532 23.9683C215.5 24.1352 215.484 24.3823 215.484 24.7095V34.663C215.484 35.1058 215.535 35.4748 215.638 35.77C215.74 36.0588 215.897 36.293 216.109 36.4727C216.327 36.6524 216.61 36.784 216.956 36.8674C217.309 36.9508 217.726 36.9925 218.208 36.9925H219.94C220.569 36.9925 221.06 36.8834 221.413 36.6652C221.766 36.447 222.013 36.1294 222.154 35.7122C222.302 35.2887 222.392 34.7368 222.424 34.0565H222.559V37.4642H212.788Z"/>
<path d="M239.69 23.4678L240.364 25.239L240.249 25.2582C240.242 25.2454 240.194 25.1941 240.104 25.1042C239.886 24.8475 239.636 24.6005 239.353 24.363C239.077 24.1256 238.737 23.9266 238.333 23.7662C237.929 23.6058 237.463 23.5255 236.937 23.5255C236.276 23.5255 235.705 23.6603 235.224 23.9298C234.742 24.1994 234.38 24.5555 234.136 24.9983C233.899 25.4347 233.78 25.8904 233.78 26.3652C233.78 26.8081 233.866 27.1867 234.04 27.5011C234.219 27.8092 234.45 28.0627 234.733 28.2616C235.015 28.4541 235.391 28.637 235.859 28.8103C236.327 28.9771 236.687 29.1023 236.937 29.1857C237.624 29.3975 238.259 29.6446 238.843 29.9269C239.434 30.2029 239.963 30.6328 240.431 31.2168C240.9 31.7944 241.134 32.5356 241.134 33.4405C241.134 34.2812 240.926 35.0192 240.508 35.6545C240.091 36.2834 239.572 36.7551 238.949 37.0695C238.699 37.185 238.269 37.2813 237.659 37.3583C237.056 37.4289 236.636 37.4642 236.398 37.4642H232.615V33.3442H232.759C232.772 33.9539 232.83 34.4705 232.933 34.894C233.042 35.3112 233.241 35.6834 233.529 36.0107C233.818 36.3315 234.216 36.5786 234.723 36.7519C235.237 36.9251 235.881 37.0118 236.658 37.0118C237.402 37.0118 238.022 36.9059 238.516 36.6941C239.016 36.4823 239.401 36.216 239.671 35.8951C239.941 35.5743 240.12 35.2598 240.21 34.9518C240.3 34.6373 240.345 34.3517 240.345 34.095C240.345 33.5175 240.184 33.033 239.864 32.6415C239.543 32.2436 239.151 31.9324 238.689 31.7078C238.233 31.4832 237.608 31.2329 236.812 30.9569C236.003 30.681 235.432 30.4596 235.099 30.2927C234.771 30.1259 234.476 29.9205 234.213 29.6766C233.86 29.3301 233.578 28.9258 233.366 28.4637C233.154 27.9953 233.048 27.4915 233.048 26.9524C233.048 26.2529 233.209 25.6112 233.529 25.0272C233.857 24.4368 234.332 23.9651 234.954 23.6122C235.577 23.2528 236.308 23.0731 237.149 23.0731C237.836 23.0731 238.631 23.1918 239.536 23.4293C239.555 23.4293 239.584 23.4357 239.623 23.4485C239.661 23.4614 239.684 23.4678 239.69 23.4678Z"/>
<path d="M258.527 29.4167C258.527 30.5013 258.351 31.5441 257.998 32.5452C257.645 33.5464 257.118 34.4352 256.419 35.2117C255.726 35.9882 254.876 36.5946 253.868 37.031C252.86 37.4674 251.741 37.6856 250.508 37.6856C249.514 37.6856 248.603 37.5155 247.775 37.1754C246.953 36.8289 246.241 36.3476 245.638 35.7315C245.041 35.109 244.585 34.4063 244.271 33.6234C243.963 32.834 243.809 32.0062 243.809 31.1398C243.809 30.2285 243.976 29.298 244.309 28.3482C244.643 27.392 245.14 26.5193 245.801 25.7299C246.462 24.9342 247.297 24.2924 248.304 23.8047C249.312 23.317 250.46 23.0731 251.75 23.0731C252.771 23.0731 253.695 23.2367 254.523 23.564C255.357 23.8849 256.076 24.3405 256.679 24.931C257.282 25.5149 257.741 26.192 258.055 26.9621C258.37 27.7257 258.527 28.544 258.527 29.4167ZM257.641 31.1591C257.641 30.0553 257.41 29.0477 256.948 28.1365C256.486 27.2252 255.886 26.4519 255.148 25.8166C254.417 25.1748 253.627 24.6839 252.78 24.3438C251.933 23.9972 251.15 23.8239 250.431 23.8239C249.546 23.8239 248.673 24.0582 247.813 24.5267C246.953 24.9887 246.251 25.6465 245.705 26.5C245.16 27.3471 244.887 28.3001 244.887 29.359C244.887 30.6617 245.204 31.8971 245.84 33.0651C246.482 34.2266 247.325 35.1636 248.371 35.8759C249.418 36.5818 250.525 36.9348 251.693 36.9348C252.437 36.9348 253.172 36.784 253.897 36.4823C254.622 36.1807 255.261 35.7732 255.812 35.2598C256.364 34.74 256.807 34.1239 257.141 33.4116C257.475 32.6928 257.641 31.942 257.641 31.1591Z"/>
<path d="M261.009 37.4642V37.3294C261.465 37.3294 261.754 37.246 261.875 37.0792C262.004 36.9123 262.068 36.6267 262.068 36.2224V24.6133C262.068 24.1063 261.994 23.7854 261.847 23.6507C261.705 23.5159 261.42 23.4421 260.99 23.4293V23.2849H264.792V23.4293C264.452 23.4229 264.202 23.471 264.041 23.5737C263.881 23.6699 263.785 23.8015 263.753 23.9683C263.72 24.1352 263.704 24.3823 263.704 24.7095V34.663C263.704 35.1058 263.756 35.4748 263.858 35.77C263.961 36.0588 264.118 36.293 264.33 36.4727C264.548 36.6524 264.831 36.784 265.177 36.8674C265.53 36.9508 265.947 36.9925 266.429 36.9925H268.161C268.79 36.9925 269.281 36.8834 269.634 36.6652C269.987 36.447 270.234 36.1294 270.375 35.7122C270.523 35.2887 270.613 34.7368 270.645 34.0565H270.78V37.4642H261.009Z"/>
<path d="M287.008 37.4642H284.332V35.2791C282.971 36.8 281.341 37.5605 279.442 37.5605C278.819 37.5605 278.238 37.477 277.699 37.3102C277.16 37.1433 276.676 36.8802 276.246 36.5208C275.822 36.1615 275.485 35.693 275.235 35.1154C274.985 34.5314 274.86 33.8608 274.86 33.1036V24.6133C274.86 24.2603 274.837 24.0036 274.792 23.8432C274.747 23.6828 274.648 23.5737 274.494 23.5159C274.34 23.4517 274.115 23.4229 273.82 23.4293V23.2849H277.584V23.4293C277.218 23.4293 276.945 23.4902 276.766 23.6122C276.586 23.7277 276.496 24.0261 276.496 24.5074V32.295C276.496 33.2255 276.608 33.9763 276.833 34.5475C277.058 35.1058 277.362 35.555 277.747 35.8951C278.139 36.2353 278.553 36.4759 278.989 36.6171C279.426 36.7583 279.846 36.8289 280.25 36.8289C281.784 36.8289 283.144 36.139 284.332 34.7593V25.162C284.332 24.6807 284.309 24.3277 284.264 24.1031C284.226 23.8721 284.142 23.702 284.014 23.5929C283.886 23.4838 283.687 23.4293 283.417 23.4293H283.282V23.2849H287.008V23.4293C286.629 23.4421 286.36 23.4999 286.199 23.6025C286.039 23.6988 285.959 23.9619 285.959 24.3919V35.9433C285.959 36.3091 285.975 36.5818 286.007 36.7615C286.039 36.9412 286.132 37.0824 286.286 37.185C286.446 37.2877 286.687 37.3359 287.008 37.3294V37.4642Z"/>
<path d="M301.32 22.7939L300.646 24.5074H300.512C300.537 24.424 300.55 24.286 300.55 24.0935C300.55 23.933 300.492 23.8368 300.377 23.8047C300.268 23.7662 300.104 23.7469 299.886 23.7469H296.18V35.8855C296.18 36.1615 296.193 36.3957 296.218 36.5882C296.244 36.7743 296.292 36.9251 296.363 37.0407C296.433 37.1497 296.536 37.2268 296.671 37.2717C296.806 37.3102 297.014 37.3294 297.297 37.3294V37.4642H293.456V37.3294C293.777 37.2974 294.008 37.2524 294.149 37.1947C294.296 37.1369 294.399 37.031 294.457 36.877C294.515 36.7166 294.544 36.4535 294.544 36.0877V23.7469H290.991C290.638 23.7469 290.404 23.7662 290.289 23.8047C290.18 23.8432 290.125 23.9491 290.125 24.1224C290.125 24.1929 290.151 24.3213 290.202 24.5074H290.067L289.394 22.7939H289.528C289.65 23.025 289.775 23.1694 289.904 23.2271C290.013 23.2656 290.244 23.2849 290.597 23.2849H300.021C300.399 23.2849 300.666 23.2624 300.82 23.2175C300.98 23.1726 301.102 23.0314 301.186 22.7939H301.32Z"/>
<path d="M307.345 23.2849V23.4293C307.127 23.41 306.892 23.4485 306.642 23.5448C306.398 23.6346 306.276 23.8464 306.276 24.1801C306.263 24.2571 306.257 24.4978 306.257 24.9021V35.7893C306.257 36.2385 306.273 36.5626 306.305 36.7615C306.337 36.954 306.43 37.0984 306.584 37.1947C306.745 37.2909 306.998 37.3359 307.345 37.3294V37.4642H303.562V37.3294C303.902 37.3166 304.142 37.2717 304.284 37.1947C304.431 37.1112 304.524 36.9765 304.563 36.7904C304.601 36.6043 304.621 36.277 304.621 35.8085V25.0272C304.621 24.5972 304.605 24.2764 304.572 24.0646C304.54 23.8528 304.447 23.6892 304.293 23.5737C304.139 23.4581 303.895 23.41 303.562 23.4293V23.2849H307.345Z"/>
<path d="M324.959 29.4167C324.959 30.5013 324.783 31.5441 324.43 32.5452C324.077 33.5464 323.55 34.4352 322.851 35.2117C322.158 35.9882 321.308 36.5946 320.3 37.031C319.292 37.4674 318.173 37.6856 316.94 37.6856C315.946 37.6856 315.035 37.5155 314.207 37.1754C313.385 36.8289 312.673 36.3476 312.07 35.7315C311.473 35.109 311.017 34.4063 310.703 33.6234C310.395 32.834 310.241 32.0062 310.241 31.1398C310.241 30.2285 310.408 29.298 310.741 28.3482C311.075 27.392 311.572 26.5193 312.233 25.7299C312.894 24.9342 313.729 24.2924 314.736 23.8047C315.744 23.317 316.892 23.0731 318.182 23.0731C319.203 23.0731 320.127 23.2367 320.955 23.564C321.789 23.8849 322.508 24.3405 323.111 24.931C323.714 25.5149 324.173 26.192 324.487 26.9621C324.802 27.7257 324.959 28.544 324.959 29.4167ZM324.073 31.1591C324.073 30.0553 323.842 29.0477 323.38 28.1365C322.918 27.2252 322.318 26.4519 321.58 25.8166C320.849 25.1748 320.059 24.6839 319.212 24.3438C318.365 23.9972 317.582 23.8239 316.863 23.8239C315.978 23.8239 315.105 24.0582 314.245 24.5267C313.385 24.9887 312.683 25.6465 312.137 26.5C311.592 27.3471 311.319 28.3001 311.319 29.359C311.319 30.6617 311.636 31.8971 312.272 33.0651C312.914 34.2266 313.757 35.1636 314.803 35.8759C315.85 36.5818 316.957 36.9348 318.125 36.9348C318.869 36.9348 319.604 36.784 320.329 36.4823C321.054 36.1807 321.693 35.7732 322.245 35.2598C322.796 34.74 323.239 34.1239 323.573 33.4116C323.907 32.6928 324.073 31.942 324.073 31.1591Z"/>
<path d="M339.599 23.2849H342.342V23.4293C341.919 23.4421 341.627 23.532 341.466 23.6988C341.312 23.8592 341.235 24.2026 341.235 24.7288V37.6375L329.925 25.5952V36.0877C329.925 36.3444 329.941 36.5561 329.973 36.723C330.005 36.8834 330.063 37.0054 330.146 37.0888C330.229 37.1722 330.316 37.2235 330.406 37.2428C330.496 37.2621 330.675 37.2909 330.945 37.3294V37.4642H328.221V37.3294C328.58 37.323 328.834 37.2749 328.981 37.185C329.135 37.0952 329.228 36.9604 329.26 36.7807C329.293 36.5946 329.309 36.277 329.309 35.8278V26.2305C329.309 25.4283 329.196 24.7545 328.972 24.209C328.747 23.6571 328.202 23.3972 327.335 23.4293V23.2849H330.002L340.629 34.6052V24.594C340.629 24.1063 340.545 23.7919 340.379 23.6507C340.218 23.5031 339.958 23.4293 339.599 23.4293V23.2849Z"/>
<path d="M352.15 23.4678L352.824 25.239L352.708 25.2582C352.702 25.2454 352.654 25.1941 352.564 25.1042C352.346 24.8475 352.095 24.6005 351.813 24.363C351.537 24.1256 351.197 23.9266 350.793 23.7662C350.388 23.6058 349.923 23.5255 349.397 23.5255C348.736 23.5255 348.165 23.6603 347.683 23.9298C347.202 24.1994 346.839 24.5555 346.596 24.9983C346.358 25.4347 346.239 25.8904 346.239 26.3652C346.239 26.8081 346.326 27.1867 346.499 27.5011C346.679 27.8092 346.91 28.0627 347.192 28.2616C347.475 28.4541 347.85 28.637 348.319 28.8103C348.787 28.9771 349.147 29.1023 349.397 29.1857C350.083 29.3975 350.719 29.6446 351.303 29.9269C351.893 30.2029 352.423 30.6328 352.891 31.2168C353.36 31.7944 353.594 32.5356 353.594 33.4405C353.594 34.2812 353.385 35.0192 352.968 35.6545C352.551 36.2834 352.031 36.7551 351.409 37.0695C351.158 37.185 350.728 37.2813 350.119 37.3583C349.516 37.4289 349.095 37.4642 348.858 37.4642H345.075V33.3442H345.219C345.232 33.9539 345.29 34.4705 345.392 34.894C345.501 35.3112 345.7 35.6834 345.989 36.0107C346.278 36.3315 346.676 36.5786 347.183 36.7519C347.696 36.9251 348.341 37.0118 349.118 37.0118C349.862 37.0118 350.481 36.9059 350.975 36.6941C351.476 36.4823 351.861 36.216 352.131 35.8951C352.4 35.5743 352.58 35.2598 352.67 34.9518C352.76 34.6373 352.804 34.3517 352.804 34.095C352.804 33.5175 352.644 33.033 352.323 32.6415C352.002 32.2436 351.611 31.9324 351.149 31.7078C350.693 31.4832 350.067 31.2329 349.272 30.9569C348.463 30.681 347.892 30.4596 347.558 30.2927C347.231 30.1259 346.936 29.9205 346.673 29.6766C346.32 29.3301 346.037 28.9258 345.826 28.4637C345.614 27.9953 345.508 27.4915 345.508 26.9524C345.508 26.2529 345.668 25.6112 345.989 25.0272C346.316 24.4368 346.791 23.9651 347.414 23.6122C348.036 23.2528 348.768 23.0731 349.609 23.0731C350.295 23.0731 351.091 23.1918 351.996 23.4293C352.015 23.4293 352.044 23.4357 352.082 23.4485C352.121 23.4614 352.143 23.4678 352.15 23.4678Z"/>
</mask>
<path d="M64.1485 23.2849H66.8919V23.4293C66.4684 23.4421 66.1764 23.532 66.016 23.6988C65.8619 23.8592 65.7849 24.2026 65.7849 24.7288V37.6375L54.4742 25.5952V36.0877C54.4742 36.3444 54.4902 36.5561 54.5223 36.723C54.5544 36.8834 54.6122 37.0054 54.6956 37.0888C54.779 37.1722 54.8657 37.2235 54.9555 37.2428C55.0454 37.2621 55.225 37.2909 55.4946 37.3294V37.4642H52.7704V37.3294C53.1297 37.323 53.3832 37.2749 53.5308 37.185C53.6849 37.0952 53.7779 36.9604 53.81 36.7807C53.8421 36.5946 53.8581 36.277 53.8581 35.8278V26.2305C53.8581 25.4283 53.7458 24.7545 53.5212 24.209C53.2966 23.6571 52.7511 23.3972 51.8848 23.4293V23.2849H54.5512L65.1785 34.6052V24.594C65.1785 24.1063 65.0951 23.7919 64.9282 23.6507C64.7678 23.5031 64.5079 23.4293 64.1485 23.4293V23.2849Z" fill="white"/>
<path d="M77.3733 30.9377H73.234L71.0874 36.2994C71.0232 36.4599 70.9911 36.5465 70.9911 36.5593C70.9077 36.7262 70.866 36.877 70.866 37.0118C70.866 37.2235 71.0232 37.3294 71.3377 37.3294V37.4642H69.2296V37.3294C69.6082 37.323 69.8841 37.2171 70.0574 37.0118C70.2307 36.8064 70.4039 36.4855 70.5772 36.0492L75.7176 23.0731H75.9582L81.0216 35.6064C81.0216 35.6577 81.0408 35.7122 81.0793 35.77L81.1564 35.9818C81.3168 36.3797 81.4997 36.7037 81.705 36.954C81.9168 37.2043 82.2152 37.3294 82.6003 37.3294V37.4642H79.2889V37.3294C79.475 37.3294 79.5969 37.2877 79.6547 37.2043C79.7124 37.1209 79.7413 37.0439 79.7413 36.9733C79.7413 36.7936 79.6675 36.5369 79.5199 36.2032C79.5071 36.1775 79.491 36.139 79.4718 36.0877C79.4525 36.0299 79.4365 35.9946 79.4236 35.9818L77.3733 30.9377ZM73.3688 30.543H77.2L75.2844 25.7107L73.3688 30.543Z" fill="white"/>
<path d="M95.4593 22.7939L94.7854 24.5074H94.6507C94.6764 24.424 94.6892 24.286 94.6892 24.0935C94.6892 23.933 94.6314 23.8368 94.5159 23.8047C94.4068 23.7662 94.2432 23.7469 94.025 23.7469H90.3189V35.8855C90.3189 36.1615 90.3317 36.3957 90.3574 36.5882C90.3831 36.7743 90.4312 36.9251 90.5018 37.0407C90.5724 37.1497 90.6751 37.2268 90.8098 37.2717C90.9446 37.3102 91.1532 37.3294 91.4355 37.3294V37.4642H87.5947V37.3294C87.9156 37.2974 88.1466 37.2524 88.2878 37.1947C88.4354 37.1369 88.5381 37.031 88.5958 36.877C88.6536 36.7166 88.6825 36.4535 88.6825 36.0877V23.7469H85.1304C84.7775 23.7469 84.5432 23.7662 84.4277 23.8047C84.3186 23.8432 84.2641 23.9491 84.2641 24.1224C84.2641 24.1929 84.2897 24.3213 84.3411 24.5074H84.2063L83.5325 22.7939H83.6672C83.7892 23.025 83.9143 23.1694 84.0427 23.2271C84.1518 23.2656 84.3828 23.2849 84.7357 23.2849H94.1597C94.5384 23.2849 94.8047 23.2624 94.9587 23.2175C95.1192 23.1726 95.2411 23.0314 95.3245 22.7939H95.4593Z" fill="white"/>
<path d="M111.004 37.4642H108.328V35.2791C106.967 36.8 105.337 37.5605 103.438 37.5605C102.815 37.5605 102.235 37.477 101.695 37.3102C101.156 37.1433 100.672 36.8802 100.242 36.5208C99.8184 36.1615 99.4815 35.693 99.2312 35.1154C98.9809 34.5314 98.8558 33.8608 98.8558 33.1036V24.6133C98.8558 24.2603 98.8333 24.0036 98.7884 23.8432C98.7435 23.6828 98.644 23.5737 98.49 23.5159C98.336 23.4517 98.1113 23.4229 97.8161 23.4293V23.2849H101.58V23.4293C101.214 23.4293 100.941 23.4902 100.762 23.6122C100.582 23.7277 100.492 24.0261 100.492 24.5074V32.295C100.492 33.2255 100.605 33.9763 100.829 34.5475C101.054 35.1058 101.359 35.555 101.744 35.8951C102.135 36.2353 102.549 36.4759 102.985 36.6171C103.422 36.7583 103.842 36.8289 104.246 36.8289C105.78 36.8289 107.141 36.139 108.328 34.7593V25.162C108.328 24.6807 108.305 24.3277 108.261 24.1031C108.222 23.8721 108.139 23.702 108.01 23.5929C107.882 23.4838 107.683 23.4293 107.413 23.4293H107.279V23.2849H111.004V23.4293C110.625 23.4421 110.356 23.4999 110.195 23.6025C110.035 23.6988 109.955 23.9619 109.955 24.3919V35.9433C109.955 36.3091 109.971 36.5818 110.003 36.7615C110.035 36.9412 110.128 37.0824 110.282 37.185C110.442 37.2877 110.683 37.3359 111.004 37.3294V37.4642Z" fill="white"/>
<path d="M114.16 23.4293V23.2849H118.184C119.063 23.2849 119.698 23.3009 120.09 23.333C120.487 23.3587 120.856 23.4293 121.197 23.5448C121.819 23.7309 122.316 24.071 122.689 24.5652C123.061 25.0529 123.247 25.6722 123.247 26.423C123.247 26.9428 123.131 27.4434 122.9 27.9247C122.676 28.406 122.374 28.8328 121.995 29.205C121.617 29.5772 121.206 29.8852 120.763 30.1291L121.764 31.6693L121.851 31.804C121.973 32.0286 122.365 32.6094 123.025 33.5464C123.693 34.4769 124.293 35.2502 124.826 35.8663C125.069 36.1422 125.397 36.4021 125.807 36.646C126.218 36.8898 126.674 37.0118 127.174 37.0118C127.534 37.0118 127.855 36.9444 128.137 36.8096C128.227 36.7711 128.336 36.7166 128.464 36.646C128.593 36.5754 128.708 36.5144 128.811 36.4631L128.869 36.6556C128.522 36.9251 128.159 37.1369 127.781 37.2909C127.575 37.3679 127.293 37.4385 126.934 37.5027C126.581 37.5669 126.225 37.599 125.865 37.599C125.57 37.599 125.272 37.5637 124.97 37.4931C124.675 37.4225 124.36 37.2845 124.027 37.0792C123.693 36.8674 123.382 36.5818 123.093 36.2224C122.348 35.3176 121.546 34.2202 120.686 32.9303C120.686 32.9174 120.68 32.8982 120.667 32.8725C120.654 32.8469 120.648 32.834 120.648 32.834L119.223 30.6393L118.694 30.6585C118.617 30.6713 118.373 30.6778 117.962 30.6778H116.817V36.1069C116.817 36.4599 116.852 36.723 116.923 36.8963C116.993 37.0695 117.093 37.1818 117.221 37.2332C117.349 37.2845 117.551 37.3166 117.827 37.3294V37.4642H114.16V37.3294C114.609 37.3102 114.891 37.2203 115.007 37.0599C115.122 36.8931 115.18 36.5337 115.18 35.9818V24.7095C115.18 24.3245 115.142 24.0421 115.065 23.8624C114.994 23.6828 114.895 23.5705 114.766 23.5255C114.638 23.4742 114.436 23.4421 114.16 23.4293ZM116.817 23.6603V30.312H118.299C118.588 30.312 118.941 30.2767 119.358 30.2061C119.781 30.1291 120.099 30.0328 120.311 29.9173C120.715 29.6927 121.055 29.3654 121.331 28.9354C121.607 28.499 121.745 27.9568 121.745 27.3086C121.745 27.0262 121.707 26.715 121.63 26.3749C121.553 26.0283 121.434 25.701 121.274 25.393C121.12 25.085 120.917 24.8058 120.667 24.5555C120.365 24.2539 120.006 24.0293 119.589 23.8817C119.178 23.7341 118.642 23.6603 117.981 23.6603H116.817Z" fill="white"/>
<path d="M152.546 37.3294V37.4642H146.828C146.314 37.4642 145.836 37.445 145.394 37.4064C144.957 37.3679 144.453 37.2653 143.882 37.0984C143.311 36.9251 142.756 36.6652 142.217 36.3187C141.1 35.6192 140.208 34.7272 139.541 33.6426C138.88 32.5581 138.549 31.4254 138.549 30.2446C138.549 29.4424 138.726 28.6178 139.079 27.7707C139.438 26.9236 139.964 26.1438 140.658 25.4315C141.351 24.7192 142.198 24.148 143.199 23.7181C144.206 23.2881 145.323 23.0731 146.549 23.0731C147.961 23.0731 149.433 23.3811 150.967 23.9972L151.554 25.6337H151.42C150.919 24.9983 150.232 24.4753 149.36 24.0646C148.493 23.6539 147.55 23.4485 146.529 23.4485C145.567 23.4485 144.691 23.6443 143.902 24.0357C143.112 24.4272 142.451 24.9598 141.919 25.6337C141.386 26.3075 140.978 27.0808 140.696 27.9536C140.42 28.8199 140.282 29.7151 140.282 30.6393C140.282 32.1345 140.581 33.3314 141.177 34.2298C141.774 35.1218 142.435 35.7732 143.16 36.1839C143.796 36.5433 144.505 36.784 145.288 36.9059C146.077 37.0278 146.709 37.0888 147.184 37.0888L147.945 37.0695C148.516 37.0567 148.93 37.0278 149.186 36.9829C149.449 36.9316 149.629 36.8225 149.725 36.6556C149.828 36.4888 149.879 36.2192 149.879 35.847V33.7004C149.879 33.2832 149.796 33.0041 149.629 32.8629C149.462 32.7217 149.212 32.6575 148.878 32.6704V32.5356H152.546V32.6704C152.103 32.6768 151.821 32.7698 151.699 32.9495C151.577 33.1292 151.516 33.4244 151.516 33.8351V36.0684C151.516 36.5176 151.574 36.8417 151.689 37.0407C151.811 37.2332 152.029 37.3294 152.344 37.3294H152.546Z" fill="white"/>
<path d="M154.691 37.4642V37.3294C155.147 37.3294 155.435 37.246 155.557 37.0792C155.686 36.9123 155.75 36.6267 155.75 36.2224V24.6133C155.75 24.1063 155.676 23.7854 155.528 23.6507C155.387 23.5159 155.102 23.4421 154.672 23.4293V23.2849H158.474V23.4293C158.134 23.4229 157.884 23.471 157.723 23.5737C157.563 23.6699 157.466 23.8015 157.434 23.9683C157.402 24.1352 157.386 24.3823 157.386 24.7095V34.663C157.386 35.1058 157.438 35.4748 157.54 35.77C157.643 36.0588 157.8 36.293 158.012 36.4727C158.23 36.6524 158.513 36.784 158.859 36.8674C159.212 36.9508 159.629 36.9925 160.11 36.9925H161.843C162.472 36.9925 162.963 36.8834 163.316 36.6652C163.669 36.447 163.916 36.1294 164.057 35.7122C164.205 35.2887 164.295 34.7368 164.327 34.0565H164.461V37.4642H154.691Z" fill="white"/>
<path d="M182.085 29.4167C182.085 30.5013 181.909 31.5441 181.556 32.5452C181.203 33.5464 180.677 34.4352 179.977 35.2117C179.284 35.9882 178.434 36.5946 177.426 37.031C176.419 37.4674 175.299 37.6856 174.067 37.6856C173.072 37.6856 172.161 37.5155 171.333 37.1754C170.512 36.8289 169.799 36.3476 169.196 35.7315C168.599 35.109 168.144 34.4063 167.829 33.6234C167.521 32.834 167.367 32.0062 167.367 31.1398C167.367 30.2285 167.534 29.298 167.868 28.3482C168.201 27.392 168.699 26.5193 169.36 25.7299C170.021 24.9342 170.855 24.2924 171.862 23.8047C172.87 23.317 174.019 23.0731 175.309 23.0731C176.329 23.0731 177.253 23.2367 178.081 23.564C178.915 23.8849 179.634 24.3405 180.237 24.931C180.84 25.5149 181.299 26.192 181.614 26.9621C181.928 27.7257 182.085 28.544 182.085 29.4167ZM181.2 31.1591C181.2 30.0553 180.969 29.0477 180.507 28.1365C180.045 27.2252 179.445 26.4519 178.707 25.8166C177.975 25.1748 177.186 24.6839 176.339 24.3438C175.491 23.9972 174.709 23.8239 173.99 23.8239C173.104 23.8239 172.231 24.0582 171.372 24.5267C170.512 24.9887 169.809 25.6465 169.263 26.5C168.718 27.3471 168.445 28.3001 168.445 29.359C168.445 30.6617 168.763 31.8971 169.398 33.0651C170.04 34.2266 170.884 35.1636 171.93 35.8759C172.976 36.5818 174.083 36.9348 175.251 36.9348C175.995 36.9348 176.73 36.784 177.455 36.4823C178.18 36.1807 178.819 35.7732 179.371 35.2598C179.923 34.74 180.366 34.1239 180.699 33.4116C181.033 32.6928 181.2 31.942 181.2 31.1591Z" fill="white"/>
<path d="M185.135 23.4293V23.2849H188.822C189.65 23.2849 190.289 23.3105 190.738 23.3619C191.187 23.4132 191.588 23.5191 191.941 23.6796C192.544 23.9619 193.019 24.363 193.366 24.8828C193.712 25.3962 193.886 25.9898 193.886 26.6637C193.886 27.8701 193.295 28.8167 192.114 29.5034C192.968 29.6574 193.626 29.959 194.088 30.4082C194.832 31.1142 195.204 32.0479 195.204 33.2094C195.204 34.0758 195.018 34.8298 194.646 35.4716C194.274 36.1069 193.837 36.5882 193.337 36.9155C193.125 37.0503 192.91 37.153 192.692 37.2235C192.48 37.2941 192.249 37.3487 191.999 37.3872C191.755 37.4193 191.534 37.4417 191.335 37.4546C191.136 37.461 190.889 37.4642 190.593 37.4642H185.116V37.3294C185.45 37.3294 185.687 37.2813 185.828 37.185C185.97 37.0888 186.056 36.9412 186.088 36.7422C186.12 36.5369 186.136 36.1936 186.136 35.7122V25.0272C186.136 24.5395 186.12 24.1994 186.088 24.0068C186.063 23.8143 185.979 23.6731 185.838 23.5833C185.697 23.487 185.463 23.4357 185.135 23.4293ZM187.773 23.5833V29.8114H189.496C190.664 29.8114 191.437 29.4809 191.816 28.8199C192.201 28.1525 192.393 27.4851 192.393 26.8177C192.393 25.4379 191.835 24.4914 190.719 23.978C190.135 23.7148 189.278 23.5833 188.148 23.5833H187.773ZM188.88 30.1098H187.773V34.6052C187.773 35.0545 187.789 35.4074 187.821 35.6641C187.86 35.9208 187.969 36.1615 188.148 36.3861C188.328 36.6107 188.614 36.784 189.005 36.9059C189.403 37.0278 189.945 37.0888 190.632 37.0888C191.44 37.0888 192.066 36.9572 192.509 36.6941C193.273 36.2385 193.655 35.3593 193.655 34.0565C193.655 33.3955 193.565 32.7987 193.385 32.2661C193.205 31.7334 192.945 31.2874 192.605 30.928C192.272 30.5687 191.864 30.3408 191.383 30.2446C190.927 30.1547 190.093 30.1098 188.88 30.1098Z" fill="white"/>
<path d="M205.638 30.9377H201.498L199.352 36.2994C199.287 36.4599 199.255 36.5465 199.255 36.5593C199.172 36.7262 199.13 36.877 199.13 37.0118C199.13 37.2235 199.287 37.3294 199.602 37.3294V37.4642H197.494V37.3294C197.872 37.323 198.148 37.2171 198.322 37.0118C198.495 36.8064 198.668 36.4855 198.841 36.0492L203.982 23.0731H204.222L209.286 35.6064C209.286 35.6577 209.305 35.7122 209.344 35.77L209.421 35.9818C209.581 36.3797 209.764 36.7037 209.969 36.954C210.181 37.2043 210.479 37.3294 210.865 37.3294V37.4642H207.553V37.3294C207.739 37.3294 207.861 37.2877 207.919 37.2043C207.977 37.1209 208.006 37.0439 208.006 36.9733C208.006 36.7936 207.932 36.5369 207.784 36.2032C207.771 36.1775 207.755 36.139 207.736 36.0877C207.717 36.0299 207.701 35.9946 207.688 35.9818L205.638 30.9377ZM201.633 30.543H205.464L203.549 25.7107L201.633 30.543Z" fill="white"/>
<path d="M212.788 37.4642V37.3294C213.244 37.3294 213.533 37.246 213.655 37.0792C213.783 36.9123 213.847 36.6267 213.847 36.2224V24.6133C213.847 24.1063 213.773 23.7854 213.626 23.6507C213.485 23.5159 213.199 23.4421 212.769 23.4293V23.2849H216.571V23.4293C216.231 23.4229 215.981 23.471 215.82 23.5737C215.66 23.6699 215.564 23.8015 215.532 23.9683C215.5 24.1352 215.484 24.3823 215.484 24.7095V34.663C215.484 35.1058 215.535 35.4748 215.638 35.77C215.74 36.0588 215.897 36.293 216.109 36.4727C216.327 36.6524 216.61 36.784 216.956 36.8674C217.309 36.9508 217.726 36.9925 218.208 36.9925H219.94C220.569 36.9925 221.06 36.8834 221.413 36.6652C221.766 36.447 222.013 36.1294 222.154 35.7122C222.302 35.2887 222.392 34.7368 222.424 34.0565H222.559V37.4642H212.788Z" fill="white"/>
<path d="M239.69 23.4678L240.364 25.239L240.249 25.2582C240.242 25.2454 240.194 25.1941 240.104 25.1042C239.886 24.8475 239.636 24.6005 239.353 24.363C239.077 24.1256 238.737 23.9266 238.333 23.7662C237.929 23.6058 237.463 23.5255 236.937 23.5255C236.276 23.5255 235.705 23.6603 235.224 23.9298C234.742 24.1994 234.38 24.5555 234.136 24.9983C233.899 25.4347 233.78 25.8904 233.78 26.3652C233.78 26.8081 233.866 27.1867 234.04 27.5011C234.219 27.8092 234.45 28.0627 234.733 28.2616C235.015 28.4541 235.391 28.637 235.859 28.8103C236.327 28.9771 236.687 29.1023 236.937 29.1857C237.624 29.3975 238.259 29.6446 238.843 29.9269C239.434 30.2029 239.963 30.6328 240.431 31.2168C240.9 31.7944 241.134 32.5356 241.134 33.4405C241.134 34.2812 240.926 35.0192 240.508 35.6545C240.091 36.2834 239.572 36.7551 238.949 37.0695C238.699 37.185 238.269 37.2813 237.659 37.3583C237.056 37.4289 236.636 37.4642 236.398 37.4642H232.615V33.3442H232.759C232.772 33.9539 232.83 34.4705 232.933 34.894C233.042 35.3112 233.241 35.6834 233.529 36.0107C233.818 36.3315 234.216 36.5786 234.723 36.7519C235.237 36.9251 235.881 37.0118 236.658 37.0118C237.402 37.0118 238.022 36.9059 238.516 36.6941C239.016 36.4823 239.401 36.216 239.671 35.8951C239.941 35.5743 240.12 35.2598 240.21 34.9518C240.3 34.6373 240.345 34.3517 240.345 34.095C240.345 33.5175 240.184 33.033 239.864 32.6415C239.543 32.2436 239.151 31.9324 238.689 31.7078C238.233 31.4832 237.608 31.2329 236.812 30.9569C236.003 30.681 235.432 30.4596 235.099 30.2927C234.771 30.1259 234.476 29.9205 234.213 29.6766C233.86 29.3301 233.578 28.9258 233.366 28.4637C233.154 27.9953 233.048 27.4915 233.048 26.9524C233.048 26.2529 233.209 25.6112 233.529 25.0272C233.857 24.4368 234.332 23.9651 234.954 23.6122C235.577 23.2528 236.308 23.0731 237.149 23.0731C237.836 23.0731 238.631 23.1918 239.536 23.4293C239.555 23.4293 239.584 23.4357 239.623 23.4485C239.661 23.4614 239.684 23.4678 239.69 23.4678Z" fill="white"/>
<path d="M258.527 29.4167C258.527 30.5013 258.351 31.5441 257.998 32.5452C257.645 33.5464 257.118 34.4352 256.419 35.2117C255.726 35.9882 254.876 36.5946 253.868 37.031C252.86 37.4674 251.741 37.6856 250.508 37.6856C249.514 37.6856 248.603 37.5155 247.775 37.1754C246.953 36.8289 246.241 36.3476 245.638 35.7315C245.041 35.109 244.585 34.4063 244.271 33.6234C243.963 32.834 243.809 32.0062 243.809 31.1398C243.809 30.2285 243.976 29.298 244.309 28.3482C244.643 27.392 245.14 26.5193 245.801 25.7299C246.462 24.9342 247.297 24.2924 248.304 23.8047C249.312 23.317 250.46 23.0731 251.75 23.0731C252.771 23.0731 253.695 23.2367 254.523 23.564C255.357 23.8849 256.076 24.3405 256.679 24.931C257.282 25.5149 257.741 26.192 258.055 26.9621C258.37 27.7257 258.527 28.544 258.527 29.4167ZM257.641 31.1591C257.641 30.0553 257.41 29.0477 256.948 28.1365C256.486 27.2252 255.886 26.4519 255.148 25.8166C254.417 25.1748 253.627 24.6839 252.78 24.3438C251.933 23.9972 251.15 23.8239 250.431 23.8239C249.546 23.8239 248.673 24.0582 247.813 24.5267C246.953 24.9887 246.251 25.6465 245.705 26.5C245.16 27.3471 244.887 28.3001 244.887 29.359C244.887 30.6617 245.204 31.8971 245.84 33.0651C246.482 34.2266 247.325 35.1636 248.371 35.8759C249.418 36.5818 250.525 36.9348 251.693 36.9348C252.437 36.9348 253.172 36.784 253.897 36.4823C254.622 36.1807 255.261 35.7732 255.812 35.2598C256.364 34.74 256.807 34.1239 257.141 33.4116C257.475 32.6928 257.641 31.942 257.641 31.1591Z" fill="white"/>
<path d="M261.009 37.4642V37.3294C261.465 37.3294 261.754 37.246 261.875 37.0792C262.004 36.9123 262.068 36.6267 262.068 36.2224V24.6133C262.068 24.1063 261.994 23.7854 261.847 23.6507C261.705 23.5159 261.42 23.4421 260.99 23.4293V23.2849H264.792V23.4293C264.452 23.4229 264.202 23.471 264.041 23.5737C263.881 23.6699 263.785 23.8015 263.753 23.9683C263.72 24.1352 263.704 24.3823 263.704 24.7095V34.663C263.704 35.1058 263.756 35.4748 263.858 35.77C263.961 36.0588 264.118 36.293 264.33 36.4727C264.548 36.6524 264.831 36.784 265.177 36.8674C265.53 36.9508 265.947 36.9925 266.429 36.9925H268.161C268.79 36.9925 269.281 36.8834 269.634 36.6652C269.987 36.447 270.234 36.1294 270.375 35.7122C270.523 35.2887 270.613 34.7368 270.645 34.0565H270.78V37.4642H261.009Z" fill="white"/>
<path d="M287.008 37.4642H284.332V35.2791C282.971 36.8 281.341 37.5605 279.442 37.5605C278.819 37.5605 278.238 37.477 277.699 37.3102C277.16 37.1433 276.676 36.8802 276.246 36.5208C275.822 36.1615 275.485 35.693 275.235 35.1154C274.985 34.5314 274.86 33.8608 274.86 33.1036V24.6133C274.86 24.2603 274.837 24.0036 274.792 23.8432C274.747 23.6828 274.648 23.5737 274.494 23.5159C274.34 23.4517 274.115 23.4229 273.82 23.4293V23.2849H277.584V23.4293C277.218 23.4293 276.945 23.4902 276.766 23.6122C276.586 23.7277 276.496 24.0261 276.496 24.5074V32.295C276.496 33.2255 276.608 33.9763 276.833 34.5475C277.058 35.1058 277.362 35.555 277.747 35.8951C278.139 36.2353 278.553 36.4759 278.989 36.6171C279.426 36.7583 279.846 36.8289 280.25 36.8289C281.784 36.8289 283.144 36.139 284.332 34.7593V25.162C284.332 24.6807 284.309 24.3277 284.264 24.1031C284.226 23.8721 284.142 23.702 284.014 23.5929C283.886 23.4838 283.687 23.4293 283.417 23.4293H283.282V23.2849H287.008V23.4293C286.629 23.4421 286.36 23.4999 286.199 23.6025C286.039 23.6988 285.959 23.9619 285.959 24.3919V35.9433C285.959 36.3091 285.975 36.5818 286.007 36.7615C286.039 36.9412 286.132 37.0824 286.286 37.185C286.446 37.2877 286.687 37.3359 287.008 37.3294V37.4642Z" fill="white"/>
<path d="M301.32 22.7939L300.646 24.5074H300.512C300.537 24.424 300.55 24.286 300.55 24.0935C300.55 23.933 300.492 23.8368 300.377 23.8047C300.268 23.7662 300.104 23.7469 299.886 23.7469H296.18V35.8855C296.18 36.1615 296.193 36.3957 296.218 36.5882C296.244 36.7743 296.292 36.9251 296.363 37.0407C296.433 37.1497 296.536 37.2268 296.671 37.2717C296.806 37.3102 297.014 37.3294 297.297 37.3294V37.4642H293.456V37.3294C293.777 37.2974 294.008 37.2524 294.149 37.1947C294.296 37.1369 294.399 37.031 294.457 36.877C294.515 36.7166 294.544 36.4535 294.544 36.0877V23.7469H290.991C290.638 23.7469 290.404 23.7662 290.289 23.8047C290.18 23.8432 290.125 23.9491 290.125 24.1224C290.125 24.1929 290.151 24.3213 290.202 24.5074H290.067L289.394 22.7939H289.528C289.65 23.025 289.775 23.1694 289.904 23.2271C290.013 23.2656 290.244 23.2849 290.597 23.2849H300.021C300.399 23.2849 300.666 23.2624 300.82 23.2175C300.98 23.1726 301.102 23.0314 301.186 22.7939H301.32Z" fill="white"/>
<path d="M307.345 23.2849V23.4293C307.127 23.41 306.892 23.4485 306.642 23.5448C306.398 23.6346 306.276 23.8464 306.276 24.1801C306.263 24.2571 306.257 24.4978 306.257 24.9021V35.7893C306.257 36.2385 306.273 36.5626 306.305 36.7615C306.337 36.954 306.43 37.0984 306.584 37.1947C306.745 37.2909 306.998 37.3359 307.345 37.3294V37.4642H303.562V37.3294C303.902 37.3166 304.142 37.2717 304.284 37.1947C304.431 37.1112 304.524 36.9765 304.563 36.7904C304.601 36.6043 304.621 36.277 304.621 35.8085V25.0272C304.621 24.5972 304.605 24.2764 304.572 24.0646C304.54 23.8528 304.447 23.6892 304.293 23.5737C304.139 23.4581 303.895 23.41 303.562 23.4293V23.2849H307.345Z" fill="white"/>
<path d="M324.959 29.4167C324.959 30.5013 324.783 31.5441 324.43 32.5452C324.077 33.5464 323.55 34.4352 322.851 35.2117C322.158 35.9882 321.308 36.5946 320.3 37.031C319.292 37.4674 318.173 37.6856 316.94 37.6856C315.946 37.6856 315.035 37.5155 314.207 37.1754C313.385 36.8289 312.673 36.3476 312.07 35.7315C311.473 35.109 311.017 34.4063 310.703 33.6234C310.395 32.834 310.241 32.0062 310.241 31.1398C310.241 30.2285 310.408 29.298 310.741 28.3482C311.075 27.392 311.572 26.5193 312.233 25.7299C312.894 24.9342 313.729 24.2924 314.736 23.8047C315.744 23.317 316.892 23.0731 318.182 23.0731C319.203 23.0731 320.127 23.2367 320.955 23.564C321.789 23.8849 322.508 24.3405 323.111 24.931C323.714 25.5149 324.173 26.192 324.487 26.9621C324.802 27.7257 324.959 28.544 324.959 29.4167ZM324.073 31.1591C324.073 30.0553 323.842 29.0477 323.38 28.1365C322.918 27.2252 322.318 26.4519 321.58 25.8166C320.849 25.1748 320.059 24.6839 319.212 24.3438C318.365 23.9972 317.582 23.8239 316.863 23.8239C315.978 23.8239 315.105 24.0582 314.245 24.5267C313.385 24.9887 312.683 25.6465 312.137 26.5C311.592 27.3471 311.319 28.3001 311.319 29.359C311.319 30.6617 311.636 31.8971 312.272 33.0651C312.914 34.2266 313.757 35.1636 314.803 35.8759C315.85 36.5818 316.957 36.9348 318.125 36.9348C318.869 36.9348 319.604 36.784 320.329 36.4823C321.054 36.1807 321.693 35.7732 322.245 35.2598C322.796 34.74 323.239 34.1239 323.573 33.4116C323.907 32.6928 324.073 31.942 324.073 31.1591Z" fill="white"/>
<path d="M339.599 23.2849H342.342V23.4293C341.919 23.4421 341.627 23.532 341.466 23.6988C341.312 23.8592 341.235 24.2026 341.235 24.7288V37.6375L329.925 25.5952V36.0877C329.925 36.3444 329.941 36.5561 329.973 36.723C330.005 36.8834 330.063 37.0054 330.146 37.0888C330.229 37.1722 330.316 37.2235 330.406 37.2428C330.496 37.2621 330.675 37.2909 330.945 37.3294V37.4642H328.221V37.3294C328.58 37.323 328.834 37.2749 328.981 37.185C329.135 37.0952 329.228 36.9604 329.26 36.7807C329.293 36.5946 329.309 36.277 329.309 35.8278V26.2305C329.309 25.4283 329.196 24.7545 328.972 24.209C328.747 23.6571 328.202 23.3972 327.335 23.4293V23.2849H330.002L340.629 34.6052V24.594C340.629 24.1063 340.545 23.7919 340.379 23.6507C340.218 23.5031 339.958 23.4293 339.599 23.4293V23.2849Z" fill="white"/>
<path d="M352.15 23.4678L352.824 25.239L352.708 25.2582C352.702 25.2454 352.654 25.1941 352.564 25.1042C352.346 24.8475 352.095 24.6005 351.813 24.363C351.537 24.1256 351.197 23.9266 350.793 23.7662C350.388 23.6058 349.923 23.5255 349.397 23.5255C348.736 23.5255 348.165 23.6603 347.683 23.9298C347.202 24.1994 346.839 24.5555 346.596 24.9983C346.358 25.4347 346.239 25.8904 346.239 26.3652C346.239 26.8081 346.326 27.1867 346.499 27.5011C346.679 27.8092 346.91 28.0627 347.192 28.2616C347.475 28.4541 347.85 28.637 348.319 28.8103C348.787 28.9771 349.147 29.1023 349.397 29.1857C350.083 29.3975 350.719 29.6446 351.303 29.9269C351.893 30.2029 352.423 30.6328 352.891 31.2168C353.36 31.7944 353.594 32.5356 353.594 33.4405C353.594 34.2812 353.385 35.0192 352.968 35.6545C352.551 36.2834 352.031 36.7551 351.409 37.0695C351.158 37.185 350.728 37.2813 350.119 37.3583C349.516 37.4289 349.095 37.4642 348.858 37.4642H345.075V33.3442H345.219C345.232 33.9539 345.29 34.4705 345.392 34.894C345.501 35.3112 345.7 35.6834 345.989 36.0107C346.278 36.3315 346.676 36.5786 347.183 36.7519C347.696 36.9251 348.341 37.0118 349.118 37.0118C349.862 37.0118 350.481 36.9059 350.975 36.6941C351.476 36.4823 351.861 36.216 352.131 35.8951C352.4 35.5743 352.58 35.2598 352.67 34.9518C352.76 34.6373 352.804 34.3517 352.804 34.095C352.804 33.5175 352.644 33.033 352.323 32.6415C352.002 32.2436 351.611 31.9324 351.149 31.7078C350.693 31.4832 350.067 31.2329 349.272 30.9569C348.463 30.681 347.892 30.4596 347.558 30.2927C347.231 30.1259 346.936 29.9205 346.673 29.6766C346.32 29.3301 346.037 28.9258 345.826 28.4637C345.614 27.9953 345.508 27.4915 345.508 26.9524C345.508 26.2529 345.668 25.6112 345.989 25.0272C346.316 24.4368 346.791 23.9651 347.414 23.6122C348.036 23.2528 348.768 23.0731 349.609 23.0731C350.295 23.0731 351.091 23.1918 351.996 23.4293C352.015 23.4293 352.044 23.4357 352.082 23.4485C352.121 23.4614 352.143 23.4678 352.15 23.4678Z" fill="white"/>
<path d="M64.1485 23.2849H66.8919V23.4293C66.4684 23.4421 66.1764 23.532 66.016 23.6988C65.8619 23.8592 65.7849 24.2026 65.7849 24.7288V37.6375L54.4742 25.5952V36.0877C54.4742 36.3444 54.4902 36.5561 54.5223 36.723C54.5544 36.8834 54.6122 37.0054 54.6956 37.0888C54.779 37.1722 54.8657 37.2235 54.9555 37.2428C55.0454 37.2621 55.225 37.2909 55.4946 37.3294V37.4642H52.7704V37.3294C53.1297 37.323 53.3832 37.2749 53.5308 37.185C53.6849 37.0952 53.7779 36.9604 53.81 36.7807C53.8421 36.5946 53.8581 36.277 53.8581 35.8278V26.2305C53.8581 25.4283 53.7458 24.7545 53.5212 24.209C53.2966 23.6571 52.7511 23.3972 51.8848 23.4293V23.2849H54.5512L65.1785 34.6052V24.594C65.1785 24.1063 65.0951 23.7919 64.9282 23.6507C64.7678 23.5031 64.5079 23.4293 64.1485 23.4293V23.2849Z" stroke="white" stroke-width="0.6" mask="url(#path-1-outside-1_1_226)"/>
<path d="M77.3733 30.9377H73.234L71.0874 36.2994C71.0232 36.4599 70.9911 36.5465 70.9911 36.5593C70.9077 36.7262 70.866 36.877 70.866 37.0118C70.866 37.2235 71.0232 37.3294 71.3377 37.3294V37.4642H69.2296V37.3294C69.6082 37.323 69.8841 37.2171 70.0574 37.0118C70.2307 36.8064 70.4039 36.4855 70.5772 36.0492L75.7176 23.0731H75.9582L81.0216 35.6064C81.0216 35.6577 81.0408 35.7122 81.0793 35.77L81.1564 35.9818C81.3168 36.3797 81.4997 36.7037 81.705 36.954C81.9168 37.2043 82.2152 37.3294 82.6003 37.3294V37.4642H79.2889V37.3294C79.475 37.3294 79.5969 37.2877 79.6547 37.2043C79.7124 37.1209 79.7413 37.0439 79.7413 36.9733C79.7413 36.7936 79.6675 36.5369 79.5199 36.2032C79.5071 36.1775 79.491 36.139 79.4718 36.0877C79.4525 36.0299 79.4365 35.9946 79.4236 35.9818L77.3733 30.9377ZM73.3688 30.543H77.2L75.2844 25.7107L73.3688 30.543Z" stroke="white" stroke-width="0.6" mask="url(#path-1-outside-1_1_226)"/>
<path d="M95.4593 22.7939L94.7854 24.5074H94.6507C94.6764 24.424 94.6892 24.286 94.6892 24.0935C94.6892 23.933 94.6314 23.8368 94.5159 23.8047C94.4068 23.7662 94.2432 23.7469 94.025 23.7469H90.3189V35.8855C90.3189 36.1615 90.3317 36.3957 90.3574 36.5882C90.3831 36.7743 90.4312 36.9251 90.5018 37.0407C90.5724 37.1497 90.6751 37.2268 90.8098 37.2717C90.9446 37.3102 91.1532 37.3294 91.4355 37.3294V37.4642H87.5947V37.3294C87.9156 37.2974 88.1466 37.2524 88.2878 37.1947C88.4354 37.1369 88.5381 37.031 88.5958 36.877C88.6536 36.7166 88.6825 36.4535 88.6825 36.0877V23.7469H85.1304C84.7775 23.7469 84.5432 23.7662 84.4277 23.8047C84.3186 23.8432 84.2641 23.9491 84.2641 24.1224C84.2641 24.1929 84.2897 24.3213 84.3411 24.5074H84.2063L83.5325 22.7939H83.6672C83.7892 23.025 83.9143 23.1694 84.0427 23.2271C84.1518 23.2656 84.3828 23.2849 84.7357 23.2849H94.1597C94.5384 23.2849 94.8047 23.2624 94.9587 23.2175C95.1192 23.1726 95.2411 23.0314 95.3245 22.7939H95.4593Z" stroke="white" stroke-width="0.6" mask="url(#path-1-outside-1_1_226)"/>
<path d="M111.004 37.4642H108.328V35.2791C106.967 36.8 105.337 37.5605 103.438 37.5605C102.815 37.5605 102.235 37.477 101.695 37.3102C101.156 37.1433 100.672 36.8802 100.242 36.5208C99.8184 36.1615 99.4815 35.693 99.2312 35.1154C98.9809 34.5314 98.8558 33.8608 98.8558 33.1036V24.6133C98.8558 24.2603 98.8333 24.0036 98.7884 23.8432C98.7435 23.6828 98.644 23.5737 98.49 23.5159C98.336 23.4517 98.1113 23.4229 97.8161 23.4293V23.2849H101.58V23.4293C101.214 23.4293 100.941 23.4902 100.762 23.6122C100.582 23.7277 100.492 24.0261 100.492 24.5074V32.295C100.492 33.2255 100.605 33.9763 100.829 34.5475C101.054 35.1058 101.359 35.555 101.744 35.8951C102.135 36.2353 102.549 36.4759 102.985 36.6171C103.422 36.7583 103.842 36.8289 104.246 36.8289C105.78 36.8289 107.141 36.139 108.328 34.7593V25.162C108.328 24.6807 108.305 24.3277 108.261 24.1031C108.222 23.8721 108.139 23.702 108.01 23.5929C107.882 23.4838 107.683 23.4293 107.413 23.4293H107.279V23.2849H111.004V23.4293C110.625 23.4421 110.356 23.4999 110.195 23.6025C110.035 23.6988 109.955 23.9619 109.955 24.3919V35.9433C109.955 36.3091 109.971 36.5818 110.003 36.7615C110.035 36.9412 110.128 37.0824 110.282 37.185C110.442 37.2877 110.683 37.3359 111.004 37.3294V37.4642Z" stroke="white" stroke-width="0.6" mask="url(#path-1-outside-1_1_226)"/>
<path d="M114.16 23.4293V23.2849H118.184C119.063 23.2849 119.698 23.3009 120.09 23.333C120.487 23.3587 120.856 23.4293 121.197 23.5448C121.819 23.7309 122.316 24.071 122.689 24.5652C123.061 25.0529 123.247 25.6722 123.247 26.423C123.247 26.9428 123.131 27.4434 122.9 27.9247C122.676 28.406 122.374 28.8328 121.995 29.205C121.617 29.5772 121.206 29.8852 120.763 30.1291L121.764 31.6693L121.851 31.804C121.973 32.0286 122.365 32.6094 123.025 33.5464C123.693 34.4769 124.293 35.2502 124.826 35.8663C125.069 36.1422 125.397 36.4021 125.807 36.646C126.218 36.8898 126.674 37.0118 127.174 37.0118C127.534 37.0118 127.855 36.9444 128.137 36.8096C128.227 36.7711 128.336 36.7166 128.464 36.646C128.593 36.5754 128.708 36.5144 128.811 36.4631L128.869 36.6556C128.522 36.9251 128.159 37.1369 127.781 37.2909C127.575 37.3679 127.293 37.4385 126.934 37.5027C126.581 37.5669 126.225 37.599 125.865 37.599C125.57 37.599 125.272 37.5637 124.97 37.4931C124.675 37.4225 124.36 37.2845 124.027 37.0792C123.693 36.8674 123.382 36.5818 123.093 36.2224C122.348 35.3176 121.546 34.2202 120.686 32.9303C120.686 32.9174 120.68 32.8982 120.667 32.8725C120.654 32.8469 120.648 32.834 120.648 32.834L119.223 30.6393L118.694 30.6585C118.617 30.6713 118.373 30.6778 117.962 30.6778H116.817V36.1069C116.817 36.4599 116.852 36.723 116.923 36.8963C116.993 37.0695 117.093 37.1818 117.221 37.2332C117.349 37.2845 117.551 37.3166 117.827 37.3294V37.4642H114.16V37.3294C114.609 37.3102 114.891 37.2203 115.007 37.0599C115.122 36.8931 115.18 36.5337 115.18 35.9818V24.7095C115.18 24.3245 115.142 24.0421 115.065 23.8624C114.994 23.6828 114.895 23.5705 114.766 23.5255C114.638 23.4742 114.436 23.4421 114.16 23.4293ZM116.817 23.6603V30.312H118.299C118.588 30.312 118.941 30.2767 119.358 30.2061C119.781 30.1291 120.099 30.0328 120.311 29.9173C120.715 29.6927 121.055 29.3654 121.331 28.9354C121.607 28.499 121.745 27.9568 121.745 27.3086C121.745 27.0262 121.707 26.715 121.63 26.3749C121.553 26.0283 121.434 25.701 121.274 25.393C121.12 25.085 120.917 24.8058 120.667 24.5555C120.365 24.2539 120.006 24.0293 119.589 23.8817C119.178 23.7341 118.642 23.6603 117.981 23.6603H116.817Z" stroke="white" stroke-width="0.6" mask="url(#path-1-outside-1_1_226)"/>
<path d="M152.546 37.3294V37.4642H146.828C146.314 37.4642 145.836 37.445 145.394 37.4064C144.957 37.3679 144.453 37.2653 143.882 37.0984C143.311 36.9251 142.756 36.6652 142.217 36.3187C141.1 35.6192 140.208 34.7272 139.541 33.6426C138.88 32.5581 138.549 31.4254 138.549 30.2446C138.549 29.4424 138.726 28.6178 139.079 27.7707C139.438 26.9236 139.964 26.1438 140.658 25.4315C141.351 24.7192 142.198 24.148 143.199 23.7181C144.206 23.2881 145.323 23.0731 146.549 23.0731C147.961 23.0731 149.433 23.3811 150.967 23.9972L151.554 25.6337H151.42C150.919 24.9983 150.232 24.4753 149.36 24.0646C148.493 23.6539 147.55 23.4485 146.529 23.4485C145.567 23.4485 144.691 23.6443 143.902 24.0357C143.112 24.4272 142.451 24.9598 141.919 25.6337C141.386 26.3075 140.978 27.0808 140.696 27.9536C140.42 28.8199 140.282 29.7151 140.282 30.6393C140.282 32.1345 140.581 33.3314 141.177 34.2298C141.774 35.1218 142.435 35.7732 143.16 36.1839C143.796 36.5433 144.505 36.784 145.288 36.9059C146.077 37.0278 146.709 37.0888 147.184 37.0888L147.945 37.0695C148.516 37.0567 148.93 37.0278 149.186 36.9829C149.449 36.9316 149.629 36.8225 149.725 36.6556C149.828 36.4888 149.879 36.2192 149.879 35.847V33.7004C149.879 33.2832 149.796 33.0041 149.629 32.8629C149.462 32.7217 149.212 32.6575 148.878 32.6704V32.5356H152.546V32.6704C152.103 32.6768 151.821 32.7698 151.699 32.9495C151.577 33.1292 151.516 33.4244 151.516 33.8351V36.0684C151.516 36.5176 151.574 36.8417 151.689 37.0407C151.811 37.2332 152.029 37.3294 152.344 37.3294H152.546Z" stroke="white" stroke-width="0.6" mask="url(#path-1-outside-1_1_226)"/>
<path d="M154.691 37.4642V37.3294C155.147 37.3294 155.435 37.246 155.557 37.0792C155.686 36.9123 155.75 36.6267 155.75 36.2224V24.6133C155.75 24.1063 155.676 23.7854 155.528 23.6507C155.387 23.5159 155.102 23.4421 154.672 23.4293V23.2849H158.474V23.4293C158.134 23.4229 157.884 23.471 157.723 23.5737C157.563 23.6699 157.466 23.8015 157.434 23.9683C157.402 24.1352 157.386 24.3823 157.386 24.7095V34.663C157.386 35.1058 157.438 35.4748 157.54 35.77C157.643 36.0588 157.8 36.293 158.012 36.4727C158.23 36.6524 158.513 36.784 158.859 36.8674C159.212 36.9508 159.629 36.9925 160.11 36.9925H161.843C162.472 36.9925 162.963 36.8834 163.316 36.6652C163.669 36.447 163.916 36.1294 164.057 35.7122C164.205 35.2887 164.295 34.7368 164.327 34.0565H164.461V37.4642H154.691Z" stroke="white" stroke-width="0.6" mask="url(#path-1-outside-1_1_226)"/>
<path d="M182.085 29.4167C182.085 30.5013 181.909 31.5441 181.556 32.5452C181.203 33.5464 180.677 34.4352 179.977 35.2117C179.284 35.9882 178.434 36.5946 177.426 37.031C176.419 37.4674 175.299 37.6856 174.067 37.6856C173.072 37.6856 172.161 37.5155 171.333 37.1754C170.512 36.8289 169.799 36.3476 169.196 35.7315C168.599 35.109 168.144 34.4063 167.829 33.6234C167.521 32.834 167.367 32.0062 167.367 31.1398C167.367 30.2285 167.534 29.298 167.868 28.3482C168.201 27.392 168.699 26.5193 169.36 25.7299C170.021 24.9342 170.855 24.2924 171.862 23.8047C172.87 23.317 174.019 23.0731 175.309 23.0731C176.329 23.0731 177.253 23.2367 178.081 23.564C178.915 23.8849 179.634 24.3405 180.237 24.931C180.84 25.5149 181.299 26.192 181.614 26.9621C181.928 27.7257 182.085 28.544 182.085 29.4167ZM181.2 31.1591C181.2 30.0553 180.969 29.0477 180.507 28.1365C180.045 27.2252 179.445 26.4519 178.707 25.8166C177.975 25.1748 177.186 24.6839 176.339 24.3438C175.491 23.9972 174.709 23.8239 173.99 23.8239C173.104 23.8239 172.231 24.0582 171.372 24.5267C170.512 24.9887 169.809 25.6465 169.263 26.5C168.718 27.3471 168.445 28.3001 168.445 29.359C168.445 30.6617 168.763 31.8971 169.398 33.0651C170.04 34.2266 170.884 35.1636 171.93 35.8759C172.976 36.5818 174.083 36.9348 175.251 36.9348C175.995 36.9348 176.73 36.784 177.455 36.4823C178.18 36.1807 178.819 35.7732 179.371 35.2598C179.923 34.74 180.366 34.1239 180.699 33.4116C181.033 32.6928 181.2 31.942 181.2 31.1591Z" stroke="white" stroke-width="0.6" mask="url(#path-1-outside-1_1_226)"/>
<path d="M185.135 23.4293V23.2849H188.822C189.65 23.2849 190.289 23.3105 190.738 23.3619C191.187 23.4132 191.588 23.5191 191.941 23.6796C192.544 23.9619 193.019 24.363 193.366 24.8828C193.712 25.3962 193.886 25.9898 193.886 26.6637C193.886 27.8701 193.295 28.8167 192.114 29.5034C192.968 29.6574 193.626 29.959 194.088 30.4082C194.832 31.1142 195.204 32.0479 195.204 33.2094C195.204 34.0758 195.018 34.8298 194.646 35.4716C194.274 36.1069 193.837 36.5882 193.337 36.9155C193.125 37.0503 192.91 37.153 192.692 37.2235C192.48 37.2941 192.249 37.3487 191.999 37.3872C191.755 37.4193 191.534 37.4417 191.335 37.4546C191.136 37.461 190.889 37.4642 190.593 37.4642H185.116V37.3294C185.45 37.3294 185.687 37.2813 185.828 37.185C185.97 37.0888 186.056 36.9412 186.088 36.7422C186.12 36.5369 186.136 36.1936 186.136 35.7122V25.0272C186.136 24.5395 186.12 24.1994 186.088 24.0068C186.063 23.8143 185.979 23.6731 185.838 23.5833C185.697 23.487 185.463 23.4357 185.135 23.4293ZM187.773 23.5833V29.8114H189.496C190.664 29.8114 191.437 29.4809 191.816 28.8199C192.201 28.1525 192.393 27.4851 192.393 26.8177C192.393 25.4379 191.835 24.4914 190.719 23.978C190.135 23.7148 189.278 23.5833 188.148 23.5833H187.773ZM188.88 30.1098H187.773V34.6052C187.773 35.0545 187.789 35.4074 187.821 35.6641C187.86 35.9208 187.969 36.1615 188.148 36.3861C188.328 36.6107 188.614 36.784 189.005 36.9059C189.403 37.0278 189.945 37.0888 190.632 37.0888C191.44 37.0888 192.066 36.9572 192.509 36.6941C193.273 36.2385 193.655 35.3593 193.655 34.0565C193.655 33.3955 193.565 32.7987 193.385 32.2661C193.205 31.7334 192.945 31.2874 192.605 30.928C192.272 30.5687 191.864 30.3408 191.383 30.2446C190.927 30.1547 190.093 30.1098 188.88 30.1098Z" stroke="white" stroke-width="0.6" mask="url(#path-1-outside-1_1_226)"/>
<path d="M205.638 30.9377H201.498L199.352 36.2994C199.287 36.4599 199.255 36.5465 199.255 36.5593C199.172 36.7262 199.13 36.877 199.13 37.0118C199.13 37.2235 199.287 37.3294 199.602 37.3294V37.4642H197.494V37.3294C197.872 37.323 198.148 37.2171 198.322 37.0118C198.495 36.8064 198.668 36.4855 198.841 36.0492L203.982 23.0731H204.222L209.286 35.6064C209.286 35.6577 209.305 35.7122 209.344 35.77L209.421 35.9818C209.581 36.3797 209.764 36.7037 209.969 36.954C210.181 37.2043 210.479 37.3294 210.865 37.3294V37.4642H207.553V37.3294C207.739 37.3294 207.861 37.2877 207.919 37.2043C207.977 37.1209 208.006 37.0439 208.006 36.9733C208.006 36.7936 207.932 36.5369 207.784 36.2032C207.771 36.1775 207.755 36.139 207.736 36.0877C207.717 36.0299 207.701 35.9946 207.688 35.9818L205.638 30.9377ZM201.633 30.543H205.464L203.549 25.7107L201.633 30.543Z" stroke="white" stroke-width="0.6" mask="url(#path-1-outside-1_1_226)"/>
<path d="M212.788 37.4642V37.3294C213.244 37.3294 213.533 37.246 213.655 37.0792C213.783 36.9123 213.847 36.6267 213.847 36.2224V24.6133C213.847 24.1063 213.773 23.7854 213.626 23.6507C213.485 23.5159 213.199 23.4421 212.769 23.4293V23.2849H216.571V23.4293C216.231 23.4229 215.981 23.471 215.82 23.5737C215.66 23.6699 215.564 23.8015 215.532 23.9683C215.5 24.1352 215.484 24.3823 215.484 24.7095V34.663C215.484 35.1058 215.535 35.4748 215.638 35.77C215.74 36.0588 215.897 36.293 216.109 36.4727C216.327 36.6524 216.61 36.784 216.956 36.8674C217.309 36.9508 217.726 36.9925 218.208 36.9925H219.94C220.569 36.9925 221.06 36.8834 221.413 36.6652C221.766 36.447 222.013 36.1294 222.154 35.7122C222.302 35.2887 222.392 34.7368 222.424 34.0565H222.559V37.4642H212.788Z" stroke="white" stroke-width="0.6" mask="url(#path-1-outside-1_1_226)"/>
<path d="M239.69 23.4678L240.364 25.239L240.249 25.2582C240.242 25.2454 240.194 25.1941 240.104 25.1042C239.886 24.8475 239.636 24.6005 239.353 24.363C239.077 24.1256 238.737 23.9266 238.333 23.7662C237.929 23.6058 237.463 23.5255 236.937 23.5255C236.276 23.5255 235.705 23.6603 235.224 23.9298C234.742 24.1994 234.38 24.5555 234.136 24.9983C233.899 25.4347 233.78 25.8904 233.78 26.3652C233.78 26.8081 233.866 27.1867 234.04 27.5011C234.219 27.8092 234.45 28.0627 234.733 28.2616C235.015 28.4541 235.391 28.637 235.859 28.8103C236.327 28.9771 236.687 29.1023 236.937 29.1857C237.624 29.3975 238.259 29.6446 238.843 29.9269C239.434 30.2029 239.963 30.6328 240.431 31.2168C240.9 31.7944 241.134 32.5356 241.134 33.4405C241.134 34.2812 240.926 35.0192 240.508 35.6545C240.091 36.2834 239.572 36.7551 238.949 37.0695C238.699 37.185 238.269 37.2813 237.659 37.3583C237.056 37.4289 236.636 37.4642 236.398 37.4642H232.615V33.3442H232.759C232.772 33.9539 232.83 34.4705 232.933 34.894C233.042 35.3112 233.241 35.6834 233.529 36.0107C233.818 36.3315 234.216 36.5786 234.723 36.7519C235.237 36.9251 235.881 37.0118 236.658 37.0118C237.402 37.0118 238.022 36.9059 238.516 36.6941C239.016 36.4823 239.401 36.216 239.671 35.8951C239.941 35.5743 240.12 35.2598 240.21 34.9518C240.3 34.6373 240.345 34.3517 240.345 34.095C240.345 33.5175 240.184 33.033 239.864 32.6415C239.543 32.2436 239.151 31.9324 238.689 31.7078C238.233 31.4832 237.608 31.2329 236.812 30.9569C236.003 30.681 235.432 30.4596 235.099 30.2927C234.771 30.1259 234.476 29.9205 234.213 29.6766C233.86 29.3301 233.578 28.9258 233.366 28.4637C233.154 27.9953 233.048 27.4915 233.048 26.9524C233.048 26.2529 233.209 25.6112 233.529 25.0272C233.857 24.4368 234.332 23.9651 234.954 23.6122C235.577 23.2528 236.308 23.0731 237.149 23.0731C237.836 23.0731 238.631 23.1918 239.536 23.4293C239.555 23.4293 239.584 23.4357 239.623 23.4485C239.661 23.4614 239.684 23.4678 239.69 23.4678Z" stroke="white" stroke-width="0.6" mask="url(#path-1-outside-1_1_226)"/>
<path d="M258.527 29.4167C258.527 30.5013 258.351 31.5441 257.998 32.5452C257.645 33.5464 257.118 34.4352 256.419 35.2117C255.726 35.9882 254.876 36.5946 253.868 37.031C252.86 37.4674 251.741 37.6856 250.508 37.6856C249.514 37.6856 248.603 37.5155 247.775 37.1754C246.953 36.8289 246.241 36.3476 245.638 35.7315C245.041 35.109 244.585 34.4063 244.271 33.6234C243.963 32.834 243.809 32.0062 243.809 31.1398C243.809 30.2285 243.976 29.298 244.309 28.3482C244.643 27.392 245.14 26.5193 245.801 25.7299C246.462 24.9342 247.297 24.2924 248.304 23.8047C249.312 23.317 250.46 23.0731 251.75 23.0731C252.771 23.0731 253.695 23.2367 254.523 23.564C255.357 23.8849 256.076 24.3405 256.679 24.931C257.282 25.5149 257.741 26.192 258.055 26.9621C258.37 27.7257 258.527 28.544 258.527 29.4167ZM257.641 31.1591C257.641 30.0553 257.41 29.0477 256.948 28.1365C256.486 27.2252 255.886 26.4519 255.148 25.8166C254.417 25.1748 253.627 24.6839 252.78 24.3438C251.933 23.9972 251.15 23.8239 250.431 23.8239C249.546 23.8239 248.673 24.0582 247.813 24.5267C246.953 24.9887 246.251 25.6465 245.705 26.5C245.16 27.3471 244.887 28.3001 244.887 29.359C244.887 30.6617 245.204 31.8971 245.84 33.0651C246.482 34.2266 247.325 35.1636 248.371 35.8759C249.418 36.5818 250.525 36.9348 251.693 36.9348C252.437 36.9348 253.172 36.784 253.897 36.4823C254.622 36.1807 255.261 35.7732 255.812 35.2598C256.364 34.74 256.807 34.1239 257.141 33.4116C257.475 32.6928 257.641 31.942 257.641 31.1591Z" stroke="white" stroke-width="0.6" mask="url(#path-1-outside-1_1_226)"/>
<path d="M261.009 37.4642V37.3294C261.465 37.3294 261.754 37.246 261.875 37.0792C262.004 36.9123 262.068 36.6267 262.068 36.2224V24.6133C262.068 24.1063 261.994 23.7854 261.847 23.6507C261.705 23.5159 261.42 23.4421 260.99 23.4293V23.2849H264.792V23.4293C264.452 23.4229 264.202 23.471 264.041 23.5737C263.881 23.6699 263.785 23.8015 263.753 23.9683C263.72 24.1352 263.704 24.3823 263.704 24.7095V34.663C263.704 35.1058 263.756 35.4748 263.858 35.77C263.961 36.0588 264.118 36.293 264.33 36.4727C264.548 36.6524 264.831 36.784 265.177 36.8674C265.53 36.9508 265.947 36.9925 266.429 36.9925H268.161C268.79 36.9925 269.281 36.8834 269.634 36.6652C269.987 36.447 270.234 36.1294 270.375 35.7122C270.523 35.2887 270.613 34.7368 270.645 34.0565H270.78V37.4642H261.009Z" stroke="white" stroke-width="0.6" mask="url(#path-1-outside-1_1_226)"/>
<path d="M287.008 37.4642H284.332V35.2791C282.971 36.8 281.341 37.5605 279.442 37.5605C278.819 37.5605 278.238 37.477 277.699 37.3102C277.16 37.1433 276.676 36.8802 276.246 36.5208C275.822 36.1615 275.485 35.693 275.235 35.1154C274.985 34.5314 274.86 33.8608 274.86 33.1036V24.6133C274.86 24.2603 274.837 24.0036 274.792 23.8432C274.747 23.6828 274.648 23.5737 274.494 23.5159C274.34 23.4517 274.115 23.4229 273.82 23.4293V23.2849H277.584V23.4293C277.218 23.4293 276.945 23.4902 276.766 23.6122C276.586 23.7277 276.496 24.0261 276.496 24.5074V32.295C276.496 33.2255 276.608 33.9763 276.833 34.5475C277.058 35.1058 277.362 35.555 277.747 35.8951C278.139 36.2353 278.553 36.4759 278.989 36.6171C279.426 36.7583 279.846 36.8289 280.25 36.8289C281.784 36.8289 283.144 36.139 284.332 34.7593V25.162C284.332 24.6807 284.309 24.3277 284.264 24.1031C284.226 23.8721 284.142 23.702 284.014 23.5929C283.886 23.4838 283.687 23.4293 283.417 23.4293H283.282V23.2849H287.008V23.4293C286.629 23.4421 286.36 23.4999 286.199 23.6025C286.039 23.6988 285.959 23.9619 285.959 24.3919V35.9433C285.959 36.3091 285.975 36.5818 286.007 36.7615C286.039 36.9412 286.132 37.0824 286.286 37.185C286.446 37.2877 286.687 37.3359 287.008 37.3294V37.4642Z" stroke="white" stroke-width="0.6" mask="url(#path-1-outside-1_1_226)"/>
<path d="M301.32 22.7939L300.646 24.5074H300.512C300.537 24.424 300.55 24.286 300.55 24.0935C300.55 23.933 300.492 23.8368 300.377 23.8047C300.268 23.7662 300.104 23.7469 299.886 23.7469H296.18V35.8855C296.18 36.1615 296.193 36.3957 296.218 36.5882C296.244 36.7743 296.292 36.9251 296.363 37.0407C296.433 37.1497 296.536 37.2268 296.671 37.2717C296.806 37.3102 297.014 37.3294 297.297 37.3294V37.4642H293.456V37.3294C293.777 37.2974 294.008 37.2524 294.149 37.1947C294.296 37.1369 294.399 37.031 294.457 36.877C294.515 36.7166 294.544 36.4535 294.544 36.0877V23.7469H290.991C290.638 23.7469 290.404 23.7662 290.289 23.8047C290.18 23.8432 290.125 23.9491 290.125 24.1224C290.125 24.1929 290.151 24.3213 290.202 24.5074H290.067L289.394 22.7939H289.528C289.65 23.025 289.775 23.1694 289.904 23.2271C290.013 23.2656 290.244 23.2849 290.597 23.2849H300.021C300.399 23.2849 300.666 23.2624 300.82 23.2175C300.98 23.1726 301.102 23.0314 301.186 22.7939H301.32Z" stroke="white" stroke-width="0.6" mask="url(#path-1-outside-1_1_226)"/>
<path d="M307.345 23.2849V23.4293C307.127 23.41 306.892 23.4485 306.642 23.5448C306.398 23.6346 306.276 23.8464 306.276 24.1801C306.263 24.2571 306.257 24.4978 306.257 24.9021V35.7893C306.257 36.2385 306.273 36.5626 306.305 36.7615C306.337 36.954 306.43 37.0984 306.584 37.1947C306.745 37.2909 306.998 37.3359 307.345 37.3294V37.4642H303.562V37.3294C303.902 37.3166 304.142 37.2717 304.284 37.1947C304.431 37.1112 304.524 36.9765 304.563 36.7904C304.601 36.6043 304.621 36.277 304.621 35.8085V25.0272C304.621 24.5972 304.605 24.2764 304.572 24.0646C304.54 23.8528 304.447 23.6892 304.293 23.5737C304.139 23.4581 303.895 23.41 303.562 23.4293V23.2849H307.345Z" stroke="white" stroke-width="0.6" mask="url(#path-1-outside-1_1_226)"/>
<path d="M324.959 29.4167C324.959 30.5013 324.783 31.5441 324.43 32.5452C324.077 33.5464 323.55 34.4352 322.851 35.2117C322.158 35.9882 321.308 36.5946 320.3 37.031C319.292 37.4674 318.173 37.6856 316.94 37.6856C315.946 37.6856 315.035 37.5155 314.207 37.1754C313.385 36.8289 312.673 36.3476 312.07 35.7315C311.473 35.109 311.017 34.4063 310.703 33.6234C310.395 32.834 310.241 32.0062 310.241 31.1398C310.241 30.2285 310.408 29.298 310.741 28.3482C311.075 27.392 311.572 26.5193 312.233 25.7299C312.894 24.9342 313.729 24.2924 314.736 23.8047C315.744 23.317 316.892 23.0731 318.182 23.0731C319.203 23.0731 320.127 23.2367 320.955 23.564C321.789 23.8849 322.508 24.3405 323.111 24.931C323.714 25.5149 324.173 26.192 324.487 26.9621C324.802 27.7257 324.959 28.544 324.959 29.4167ZM324.073 31.1591C324.073 30.0553 323.842 29.0477 323.38 28.1365C322.918 27.2252 322.318 26.4519 321.58 25.8166C320.849 25.1748 320.059 24.6839 319.212 24.3438C318.365 23.9972 317.582 23.8239 316.863 23.8239C315.978 23.8239 315.105 24.0582 314.245 24.5267C313.385 24.9887 312.683 25.6465 312.137 26.5C311.592 27.3471 311.319 28.3001 311.319 29.359C311.319 30.6617 311.636 31.8971 312.272 33.0651C312.914 34.2266 313.757 35.1636 314.803 35.8759C315.85 36.5818 316.957 36.9348 318.125 36.9348C318.869 36.9348 319.604 36.784 320.329 36.4823C321.054 36.1807 321.693 35.7732 322.245 35.2598C322.796 34.74 323.239 34.1239 323.573 33.4116C323.907 32.6928 324.073 31.942 324.073 31.1591Z" stroke="white" stroke-width="0.6" mask="url(#path-1-outside-1_1_226)"/>
<path d="M339.599 23.2849H342.342V23.4293C341.919 23.4421 341.627 23.532 341.466 23.6988C341.312 23.8592 341.235 24.2026 341.235 24.7288V37.6375L329.925 25.5952V36.0877C329.925 36.3444 329.941 36.5561 329.973 36.723C330.005 36.8834 330.063 37.0054 330.146 37.0888C330.229 37.1722 330.316 37.2235 330.406 37.2428C330.496 37.2621 330.675 37.2909 330.945 37.3294V37.4642H328.221V37.3294C328.58 37.323 328.834 37.2749 328.981 37.185C329.135 37.0952 329.228 36.9604 329.26 36.7807C329.293 36.5946 329.309 36.277 329.309 35.8278V26.2305C329.309 25.4283 329.196 24.7545 328.972 24.209C328.747 23.6571 328.202 23.3972 327.335 23.4293V23.2849H330.002L340.629 34.6052V24.594C340.629 24.1063 340.545 23.7919 340.379 23.6507C340.218 23.5031 339.958 23.4293 339.599 23.4293V23.2849Z" stroke="white" stroke-width="0.6" mask="url(#path-1-outside-1_1_226)"/>
<path d="M352.15 23.4678L352.824 25.239L352.708 25.2582C352.702 25.2454 352.654 25.1941 352.564 25.1042C352.346 24.8475 352.095 24.6005 351.813 24.363C351.537 24.1256 351.197 23.9266 350.793 23.7662C350.388 23.6058 349.923 23.5255 349.397 23.5255C348.736 23.5255 348.165 23.6603 347.683 23.9298C347.202 24.1994 346.839 24.5555 346.596 24.9983C346.358 25.4347 346.239 25.8904 346.239 26.3652C346.239 26.8081 346.326 27.1867 346.499 27.5011C346.679 27.8092 346.91 28.0627 347.192 28.2616C347.475 28.4541 347.85 28.637 348.319 28.8103C348.787 28.9771 349.147 29.1023 349.397 29.1857C350.083 29.3975 350.719 29.6446 351.303 29.9269C351.893 30.2029 352.423 30.6328 352.891 31.2168C353.36 31.7944 353.594 32.5356 353.594 33.4405C353.594 34.2812 353.385 35.0192 352.968 35.6545C352.551 36.2834 352.031 36.7551 351.409 37.0695C351.158 37.185 350.728 37.2813 350.119 37.3583C349.516 37.4289 349.095 37.4642 348.858 37.4642H345.075V33.3442H345.219C345.232 33.9539 345.29 34.4705 345.392 34.894C345.501 35.3112 345.7 35.6834 345.989 36.0107C346.278 36.3315 346.676 36.5786 347.183 36.7519C347.696 36.9251 348.341 37.0118 349.118 37.0118C349.862 37.0118 350.481 36.9059 350.975 36.6941C351.476 36.4823 351.861 36.216 352.131 35.8951C352.4 35.5743 352.58 35.2598 352.67 34.9518C352.76 34.6373 352.804 34.3517 352.804 34.095C352.804 33.5175 352.644 33.033 352.323 32.6415C352.002 32.2436 351.611 31.9324 351.149 31.7078C350.693 31.4832 350.067 31.2329 349.272 30.9569C348.463 30.681 347.892 30.4596 347.558 30.2927C347.231 30.1259 346.936 29.9205 346.673 29.6766C346.32 29.3301 346.037 28.9258 345.826 28.4637C345.614 27.9953 345.508 27.4915 345.508 26.9524C345.508 26.2529 345.668 25.6112 345.989 25.0272C346.316 24.4368 346.791 23.9651 347.414 23.6122C348.036 23.2528 348.768 23.0731 349.609 23.0731C350.295 23.0731 351.091 23.1918 351.996 23.4293C352.015 23.4293 352.044 23.4357 352.082 23.4485C352.121 23.4614 352.143 23.4678 352.15 23.4678Z" stroke="white" stroke-width="0.6" mask="url(#path-1-outside-1_1_226)"/>
<path fill-rule="evenodd" clip-rule="evenodd" d="M23.0047 19.8179H46V41.8983H0V19.8179H13.8047V21.3484H8.89216V40.3622H42.6255V21.3484H23.0047V19.8179Z" fill="white"/>
<path d="M30.458 24.8285C34.0845 19.6661 33.5966 15.1967 32.3894 13.9927C37.6158 16.9061 40.3445 23.4995 35.5291 30.3997C30.5839 37.4859 31.9871 44.0212 33.5966 46.5C23.8117 36.2265 25.2302 32.2703 30.458 24.8285Z" fill="white"/>
<path d="M24.4897 10.8247C28.6084 5.48173 27.3432 1.61311 26.224 0.5C30.2107 2.49337 34.0896 8.20398 29.444 16.1403C25.764 22.4271 25.9173 27.0272 26.9907 30.8606C19.784 25.8005 19.3413 17.5033 24.4897 10.8247Z" fill="white"/>
<path d="M14.5181 16.653C17.7631 12.2915 16.8108 9.38376 15.929 8.4751C18.5744 10.72 21.3962 15.2099 18.2217 20.8222C15.0976 26.3453 15.635 31.1382 16.8108 33.0089C10.2854 25.1517 10.4618 22.105 14.5181 16.653Z" fill="white"/>
<rect y="40.3682" width="46" height="1.53337" fill="white"/>
</svg>
