<svg width="354" height="47" viewBox="0 0 354 47" fill="none" xmlns="http://www.w3.org/2000/svg">
<mask id="path-1-outside-1_1_3280" maskUnits="userSpaceOnUse" x="50.8848" y="21.7949" width="304" height="17" fill="black">
<rect fill="white" x="50.8848" y="21.7949" width="304" height="17"/>
<path d="M64.1485 23.2859H66.8919V23.4302C66.4684 23.4431 66.1764 23.5329 66.016 23.6998C65.8619 23.8602 65.7849 24.2035 65.7849 24.7298V37.6385L54.4742 25.5961V36.0886C54.4742 36.3453 54.4902 36.5571 54.5223 36.724C54.5544 36.8844 54.6122 37.0063 54.6956 37.0898C54.779 37.1732 54.8657 37.2245 54.9555 37.2438C55.0454 37.263 55.225 37.2919 55.4946 37.3304V37.4652H52.7704V37.3304C53.1297 37.324 53.3832 37.2759 53.5308 37.186C53.6849 37.0962 53.7779 36.9614 53.81 36.7817C53.8421 36.5956 53.8581 36.278 53.8581 35.8287V26.2315C53.8581 25.4293 53.7458 24.7554 53.5212 24.21C53.2966 23.6581 52.7511 23.3982 51.8848 23.4302V23.2859H54.5512L65.1785 34.6062V24.595C65.1785 24.1073 65.0951 23.7928 64.9282 23.6516C64.7678 23.504 64.5079 23.4302 64.1485 23.4302V23.2859Z"/>
<path d="M77.3733 30.9386H73.234L71.0874 36.3004C71.0232 36.4609 70.9911 36.5475 70.9911 36.5603C70.9077 36.7272 70.866 36.878 70.866 37.0128C70.866 37.2245 71.0232 37.3304 71.3377 37.3304V37.4652H69.2296V37.3304C69.6082 37.324 69.8841 37.2181 70.0574 37.0128C70.2307 36.8074 70.4039 36.4865 70.5772 36.0501L75.7176 23.0741H75.9582L81.0216 35.6073C81.0216 35.6587 81.0408 35.7132 81.0793 35.771L81.1564 35.9828C81.3168 36.3806 81.4997 36.7047 81.705 36.955C81.9168 37.2053 82.2152 37.3304 82.6003 37.3304V37.4652H79.2889V37.3304C79.475 37.3304 79.5969 37.2887 79.6547 37.2053C79.7124 37.1218 79.7413 37.0448 79.7413 36.9742C79.7413 36.7946 79.6675 36.5379 79.5199 36.2042C79.5071 36.1785 79.491 36.14 79.4718 36.0886C79.4525 36.0309 79.4365 35.9956 79.4236 35.9828L77.3733 30.9386ZM73.3688 30.544H77.2L75.2844 25.7116L73.3688 30.544Z"/>
<path d="M95.4593 22.7949L94.7854 24.5084H94.6507C94.6763 24.425 94.6892 24.287 94.6892 24.0945C94.6892 23.934 94.6314 23.8378 94.5159 23.8057C94.4068 23.7672 94.2432 23.7479 94.025 23.7479H90.3189V35.8865C90.3189 36.1624 90.3317 36.3967 90.3574 36.5892C90.3831 36.7753 90.4312 36.9261 90.5018 37.0416C90.5724 37.1507 90.6751 37.2277 90.8098 37.2727C90.9446 37.3112 91.1532 37.3304 91.4355 37.3304V37.4652H87.5947V37.3304C87.9156 37.2983 88.1466 37.2534 88.2878 37.1956C88.4354 37.1379 88.5381 37.032 88.5958 36.878C88.6536 36.7175 88.6825 36.4544 88.6825 36.0886V23.7479H85.1304C84.7775 23.7479 84.5432 23.7672 84.4277 23.8057C84.3186 23.8442 84.2641 23.9501 84.2641 24.1233C84.2641 24.1939 84.2897 24.3223 84.3411 24.5084H84.2063L83.5325 22.7949H83.6672C83.7892 23.0259 83.9143 23.1703 84.0427 23.2281C84.1518 23.2666 84.3828 23.2859 84.7357 23.2859H94.1597C94.5384 23.2859 94.8047 23.2634 94.9587 23.2185C95.1192 23.1736 95.2411 23.0324 95.3245 22.7949H95.4593Z"/>
<path d="M111.004 37.4652H108.328V35.28C106.967 36.801 105.337 37.5614 103.438 37.5614C102.815 37.5614 102.235 37.478 101.695 37.3112C101.156 37.1443 100.672 36.8812 100.242 36.5218C99.8184 36.1624 99.4815 35.694 99.2312 35.1164C98.9809 34.5324 98.8558 33.8618 98.8558 33.1045V24.6143C98.8558 24.2613 98.8333 24.0046 98.7884 23.8442C98.7435 23.6837 98.644 23.5746 98.49 23.5169C98.336 23.4527 98.1113 23.4238 97.8161 23.4302V23.2859H101.58V23.4302C101.214 23.4302 100.941 23.4912 100.762 23.6131C100.582 23.7287 100.492 24.0271 100.492 24.5084V32.2959C100.492 33.2265 100.605 33.9773 100.829 34.5485C101.054 35.1068 101.359 35.556 101.744 35.8961C102.135 36.2362 102.549 36.4769 102.985 36.6181C103.422 36.7593 103.842 36.8299 104.246 36.8299C105.78 36.8299 107.141 36.14 108.328 34.7602V25.163C108.328 24.6816 108.305 24.3287 108.261 24.1041C108.222 23.8731 108.139 23.703 108.01 23.5939C107.882 23.4848 107.683 23.4302 107.413 23.4302H107.279V23.2859H111.004V23.4302C110.625 23.4431 110.356 23.5008 110.195 23.6035C110.035 23.6998 109.955 23.9629 109.955 24.3929V35.9442C109.955 36.31 109.971 36.5828 110.003 36.7625C110.035 36.9422 110.128 37.0833 110.282 37.186C110.442 37.2887 110.683 37.3368 111.004 37.3304V37.4652Z"/>
<path d="M114.16 23.4302V23.2859H118.184C119.063 23.2859 119.698 23.3019 120.09 23.334C120.487 23.3597 120.856 23.4302 121.197 23.5458C121.819 23.7319 122.316 24.072 122.689 24.5661C123.061 25.0539 123.247 25.6731 123.247 26.424C123.247 26.9438 123.131 27.4444 122.9 27.9257C122.676 28.407 122.374 28.8337 121.995 29.2059C121.617 29.5782 121.206 29.8862 120.763 30.1301L121.764 31.6702L121.851 31.805C121.973 32.0296 122.365 32.6104 123.025 33.5473C123.693 34.4779 124.293 35.2512 124.826 35.8672C125.069 36.1432 125.397 36.4031 125.807 36.647C126.218 36.8908 126.674 37.0128 127.174 37.0128C127.534 37.0128 127.855 36.9454 128.137 36.8106C128.227 36.7721 128.336 36.7175 128.464 36.647C128.593 36.5764 128.708 36.5154 128.811 36.4641L128.869 36.6566C128.522 36.9261 128.159 37.1379 127.781 37.2919C127.575 37.3689 127.293 37.4395 126.934 37.5037C126.581 37.5679 126.225 37.5999 125.865 37.5999C125.57 37.5999 125.272 37.5646 124.97 37.4941C124.675 37.4235 124.36 37.2855 124.027 37.0801C123.693 36.8684 123.382 36.5828 123.093 36.2234C122.348 35.3185 121.546 34.2212 120.686 32.9313C120.686 32.9184 120.68 32.8992 120.667 32.8735C120.654 32.8478 120.648 32.835 120.648 32.835L119.223 30.6402L118.694 30.6595C118.617 30.6723 118.373 30.6787 117.962 30.6787H116.817V36.1079C116.817 36.4609 116.852 36.724 116.923 36.8972C116.993 37.0705 117.093 37.1828 117.221 37.2342C117.349 37.2855 117.551 37.3176 117.827 37.3304V37.4652H114.16V37.3304C114.609 37.3112 114.891 37.2213 115.007 37.0609C115.122 36.894 115.18 36.5347 115.18 35.9828V24.7105C115.18 24.3255 115.142 24.0431 115.065 23.8634C114.994 23.6837 114.895 23.5714 114.766 23.5265C114.638 23.4752 114.436 23.4431 114.16 23.4302ZM116.817 23.6613V30.3129H118.299C118.588 30.3129 118.941 30.2777 119.358 30.2071C119.781 30.1301 120.099 30.0338 120.311 29.9183C120.715 29.6937 121.055 29.3664 121.331 28.9364C121.607 28.5 121.745 27.9577 121.745 27.3096C121.745 27.0272 121.707 26.716 121.63 26.3759C121.553 26.0293 121.434 25.702 121.274 25.394C121.12 25.0859 120.917 24.8068 120.667 24.5565C120.365 24.2549 120.006 24.0303 119.589 23.8827C119.178 23.7351 118.642 23.6613 117.981 23.6613H116.817Z"/>
<path d="M152.546 37.3304V37.4652H146.828C146.314 37.4652 145.836 37.4459 145.394 37.4074C144.957 37.3689 144.453 37.2662 143.882 37.0994C143.311 36.9261 142.756 36.6662 142.217 36.3197C141.1 35.6202 140.208 34.7281 139.541 33.6436C138.88 32.5591 138.549 31.4264 138.549 30.2456C138.549 29.4434 138.726 28.6187 139.079 27.7716C139.438 26.9245 139.964 26.1448 140.658 25.4325C141.351 24.7202 142.198 24.149 143.199 23.719C144.206 23.2891 145.323 23.0741 146.549 23.0741C147.961 23.0741 149.433 23.3821 150.967 23.9982L151.554 25.6346H151.42C150.919 24.9993 150.232 24.4763 149.36 24.0656C148.493 23.6549 147.55 23.4495 146.529 23.4495C145.567 23.4495 144.691 23.6452 143.902 24.0367C143.112 24.4282 142.451 24.9608 141.919 25.6346C141.386 26.3085 140.978 27.0818 140.696 27.9545C140.42 28.8209 140.282 29.7161 140.282 30.6402C140.282 32.1355 140.581 33.3324 141.177 34.2308C141.774 35.1228 142.435 35.7742 143.16 36.1849C143.796 36.5443 144.505 36.7849 145.288 36.9069C146.077 37.0288 146.709 37.0898 147.184 37.0898L147.945 37.0705C148.516 37.0577 148.93 37.0288 149.186 36.9839C149.449 36.9325 149.629 36.8234 149.725 36.6566C149.828 36.4897 149.879 36.2202 149.879 35.848V33.7014C149.879 33.2842 149.796 33.0051 149.629 32.8639C149.462 32.7227 149.212 32.6585 148.878 32.6714V32.5366H152.546V32.6714C152.103 32.6778 151.821 32.7708 151.699 32.9505C151.577 33.1302 151.516 33.4254 151.516 33.8361V36.0694C151.516 36.5186 151.574 36.8427 151.689 37.0416C151.811 37.2342 152.029 37.3304 152.344 37.3304H152.546Z"/>
<path d="M154.691 37.4652V37.3304C155.147 37.3304 155.435 37.247 155.557 37.0801C155.686 36.9133 155.75 36.6277 155.75 36.2234V24.6143C155.75 24.1073 155.676 23.7864 155.528 23.6516C155.387 23.5169 155.102 23.4431 154.672 23.4302V23.2859H158.474V23.4302C158.134 23.4238 157.884 23.472 157.723 23.5746C157.563 23.6709 157.466 23.8025 157.434 23.9693C157.402 24.1362 157.386 24.3832 157.386 24.7105V34.664C157.386 35.1068 157.438 35.4758 157.54 35.771C157.643 36.0598 157.8 36.294 158.012 36.4737C158.23 36.6534 158.513 36.7849 158.859 36.8684C159.212 36.9518 159.629 36.9935 160.11 36.9935H161.843C162.472 36.9935 162.963 36.8844 163.316 36.6662C163.669 36.448 163.916 36.1304 164.057 35.7132C164.205 35.2897 164.295 34.7378 164.327 34.0575H164.461V37.4652H154.691Z"/>
<path d="M182.085 29.4177C182.085 30.5023 181.909 31.5451 181.556 32.5462C181.203 33.5473 180.677 34.4361 179.977 35.2127C179.284 35.9892 178.434 36.5956 177.426 37.032C176.419 37.4684 175.299 37.6866 174.067 37.6866C173.072 37.6866 172.161 37.5165 171.333 37.1764C170.512 36.8299 169.799 36.3485 169.196 35.7325C168.599 35.11 168.144 34.4073 167.829 33.6243C167.521 32.835 167.367 32.0072 167.367 31.1408C167.367 30.2295 167.534 29.299 167.868 28.3492C168.201 27.393 168.699 26.5202 169.36 25.7309C170.021 24.9351 170.855 24.2934 171.862 23.8057C172.87 23.3179 174.019 23.0741 175.309 23.0741C176.329 23.0741 177.253 23.2377 178.081 23.565C178.915 23.8859 179.634 24.3415 180.237 24.9319C180.84 25.5159 181.299 26.193 181.614 26.963C181.928 27.7267 182.085 28.5449 182.085 29.4177ZM181.2 31.16C181.2 30.0563 180.969 29.0487 180.507 28.1374C180.045 27.2262 179.445 26.4529 178.707 25.8175C177.975 25.1758 177.186 24.6849 176.339 24.3447C175.492 23.9982 174.709 23.8249 173.99 23.8249C173.104 23.8249 172.231 24.0592 171.372 24.5276C170.512 24.9897 169.809 25.6475 169.263 26.501C168.718 27.3481 168.445 28.3011 168.445 29.36C168.445 30.6627 168.763 31.8981 169.398 33.066C170.04 34.2276 170.884 35.1645 171.93 35.8769C172.976 36.5828 174.083 36.9357 175.251 36.9357C175.995 36.9357 176.73 36.7849 177.455 36.4833C178.18 36.1817 178.819 35.7742 179.371 35.2608C179.923 34.741 180.366 34.1249 180.699 33.4126C181.033 32.6938 181.2 31.943 181.2 31.16Z"/>
<path d="M185.135 23.4302V23.2859H188.822C189.65 23.2859 190.289 23.3115 190.738 23.3629C191.187 23.4142 191.588 23.5201 191.941 23.6805C192.544 23.9629 193.019 24.364 193.366 24.8838C193.712 25.3972 193.886 25.9908 193.886 26.6646C193.886 27.8711 193.295 28.8177 192.114 29.5044C192.968 29.6584 193.626 29.96 194.088 30.4092C194.832 31.1151 195.204 32.0489 195.204 33.2104C195.204 34.0768 195.018 34.8308 194.646 35.4726C194.274 36.1079 193.837 36.5892 193.337 36.9165C193.125 37.0513 192.91 37.1539 192.692 37.2245C192.48 37.2951 192.249 37.3497 191.999 37.3882C191.755 37.4203 191.534 37.4427 191.335 37.4556C191.136 37.462 190.889 37.4652 190.593 37.4652H185.116V37.3304C185.45 37.3304 185.687 37.2823 185.828 37.186C185.97 37.0898 186.056 36.9422 186.088 36.7432C186.12 36.5379 186.136 36.1945 186.136 35.7132V25.0282C186.136 24.5405 186.12 24.2003 186.088 24.0078C186.063 23.8153 185.979 23.6741 185.838 23.5843C185.697 23.488 185.463 23.4367 185.135 23.4302ZM187.773 23.5843V29.8124H189.496C190.664 29.8124 191.437 29.4819 191.816 28.8209C192.201 28.1535 192.393 27.4861 192.393 26.8187C192.393 25.4389 191.835 24.4923 190.719 23.9789C190.135 23.7158 189.278 23.5843 188.148 23.5843H187.773ZM188.88 30.1108H187.773V34.6062C187.773 35.0554 187.789 35.4084 187.821 35.6651C187.86 35.9218 187.969 36.1624 188.148 36.3871C188.328 36.6117 188.614 36.7849 189.005 36.9069C189.403 37.0288 189.945 37.0898 190.632 37.0898C191.44 37.0898 192.066 36.9582 192.509 36.6951C193.273 36.2394 193.655 35.3603 193.655 34.0575C193.655 33.3965 193.565 32.7997 193.385 32.2671C193.205 31.7344 192.945 31.2884 192.605 30.929C192.272 30.5696 191.864 30.3418 191.383 30.2456C190.927 30.1557 190.093 30.1108 188.88 30.1108Z"/>
<path d="M205.638 30.9386H201.498L199.352 36.3004C199.287 36.4609 199.255 36.5475 199.255 36.5603C199.172 36.7272 199.13 36.878 199.13 37.0128C199.13 37.2245 199.287 37.3304 199.602 37.3304V37.4652H197.494V37.3304C197.872 37.324 198.148 37.2181 198.322 37.0128C198.495 36.8074 198.668 36.4865 198.841 36.0501L203.982 23.0741H204.222L209.286 35.6073C209.286 35.6587 209.305 35.7132 209.344 35.771L209.421 35.9828C209.581 36.3806 209.764 36.7047 209.969 36.955C210.181 37.2053 210.479 37.3304 210.865 37.3304V37.4652H207.553V37.3304C207.739 37.3304 207.861 37.2887 207.919 37.2053C207.977 37.1218 208.006 37.0448 208.006 36.9742C208.006 36.7946 207.932 36.5379 207.784 36.2042C207.771 36.1785 207.755 36.14 207.736 36.0886C207.717 36.0309 207.701 35.9956 207.688 35.9828L205.638 30.9386ZM201.633 30.544H205.464L203.549 25.7116L201.633 30.544Z"/>
<path d="M212.788 37.4652V37.3304C213.244 37.3304 213.533 37.247 213.655 37.0801C213.783 36.9133 213.847 36.6277 213.847 36.2234V24.6143C213.847 24.1073 213.773 23.7864 213.626 23.6516C213.485 23.5169 213.199 23.4431 212.769 23.4302V23.2859H216.571V23.4302C216.231 23.4238 215.981 23.472 215.82 23.5746C215.66 23.6709 215.564 23.8025 215.532 23.9693C215.5 24.1362 215.484 24.3832 215.484 24.7105V34.664C215.484 35.1068 215.535 35.4758 215.638 35.771C215.74 36.0598 215.897 36.294 216.109 36.4737C216.327 36.6534 216.61 36.7849 216.956 36.8684C217.309 36.9518 217.726 36.9935 218.208 36.9935H219.94C220.569 36.9935 221.06 36.8844 221.413 36.6662C221.766 36.448 222.013 36.1304 222.154 35.7132C222.302 35.2897 222.392 34.7378 222.424 34.0575H222.559V37.4652H212.788Z"/>
<path d="M239.69 23.4688L240.364 25.24L240.249 25.2592C240.242 25.2464 240.194 25.195 240.104 25.1052C239.886 24.8485 239.636 24.6014 239.353 24.364C239.077 24.1265 238.737 23.9276 238.333 23.7672C237.929 23.6067 237.463 23.5265 236.937 23.5265C236.276 23.5265 235.705 23.6613 235.224 23.9308C234.742 24.2003 234.38 24.5565 234.136 24.9993C233.898 25.4357 233.78 25.8913 233.78 26.3662C233.78 26.809 233.866 27.1877 234.04 27.5021C234.219 27.8101 234.45 28.0636 234.733 28.2626C235.015 28.4551 235.391 28.638 235.859 28.8113C236.327 28.9781 236.687 29.1033 236.937 29.1867C237.624 29.3985 238.259 29.6455 238.843 29.9279C239.434 30.2039 239.963 30.6338 240.431 31.2178C240.9 31.7954 241.134 32.5366 241.134 33.4414C241.134 34.2821 240.926 35.0201 240.508 35.6555C240.091 36.2844 239.572 36.7561 238.949 37.0705C238.699 37.186 238.269 37.2823 237.659 37.3593C237.056 37.4299 236.636 37.4652 236.398 37.4652H232.615V33.3452H232.759C232.772 33.9548 232.83 34.4714 232.933 34.895C233.042 35.3121 233.241 35.6843 233.529 36.0116C233.818 36.3325 234.216 36.5796 234.723 36.7528C235.237 36.9261 235.881 37.0128 236.658 37.0128C237.402 37.0128 238.022 36.9069 238.516 36.6951C239.016 36.4833 239.401 36.217 239.671 35.8961C239.941 35.5752 240.12 35.2608 240.21 34.9528C240.3 34.6383 240.345 34.3527 240.345 34.096C240.345 33.5185 240.184 33.0339 239.864 32.6425C239.543 32.2446 239.151 31.9334 238.689 31.7087C238.233 31.4841 237.608 31.2338 236.812 30.9579C236.003 30.682 235.432 30.4605 235.099 30.2937C234.771 30.1268 234.476 29.9215 234.213 29.6776C233.86 29.3311 233.578 28.9268 233.366 28.4647C233.154 27.9963 233.048 27.4925 233.048 26.9534C233.048 26.2539 233.209 25.6122 233.529 25.0282C233.857 24.4378 234.332 23.9661 234.954 23.6131C235.577 23.2538 236.308 23.0741 237.149 23.0741C237.836 23.0741 238.631 23.1928 239.536 23.4302C239.555 23.4302 239.584 23.4367 239.623 23.4495C239.661 23.4623 239.684 23.4688 239.69 23.4688Z"/>
<path d="M258.527 29.4177C258.527 30.5023 258.351 31.5451 257.998 32.5462C257.645 33.5473 257.118 34.4361 256.419 35.2127C255.726 35.9892 254.876 36.5956 253.868 37.032C252.86 37.4684 251.741 37.6866 250.508 37.6866C249.514 37.6866 248.603 37.5165 247.775 37.1764C246.953 36.8299 246.241 36.3485 245.638 35.7325C245.041 35.11 244.585 34.4073 244.271 33.6243C243.963 32.835 243.809 32.0072 243.809 31.1408C243.809 30.2295 243.976 29.299 244.309 28.3492C244.643 27.393 245.14 26.5202 245.801 25.7309C246.462 24.9351 247.297 24.2934 248.304 23.8057C249.312 23.3179 250.46 23.0741 251.75 23.0741C252.771 23.0741 253.695 23.2377 254.523 23.565C255.357 23.8859 256.076 24.3415 256.679 24.9319C257.282 25.5159 257.741 26.193 258.055 26.963C258.37 27.7267 258.527 28.5449 258.527 29.4177ZM257.641 31.16C257.641 30.0563 257.41 29.0487 256.948 28.1374C256.486 27.2262 255.886 26.4529 255.148 25.8175C254.417 25.1758 253.627 24.6849 252.78 24.3447C251.933 23.9982 251.15 23.8249 250.431 23.8249C249.546 23.8249 248.673 24.0592 247.813 24.5276C246.953 24.9897 246.251 25.6475 245.705 26.501C245.16 27.3481 244.887 28.3011 244.887 29.36C244.887 30.6627 245.204 31.8981 245.84 33.066C246.482 34.2276 247.325 35.1645 248.371 35.8769C249.418 36.5828 250.525 36.9357 251.693 36.9357C252.437 36.9357 253.172 36.7849 253.897 36.4833C254.622 36.1817 255.261 35.7742 255.812 35.2608C256.364 34.741 256.807 34.1249 257.141 33.4126C257.475 32.6938 257.641 31.943 257.641 31.16Z"/>
<path d="M261.009 37.4652V37.3304C261.465 37.3304 261.754 37.247 261.875 37.0801C262.004 36.9133 262.068 36.6277 262.068 36.2234V24.6143C262.068 24.1073 261.994 23.7864 261.847 23.6516C261.705 23.5169 261.42 23.4431 260.99 23.4302V23.2859H264.792V23.4302C264.452 23.4238 264.202 23.472 264.041 23.5746C263.881 23.6709 263.785 23.8025 263.753 23.9693C263.72 24.1362 263.704 24.3832 263.704 24.7105V34.664C263.704 35.1068 263.756 35.4758 263.858 35.771C263.961 36.0598 264.118 36.294 264.33 36.4737C264.548 36.6534 264.831 36.7849 265.177 36.8684C265.53 36.9518 265.947 36.9935 266.429 36.9935H268.161C268.79 36.9935 269.281 36.8844 269.634 36.6662C269.987 36.448 270.234 36.1304 270.375 35.7132C270.523 35.2897 270.613 34.7378 270.645 34.0575H270.78V37.4652H261.009Z"/>
<path d="M287.008 37.4652H284.332V35.28C282.971 36.801 281.341 37.5614 279.442 37.5614C278.819 37.5614 278.238 37.478 277.699 37.3112C277.16 37.1443 276.676 36.8812 276.246 36.5218C275.822 36.1624 275.485 35.694 275.235 35.1164C274.985 34.5324 274.86 33.8618 274.86 33.1045V24.6143C274.86 24.2613 274.837 24.0046 274.792 23.8442C274.747 23.6837 274.648 23.5746 274.494 23.5169C274.34 23.4527 274.115 23.4238 273.82 23.4302V23.2859H277.584V23.4302C277.218 23.4302 276.945 23.4912 276.766 23.6131C276.586 23.7287 276.496 24.0271 276.496 24.5084V32.2959C276.496 33.2265 276.608 33.9773 276.833 34.5485C277.058 35.1068 277.362 35.556 277.747 35.8961C278.139 36.2362 278.553 36.4769 278.989 36.6181C279.426 36.7593 279.846 36.8299 280.25 36.8299C281.784 36.8299 283.144 36.14 284.332 34.7602V25.163C284.332 24.6816 284.309 24.3287 284.264 24.1041C284.226 23.8731 284.142 23.703 284.014 23.5939C283.886 23.4848 283.687 23.4302 283.417 23.4302H283.282V23.2859H287.008V23.4302C286.629 23.4431 286.36 23.5008 286.199 23.6035C286.039 23.6998 285.959 23.9629 285.959 24.3929V35.9442C285.959 36.31 285.975 36.5828 286.007 36.7625C286.039 36.9422 286.132 37.0833 286.286 37.186C286.446 37.2887 286.687 37.3368 287.008 37.3304V37.4652Z"/>
<path d="M301.32 22.7949L300.646 24.5084H300.512C300.537 24.425 300.55 24.287 300.55 24.0945C300.55 23.934 300.492 23.8378 300.377 23.8057C300.268 23.7672 300.104 23.7479 299.886 23.7479H296.18V35.8865C296.18 36.1624 296.193 36.3967 296.218 36.5892C296.244 36.7753 296.292 36.9261 296.363 37.0416C296.433 37.1507 296.536 37.2277 296.671 37.2727C296.806 37.3112 297.014 37.3304 297.297 37.3304V37.4652H293.456V37.3304C293.777 37.2983 294.008 37.2534 294.149 37.1956C294.296 37.1379 294.399 37.032 294.457 36.878C294.515 36.7175 294.544 36.4544 294.544 36.0886V23.7479H290.991C290.638 23.7479 290.404 23.7672 290.289 23.8057C290.18 23.8442 290.125 23.9501 290.125 24.1233C290.125 24.1939 290.151 24.3223 290.202 24.5084H290.067L289.394 22.7949H289.528C289.65 23.0259 289.775 23.1703 289.904 23.2281C290.013 23.2666 290.244 23.2859 290.597 23.2859H300.021C300.399 23.2859 300.666 23.2634 300.82 23.2185C300.98 23.1736 301.102 23.0324 301.186 22.7949H301.32Z"/>
<path d="M307.345 23.2859V23.4302C307.127 23.411 306.892 23.4495 306.642 23.5458C306.398 23.6356 306.276 23.8474 306.276 24.1811C306.263 24.2581 306.257 24.4988 306.257 24.903V35.7902C306.257 36.2394 306.273 36.5635 306.305 36.7625C306.337 36.955 306.43 37.0994 306.584 37.1956C306.745 37.2919 306.998 37.3368 307.345 37.3304V37.4652H303.562V37.3304C303.902 37.3176 304.142 37.2727 304.284 37.1956C304.431 37.1122 304.524 36.9775 304.563 36.7913C304.601 36.6052 304.621 36.278 304.621 35.8095V25.0282C304.621 24.5982 304.605 24.2773 304.572 24.0656C304.54 23.8538 304.447 23.6902 304.293 23.5746C304.139 23.4591 303.895 23.411 303.562 23.4302V23.2859H307.345Z"/>
<path d="M324.959 29.4177C324.959 30.5023 324.783 31.5451 324.43 32.5462C324.077 33.5473 323.55 34.4361 322.851 35.2127C322.158 35.9892 321.308 36.5956 320.3 37.032C319.292 37.4684 318.173 37.6866 316.94 37.6866C315.946 37.6866 315.035 37.5165 314.207 37.1764C313.385 36.8299 312.673 36.3485 312.07 35.7325C311.473 35.11 311.017 34.4073 310.703 33.6243C310.395 32.835 310.241 32.0072 310.241 31.1408C310.241 30.2295 310.408 29.299 310.741 28.3492C311.075 27.393 311.572 26.5202 312.233 25.7309C312.894 24.9351 313.729 24.2934 314.736 23.8057C315.744 23.3179 316.892 23.0741 318.182 23.0741C319.203 23.0741 320.127 23.2377 320.955 23.565C321.789 23.8859 322.508 24.3415 323.111 24.9319C323.714 25.5159 324.173 26.193 324.487 26.963C324.802 27.7267 324.959 28.5449 324.959 29.4177ZM324.073 31.16C324.073 30.0563 323.842 29.0487 323.38 28.1374C322.918 27.2262 322.318 26.4529 321.58 25.8175C320.849 25.1758 320.059 24.6849 319.212 24.3447C318.365 23.9982 317.582 23.8249 316.863 23.8249C315.978 23.8249 315.105 24.0592 314.245 24.5276C313.385 24.9897 312.683 25.6475 312.137 26.501C311.592 27.3481 311.319 28.3011 311.319 29.36C311.319 30.6627 311.637 31.8981 312.272 33.066C312.914 34.2276 313.757 35.1645 314.803 35.8769C315.85 36.5828 316.957 36.9357 318.125 36.9357C318.869 36.9357 319.604 36.7849 320.329 36.4833C321.054 36.1817 321.693 35.7742 322.245 35.2608C322.796 34.741 323.239 34.1249 323.573 33.4126C323.907 32.6938 324.073 31.943 324.073 31.16Z"/>
<path d="M339.599 23.2859H342.342V23.4302C341.919 23.4431 341.627 23.5329 341.466 23.6998C341.312 23.8602 341.235 24.2035 341.235 24.7298V37.6385L329.925 25.5961V36.0886C329.925 36.3453 329.941 36.5571 329.973 36.724C330.005 36.8844 330.063 37.0063 330.146 37.0898C330.229 37.1732 330.316 37.2245 330.406 37.2438C330.496 37.263 330.675 37.2919 330.945 37.3304V37.4652H328.221V37.3304C328.58 37.324 328.834 37.2759 328.981 37.186C329.135 37.0962 329.228 36.9614 329.26 36.7817C329.293 36.5956 329.309 36.278 329.309 35.8287V26.2315C329.309 25.4293 329.196 24.7554 328.972 24.21C328.747 23.6581 328.202 23.3982 327.335 23.4302V23.2859H330.002L340.629 34.6062V24.595C340.629 24.1073 340.545 23.7928 340.379 23.6516C340.218 23.504 339.958 23.4302 339.599 23.4302V23.2859Z"/>
<path d="M352.15 23.4688L352.824 25.24L352.708 25.2592C352.702 25.2464 352.654 25.195 352.564 25.1052C352.346 24.8485 352.095 24.6014 351.813 24.364C351.537 24.1265 351.197 23.9276 350.793 23.7672C350.388 23.6067 349.923 23.5265 349.397 23.5265C348.736 23.5265 348.165 23.6613 347.683 23.9308C347.202 24.2003 346.839 24.5565 346.596 24.9993C346.358 25.4357 346.239 25.8913 346.239 26.3662C346.239 26.809 346.326 27.1877 346.499 27.5021C346.679 27.8101 346.91 28.0636 347.192 28.2626C347.475 28.4551 347.85 28.638 348.319 28.8113C348.787 28.9781 349.147 29.1033 349.397 29.1867C350.083 29.3985 350.719 29.6455 351.303 29.9279C351.893 30.2039 352.423 30.6338 352.891 31.2178C353.36 31.7954 353.594 32.5366 353.594 33.4414C353.594 34.2821 353.385 35.0201 352.968 35.6555C352.551 36.2844 352.031 36.7561 351.409 37.0705C351.158 37.186 350.728 37.2823 350.119 37.3593C349.516 37.4299 349.095 37.4652 348.858 37.4652H345.075V33.3452H345.219C345.232 33.9548 345.29 34.4714 345.392 34.895C345.501 35.3121 345.7 35.6843 345.989 36.0116C346.278 36.3325 346.676 36.5796 347.183 36.7528C347.696 36.9261 348.341 37.0128 349.118 37.0128C349.862 37.0128 350.481 36.9069 350.975 36.6951C351.476 36.4833 351.861 36.217 352.131 35.8961C352.4 35.5752 352.58 35.2608 352.67 34.9528C352.76 34.6383 352.804 34.3527 352.804 34.096C352.804 33.5185 352.644 33.0339 352.323 32.6425C352.002 32.2446 351.611 31.9334 351.149 31.7087C350.693 31.4841 350.067 31.2338 349.272 30.9579C348.463 30.682 347.892 30.4605 347.558 30.2937C347.231 30.1268 346.936 29.9215 346.673 29.6776C346.32 29.3311 346.037 28.9268 345.826 28.4647C345.614 27.9963 345.508 27.4925 345.508 26.9534C345.508 26.2539 345.668 25.6122 345.989 25.0282C346.316 24.4378 346.791 23.9661 347.414 23.6131C348.036 23.2538 348.768 23.0741 349.609 23.0741C350.295 23.0741 351.091 23.1928 351.996 23.4302C352.015 23.4302 352.044 23.4367 352.082 23.4495C352.121 23.4623 352.143 23.4688 352.15 23.4688Z"/>
</mask>
<path d="M64.1485 23.2859H66.8919V23.4302C66.4684 23.4431 66.1764 23.5329 66.016 23.6998C65.8619 23.8602 65.7849 24.2035 65.7849 24.7298V37.6385L54.4742 25.5961V36.0886C54.4742 36.3453 54.4902 36.5571 54.5223 36.724C54.5544 36.8844 54.6122 37.0063 54.6956 37.0898C54.779 37.1732 54.8657 37.2245 54.9555 37.2438C55.0454 37.263 55.225 37.2919 55.4946 37.3304V37.4652H52.7704V37.3304C53.1297 37.324 53.3832 37.2759 53.5308 37.186C53.6849 37.0962 53.7779 36.9614 53.81 36.7817C53.8421 36.5956 53.8581 36.278 53.8581 35.8287V26.2315C53.8581 25.4293 53.7458 24.7554 53.5212 24.21C53.2966 23.6581 52.7511 23.3982 51.8848 23.4302V23.2859H54.5512L65.1785 34.6062V24.595C65.1785 24.1073 65.0951 23.7928 64.9282 23.6516C64.7678 23.504 64.5079 23.4302 64.1485 23.4302V23.2859Z" fill="black"/>
<path d="M77.3733 30.9386H73.234L71.0874 36.3004C71.0232 36.4609 70.9911 36.5475 70.9911 36.5603C70.9077 36.7272 70.866 36.878 70.866 37.0128C70.866 37.2245 71.0232 37.3304 71.3377 37.3304V37.4652H69.2296V37.3304C69.6082 37.324 69.8841 37.2181 70.0574 37.0128C70.2307 36.8074 70.4039 36.4865 70.5772 36.0501L75.7176 23.0741H75.9582L81.0216 35.6073C81.0216 35.6587 81.0408 35.7132 81.0793 35.771L81.1564 35.9828C81.3168 36.3806 81.4997 36.7047 81.705 36.955C81.9168 37.2053 82.2152 37.3304 82.6003 37.3304V37.4652H79.2889V37.3304C79.475 37.3304 79.5969 37.2887 79.6547 37.2053C79.7124 37.1218 79.7413 37.0448 79.7413 36.9742C79.7413 36.7946 79.6675 36.5379 79.5199 36.2042C79.5071 36.1785 79.491 36.14 79.4718 36.0886C79.4525 36.0309 79.4365 35.9956 79.4236 35.9828L77.3733 30.9386ZM73.3688 30.544H77.2L75.2844 25.7116L73.3688 30.544Z" fill="black"/>
<path d="M95.4593 22.7949L94.7854 24.5084H94.6507C94.6763 24.425 94.6892 24.287 94.6892 24.0945C94.6892 23.934 94.6314 23.8378 94.5159 23.8057C94.4068 23.7672 94.2432 23.7479 94.025 23.7479H90.3189V35.8865C90.3189 36.1624 90.3317 36.3967 90.3574 36.5892C90.3831 36.7753 90.4312 36.9261 90.5018 37.0416C90.5724 37.1507 90.6751 37.2277 90.8098 37.2727C90.9446 37.3112 91.1532 37.3304 91.4355 37.3304V37.4652H87.5947V37.3304C87.9156 37.2983 88.1466 37.2534 88.2878 37.1956C88.4354 37.1379 88.5381 37.032 88.5958 36.878C88.6536 36.7175 88.6825 36.4544 88.6825 36.0886V23.7479H85.1304C84.7775 23.7479 84.5432 23.7672 84.4277 23.8057C84.3186 23.8442 84.2641 23.9501 84.2641 24.1233C84.2641 24.1939 84.2897 24.3223 84.3411 24.5084H84.2063L83.5325 22.7949H83.6672C83.7892 23.0259 83.9143 23.1703 84.0427 23.2281C84.1518 23.2666 84.3828 23.2859 84.7357 23.2859H94.1597C94.5384 23.2859 94.8047 23.2634 94.9587 23.2185C95.1192 23.1736 95.2411 23.0324 95.3245 22.7949H95.4593Z" fill="black"/>
<path d="M111.004 37.4652H108.328V35.28C106.967 36.801 105.337 37.5614 103.438 37.5614C102.815 37.5614 102.235 37.478 101.695 37.3112C101.156 37.1443 100.672 36.8812 100.242 36.5218C99.8184 36.1624 99.4815 35.694 99.2312 35.1164C98.9809 34.5324 98.8558 33.8618 98.8558 33.1045V24.6143C98.8558 24.2613 98.8333 24.0046 98.7884 23.8442C98.7435 23.6837 98.644 23.5746 98.49 23.5169C98.336 23.4527 98.1113 23.4238 97.8161 23.4302V23.2859H101.58V23.4302C101.214 23.4302 100.941 23.4912 100.762 23.6131C100.582 23.7287 100.492 24.0271 100.492 24.5084V32.2959C100.492 33.2265 100.605 33.9773 100.829 34.5485C101.054 35.1068 101.359 35.556 101.744 35.8961C102.135 36.2362 102.549 36.4769 102.985 36.6181C103.422 36.7593 103.842 36.8299 104.246 36.8299C105.78 36.8299 107.141 36.14 108.328 34.7602V25.163C108.328 24.6816 108.305 24.3287 108.261 24.1041C108.222 23.8731 108.139 23.703 108.01 23.5939C107.882 23.4848 107.683 23.4302 107.413 23.4302H107.279V23.2859H111.004V23.4302C110.625 23.4431 110.356 23.5008 110.195 23.6035C110.035 23.6998 109.955 23.9629 109.955 24.3929V35.9442C109.955 36.31 109.971 36.5828 110.003 36.7625C110.035 36.9422 110.128 37.0833 110.282 37.186C110.442 37.2887 110.683 37.3368 111.004 37.3304V37.4652Z" fill="black"/>
<path d="M114.16 23.4302V23.2859H118.184C119.063 23.2859 119.698 23.3019 120.09 23.334C120.487 23.3597 120.856 23.4302 121.197 23.5458C121.819 23.7319 122.316 24.072 122.689 24.5661C123.061 25.0539 123.247 25.6731 123.247 26.424C123.247 26.9438 123.131 27.4444 122.9 27.9257C122.676 28.407 122.374 28.8337 121.995 29.2059C121.617 29.5782 121.206 29.8862 120.763 30.1301L121.764 31.6702L121.851 31.805C121.973 32.0296 122.365 32.6104 123.025 33.5473C123.693 34.4779 124.293 35.2512 124.826 35.8672C125.069 36.1432 125.397 36.4031 125.807 36.647C126.218 36.8908 126.674 37.0128 127.174 37.0128C127.534 37.0128 127.855 36.9454 128.137 36.8106C128.227 36.7721 128.336 36.7175 128.464 36.647C128.593 36.5764 128.708 36.5154 128.811 36.4641L128.869 36.6566C128.522 36.9261 128.159 37.1379 127.781 37.2919C127.575 37.3689 127.293 37.4395 126.934 37.5037C126.581 37.5679 126.225 37.5999 125.865 37.5999C125.57 37.5999 125.272 37.5646 124.97 37.4941C124.675 37.4235 124.36 37.2855 124.027 37.0801C123.693 36.8684 123.382 36.5828 123.093 36.2234C122.348 35.3185 121.546 34.2212 120.686 32.9313C120.686 32.9184 120.68 32.8992 120.667 32.8735C120.654 32.8478 120.648 32.835 120.648 32.835L119.223 30.6402L118.694 30.6595C118.617 30.6723 118.373 30.6787 117.962 30.6787H116.817V36.1079C116.817 36.4609 116.852 36.724 116.923 36.8972C116.993 37.0705 117.093 37.1828 117.221 37.2342C117.349 37.2855 117.551 37.3176 117.827 37.3304V37.4652H114.16V37.3304C114.609 37.3112 114.891 37.2213 115.007 37.0609C115.122 36.894 115.18 36.5347 115.18 35.9828V24.7105C115.18 24.3255 115.142 24.0431 115.065 23.8634C114.994 23.6837 114.895 23.5714 114.766 23.5265C114.638 23.4752 114.436 23.4431 114.16 23.4302ZM116.817 23.6613V30.3129H118.299C118.588 30.3129 118.941 30.2777 119.358 30.2071C119.781 30.1301 120.099 30.0338 120.311 29.9183C120.715 29.6937 121.055 29.3664 121.331 28.9364C121.607 28.5 121.745 27.9577 121.745 27.3096C121.745 27.0272 121.707 26.716 121.63 26.3759C121.553 26.0293 121.434 25.702 121.274 25.394C121.12 25.0859 120.917 24.8068 120.667 24.5565C120.365 24.2549 120.006 24.0303 119.589 23.8827C119.178 23.7351 118.642 23.6613 117.981 23.6613H116.817Z" fill="black"/>
<path d="M152.546 37.3304V37.4652H146.828C146.314 37.4652 145.836 37.4459 145.394 37.4074C144.957 37.3689 144.453 37.2662 143.882 37.0994C143.311 36.9261 142.756 36.6662 142.217 36.3197C141.1 35.6202 140.208 34.7281 139.541 33.6436C138.88 32.5591 138.549 31.4264 138.549 30.2456C138.549 29.4434 138.726 28.6187 139.079 27.7716C139.438 26.9245 139.964 26.1448 140.658 25.4325C141.351 24.7202 142.198 24.149 143.199 23.719C144.206 23.2891 145.323 23.0741 146.549 23.0741C147.961 23.0741 149.433 23.3821 150.967 23.9982L151.554 25.6346H151.42C150.919 24.9993 150.232 24.4763 149.36 24.0656C148.493 23.6549 147.55 23.4495 146.529 23.4495C145.567 23.4495 144.691 23.6452 143.902 24.0367C143.112 24.4282 142.451 24.9608 141.919 25.6346C141.386 26.3085 140.978 27.0818 140.696 27.9545C140.42 28.8209 140.282 29.7161 140.282 30.6402C140.282 32.1355 140.581 33.3324 141.177 34.2308C141.774 35.1228 142.435 35.7742 143.16 36.1849C143.796 36.5443 144.505 36.7849 145.288 36.9069C146.077 37.0288 146.709 37.0898 147.184 37.0898L147.945 37.0705C148.516 37.0577 148.93 37.0288 149.186 36.9839C149.449 36.9325 149.629 36.8234 149.725 36.6566C149.828 36.4897 149.879 36.2202 149.879 35.848V33.7014C149.879 33.2842 149.796 33.0051 149.629 32.8639C149.462 32.7227 149.212 32.6585 148.878 32.6714V32.5366H152.546V32.6714C152.103 32.6778 151.821 32.7708 151.699 32.9505C151.577 33.1302 151.516 33.4254 151.516 33.8361V36.0694C151.516 36.5186 151.574 36.8427 151.689 37.0416C151.811 37.2342 152.029 37.3304 152.344 37.3304H152.546Z" fill="black"/>
<path d="M154.691 37.4652V37.3304C155.147 37.3304 155.435 37.247 155.557 37.0801C155.686 36.9133 155.75 36.6277 155.75 36.2234V24.6143C155.75 24.1073 155.676 23.7864 155.528 23.6516C155.387 23.5169 155.102 23.4431 154.672 23.4302V23.2859H158.474V23.4302C158.134 23.4238 157.884 23.472 157.723 23.5746C157.563 23.6709 157.466 23.8025 157.434 23.9693C157.402 24.1362 157.386 24.3832 157.386 24.7105V34.664C157.386 35.1068 157.438 35.4758 157.54 35.771C157.643 36.0598 157.8 36.294 158.012 36.4737C158.23 36.6534 158.513 36.7849 158.859 36.8684C159.212 36.9518 159.629 36.9935 160.11 36.9935H161.843C162.472 36.9935 162.963 36.8844 163.316 36.6662C163.669 36.448 163.916 36.1304 164.057 35.7132C164.205 35.2897 164.295 34.7378 164.327 34.0575H164.461V37.4652H154.691Z" fill="black"/>
<path d="M182.085 29.4177C182.085 30.5023 181.909 31.5451 181.556 32.5462C181.203 33.5473 180.677 34.4361 179.977 35.2127C179.284 35.9892 178.434 36.5956 177.426 37.032C176.419 37.4684 175.299 37.6866 174.067 37.6866C173.072 37.6866 172.161 37.5165 171.333 37.1764C170.512 36.8299 169.799 36.3485 169.196 35.7325C168.599 35.11 168.144 34.4073 167.829 33.6243C167.521 32.835 167.367 32.0072 167.367 31.1408C167.367 30.2295 167.534 29.299 167.868 28.3492C168.201 27.393 168.699 26.5202 169.36 25.7309C170.021 24.9351 170.855 24.2934 171.862 23.8057C172.87 23.3179 174.019 23.0741 175.309 23.0741C176.329 23.0741 177.253 23.2377 178.081 23.565C178.915 23.8859 179.634 24.3415 180.237 24.9319C180.84 25.5159 181.299 26.193 181.614 26.963C181.928 27.7267 182.085 28.5449 182.085 29.4177ZM181.2 31.16C181.2 30.0563 180.969 29.0487 180.507 28.1374C180.045 27.2262 179.445 26.4529 178.707 25.8175C177.975 25.1758 177.186 24.6849 176.339 24.3447C175.492 23.9982 174.709 23.8249 173.99 23.8249C173.104 23.8249 172.231 24.0592 171.372 24.5276C170.512 24.9897 169.809 25.6475 169.263 26.501C168.718 27.3481 168.445 28.3011 168.445 29.36C168.445 30.6627 168.763 31.8981 169.398 33.066C170.04 34.2276 170.884 35.1645 171.93 35.8769C172.976 36.5828 174.083 36.9357 175.251 36.9357C175.995 36.9357 176.73 36.7849 177.455 36.4833C178.18 36.1817 178.819 35.7742 179.371 35.2608C179.923 34.741 180.366 34.1249 180.699 33.4126C181.033 32.6938 181.2 31.943 181.2 31.16Z" fill="black"/>
<path d="M185.135 23.4302V23.2859H188.822C189.65 23.2859 190.289 23.3115 190.738 23.3629C191.187 23.4142 191.588 23.5201 191.941 23.6805C192.544 23.9629 193.019 24.364 193.366 24.8838C193.712 25.3972 193.886 25.9908 193.886 26.6646C193.886 27.8711 193.295 28.8177 192.114 29.5044C192.968 29.6584 193.626 29.96 194.088 30.4092C194.832 31.1151 195.204 32.0489 195.204 33.2104C195.204 34.0768 195.018 34.8308 194.646 35.4726C194.274 36.1079 193.837 36.5892 193.337 36.9165C193.125 37.0513 192.91 37.1539 192.692 37.2245C192.48 37.2951 192.249 37.3497 191.999 37.3882C191.755 37.4203 191.534 37.4427 191.335 37.4556C191.136 37.462 190.889 37.4652 190.593 37.4652H185.116V37.3304C185.45 37.3304 185.687 37.2823 185.828 37.186C185.97 37.0898 186.056 36.9422 186.088 36.7432C186.12 36.5379 186.136 36.1945 186.136 35.7132V25.0282C186.136 24.5405 186.12 24.2003 186.088 24.0078C186.063 23.8153 185.979 23.6741 185.838 23.5843C185.697 23.488 185.463 23.4367 185.135 23.4302ZM187.773 23.5843V29.8124H189.496C190.664 29.8124 191.437 29.4819 191.816 28.8209C192.201 28.1535 192.393 27.4861 192.393 26.8187C192.393 25.4389 191.835 24.4923 190.719 23.9789C190.135 23.7158 189.278 23.5843 188.148 23.5843H187.773ZM188.88 30.1108H187.773V34.6062C187.773 35.0554 187.789 35.4084 187.821 35.6651C187.86 35.9218 187.969 36.1624 188.148 36.3871C188.328 36.6117 188.614 36.7849 189.005 36.9069C189.403 37.0288 189.945 37.0898 190.632 37.0898C191.44 37.0898 192.066 36.9582 192.509 36.6951C193.273 36.2394 193.655 35.3603 193.655 34.0575C193.655 33.3965 193.565 32.7997 193.385 32.2671C193.205 31.7344 192.945 31.2884 192.605 30.929C192.272 30.5696 191.864 30.3418 191.383 30.2456C190.927 30.1557 190.093 30.1108 188.88 30.1108Z" fill="black"/>
<path d="M205.638 30.9386H201.498L199.352 36.3004C199.287 36.4609 199.255 36.5475 199.255 36.5603C199.172 36.7272 199.13 36.878 199.13 37.0128C199.13 37.2245 199.287 37.3304 199.602 37.3304V37.4652H197.494V37.3304C197.872 37.324 198.148 37.2181 198.322 37.0128C198.495 36.8074 198.668 36.4865 198.841 36.0501L203.982 23.0741H204.222L209.286 35.6073C209.286 35.6587 209.305 35.7132 209.344 35.771L209.421 35.9828C209.581 36.3806 209.764 36.7047 209.969 36.955C210.181 37.2053 210.479 37.3304 210.865 37.3304V37.4652H207.553V37.3304C207.739 37.3304 207.861 37.2887 207.919 37.2053C207.977 37.1218 208.006 37.0448 208.006 36.9742C208.006 36.7946 207.932 36.5379 207.784 36.2042C207.771 36.1785 207.755 36.14 207.736 36.0886C207.717 36.0309 207.701 35.9956 207.688 35.9828L205.638 30.9386ZM201.633 30.544H205.464L203.549 25.7116L201.633 30.544Z" fill="black"/>
<path d="M212.788 37.4652V37.3304C213.244 37.3304 213.533 37.247 213.655 37.0801C213.783 36.9133 213.847 36.6277 213.847 36.2234V24.6143C213.847 24.1073 213.773 23.7864 213.626 23.6516C213.485 23.5169 213.199 23.4431 212.769 23.4302V23.2859H216.571V23.4302C216.231 23.4238 215.981 23.472 215.82 23.5746C215.66 23.6709 215.564 23.8025 215.532 23.9693C215.5 24.1362 215.484 24.3832 215.484 24.7105V34.664C215.484 35.1068 215.535 35.4758 215.638 35.771C215.74 36.0598 215.897 36.294 216.109 36.4737C216.327 36.6534 216.61 36.7849 216.956 36.8684C217.309 36.9518 217.726 36.9935 218.208 36.9935H219.94C220.569 36.9935 221.06 36.8844 221.413 36.6662C221.766 36.448 222.013 36.1304 222.154 35.7132C222.302 35.2897 222.392 34.7378 222.424 34.0575H222.559V37.4652H212.788Z" fill="black"/>
<path d="M239.69 23.4688L240.364 25.24L240.249 25.2592C240.242 25.2464 240.194 25.195 240.104 25.1052C239.886 24.8485 239.636 24.6014 239.353 24.364C239.077 24.1265 238.737 23.9276 238.333 23.7672C237.929 23.6067 237.463 23.5265 236.937 23.5265C236.276 23.5265 235.705 23.6613 235.224 23.9308C234.742 24.2003 234.38 24.5565 234.136 24.9993C233.898 25.4357 233.78 25.8913 233.78 26.3662C233.78 26.809 233.866 27.1877 234.04 27.5021C234.219 27.8101 234.45 28.0636 234.733 28.2626C235.015 28.4551 235.391 28.638 235.859 28.8113C236.327 28.9781 236.687 29.1033 236.937 29.1867C237.624 29.3985 238.259 29.6455 238.843 29.9279C239.434 30.2039 239.963 30.6338 240.431 31.2178C240.9 31.7954 241.134 32.5366 241.134 33.4414C241.134 34.2821 240.926 35.0201 240.508 35.6555C240.091 36.2844 239.572 36.7561 238.949 37.0705C238.699 37.186 238.269 37.2823 237.659 37.3593C237.056 37.4299 236.636 37.4652 236.398 37.4652H232.615V33.3452H232.759C232.772 33.9548 232.83 34.4714 232.933 34.895C233.042 35.3121 233.241 35.6843 233.529 36.0116C233.818 36.3325 234.216 36.5796 234.723 36.7528C235.237 36.9261 235.881 37.0128 236.658 37.0128C237.402 37.0128 238.022 36.9069 238.516 36.6951C239.016 36.4833 239.401 36.217 239.671 35.8961C239.941 35.5752 240.12 35.2608 240.21 34.9528C240.3 34.6383 240.345 34.3527 240.345 34.096C240.345 33.5185 240.184 33.0339 239.864 32.6425C239.543 32.2446 239.151 31.9334 238.689 31.7087C238.233 31.4841 237.608 31.2338 236.812 30.9579C236.003 30.682 235.432 30.4605 235.099 30.2937C234.771 30.1268 234.476 29.9215 234.213 29.6776C233.86 29.3311 233.578 28.9268 233.366 28.4647C233.154 27.9963 233.048 27.4925 233.048 26.9534C233.048 26.2539 233.209 25.6122 233.529 25.0282C233.857 24.4378 234.332 23.9661 234.954 23.6131C235.577 23.2538 236.308 23.0741 237.149 23.0741C237.836 23.0741 238.631 23.1928 239.536 23.4302C239.555 23.4302 239.584 23.4367 239.623 23.4495C239.661 23.4623 239.684 23.4688 239.69 23.4688Z" fill="black"/>
<path d="M258.527 29.4177C258.527 30.5023 258.351 31.5451 257.998 32.5462C257.645 33.5473 257.118 34.4361 256.419 35.2127C255.726 35.9892 254.876 36.5956 253.868 37.032C252.86 37.4684 251.741 37.6866 250.508 37.6866C249.514 37.6866 248.603 37.5165 247.775 37.1764C246.953 36.8299 246.241 36.3485 245.638 35.7325C245.041 35.11 244.585 34.4073 244.271 33.6243C243.963 32.835 243.809 32.0072 243.809 31.1408C243.809 30.2295 243.976 29.299 244.309 28.3492C244.643 27.393 245.14 26.5202 245.801 25.7309C246.462 24.9351 247.297 24.2934 248.304 23.8057C249.312 23.3179 250.46 23.0741 251.75 23.0741C252.771 23.0741 253.695 23.2377 254.523 23.565C255.357 23.8859 256.076 24.3415 256.679 24.9319C257.282 25.5159 257.741 26.193 258.055 26.963C258.37 27.7267 258.527 28.5449 258.527 29.4177ZM257.641 31.16C257.641 30.0563 257.41 29.0487 256.948 28.1374C256.486 27.2262 255.886 26.4529 255.148 25.8175C254.417 25.1758 253.627 24.6849 252.78 24.3447C251.933 23.9982 251.15 23.8249 250.431 23.8249C249.546 23.8249 248.673 24.0592 247.813 24.5276C246.953 24.9897 246.251 25.6475 245.705 26.501C245.16 27.3481 244.887 28.3011 244.887 29.36C244.887 30.6627 245.204 31.8981 245.84 33.066C246.482 34.2276 247.325 35.1645 248.371 35.8769C249.418 36.5828 250.525 36.9357 251.693 36.9357C252.437 36.9357 253.172 36.7849 253.897 36.4833C254.622 36.1817 255.261 35.7742 255.812 35.2608C256.364 34.741 256.807 34.1249 257.141 33.4126C257.475 32.6938 257.641 31.943 257.641 31.16Z" fill="black"/>
<path d="M261.009 37.4652V37.3304C261.465 37.3304 261.754 37.247 261.875 37.0801C262.004 36.9133 262.068 36.6277 262.068 36.2234V24.6143C262.068 24.1073 261.994 23.7864 261.847 23.6516C261.705 23.5169 261.42 23.4431 260.99 23.4302V23.2859H264.792V23.4302C264.452 23.4238 264.202 23.472 264.041 23.5746C263.881 23.6709 263.785 23.8025 263.753 23.9693C263.72 24.1362 263.704 24.3832 263.704 24.7105V34.664C263.704 35.1068 263.756 35.4758 263.858 35.771C263.961 36.0598 264.118 36.294 264.33 36.4737C264.548 36.6534 264.831 36.7849 265.177 36.8684C265.53 36.9518 265.947 36.9935 266.429 36.9935H268.161C268.79 36.9935 269.281 36.8844 269.634 36.6662C269.987 36.448 270.234 36.1304 270.375 35.7132C270.523 35.2897 270.613 34.7378 270.645 34.0575H270.78V37.4652H261.009Z" fill="black"/>
<path d="M287.008 37.4652H284.332V35.28C282.971 36.801 281.341 37.5614 279.442 37.5614C278.819 37.5614 278.238 37.478 277.699 37.3112C277.16 37.1443 276.676 36.8812 276.246 36.5218C275.822 36.1624 275.485 35.694 275.235 35.1164C274.985 34.5324 274.86 33.8618 274.86 33.1045V24.6143C274.86 24.2613 274.837 24.0046 274.792 23.8442C274.747 23.6837 274.648 23.5746 274.494 23.5169C274.34 23.4527 274.115 23.4238 273.82 23.4302V23.2859H277.584V23.4302C277.218 23.4302 276.945 23.4912 276.766 23.6131C276.586 23.7287 276.496 24.0271 276.496 24.5084V32.2959C276.496 33.2265 276.608 33.9773 276.833 34.5485C277.058 35.1068 277.362 35.556 277.747 35.8961C278.139 36.2362 278.553 36.4769 278.989 36.6181C279.426 36.7593 279.846 36.8299 280.25 36.8299C281.784 36.8299 283.144 36.14 284.332 34.7602V25.163C284.332 24.6816 284.309 24.3287 284.264 24.1041C284.226 23.8731 284.142 23.703 284.014 23.5939C283.886 23.4848 283.687 23.4302 283.417 23.4302H283.282V23.2859H287.008V23.4302C286.629 23.4431 286.36 23.5008 286.199 23.6035C286.039 23.6998 285.959 23.9629 285.959 24.3929V35.9442C285.959 36.31 285.975 36.5828 286.007 36.7625C286.039 36.9422 286.132 37.0833 286.286 37.186C286.446 37.2887 286.687 37.3368 287.008 37.3304V37.4652Z" fill="black"/>
<path d="M301.32 22.7949L300.646 24.5084H300.512C300.537 24.425 300.55 24.287 300.55 24.0945C300.55 23.934 300.492 23.8378 300.377 23.8057C300.268 23.7672 300.104 23.7479 299.886 23.7479H296.18V35.8865C296.18 36.1624 296.193 36.3967 296.218 36.5892C296.244 36.7753 296.292 36.9261 296.363 37.0416C296.433 37.1507 296.536 37.2277 296.671 37.2727C296.806 37.3112 297.014 37.3304 297.297 37.3304V37.4652H293.456V37.3304C293.777 37.2983 294.008 37.2534 294.149 37.1956C294.296 37.1379 294.399 37.032 294.457 36.878C294.515 36.7175 294.544 36.4544 294.544 36.0886V23.7479H290.991C290.638 23.7479 290.404 23.7672 290.289 23.8057C290.18 23.8442 290.125 23.9501 290.125 24.1233C290.125 24.1939 290.151 24.3223 290.202 24.5084H290.067L289.394 22.7949H289.528C289.65 23.0259 289.775 23.1703 289.904 23.2281C290.013 23.2666 290.244 23.2859 290.597 23.2859H300.021C300.399 23.2859 300.666 23.2634 300.82 23.2185C300.98 23.1736 301.102 23.0324 301.186 22.7949H301.32Z" fill="black"/>
<path d="M307.345 23.2859V23.4302C307.127 23.411 306.892 23.4495 306.642 23.5458C306.398 23.6356 306.276 23.8474 306.276 24.1811C306.263 24.2581 306.257 24.4988 306.257 24.903V35.7902C306.257 36.2394 306.273 36.5635 306.305 36.7625C306.337 36.955 306.43 37.0994 306.584 37.1956C306.745 37.2919 306.998 37.3368 307.345 37.3304V37.4652H303.562V37.3304C303.902 37.3176 304.142 37.2727 304.284 37.1956C304.431 37.1122 304.524 36.9775 304.563 36.7913C304.601 36.6052 304.621 36.278 304.621 35.8095V25.0282C304.621 24.5982 304.605 24.2773 304.572 24.0656C304.54 23.8538 304.447 23.6902 304.293 23.5746C304.139 23.4591 303.895 23.411 303.562 23.4302V23.2859H307.345Z" fill="black"/>
<path d="M324.959 29.4177C324.959 30.5023 324.783 31.5451 324.43 32.5462C324.077 33.5473 323.55 34.4361 322.851 35.2127C322.158 35.9892 321.308 36.5956 320.3 37.032C319.292 37.4684 318.173 37.6866 316.94 37.6866C315.946 37.6866 315.035 37.5165 314.207 37.1764C313.385 36.8299 312.673 36.3485 312.07 35.7325C311.473 35.11 311.017 34.4073 310.703 33.6243C310.395 32.835 310.241 32.0072 310.241 31.1408C310.241 30.2295 310.408 29.299 310.741 28.3492C311.075 27.393 311.572 26.5202 312.233 25.7309C312.894 24.9351 313.729 24.2934 314.736 23.8057C315.744 23.3179 316.892 23.0741 318.182 23.0741C319.203 23.0741 320.127 23.2377 320.955 23.565C321.789 23.8859 322.508 24.3415 323.111 24.9319C323.714 25.5159 324.173 26.193 324.487 26.963C324.802 27.7267 324.959 28.5449 324.959 29.4177ZM324.073 31.16C324.073 30.0563 323.842 29.0487 323.38 28.1374C322.918 27.2262 322.318 26.4529 321.58 25.8175C320.849 25.1758 320.059 24.6849 319.212 24.3447C318.365 23.9982 317.582 23.8249 316.863 23.8249C315.978 23.8249 315.105 24.0592 314.245 24.5276C313.385 24.9897 312.683 25.6475 312.137 26.501C311.592 27.3481 311.319 28.3011 311.319 29.36C311.319 30.6627 311.637 31.8981 312.272 33.066C312.914 34.2276 313.757 35.1645 314.803 35.8769C315.85 36.5828 316.957 36.9357 318.125 36.9357C318.869 36.9357 319.604 36.7849 320.329 36.4833C321.054 36.1817 321.693 35.7742 322.245 35.2608C322.796 34.741 323.239 34.1249 323.573 33.4126C323.907 32.6938 324.073 31.943 324.073 31.16Z" fill="black"/>
<path d="M339.599 23.2859H342.342V23.4302C341.919 23.4431 341.627 23.5329 341.466 23.6998C341.312 23.8602 341.235 24.2035 341.235 24.7298V37.6385L329.925 25.5961V36.0886C329.925 36.3453 329.941 36.5571 329.973 36.724C330.005 36.8844 330.063 37.0063 330.146 37.0898C330.229 37.1732 330.316 37.2245 330.406 37.2438C330.496 37.263 330.675 37.2919 330.945 37.3304V37.4652H328.221V37.3304C328.58 37.324 328.834 37.2759 328.981 37.186C329.135 37.0962 329.228 36.9614 329.26 36.7817C329.293 36.5956 329.309 36.278 329.309 35.8287V26.2315C329.309 25.4293 329.196 24.7554 328.972 24.21C328.747 23.6581 328.202 23.3982 327.335 23.4302V23.2859H330.002L340.629 34.6062V24.595C340.629 24.1073 340.545 23.7928 340.379 23.6516C340.218 23.504 339.958 23.4302 339.599 23.4302V23.2859Z" fill="black"/>
<path d="M352.15 23.4688L352.824 25.24L352.708 25.2592C352.702 25.2464 352.654 25.195 352.564 25.1052C352.346 24.8485 352.095 24.6014 351.813 24.364C351.537 24.1265 351.197 23.9276 350.793 23.7672C350.388 23.6067 349.923 23.5265 349.397 23.5265C348.736 23.5265 348.165 23.6613 347.683 23.9308C347.202 24.2003 346.839 24.5565 346.596 24.9993C346.358 25.4357 346.239 25.8913 346.239 26.3662C346.239 26.809 346.326 27.1877 346.499 27.5021C346.679 27.8101 346.91 28.0636 347.192 28.2626C347.475 28.4551 347.85 28.638 348.319 28.8113C348.787 28.9781 349.147 29.1033 349.397 29.1867C350.083 29.3985 350.719 29.6455 351.303 29.9279C351.893 30.2039 352.423 30.6338 352.891 31.2178C353.36 31.7954 353.594 32.5366 353.594 33.4414C353.594 34.2821 353.385 35.0201 352.968 35.6555C352.551 36.2844 352.031 36.7561 351.409 37.0705C351.158 37.186 350.728 37.2823 350.119 37.3593C349.516 37.4299 349.095 37.4652 348.858 37.4652H345.075V33.3452H345.219C345.232 33.9548 345.29 34.4714 345.392 34.895C345.501 35.3121 345.7 35.6843 345.989 36.0116C346.278 36.3325 346.676 36.5796 347.183 36.7528C347.696 36.9261 348.341 37.0128 349.118 37.0128C349.862 37.0128 350.481 36.9069 350.975 36.6951C351.476 36.4833 351.861 36.217 352.131 35.8961C352.4 35.5752 352.58 35.2608 352.67 34.9528C352.76 34.6383 352.804 34.3527 352.804 34.096C352.804 33.5185 352.644 33.0339 352.323 32.6425C352.002 32.2446 351.611 31.9334 351.149 31.7087C350.693 31.4841 350.067 31.2338 349.272 30.9579C348.463 30.682 347.892 30.4605 347.558 30.2937C347.231 30.1268 346.936 29.9215 346.673 29.6776C346.32 29.3311 346.037 28.9268 345.826 28.4647C345.614 27.9963 345.508 27.4925 345.508 26.9534C345.508 26.2539 345.668 25.6122 345.989 25.0282C346.316 24.4378 346.791 23.9661 347.414 23.6131C348.036 23.2538 348.768 23.0741 349.609 23.0741C350.295 23.0741 351.091 23.1928 351.996 23.4302C352.015 23.4302 352.044 23.4367 352.082 23.4495C352.121 23.4623 352.143 23.4688 352.15 23.4688Z" fill="black"/>
<path d="M64.1485 23.2859H66.8919V23.4302C66.4684 23.4431 66.1764 23.5329 66.016 23.6998C65.8619 23.8602 65.7849 24.2035 65.7849 24.7298V37.6385L54.4742 25.5961V36.0886C54.4742 36.3453 54.4902 36.5571 54.5223 36.724C54.5544 36.8844 54.6122 37.0063 54.6956 37.0898C54.779 37.1732 54.8657 37.2245 54.9555 37.2438C55.0454 37.263 55.225 37.2919 55.4946 37.3304V37.4652H52.7704V37.3304C53.1297 37.324 53.3832 37.2759 53.5308 37.186C53.6849 37.0962 53.7779 36.9614 53.81 36.7817C53.8421 36.5956 53.8581 36.278 53.8581 35.8287V26.2315C53.8581 25.4293 53.7458 24.7554 53.5212 24.21C53.2966 23.6581 52.7511 23.3982 51.8848 23.4302V23.2859H54.5512L65.1785 34.6062V24.595C65.1785 24.1073 65.0951 23.7928 64.9282 23.6516C64.7678 23.504 64.5079 23.4302 64.1485 23.4302V23.2859Z" stroke="black" stroke-width="0.6" mask="url(#path-1-outside-1_1_3280)"/>
<path d="M77.3733 30.9386H73.234L71.0874 36.3004C71.0232 36.4609 70.9911 36.5475 70.9911 36.5603C70.9077 36.7272 70.866 36.878 70.866 37.0128C70.866 37.2245 71.0232 37.3304 71.3377 37.3304V37.4652H69.2296V37.3304C69.6082 37.324 69.8841 37.2181 70.0574 37.0128C70.2307 36.8074 70.4039 36.4865 70.5772 36.0501L75.7176 23.0741H75.9582L81.0216 35.6073C81.0216 35.6587 81.0408 35.7132 81.0793 35.771L81.1564 35.9828C81.3168 36.3806 81.4997 36.7047 81.705 36.955C81.9168 37.2053 82.2152 37.3304 82.6003 37.3304V37.4652H79.2889V37.3304C79.475 37.3304 79.5969 37.2887 79.6547 37.2053C79.7124 37.1218 79.7413 37.0448 79.7413 36.9742C79.7413 36.7946 79.6675 36.5379 79.5199 36.2042C79.5071 36.1785 79.491 36.14 79.4718 36.0886C79.4525 36.0309 79.4365 35.9956 79.4236 35.9828L77.3733 30.9386ZM73.3688 30.544H77.2L75.2844 25.7116L73.3688 30.544Z" stroke="black" stroke-width="0.6" mask="url(#path-1-outside-1_1_3280)"/>
<path d="M95.4593 22.7949L94.7854 24.5084H94.6507C94.6763 24.425 94.6892 24.287 94.6892 24.0945C94.6892 23.934 94.6314 23.8378 94.5159 23.8057C94.4068 23.7672 94.2432 23.7479 94.025 23.7479H90.3189V35.8865C90.3189 36.1624 90.3317 36.3967 90.3574 36.5892C90.3831 36.7753 90.4312 36.9261 90.5018 37.0416C90.5724 37.1507 90.6751 37.2277 90.8098 37.2727C90.9446 37.3112 91.1532 37.3304 91.4355 37.3304V37.4652H87.5947V37.3304C87.9156 37.2983 88.1466 37.2534 88.2878 37.1956C88.4354 37.1379 88.5381 37.032 88.5958 36.878C88.6536 36.7175 88.6825 36.4544 88.6825 36.0886V23.7479H85.1304C84.7775 23.7479 84.5432 23.7672 84.4277 23.8057C84.3186 23.8442 84.2641 23.9501 84.2641 24.1233C84.2641 24.1939 84.2897 24.3223 84.3411 24.5084H84.2063L83.5325 22.7949H83.6672C83.7892 23.0259 83.9143 23.1703 84.0427 23.2281C84.1518 23.2666 84.3828 23.2859 84.7357 23.2859H94.1597C94.5384 23.2859 94.8047 23.2634 94.9587 23.2185C95.1192 23.1736 95.2411 23.0324 95.3245 22.7949H95.4593Z" stroke="black" stroke-width="0.6" mask="url(#path-1-outside-1_1_3280)"/>
<path d="M111.004 37.4652H108.328V35.28C106.967 36.801 105.337 37.5614 103.438 37.5614C102.815 37.5614 102.235 37.478 101.695 37.3112C101.156 37.1443 100.672 36.8812 100.242 36.5218C99.8184 36.1624 99.4815 35.694 99.2312 35.1164C98.9809 34.5324 98.8558 33.8618 98.8558 33.1045V24.6143C98.8558 24.2613 98.8333 24.0046 98.7884 23.8442C98.7435 23.6837 98.644 23.5746 98.49 23.5169C98.336 23.4527 98.1113 23.4238 97.8161 23.4302V23.2859H101.58V23.4302C101.214 23.4302 100.941 23.4912 100.762 23.6131C100.582 23.7287 100.492 24.0271 100.492 24.5084V32.2959C100.492 33.2265 100.605 33.9773 100.829 34.5485C101.054 35.1068 101.359 35.556 101.744 35.8961C102.135 36.2362 102.549 36.4769 102.985 36.6181C103.422 36.7593 103.842 36.8299 104.246 36.8299C105.78 36.8299 107.141 36.14 108.328 34.7602V25.163C108.328 24.6816 108.305 24.3287 108.261 24.1041C108.222 23.8731 108.139 23.703 108.01 23.5939C107.882 23.4848 107.683 23.4302 107.413 23.4302H107.279V23.2859H111.004V23.4302C110.625 23.4431 110.356 23.5008 110.195 23.6035C110.035 23.6998 109.955 23.9629 109.955 24.3929V35.9442C109.955 36.31 109.971 36.5828 110.003 36.7625C110.035 36.9422 110.128 37.0833 110.282 37.186C110.442 37.2887 110.683 37.3368 111.004 37.3304V37.4652Z" stroke="black" stroke-width="0.6" mask="url(#path-1-outside-1_1_3280)"/>
<path d="M114.16 23.4302V23.2859H118.184C119.063 23.2859 119.698 23.3019 120.09 23.334C120.487 23.3597 120.856 23.4302 121.197 23.5458C121.819 23.7319 122.316 24.072 122.689 24.5661C123.061 25.0539 123.247 25.6731 123.247 26.424C123.247 26.9438 123.131 27.4444 122.9 27.9257C122.676 28.407 122.374 28.8337 121.995 29.2059C121.617 29.5782 121.206 29.8862 120.763 30.1301L121.764 31.6702L121.851 31.805C121.973 32.0296 122.365 32.6104 123.025 33.5473C123.693 34.4779 124.293 35.2512 124.826 35.8672C125.069 36.1432 125.397 36.4031 125.807 36.647C126.218 36.8908 126.674 37.0128 127.174 37.0128C127.534 37.0128 127.855 36.9454 128.137 36.8106C128.227 36.7721 128.336 36.7175 128.464 36.647C128.593 36.5764 128.708 36.5154 128.811 36.4641L128.869 36.6566C128.522 36.9261 128.159 37.1379 127.781 37.2919C127.575 37.3689 127.293 37.4395 126.934 37.5037C126.581 37.5679 126.225 37.5999 125.865 37.5999C125.57 37.5999 125.272 37.5646 124.97 37.4941C124.675 37.4235 124.36 37.2855 124.027 37.0801C123.693 36.8684 123.382 36.5828 123.093 36.2234C122.348 35.3185 121.546 34.2212 120.686 32.9313C120.686 32.9184 120.68 32.8992 120.667 32.8735C120.654 32.8478 120.648 32.835 120.648 32.835L119.223 30.6402L118.694 30.6595C118.617 30.6723 118.373 30.6787 117.962 30.6787H116.817V36.1079C116.817 36.4609 116.852 36.724 116.923 36.8972C116.993 37.0705 117.093 37.1828 117.221 37.2342C117.349 37.2855 117.551 37.3176 117.827 37.3304V37.4652H114.16V37.3304C114.609 37.3112 114.891 37.2213 115.007 37.0609C115.122 36.894 115.18 36.5347 115.18 35.9828V24.7105C115.18 24.3255 115.142 24.0431 115.065 23.8634C114.994 23.6837 114.895 23.5714 114.766 23.5265C114.638 23.4752 114.436 23.4431 114.16 23.4302ZM116.817 23.6613V30.3129H118.299C118.588 30.3129 118.941 30.2777 119.358 30.2071C119.781 30.1301 120.099 30.0338 120.311 29.9183C120.715 29.6937 121.055 29.3664 121.331 28.9364C121.607 28.5 121.745 27.9577 121.745 27.3096C121.745 27.0272 121.707 26.716 121.63 26.3759C121.553 26.0293 121.434 25.702 121.274 25.394C121.12 25.0859 120.917 24.8068 120.667 24.5565C120.365 24.2549 120.006 24.0303 119.589 23.8827C119.178 23.7351 118.642 23.6613 117.981 23.6613H116.817Z" stroke="black" stroke-width="0.6" mask="url(#path-1-outside-1_1_3280)"/>
<path d="M152.546 37.3304V37.4652H146.828C146.314 37.4652 145.836 37.4459 145.394 37.4074C144.957 37.3689 144.453 37.2662 143.882 37.0994C143.311 36.9261 142.756 36.6662 142.217 36.3197C141.1 35.6202 140.208 34.7281 139.541 33.6436C138.88 32.5591 138.549 31.4264 138.549 30.2456C138.549 29.4434 138.726 28.6187 139.079 27.7716C139.438 26.9245 139.964 26.1448 140.658 25.4325C141.351 24.7202 142.198 24.149 143.199 23.719C144.206 23.2891 145.323 23.0741 146.549 23.0741C147.961 23.0741 149.433 23.3821 150.967 23.9982L151.554 25.6346H151.42C150.919 24.9993 150.232 24.4763 149.36 24.0656C148.493 23.6549 147.55 23.4495 146.529 23.4495C145.567 23.4495 144.691 23.6452 143.902 24.0367C143.112 24.4282 142.451 24.9608 141.919 25.6346C141.386 26.3085 140.978 27.0818 140.696 27.9545C140.42 28.8209 140.282 29.7161 140.282 30.6402C140.282 32.1355 140.581 33.3324 141.177 34.2308C141.774 35.1228 142.435 35.7742 143.16 36.1849C143.796 36.5443 144.505 36.7849 145.288 36.9069C146.077 37.0288 146.709 37.0898 147.184 37.0898L147.945 37.0705C148.516 37.0577 148.93 37.0288 149.186 36.9839C149.449 36.9325 149.629 36.8234 149.725 36.6566C149.828 36.4897 149.879 36.2202 149.879 35.848V33.7014C149.879 33.2842 149.796 33.0051 149.629 32.8639C149.462 32.7227 149.212 32.6585 148.878 32.6714V32.5366H152.546V32.6714C152.103 32.6778 151.821 32.7708 151.699 32.9505C151.577 33.1302 151.516 33.4254 151.516 33.8361V36.0694C151.516 36.5186 151.574 36.8427 151.689 37.0416C151.811 37.2342 152.029 37.3304 152.344 37.3304H152.546Z" stroke="black" stroke-width="0.6" mask="url(#path-1-outside-1_1_3280)"/>
<path d="M154.691 37.4652V37.3304C155.147 37.3304 155.435 37.247 155.557 37.0801C155.686 36.9133 155.75 36.6277 155.75 36.2234V24.6143C155.75 24.1073 155.676 23.7864 155.528 23.6516C155.387 23.5169 155.102 23.4431 154.672 23.4302V23.2859H158.474V23.4302C158.134 23.4238 157.884 23.472 157.723 23.5746C157.563 23.6709 157.466 23.8025 157.434 23.9693C157.402 24.1362 157.386 24.3832 157.386 24.7105V34.664C157.386 35.1068 157.438 35.4758 157.54 35.771C157.643 36.0598 157.8 36.294 158.012 36.4737C158.23 36.6534 158.513 36.7849 158.859 36.8684C159.212 36.9518 159.629 36.9935 160.11 36.9935H161.843C162.472 36.9935 162.963 36.8844 163.316 36.6662C163.669 36.448 163.916 36.1304 164.057 35.7132C164.205 35.2897 164.295 34.7378 164.327 34.0575H164.461V37.4652H154.691Z" stroke="black" stroke-width="0.6" mask="url(#path-1-outside-1_1_3280)"/>
<path d="M182.085 29.4177C182.085 30.5023 181.909 31.5451 181.556 32.5462C181.203 33.5473 180.677 34.4361 179.977 35.2127C179.284 35.9892 178.434 36.5956 177.426 37.032C176.419 37.4684 175.299 37.6866 174.067 37.6866C173.072 37.6866 172.161 37.5165 171.333 37.1764C170.512 36.8299 169.799 36.3485 169.196 35.7325C168.599 35.11 168.144 34.4073 167.829 33.6243C167.521 32.835 167.367 32.0072 167.367 31.1408C167.367 30.2295 167.534 29.299 167.868 28.3492C168.201 27.393 168.699 26.5202 169.36 25.7309C170.021 24.9351 170.855 24.2934 171.862 23.8057C172.87 23.3179 174.019 23.0741 175.309 23.0741C176.329 23.0741 177.253 23.2377 178.081 23.565C178.915 23.8859 179.634 24.3415 180.237 24.9319C180.84 25.5159 181.299 26.193 181.614 26.963C181.928 27.7267 182.085 28.5449 182.085 29.4177ZM181.2 31.16C181.2 30.0563 180.969 29.0487 180.507 28.1374C180.045 27.2262 179.445 26.4529 178.707 25.8175C177.975 25.1758 177.186 24.6849 176.339 24.3447C175.492 23.9982 174.709 23.8249 173.99 23.8249C173.104 23.8249 172.231 24.0592 171.372 24.5276C170.512 24.9897 169.809 25.6475 169.263 26.501C168.718 27.3481 168.445 28.3011 168.445 29.36C168.445 30.6627 168.763 31.8981 169.398 33.066C170.04 34.2276 170.884 35.1645 171.93 35.8769C172.976 36.5828 174.083 36.9357 175.251 36.9357C175.995 36.9357 176.73 36.7849 177.455 36.4833C178.18 36.1817 178.819 35.7742 179.371 35.2608C179.923 34.741 180.366 34.1249 180.699 33.4126C181.033 32.6938 181.2 31.943 181.2 31.16Z" stroke="black" stroke-width="0.6" mask="url(#path-1-outside-1_1_3280)"/>
<path d="M185.135 23.4302V23.2859H188.822C189.65 23.2859 190.289 23.3115 190.738 23.3629C191.187 23.4142 191.588 23.5201 191.941 23.6805C192.544 23.9629 193.019 24.364 193.366 24.8838C193.712 25.3972 193.886 25.9908 193.886 26.6646C193.886 27.8711 193.295 28.8177 192.114 29.5044C192.968 29.6584 193.626 29.96 194.088 30.4092C194.832 31.1151 195.204 32.0489 195.204 33.2104C195.204 34.0768 195.018 34.8308 194.646 35.4726C194.274 36.1079 193.837 36.5892 193.337 36.9165C193.125 37.0513 192.91 37.1539 192.692 37.2245C192.48 37.2951 192.249 37.3497 191.999 37.3882C191.755 37.4203 191.534 37.4427 191.335 37.4556C191.136 37.462 190.889 37.4652 190.593 37.4652H185.116V37.3304C185.45 37.3304 185.687 37.2823 185.828 37.186C185.97 37.0898 186.056 36.9422 186.088 36.7432C186.12 36.5379 186.136 36.1945 186.136 35.7132V25.0282C186.136 24.5405 186.12 24.2003 186.088 24.0078C186.063 23.8153 185.979 23.6741 185.838 23.5843C185.697 23.488 185.463 23.4367 185.135 23.4302ZM187.773 23.5843V29.8124H189.496C190.664 29.8124 191.437 29.4819 191.816 28.8209C192.201 28.1535 192.393 27.4861 192.393 26.8187C192.393 25.4389 191.835 24.4923 190.719 23.9789C190.135 23.7158 189.278 23.5843 188.148 23.5843H187.773ZM188.88 30.1108H187.773V34.6062C187.773 35.0554 187.789 35.4084 187.821 35.6651C187.86 35.9218 187.969 36.1624 188.148 36.3871C188.328 36.6117 188.614 36.7849 189.005 36.9069C189.403 37.0288 189.945 37.0898 190.632 37.0898C191.44 37.0898 192.066 36.9582 192.509 36.6951C193.273 36.2394 193.655 35.3603 193.655 34.0575C193.655 33.3965 193.565 32.7997 193.385 32.2671C193.205 31.7344 192.945 31.2884 192.605 30.929C192.272 30.5696 191.864 30.3418 191.383 30.2456C190.927 30.1557 190.093 30.1108 188.88 30.1108Z" stroke="black" stroke-width="0.6" mask="url(#path-1-outside-1_1_3280)"/>
<path d="M205.638 30.9386H201.498L199.352 36.3004C199.287 36.4609 199.255 36.5475 199.255 36.5603C199.172 36.7272 199.13 36.878 199.13 37.0128C199.13 37.2245 199.287 37.3304 199.602 37.3304V37.4652H197.494V37.3304C197.872 37.324 198.148 37.2181 198.322 37.0128C198.495 36.8074 198.668 36.4865 198.841 36.0501L203.982 23.0741H204.222L209.286 35.6073C209.286 35.6587 209.305 35.7132 209.344 35.771L209.421 35.9828C209.581 36.3806 209.764 36.7047 209.969 36.955C210.181 37.2053 210.479 37.3304 210.865 37.3304V37.4652H207.553V37.3304C207.739 37.3304 207.861 37.2887 207.919 37.2053C207.977 37.1218 208.006 37.0448 208.006 36.9742C208.006 36.7946 207.932 36.5379 207.784 36.2042C207.771 36.1785 207.755 36.14 207.736 36.0886C207.717 36.0309 207.701 35.9956 207.688 35.9828L205.638 30.9386ZM201.633 30.544H205.464L203.549 25.7116L201.633 30.544Z" stroke="black" stroke-width="0.6" mask="url(#path-1-outside-1_1_3280)"/>
<path d="M212.788 37.4652V37.3304C213.244 37.3304 213.533 37.247 213.655 37.0801C213.783 36.9133 213.847 36.6277 213.847 36.2234V24.6143C213.847 24.1073 213.773 23.7864 213.626 23.6516C213.485 23.5169 213.199 23.4431 212.769 23.4302V23.2859H216.571V23.4302C216.231 23.4238 215.981 23.472 215.82 23.5746C215.66 23.6709 215.564 23.8025 215.532 23.9693C215.5 24.1362 215.484 24.3832 215.484 24.7105V34.664C215.484 35.1068 215.535 35.4758 215.638 35.771C215.74 36.0598 215.897 36.294 216.109 36.4737C216.327 36.6534 216.61 36.7849 216.956 36.8684C217.309 36.9518 217.726 36.9935 218.208 36.9935H219.94C220.569 36.9935 221.06 36.8844 221.413 36.6662C221.766 36.448 222.013 36.1304 222.154 35.7132C222.302 35.2897 222.392 34.7378 222.424 34.0575H222.559V37.4652H212.788Z" stroke="black" stroke-width="0.6" mask="url(#path-1-outside-1_1_3280)"/>
<path d="M239.69 23.4688L240.364 25.24L240.249 25.2592C240.242 25.2464 240.194 25.195 240.104 25.1052C239.886 24.8485 239.636 24.6014 239.353 24.364C239.077 24.1265 238.737 23.9276 238.333 23.7672C237.929 23.6067 237.463 23.5265 236.937 23.5265C236.276 23.5265 235.705 23.6613 235.224 23.9308C234.742 24.2003 234.38 24.5565 234.136 24.9993C233.898 25.4357 233.78 25.8913 233.78 26.3662C233.78 26.809 233.866 27.1877 234.04 27.5021C234.219 27.8101 234.45 28.0636 234.733 28.2626C235.015 28.4551 235.391 28.638 235.859 28.8113C236.327 28.9781 236.687 29.1033 236.937 29.1867C237.624 29.3985 238.259 29.6455 238.843 29.9279C239.434 30.2039 239.963 30.6338 240.431 31.2178C240.9 31.7954 241.134 32.5366 241.134 33.4414C241.134 34.2821 240.926 35.0201 240.508 35.6555C240.091 36.2844 239.572 36.7561 238.949 37.0705C238.699 37.186 238.269 37.2823 237.659 37.3593C237.056 37.4299 236.636 37.4652 236.398 37.4652H232.615V33.3452H232.759C232.772 33.9548 232.83 34.4714 232.933 34.895C233.042 35.3121 233.241 35.6843 233.529 36.0116C233.818 36.3325 234.216 36.5796 234.723 36.7528C235.237 36.9261 235.881 37.0128 236.658 37.0128C237.402 37.0128 238.022 36.9069 238.516 36.6951C239.016 36.4833 239.401 36.217 239.671 35.8961C239.941 35.5752 240.12 35.2608 240.21 34.9528C240.3 34.6383 240.345 34.3527 240.345 34.096C240.345 33.5185 240.184 33.0339 239.864 32.6425C239.543 32.2446 239.151 31.9334 238.689 31.7087C238.233 31.4841 237.608 31.2338 236.812 30.9579C236.003 30.682 235.432 30.4605 235.099 30.2937C234.771 30.1268 234.476 29.9215 234.213 29.6776C233.86 29.3311 233.578 28.9268 233.366 28.4647C233.154 27.9963 233.048 27.4925 233.048 26.9534C233.048 26.2539 233.209 25.6122 233.529 25.0282C233.857 24.4378 234.332 23.9661 234.954 23.6131C235.577 23.2538 236.308 23.0741 237.149 23.0741C237.836 23.0741 238.631 23.1928 239.536 23.4302C239.555 23.4302 239.584 23.4367 239.623 23.4495C239.661 23.4623 239.684 23.4688 239.69 23.4688Z" stroke="black" stroke-width="0.6" mask="url(#path-1-outside-1_1_3280)"/>
<path d="M258.527 29.4177C258.527 30.5023 258.351 31.5451 257.998 32.5462C257.645 33.5473 257.118 34.4361 256.419 35.2127C255.726 35.9892 254.876 36.5956 253.868 37.032C252.86 37.4684 251.741 37.6866 250.508 37.6866C249.514 37.6866 248.603 37.5165 247.775 37.1764C246.953 36.8299 246.241 36.3485 245.638 35.7325C245.041 35.11 244.585 34.4073 244.271 33.6243C243.963 32.835 243.809 32.0072 243.809 31.1408C243.809 30.2295 243.976 29.299 244.309 28.3492C244.643 27.393 245.14 26.5202 245.801 25.7309C246.462 24.9351 247.297 24.2934 248.304 23.8057C249.312 23.3179 250.46 23.0741 251.75 23.0741C252.771 23.0741 253.695 23.2377 254.523 23.565C255.357 23.8859 256.076 24.3415 256.679 24.9319C257.282 25.5159 257.741 26.193 258.055 26.963C258.37 27.7267 258.527 28.5449 258.527 29.4177ZM257.641 31.16C257.641 30.0563 257.41 29.0487 256.948 28.1374C256.486 27.2262 255.886 26.4529 255.148 25.8175C254.417 25.1758 253.627 24.6849 252.78 24.3447C251.933 23.9982 251.15 23.8249 250.431 23.8249C249.546 23.8249 248.673 24.0592 247.813 24.5276C246.953 24.9897 246.251 25.6475 245.705 26.501C245.16 27.3481 244.887 28.3011 244.887 29.36C244.887 30.6627 245.204 31.8981 245.84 33.066C246.482 34.2276 247.325 35.1645 248.371 35.8769C249.418 36.5828 250.525 36.9357 251.693 36.9357C252.437 36.9357 253.172 36.7849 253.897 36.4833C254.622 36.1817 255.261 35.7742 255.812 35.2608C256.364 34.741 256.807 34.1249 257.141 33.4126C257.475 32.6938 257.641 31.943 257.641 31.16Z" stroke="black" stroke-width="0.6" mask="url(#path-1-outside-1_1_3280)"/>
<path d="M261.009 37.4652V37.3304C261.465 37.3304 261.754 37.247 261.875 37.0801C262.004 36.9133 262.068 36.6277 262.068 36.2234V24.6143C262.068 24.1073 261.994 23.7864 261.847 23.6516C261.705 23.5169 261.42 23.4431 260.99 23.4302V23.2859H264.792V23.4302C264.452 23.4238 264.202 23.472 264.041 23.5746C263.881 23.6709 263.785 23.8025 263.753 23.9693C263.72 24.1362 263.704 24.3832 263.704 24.7105V34.664C263.704 35.1068 263.756 35.4758 263.858 35.771C263.961 36.0598 264.118 36.294 264.33 36.4737C264.548 36.6534 264.831 36.7849 265.177 36.8684C265.53 36.9518 265.947 36.9935 266.429 36.9935H268.161C268.79 36.9935 269.281 36.8844 269.634 36.6662C269.987 36.448 270.234 36.1304 270.375 35.7132C270.523 35.2897 270.613 34.7378 270.645 34.0575H270.78V37.4652H261.009Z" stroke="black" stroke-width="0.6" mask="url(#path-1-outside-1_1_3280)"/>
<path d="M287.008 37.4652H284.332V35.28C282.971 36.801 281.341 37.5614 279.442 37.5614C278.819 37.5614 278.238 37.478 277.699 37.3112C277.16 37.1443 276.676 36.8812 276.246 36.5218C275.822 36.1624 275.485 35.694 275.235 35.1164C274.985 34.5324 274.86 33.8618 274.86 33.1045V24.6143C274.86 24.2613 274.837 24.0046 274.792 23.8442C274.747 23.6837 274.648 23.5746 274.494 23.5169C274.34 23.4527 274.115 23.4238 273.82 23.4302V23.2859H277.584V23.4302C277.218 23.4302 276.945 23.4912 276.766 23.6131C276.586 23.7287 276.496 24.0271 276.496 24.5084V32.2959C276.496 33.2265 276.608 33.9773 276.833 34.5485C277.058 35.1068 277.362 35.556 277.747 35.8961C278.139 36.2362 278.553 36.4769 278.989 36.6181C279.426 36.7593 279.846 36.8299 280.25 36.8299C281.784 36.8299 283.144 36.14 284.332 34.7602V25.163C284.332 24.6816 284.309 24.3287 284.264 24.1041C284.226 23.8731 284.142 23.703 284.014 23.5939C283.886 23.4848 283.687 23.4302 283.417 23.4302H283.282V23.2859H287.008V23.4302C286.629 23.4431 286.36 23.5008 286.199 23.6035C286.039 23.6998 285.959 23.9629 285.959 24.3929V35.9442C285.959 36.31 285.975 36.5828 286.007 36.7625C286.039 36.9422 286.132 37.0833 286.286 37.186C286.446 37.2887 286.687 37.3368 287.008 37.3304V37.4652Z" stroke="black" stroke-width="0.6" mask="url(#path-1-outside-1_1_3280)"/>
<path d="M301.32 22.7949L300.646 24.5084H300.512C300.537 24.425 300.55 24.287 300.55 24.0945C300.55 23.934 300.492 23.8378 300.377 23.8057C300.268 23.7672 300.104 23.7479 299.886 23.7479H296.18V35.8865C296.18 36.1624 296.193 36.3967 296.218 36.5892C296.244 36.7753 296.292 36.9261 296.363 37.0416C296.433 37.1507 296.536 37.2277 296.671 37.2727C296.806 37.3112 297.014 37.3304 297.297 37.3304V37.4652H293.456V37.3304C293.777 37.2983 294.008 37.2534 294.149 37.1956C294.296 37.1379 294.399 37.032 294.457 36.878C294.515 36.7175 294.544 36.4544 294.544 36.0886V23.7479H290.991C290.638 23.7479 290.404 23.7672 290.289 23.8057C290.18 23.8442 290.125 23.9501 290.125 24.1233C290.125 24.1939 290.151 24.3223 290.202 24.5084H290.067L289.394 22.7949H289.528C289.65 23.0259 289.775 23.1703 289.904 23.2281C290.013 23.2666 290.244 23.2859 290.597 23.2859H300.021C300.399 23.2859 300.666 23.2634 300.82 23.2185C300.98 23.1736 301.102 23.0324 301.186 22.7949H301.32Z" stroke="black" stroke-width="0.6" mask="url(#path-1-outside-1_1_3280)"/>
<path d="M307.345 23.2859V23.4302C307.127 23.411 306.892 23.4495 306.642 23.5458C306.398 23.6356 306.276 23.8474 306.276 24.1811C306.263 24.2581 306.257 24.4988 306.257 24.903V35.7902C306.257 36.2394 306.273 36.5635 306.305 36.7625C306.337 36.955 306.43 37.0994 306.584 37.1956C306.745 37.2919 306.998 37.3368 307.345 37.3304V37.4652H303.562V37.3304C303.902 37.3176 304.142 37.2727 304.284 37.1956C304.431 37.1122 304.524 36.9775 304.563 36.7913C304.601 36.6052 304.621 36.278 304.621 35.8095V25.0282C304.621 24.5982 304.605 24.2773 304.572 24.0656C304.54 23.8538 304.447 23.6902 304.293 23.5746C304.139 23.4591 303.895 23.411 303.562 23.4302V23.2859H307.345Z" stroke="black" stroke-width="0.6" mask="url(#path-1-outside-1_1_3280)"/>
<path d="M324.959 29.4177C324.959 30.5023 324.783 31.5451 324.43 32.5462C324.077 33.5473 323.55 34.4361 322.851 35.2127C322.158 35.9892 321.308 36.5956 320.3 37.032C319.292 37.4684 318.173 37.6866 316.94 37.6866C315.946 37.6866 315.035 37.5165 314.207 37.1764C313.385 36.8299 312.673 36.3485 312.07 35.7325C311.473 35.11 311.017 34.4073 310.703 33.6243C310.395 32.835 310.241 32.0072 310.241 31.1408C310.241 30.2295 310.408 29.299 310.741 28.3492C311.075 27.393 311.572 26.5202 312.233 25.7309C312.894 24.9351 313.729 24.2934 314.736 23.8057C315.744 23.3179 316.892 23.0741 318.182 23.0741C319.203 23.0741 320.127 23.2377 320.955 23.565C321.789 23.8859 322.508 24.3415 323.111 24.9319C323.714 25.5159 324.173 26.193 324.487 26.963C324.802 27.7267 324.959 28.5449 324.959 29.4177ZM324.073 31.16C324.073 30.0563 323.842 29.0487 323.38 28.1374C322.918 27.2262 322.318 26.4529 321.58 25.8175C320.849 25.1758 320.059 24.6849 319.212 24.3447C318.365 23.9982 317.582 23.8249 316.863 23.8249C315.978 23.8249 315.105 24.0592 314.245 24.5276C313.385 24.9897 312.683 25.6475 312.137 26.501C311.592 27.3481 311.319 28.3011 311.319 29.36C311.319 30.6627 311.637 31.8981 312.272 33.066C312.914 34.2276 313.757 35.1645 314.803 35.8769C315.85 36.5828 316.957 36.9357 318.125 36.9357C318.869 36.9357 319.604 36.7849 320.329 36.4833C321.054 36.1817 321.693 35.7742 322.245 35.2608C322.796 34.741 323.239 34.1249 323.573 33.4126C323.907 32.6938 324.073 31.943 324.073 31.16Z" stroke="black" stroke-width="0.6" mask="url(#path-1-outside-1_1_3280)"/>
<path d="M339.599 23.2859H342.342V23.4302C341.919 23.4431 341.627 23.5329 341.466 23.6998C341.312 23.8602 341.235 24.2035 341.235 24.7298V37.6385L329.925 25.5961V36.0886C329.925 36.3453 329.941 36.5571 329.973 36.724C330.005 36.8844 330.063 37.0063 330.146 37.0898C330.229 37.1732 330.316 37.2245 330.406 37.2438C330.496 37.263 330.675 37.2919 330.945 37.3304V37.4652H328.221V37.3304C328.58 37.324 328.834 37.2759 328.981 37.186C329.135 37.0962 329.228 36.9614 329.26 36.7817C329.293 36.5956 329.309 36.278 329.309 35.8287V26.2315C329.309 25.4293 329.196 24.7554 328.972 24.21C328.747 23.6581 328.202 23.3982 327.335 23.4302V23.2859H330.002L340.629 34.6062V24.595C340.629 24.1073 340.545 23.7928 340.379 23.6516C340.218 23.504 339.958 23.4302 339.599 23.4302V23.2859Z" stroke="black" stroke-width="0.6" mask="url(#path-1-outside-1_1_3280)"/>
<path d="M352.15 23.4688L352.824 25.24L352.708 25.2592C352.702 25.2464 352.654 25.195 352.564 25.1052C352.346 24.8485 352.095 24.6014 351.813 24.364C351.537 24.1265 351.197 23.9276 350.793 23.7672C350.388 23.6067 349.923 23.5265 349.397 23.5265C348.736 23.5265 348.165 23.6613 347.683 23.9308C347.202 24.2003 346.839 24.5565 346.596 24.9993C346.358 25.4357 346.239 25.8913 346.239 26.3662C346.239 26.809 346.326 27.1877 346.499 27.5021C346.679 27.8101 346.91 28.0636 347.192 28.2626C347.475 28.4551 347.85 28.638 348.319 28.8113C348.787 28.9781 349.147 29.1033 349.397 29.1867C350.083 29.3985 350.719 29.6455 351.303 29.9279C351.893 30.2039 352.423 30.6338 352.891 31.2178C353.36 31.7954 353.594 32.5366 353.594 33.4414C353.594 34.2821 353.385 35.0201 352.968 35.6555C352.551 36.2844 352.031 36.7561 351.409 37.0705C351.158 37.186 350.728 37.2823 350.119 37.3593C349.516 37.4299 349.095 37.4652 348.858 37.4652H345.075V33.3452H345.219C345.232 33.9548 345.29 34.4714 345.392 34.895C345.501 35.3121 345.7 35.6843 345.989 36.0116C346.278 36.3325 346.676 36.5796 347.183 36.7528C347.696 36.9261 348.341 37.0128 349.118 37.0128C349.862 37.0128 350.481 36.9069 350.975 36.6951C351.476 36.4833 351.861 36.217 352.131 35.8961C352.4 35.5752 352.58 35.2608 352.67 34.9528C352.76 34.6383 352.804 34.3527 352.804 34.096C352.804 33.5185 352.644 33.0339 352.323 32.6425C352.002 32.2446 351.611 31.9334 351.149 31.7087C350.693 31.4841 350.067 31.2338 349.272 30.9579C348.463 30.682 347.892 30.4605 347.558 30.2937C347.231 30.1268 346.936 29.9215 346.673 29.6776C346.32 29.3311 346.037 28.9268 345.826 28.4647C345.614 27.9963 345.508 27.4925 345.508 26.9534C345.508 26.2539 345.668 25.6122 345.989 25.0282C346.316 24.4378 346.791 23.9661 347.414 23.6131C348.036 23.2538 348.768 23.0741 349.609 23.0741C350.295 23.0741 351.091 23.1928 351.996 23.4302C352.015 23.4302 352.044 23.4367 352.082 23.4495C352.121 23.4623 352.143 23.4688 352.15 23.4688Z" stroke="black" stroke-width="0.6" mask="url(#path-1-outside-1_1_3280)"/>
<path fill-rule="evenodd" clip-rule="evenodd" d="M23.0047 19.8184H46V41.8988H0V19.8184H13.8047V21.3496H8.89258V40.3633H42.6259V21.3496H23.0047V19.8184Z" fill="#9D9489"/>
<path d="M30.4571 24.828C34.0836 19.6656 33.5956 15.1962 32.3885 13.9922C37.6148 16.9056 40.3435 23.4991 35.5282 30.3992C30.5829 37.4854 31.9861 44.0208 33.5956 46.4995C23.8108 36.226 25.2292 32.2698 30.4571 24.828Z" fill="#0E218F"/>
<path d="M24.4887 10.8247C28.6074 5.48173 27.3423 1.61311 26.223 0.5C30.2097 2.49337 34.0886 8.20398 29.443 16.1403C25.763 22.4271 25.9163 27.0272 26.9897 30.8606C19.783 25.8005 19.3403 17.5033 24.4887 10.8247Z" fill="#9D9489"/>
<path d="M14.5171 16.6526C17.7621 12.291 16.8098 9.38327 15.928 8.47461C18.5734 10.7195 21.3952 15.2094 18.2207 20.8217C15.0966 26.3448 15.6341 31.1377 16.8098 33.0084C10.2844 25.1512 10.4608 22.1045 14.5171 16.6526Z" fill="#0E218F"/>
<rect y="40.3691" width="46" height="1.53337" fill="#9D9489"/>
</svg>
