<svg width="460" height="50" viewBox="0 0 460 50" fill="none" xmlns="http://www.w3.org/2000/svg">
<path fill-rule="evenodd" clip-rule="evenodd" d="M25.0041 20.998H50.0009V44.9992H0V20.998H15.0039V22.6621H9.66602V43.3298H46.3333V22.6621H25.0041V20.998Z" fill="#9D9489"/>
<path d="M33.1058 26.4424C37.0477 20.831 36.5173 15.9728 35.2052 14.6641C40.8861 17.8309 43.8522 24.9979 38.618 32.4983C33.2426 40.201 34.7678 47.3048 36.5173 49.9992C25.8814 38.8319 27.4233 34.5316 33.1058 26.4424Z" fill="#0E218F"/>
<path d="M26.6197 11.2228C31.0967 5.41509 29.7215 1.20994 28.5049 0C32.8383 2.16678 37.0546 8.37414 32.0049 17.0009C28.0049 23.8345 28.1715 28.8348 29.3382 33.0017C21.5047 27.5014 21.0235 18.4824 26.6197 11.2228Z" fill="#9D9489"/>
<path d="M15.7826 17.5593C19.3099 12.8183 18.2747 9.65763 17.3162 8.66992C20.1917 11.1101 23.2589 15.9906 19.8083 22.0911C16.4126 28.0947 16.9967 33.3044 18.2747 35.3379C11.1818 26.7972 11.3735 23.4855 15.7826 17.5593Z" fill="#0E218F"/>
<rect y="43.3379" width="50.0009" height="1.66675" fill="#9D9489"/>
<mask id="path-6-outside-1_1_5907" maskUnits="userSpaceOnUse" x="55.3984" y="23.2324" width="405" height="18" fill="black">
<rect fill="white" x="55.3984" y="23.2324" width="405" height="18"/>
<path d="M69.7288 24.7661H72.7109V24.923C72.2505 24.937 71.9331 25.0346 71.7587 25.216C71.5913 25.3904 71.5076 25.7636 71.5076 26.3356V40.3672L59.2131 27.2773V38.6825C59.2131 38.9616 59.2305 39.1918 59.2654 39.3731C59.3003 39.5475 59.3631 39.6801 59.4538 39.7707C59.5444 39.8614 59.6386 39.9172 59.7363 39.9382C59.8339 39.9591 60.0292 39.9905 60.3222 40.0323V40.1788H57.3611V40.0323C57.7517 40.0254 58.0272 39.973 58.1877 39.8754C58.3551 39.7777 58.4562 39.6312 58.4911 39.4359C58.526 39.2336 58.5434 38.8883 58.5434 38.4V27.9679C58.5434 27.0959 58.4214 26.3635 58.1772 25.7706C57.9331 25.1707 57.3401 24.8881 56.3984 24.923V24.7661H59.2968L70.8484 37.0712V26.1891C70.8484 25.6589 70.7577 25.3171 70.5764 25.1637C70.402 25.0032 70.1195 24.923 69.7288 24.923V24.7661Z"/>
<path d="M84.1039 33.0846H79.6046L77.2713 38.9127C77.2015 39.0871 77.1666 39.1813 77.1666 39.1953C77.076 39.3766 77.0306 39.5406 77.0306 39.687C77.0306 39.9172 77.2015 40.0323 77.5433 40.0323V40.1788H75.2518V40.0323C75.6634 40.0254 75.9633 39.9103 76.1517 39.687C76.34 39.4638 76.5284 39.115 76.7167 38.6407L82.3042 24.5359H82.5658L88.0695 38.1594C88.0695 38.2152 88.0904 38.2745 88.1323 38.3372L88.216 38.5674C88.3904 38.9999 88.5892 39.3522 88.8124 39.6243C89.0426 39.8963 89.367 40.0323 89.7855 40.0323V40.1788H86.1861V40.0323C86.3884 40.0323 86.5209 39.987 86.5837 39.8963C86.6465 39.8056 86.6779 39.7219 86.6779 39.6452C86.6779 39.4499 86.5977 39.1708 86.4372 38.8081C86.4233 38.7802 86.4058 38.7383 86.3849 38.6825C86.364 38.6198 86.3465 38.5814 86.3326 38.5674L84.1039 33.0846ZM79.7511 32.6556H83.9155L81.8333 27.4029L79.7511 32.6556Z"/>
<path d="M103.763 24.2324L103.031 26.0949H102.884C102.912 26.0042 102.926 25.8543 102.926 25.645C102.926 25.4706 102.863 25.366 102.738 25.3311C102.619 25.2892 102.441 25.2683 102.204 25.2683H98.1755V38.4628C98.1755 38.7628 98.1894 39.0174 98.2173 39.2266C98.2453 39.4289 98.2976 39.5929 98.3743 39.7184C98.451 39.837 98.5626 39.9207 98.7091 39.9696C98.8556 40.0114 99.0823 40.0323 99.3892 40.0323V40.1788H95.2143V40.0323C95.5631 39.9975 95.8143 39.9486 95.9677 39.8858C96.1282 39.8231 96.2398 39.708 96.3025 39.5406C96.3653 39.3662 96.3967 39.0802 96.3967 38.6825V25.2683H92.5357C92.1521 25.2683 91.8974 25.2892 91.7719 25.3311C91.6533 25.3729 91.594 25.488 91.594 25.6764C91.594 25.7531 91.6219 25.8926 91.6777 26.0949H91.5312L90.7988 24.2324H90.9453C91.0778 24.4835 91.2138 24.6405 91.3533 24.7033C91.4719 24.7451 91.7231 24.7661 92.1067 24.7661H102.35C102.762 24.7661 103.051 24.7416 103.219 24.6928C103.393 24.644 103.526 24.4905 103.616 24.2324H103.763Z"/>
<path d="M120.66 40.1788H117.751V37.8036C116.272 39.4568 114.5 40.2835 112.435 40.2835C111.759 40.2835 111.128 40.1928 110.542 40.0114C109.956 39.83 109.429 39.544 108.962 39.1534C108.501 38.7628 108.135 38.2535 107.863 37.6257C107.591 36.9909 107.455 36.262 107.455 35.4389V26.21C107.455 25.8264 107.43 25.5473 107.382 25.3729C107.333 25.1986 107.225 25.08 107.057 25.0172C106.89 24.9474 106.646 24.916 106.325 24.923V24.7661H110.416V24.923C110.018 24.923 109.722 24.9893 109.527 25.1218C109.331 25.2474 109.234 25.5718 109.234 26.0949V34.5599C109.234 35.5714 109.356 36.3875 109.6 37.0084C109.844 37.6153 110.175 38.1036 110.594 38.4733C111.019 38.843 111.469 39.1046 111.944 39.258C112.418 39.4115 112.875 39.4882 113.314 39.4882C114.982 39.4882 116.46 38.7383 117.751 37.2386V26.8064C117.751 26.2833 117.726 25.8996 117.678 25.6555C117.636 25.4043 117.545 25.2195 117.406 25.1009C117.266 24.9823 117.05 24.923 116.757 24.923H116.61V24.7661H120.66V24.923C120.248 24.937 119.955 24.9997 119.781 25.1114C119.606 25.216 119.519 25.502 119.519 25.9694V38.5256C119.519 38.9232 119.537 39.2197 119.571 39.415C119.606 39.6103 119.708 39.7638 119.875 39.8754C120.049 39.987 120.311 40.0393 120.66 40.0323V40.1788Z"/>
<path d="M124.09 24.923V24.7661H128.464C129.419 24.7661 130.11 24.7835 130.535 24.8184C130.968 24.8463 131.369 24.923 131.739 25.0486C132.415 25.2509 132.956 25.6206 133.361 26.1577C133.765 26.6879 133.967 27.361 133.967 28.1772C133.967 28.7422 133.842 29.2863 133.591 29.8095C133.347 30.3327 133.019 30.7965 132.607 31.2011C132.196 31.6057 131.749 31.9405 131.268 32.2056L132.356 33.8798L132.45 34.0263C132.583 34.2704 133.008 34.9017 133.727 35.9202C134.452 36.9316 135.104 37.7722 135.683 38.4419C135.949 38.7418 136.304 39.0243 136.751 39.2894C137.197 39.5545 137.692 39.687 138.237 39.687C138.627 39.687 138.976 39.6138 139.283 39.4673C139.381 39.4255 139.499 39.3662 139.639 39.2894C139.778 39.2127 139.904 39.1464 140.015 39.0906L140.078 39.2999C139.701 39.5929 139.307 39.8231 138.896 39.9905C138.673 40.0742 138.366 40.1509 137.975 40.2207C137.591 40.2904 137.204 40.3253 136.814 40.3253C136.493 40.3253 136.168 40.2869 135.84 40.2102C135.52 40.1335 135.178 39.9835 134.815 39.7603C134.452 39.5301 134.114 39.2197 133.8 38.829C132.991 37.8455 132.119 36.6526 131.184 35.2505C131.184 35.2366 131.177 35.2156 131.163 35.1877C131.149 35.1598 131.142 35.1459 131.142 35.1459L129.594 32.7602L129.018 32.7811C128.935 32.7951 128.67 32.802 128.223 32.802H126.978V38.7035C126.978 39.0871 127.016 39.3731 127.093 39.5615C127.17 39.7498 127.278 39.8719 127.417 39.9277C127.557 39.9835 127.777 40.0184 128.077 40.0323V40.1788H124.09V40.0323C124.578 40.0114 124.885 39.9137 125.011 39.7394C125.136 39.558 125.199 39.1674 125.199 38.5674V26.3147C125.199 25.8961 125.157 25.5892 125.074 25.3939C124.997 25.1986 124.889 25.0765 124.749 25.0276C124.61 24.9718 124.39 24.937 124.09 24.923ZM126.978 25.1741V32.4044H128.589C128.903 32.4044 129.287 32.3661 129.74 32.2893C130.201 32.2056 130.546 32.101 130.776 31.9754C131.216 31.7313 131.585 31.3755 131.885 30.9081C132.185 30.4338 132.335 29.8444 132.335 29.1398C132.335 28.8329 132.293 28.4946 132.21 28.1249C132.126 27.7482 131.997 27.3924 131.822 27.0576C131.655 26.7227 131.435 26.4193 131.163 26.1472C130.835 25.8194 130.445 25.5752 129.991 25.4148C129.545 25.2544 128.962 25.1741 128.244 25.1741H126.978Z"/>
<path d="M165.815 40.0323V40.1788H159.599C159.041 40.1788 158.522 40.1579 158.04 40.116C157.566 40.0742 157.019 39.9626 156.398 39.7812C155.777 39.5929 155.173 39.3104 154.588 38.9337C153.374 38.1733 152.404 37.2037 151.679 36.0248C150.96 34.8459 150.601 33.6147 150.601 32.3312C150.601 31.4592 150.793 30.5629 151.176 29.6421C151.567 28.7213 152.139 27.8737 152.892 27.0994C153.646 26.3251 154.567 25.7043 155.655 25.2369C156.75 24.7695 157.964 24.5359 159.296 24.5359C160.831 24.5359 162.432 24.8707 164.099 25.5404L164.737 27.3192H164.591C164.046 26.6286 163.3 26.06 162.351 25.6136C161.41 25.1672 160.384 24.9439 159.275 24.9439C158.229 24.9439 157.277 25.1567 156.419 25.5822C155.561 26.0077 154.842 26.5867 154.263 27.3192C153.684 28.0516 153.241 28.8922 152.934 29.8409C152.634 30.7826 152.484 31.7557 152.484 32.7602C152.484 34.3855 152.809 35.6865 153.457 36.6631C154.106 37.6327 154.825 38.3407 155.613 38.7872C156.304 39.1778 157.074 39.4394 157.925 39.5719C158.783 39.7045 159.47 39.7707 159.987 39.7707L160.813 39.7498C161.434 39.7359 161.884 39.7045 162.163 39.6556C162.449 39.5998 162.644 39.4813 162.749 39.2999C162.861 39.1185 162.916 38.8255 162.916 38.421V36.0876C162.916 35.6342 162.826 35.3307 162.644 35.1773C162.463 35.0238 162.191 34.954 161.828 34.968V34.8215H165.815V34.968C165.333 34.975 165.027 35.0761 164.894 35.2714C164.761 35.4668 164.695 35.7876 164.695 36.2341V38.6616C164.695 39.1499 164.758 39.5022 164.884 39.7184C165.016 39.9277 165.253 40.0323 165.595 40.0323H165.815Z"/>
<path d="M168.146 40.1788V40.0323C168.642 40.0323 168.956 39.9417 169.088 39.7603C169.228 39.5789 169.297 39.2685 169.297 38.829V26.21C169.297 25.6589 169.217 25.3102 169.057 25.1637C168.903 25.0172 168.593 24.937 168.125 24.923V24.7661H172.259V24.923C171.889 24.916 171.617 24.9684 171.442 25.08C171.268 25.1846 171.163 25.3276 171.128 25.509C171.094 25.6903 171.076 25.9589 171.076 26.3147V37.1339C171.076 37.6153 171.132 38.0164 171.244 38.3372C171.355 38.6512 171.526 38.9058 171.756 39.1011C171.993 39.2964 172.3 39.4394 172.677 39.5301C173.061 39.6208 173.514 39.6661 174.037 39.6661H175.921C176.604 39.6661 177.138 39.5475 177.522 39.3104C177.905 39.0732 178.174 38.7279 178.327 38.2745C178.488 37.8141 178.585 37.2142 178.62 36.4747H178.767V40.1788H168.146Z"/>
<path d="M197.924 31.4313C197.924 32.6102 197.732 33.7438 197.348 34.832C196.964 35.9202 196.392 36.8863 195.632 37.7304C194.879 38.5744 193.954 39.2336 192.859 39.708C191.764 40.1823 190.547 40.4195 189.208 40.4195C188.126 40.4195 187.136 40.2346 186.236 39.8649C185.343 39.4882 184.569 38.9651 183.913 38.2954C183.264 37.6188 182.769 36.8549 182.427 36.0039C182.092 35.1459 181.925 34.246 181.925 33.3043C181.925 32.3137 182.106 31.3023 182.469 30.2699C182.832 29.2305 183.372 28.2818 184.091 27.4238C184.809 26.5588 185.716 25.8612 186.811 25.3311C187.907 24.8009 189.155 24.5359 190.557 24.5359C191.667 24.5359 192.671 24.7137 193.571 25.0695C194.478 25.4183 195.259 25.9136 195.915 26.5553C196.57 27.1901 197.069 27.926 197.411 28.7631C197.753 29.5932 197.924 30.4826 197.924 31.4313ZM196.961 33.3252C196.961 32.1254 196.71 31.0302 196.208 30.0397C195.705 29.0491 195.053 28.2086 194.251 27.518C193.456 26.8204 192.598 26.2868 191.677 25.917C190.756 25.5404 189.905 25.352 189.124 25.352C188.161 25.352 187.213 25.6066 186.278 26.1159C185.343 26.6181 184.579 27.3331 183.986 28.2609C183.393 29.1817 183.097 30.2176 183.097 31.3685C183.097 32.7846 183.442 34.1274 184.133 35.397C184.83 36.6596 185.748 37.678 186.885 38.4523C188.022 39.2197 189.225 39.6033 190.495 39.6033C191.304 39.6033 192.102 39.4394 192.891 39.1115C193.679 38.7837 194.373 38.3407 194.973 37.7827C195.573 37.2176 196.054 36.548 196.417 35.7737C196.78 34.9924 196.961 34.1763 196.961 33.3252Z"/>
<path d="M201.239 24.923V24.7661H205.246C206.146 24.7661 206.84 24.794 207.329 24.8498C207.817 24.9056 208.253 25.0207 208.636 25.1951C209.292 25.502 209.808 25.938 210.185 26.503C210.562 27.0611 210.75 27.7063 210.75 28.4388C210.75 29.7502 210.108 30.7791 208.825 31.5255C209.753 31.6929 210.468 32.0208 210.97 32.5091C211.779 33.2764 212.184 34.2914 212.184 35.5539C212.184 36.4957 211.981 37.3153 211.577 38.0129C211.172 38.7035 210.698 39.2266 210.154 39.5824C209.923 39.7289 209.69 39.8405 209.453 39.9172C209.222 39.994 208.971 40.0533 208.699 40.0951C208.434 40.13 208.194 40.1544 207.977 40.1684C207.761 40.1753 207.492 40.1788 207.172 40.1788H201.218V40.0323C201.581 40.0323 201.839 39.98 201.992 39.8754C202.146 39.7707 202.24 39.6103 202.275 39.3941C202.31 39.1708 202.327 38.7976 202.327 38.2745V26.66C202.327 26.1298 202.31 25.7601 202.275 25.5508C202.247 25.3416 202.156 25.1881 202.003 25.0904C201.849 24.9858 201.595 24.93 201.239 24.923ZM204.106 25.0904V31.8603H205.979C207.248 31.8603 208.089 31.5011 208.5 30.7826C208.919 30.0571 209.128 29.3316 209.128 28.6062C209.128 27.1064 208.521 26.0775 207.308 25.5194C206.673 25.2334 205.742 25.0904 204.514 25.0904H204.106ZM205.309 32.1847H204.106V37.0712C204.106 37.5595 204.123 37.9431 204.158 38.2221C204.2 38.5012 204.319 38.7628 204.514 39.0069C204.709 39.2511 205.02 39.4394 205.445 39.5719C205.878 39.7045 206.467 39.7707 207.213 39.7707C208.092 39.7707 208.773 39.6277 209.254 39.3417C210.084 38.8465 210.499 37.8908 210.499 36.4747C210.499 35.7562 210.401 35.1075 210.206 34.5285C210.011 33.9495 209.728 33.4647 209.358 33.0741C208.996 32.6835 208.553 32.4358 208.03 32.3312C207.534 32.2335 206.628 32.1847 205.309 32.1847Z"/>
<path d="M223.524 33.0846H219.025L216.692 38.9127C216.622 39.0871 216.587 39.1813 216.587 39.1953C216.496 39.3766 216.451 39.5406 216.451 39.687C216.451 39.9172 216.622 40.0323 216.964 40.0323V40.1788H214.672V40.0323C215.084 40.0254 215.384 39.9103 215.572 39.687C215.76 39.4638 215.949 39.115 216.137 38.6407L221.725 24.5359H221.986L227.49 38.1594C227.49 38.2152 227.511 38.2745 227.553 38.3372L227.636 38.5674C227.811 38.9999 228.01 39.3522 228.233 39.6243C228.463 39.8963 228.787 40.0323 229.206 40.0323V40.1788H225.606V40.0323C225.809 40.0323 225.941 39.987 226.004 39.8963C226.067 39.8056 226.098 39.7219 226.098 39.6452C226.098 39.4499 226.018 39.1708 225.858 38.8081C225.844 38.7802 225.826 38.7383 225.805 38.6825C225.784 38.6198 225.767 38.5814 225.753 38.5674L223.524 33.0846ZM219.171 32.6556H223.336L221.254 27.4029L219.171 32.6556Z"/>
<path d="M231.297 40.1788V40.0323C231.792 40.0323 232.106 39.9417 232.239 39.7603C232.378 39.5789 232.448 39.2685 232.448 38.829V26.21C232.448 25.6589 232.368 25.3102 232.207 25.1637C232.054 25.0172 231.743 24.937 231.276 24.923V24.7661H235.409V24.923C235.039 24.916 234.767 24.9684 234.593 25.08C234.418 25.1846 234.314 25.3276 234.279 25.509C234.244 25.6903 234.227 25.9589 234.227 26.3147V37.1339C234.227 37.6153 234.282 38.0164 234.394 38.3372C234.506 38.6512 234.677 38.9058 234.907 39.1011C235.144 39.2964 235.451 39.4394 235.828 39.5301C236.211 39.6208 236.665 39.6661 237.188 39.6661H239.071C239.755 39.6661 240.288 39.5475 240.672 39.3104C241.056 39.0732 241.324 38.7279 241.478 38.2745C241.638 37.8141 241.736 37.2142 241.771 36.4747H241.917V40.1788H231.297Z"/>
<path d="M266.419 25.5404L266.995 27.1727H266.848C266.534 26.8588 266.144 26.5379 265.676 26.21C265.216 25.8822 264.63 25.5892 263.918 25.3311C263.207 25.073 262.426 24.9439 261.575 24.9439C260.082 24.9439 258.802 25.2578 257.735 25.8857C256.674 26.5065 255.876 27.3052 255.338 28.2818C254.808 29.2584 254.543 30.2803 254.543 31.3476C254.543 32.108 254.69 32.9869 254.983 33.9844C255.276 34.9819 255.74 35.9376 256.374 36.8514C257.009 37.7652 257.85 38.5221 258.896 39.122C259.949 39.7149 261.198 40.0114 262.642 40.0114C263.807 40.0114 264.944 39.8231 266.053 39.4464C267.169 39.0697 267.996 38.5709 268.533 37.9501L268.669 37.9919L267.591 39.6452C266.022 39.987 264.961 40.1998 264.41 40.2835C263.859 40.3741 263.092 40.4195 262.108 40.4195C261.097 40.4195 260.193 40.3497 259.398 40.2102C258.603 40.0707 257.926 39.8824 257.368 39.6452C256.81 39.401 256.319 39.122 255.893 38.8081C255.042 38.1803 254.362 37.3327 253.853 36.2655C253.343 35.1982 253.089 34.0437 253.089 32.802C253.089 31.7975 253.274 30.8035 253.643 29.8199C254.02 28.8364 254.578 27.947 255.318 27.1517C256.064 26.3565 256.995 25.7217 258.111 25.2474C259.227 24.773 260.479 24.5359 261.868 24.5359C262.754 24.5359 263.528 24.6196 264.191 24.787C264.86 24.9544 265.544 25.1846 266.241 25.4776C266.255 25.4776 266.283 25.4846 266.325 25.4985C266.374 25.5125 266.405 25.5264 266.419 25.5404Z"/>
<path d="M287.271 31.4313C287.271 32.6102 287.079 33.7438 286.696 34.832C286.312 35.9202 285.74 36.8863 284.98 37.7304C284.226 38.5744 283.302 39.2336 282.207 39.708C281.112 40.1823 279.894 40.4195 278.555 40.4195C277.474 40.4195 276.483 40.2346 275.583 39.8649C274.691 39.4882 273.916 38.9651 273.261 38.2954C272.612 37.6188 272.117 36.8549 271.775 36.0039C271.44 35.1459 271.273 34.246 271.273 33.3043C271.273 32.3137 271.454 31.3023 271.817 30.2699C272.179 29.2305 272.72 28.2818 273.438 27.4238C274.157 26.5588 275.064 25.8612 276.159 25.3311C277.254 24.8009 278.503 24.5359 279.905 24.5359C281.014 24.5359 282.018 24.7137 282.918 25.0695C283.825 25.4183 284.606 25.9136 285.262 26.5553C285.918 27.1901 286.417 27.926 286.758 28.7631C287.1 29.5932 287.271 30.4826 287.271 31.4313ZM286.308 33.3252C286.308 32.1254 286.057 31.0302 285.555 30.0397C285.053 29.0491 284.401 28.2086 283.598 27.518C282.803 26.8204 281.945 26.2868 281.024 25.917C280.104 25.5404 279.253 25.352 278.471 25.352C277.509 25.352 276.56 25.6066 275.625 26.1159C274.691 26.6181 273.927 27.3331 273.334 28.2609C272.741 29.1817 272.444 30.2176 272.444 31.3685C272.444 32.7846 272.79 34.1274 273.48 35.397C274.178 36.6596 275.095 37.678 276.232 38.4523C277.369 39.2197 278.573 39.6033 279.842 39.6033C280.651 39.6033 281.45 39.4394 282.238 39.1115C283.026 38.7837 283.721 38.3407 284.32 37.7827C284.92 37.2176 285.402 36.548 285.764 35.7737C286.127 34.9924 286.308 34.1763 286.308 33.3252Z"/>
<path d="M303.184 24.7661H306.166V24.923C305.706 24.937 305.389 25.0346 305.214 25.216C305.047 25.3904 304.963 25.7636 304.963 26.3356V40.3672L292.669 27.2773V38.6825C292.669 38.9616 292.686 39.1918 292.721 39.3731C292.756 39.5475 292.819 39.6801 292.909 39.7707C293 39.8614 293.094 39.9172 293.192 39.9382C293.289 39.9591 293.485 39.9905 293.778 40.0323V40.1788H290.817V40.0323C291.207 40.0254 291.483 39.973 291.643 39.8754C291.811 39.7777 291.912 39.6312 291.947 39.4359C291.981 39.2336 291.999 38.8883 291.999 38.4V27.9679C291.999 27.0959 291.877 26.3635 291.633 25.7706C291.389 25.1707 290.796 24.8881 289.854 24.923V24.7661H292.752L304.304 37.0712V26.1891C304.304 25.6589 304.213 25.3171 304.032 25.1637C303.857 25.0032 303.575 24.923 303.184 24.923V24.7661Z"/>
<path d="M316.827 24.9649L317.559 26.8902L317.434 26.9111C317.427 26.8971 317.374 26.8413 317.277 26.7437C317.04 26.4646 316.768 26.1961 316.461 25.938C316.161 25.6799 315.791 25.4636 315.352 25.2892C314.912 25.1148 314.406 25.0276 313.834 25.0276C313.116 25.0276 312.495 25.1741 311.972 25.4671C311.449 25.7601 311.055 26.1472 310.79 26.6286C310.531 27.1029 310.402 27.5982 310.402 28.1144C310.402 28.5957 310.497 29.0073 310.685 29.3491C310.88 29.6839 311.131 29.9595 311.438 30.1757C311.745 30.385 312.153 30.5838 312.662 30.7721C313.172 30.9535 313.562 31.0895 313.834 31.1802C314.581 31.4104 315.271 31.679 315.906 31.9859C316.548 32.2858 317.123 32.7532 317.633 33.388C318.142 34.0158 318.396 34.8215 318.396 35.8051C318.396 36.7189 318.17 37.5211 317.716 38.2117C317.263 38.8953 316.698 39.408 316.021 39.7498C315.749 39.8754 315.282 39.98 314.619 40.0637C313.963 40.1405 313.507 40.1788 313.248 40.1788H309.136V35.7004H309.293C309.307 36.3631 309.37 36.9247 309.482 37.3851C309.6 37.8385 309.816 38.2431 310.13 38.5988C310.444 38.9476 310.877 39.2162 311.428 39.4045C311.986 39.5929 312.687 39.687 313.531 39.687C314.34 39.687 315.013 39.5719 315.55 39.3417C316.094 39.1115 316.513 38.8221 316.806 38.4733C317.099 38.1245 317.294 37.7827 317.392 37.4478C317.49 37.106 317.538 36.7956 317.538 36.5166C317.538 35.8888 317.364 35.3621 317.015 34.9366C316.666 34.5041 316.241 34.1658 315.739 33.9216C315.243 33.6775 314.563 33.4054 313.698 33.1055C312.819 32.8055 312.199 32.5649 311.836 32.3835C311.48 32.2021 311.159 31.9789 310.873 31.7138C310.49 31.3372 310.183 30.8977 309.952 30.3954C309.722 29.8862 309.607 29.3386 309.607 28.7527C309.607 27.9923 309.782 27.2947 310.13 26.66C310.486 26.0182 311.002 25.5055 311.679 25.1218C312.356 24.7312 313.151 24.5359 314.065 24.5359C314.811 24.5359 315.676 24.6649 316.659 24.923C316.68 24.923 316.712 24.93 316.754 24.9439C316.796 24.9579 316.82 24.9649 316.827 24.9649Z"/>
<path d="M333.556 24.2324L332.824 26.0949H332.677C332.705 26.0042 332.719 25.8543 332.719 25.645C332.719 25.4706 332.656 25.366 332.531 25.3311C332.412 25.2892 332.234 25.2683 331.997 25.2683H327.969V38.4628C327.969 38.7628 327.983 39.0174 328.011 39.2266C328.039 39.4289 328.091 39.5929 328.168 39.7184C328.244 39.837 328.356 39.9207 328.502 39.9696C328.649 40.0114 328.876 40.0323 329.182 40.0323V40.1788H325.008V40.0323C325.356 39.9975 325.608 39.9486 325.761 39.8858C325.921 39.8231 326.033 39.708 326.096 39.5406C326.159 39.3662 326.19 39.0802 326.19 38.6825V25.2683H322.329C321.945 25.2683 321.691 25.2892 321.565 25.3311C321.447 25.3729 321.387 25.488 321.387 25.6764C321.387 25.7531 321.415 25.8926 321.471 26.0949H321.324L320.592 24.2324H320.739C320.871 24.4835 321.007 24.6405 321.147 24.7033C321.265 24.7451 321.516 24.7661 321.9 24.7661H332.144C332.555 24.7661 332.845 24.7416 333.012 24.6928C333.186 24.644 333.319 24.4905 333.41 24.2324H333.556Z"/>
<path d="M336.097 24.923V24.7661H340.471C341.427 24.7661 342.117 24.7835 342.543 24.8184C342.975 24.8463 343.376 24.923 343.746 25.0486C344.423 25.2509 344.963 25.6206 345.368 26.1577C345.772 26.6879 345.975 27.361 345.975 28.1772C345.975 28.7422 345.849 29.2863 345.598 29.8095C345.354 30.3327 345.026 30.7965 344.614 31.2011C344.203 31.6057 343.756 31.9405 343.275 32.2056L344.363 33.8798L344.457 34.0263C344.59 34.2704 345.015 34.9017 345.734 35.9202C346.459 36.9316 347.112 37.7722 347.691 38.4419C347.956 38.7418 348.311 39.0243 348.758 39.2894C349.204 39.5545 349.7 39.687 350.244 39.687C350.634 39.687 350.983 39.6138 351.29 39.4673C351.388 39.4255 351.506 39.3662 351.646 39.2894C351.785 39.2127 351.911 39.1464 352.022 39.0906L352.085 39.2999C351.709 39.5929 351.314 39.8231 350.903 39.9905C350.68 40.0742 350.373 40.1509 349.982 40.2207C349.598 40.2904 349.211 40.3253 348.821 40.3253C348.5 40.3253 348.175 40.2869 347.848 40.2102C347.527 40.1335 347.185 39.9835 346.822 39.7603C346.459 39.5301 346.121 39.2197 345.807 38.829C344.998 37.8455 344.126 36.6526 343.191 35.2505C343.191 35.2366 343.184 35.2156 343.17 35.1877C343.156 35.1598 343.15 35.1459 343.15 35.1459L341.601 32.7602L341.025 32.7811C340.942 32.7951 340.677 32.802 340.23 32.802H338.985V38.7035C338.985 39.0871 339.023 39.3731 339.1 39.5615C339.177 39.7498 339.285 39.8719 339.425 39.9277C339.564 39.9835 339.784 40.0184 340.084 40.0323V40.1788H336.097V40.0323C336.585 40.0114 336.892 39.9137 337.018 39.7394C337.143 39.558 337.206 39.1674 337.206 38.5674V26.3147C337.206 25.8961 337.164 25.5892 337.081 25.3939C337.004 25.1986 336.896 25.0765 336.756 25.0276C336.617 24.9718 336.397 24.937 336.097 24.923ZM338.985 25.1741V32.4044H340.596C340.91 32.4044 341.294 32.3661 341.747 32.2893C342.208 32.2056 342.553 32.101 342.783 31.9754C343.223 31.7313 343.592 31.3755 343.892 30.9081C344.192 30.4338 344.342 29.8444 344.342 29.1398C344.342 28.8329 344.3 28.4946 344.217 28.1249C344.133 27.7482 344.004 27.3924 343.83 27.0576C343.662 26.7227 343.442 26.4193 343.17 26.1472C342.843 25.8194 342.452 25.5752 341.999 25.4148C341.552 25.2544 340.97 25.1741 340.251 25.1741H338.985Z"/>
<path d="M369.139 40.1788H366.23V37.8036C364.751 39.4568 362.979 40.2835 360.915 40.2835C360.238 40.2835 359.607 40.1928 359.021 40.0114C358.435 39.83 357.908 39.544 357.441 39.1534C356.98 38.7628 356.614 38.2535 356.342 37.6257C356.07 36.9909 355.934 36.262 355.934 35.4389V26.21C355.934 25.8264 355.91 25.5473 355.861 25.3729C355.812 25.1986 355.704 25.08 355.536 25.0172C355.369 24.9474 355.125 24.916 354.804 24.923V24.7661H358.895V24.923C358.498 24.923 358.201 24.9893 358.006 25.1218C357.811 25.2474 357.713 25.5718 357.713 26.0949V34.5599C357.713 35.5714 357.835 36.3875 358.079 37.0084C358.323 37.6153 358.655 38.1036 359.073 38.4733C359.499 38.843 359.949 39.1046 360.423 39.258C360.897 39.4115 361.354 39.4882 361.794 39.4882C363.461 39.4882 364.94 38.7383 366.23 37.2386V26.8064C366.23 26.2833 366.206 25.8996 366.157 25.6555C366.115 25.4043 366.024 25.2195 365.885 25.1009C365.745 24.9823 365.529 24.923 365.236 24.923H365.09V24.7661H369.139V24.923C368.727 24.937 368.434 24.9997 368.26 25.1114C368.086 25.216 367.998 25.502 367.998 25.9694V38.5256C367.998 38.9232 368.016 39.2197 368.051 39.415C368.086 39.6103 368.187 39.7638 368.354 39.8754C368.529 39.987 368.79 40.0393 369.139 40.0323V40.1788Z"/>
<path d="M385.837 25.5404L386.412 27.1727H386.266C385.952 26.8588 385.561 26.5379 385.094 26.21C384.634 25.8822 384.048 25.5892 383.336 25.3311C382.625 25.073 381.843 24.9439 380.992 24.9439C379.5 24.9439 378.22 25.2578 377.152 25.8857C376.092 26.5065 375.293 27.3052 374.756 28.2818C374.226 29.2584 373.961 30.2803 373.961 31.3476C373.961 32.108 374.107 32.9869 374.4 33.9844C374.693 34.9819 375.157 35.9376 375.792 36.8514C376.427 37.7652 377.267 38.5221 378.314 39.122C379.367 39.7149 380.616 40.0114 382.06 40.0114C383.224 40.0114 384.362 39.8231 385.471 39.4464C386.587 39.0697 387.413 38.5709 387.95 37.9501L388.086 37.9919L387.009 39.6452C385.439 39.987 384.379 40.1998 383.828 40.2835C383.277 40.3741 382.509 40.4195 381.526 40.4195C380.514 40.4195 379.611 40.3497 378.816 40.2102C378.021 40.0707 377.344 39.8824 376.786 39.6452C376.228 39.401 375.736 39.122 375.311 38.8081C374.46 38.1803 373.78 37.3327 373.27 36.2655C372.761 35.1982 372.506 34.0437 372.506 32.802C372.506 31.7975 372.691 30.8035 373.061 29.8199C373.438 28.8364 373.996 27.947 374.735 27.1517C375.482 26.3565 376.413 25.7217 377.529 25.2474C378.645 24.773 379.897 24.5359 381.285 24.5359C382.171 24.5359 382.945 24.6196 383.608 24.787C384.278 24.9544 384.961 25.1846 385.659 25.4776C385.673 25.4776 385.701 25.4846 385.743 25.4985C385.792 25.5125 385.823 25.5264 385.837 25.5404Z"/>
<path d="M402.943 24.2324L402.21 26.0949H402.064C402.092 26.0042 402.106 25.8543 402.106 25.645C402.106 25.4706 402.043 25.366 401.917 25.3311C401.799 25.2892 401.621 25.2683 401.384 25.2683H397.355V38.4628C397.355 38.7628 397.369 39.0174 397.397 39.2266C397.425 39.4289 397.477 39.5929 397.554 39.7184C397.631 39.837 397.743 39.9207 397.889 39.9696C398.036 40.0114 398.262 40.0323 398.569 40.0323V40.1788H394.394V40.0323C394.743 39.9975 394.994 39.9486 395.148 39.8858C395.308 39.8231 395.42 39.708 395.482 39.5406C395.545 39.3662 395.577 39.0802 395.577 38.6825V25.2683H391.716C391.332 25.2683 391.077 25.2892 390.952 25.3311C390.833 25.3729 390.774 25.488 390.774 25.6764C390.774 25.7531 390.802 25.8926 390.858 26.0949H390.711L389.979 24.2324H390.125C390.258 24.4835 390.394 24.6405 390.533 24.7033C390.652 24.7451 390.903 24.7661 391.287 24.7661H401.53C401.942 24.7661 402.231 24.7416 402.399 24.6928C402.573 24.644 402.706 24.4905 402.796 24.2324H402.943Z"/>
<path d="M409.491 24.7661V24.923C409.254 24.9021 409 24.9439 408.727 25.0486C408.462 25.1462 408.33 25.3764 408.33 25.7392C408.316 25.8229 408.309 26.0845 408.309 26.5239V38.3582C408.309 38.8465 408.326 39.1987 408.361 39.415C408.396 39.6243 408.497 39.7812 408.665 39.8858C408.839 39.9905 409.115 40.0393 409.491 40.0323V40.1788H405.379V40.0323C405.749 40.0184 406.01 39.9696 406.164 39.8858C406.324 39.7952 406.426 39.6487 406.467 39.4464C406.509 39.2441 406.53 38.8883 406.53 38.3791V26.66C406.53 26.1926 406.513 25.8438 406.478 25.6136C406.443 25.3834 406.342 25.2055 406.174 25.08C406.007 24.9544 405.742 24.9021 405.379 24.923V24.7661H409.491Z"/>
<path d="M428.638 31.4313C428.638 32.6102 428.446 33.7438 428.062 34.832C427.679 35.9202 427.107 36.8863 426.346 37.7304C425.593 38.5744 424.669 39.2336 423.573 39.708C422.478 40.1823 421.261 40.4195 419.922 40.4195C418.84 40.4195 417.85 40.2346 416.95 39.8649C416.057 39.4882 415.283 38.9651 414.627 38.2954C413.978 37.6188 413.483 36.8549 413.141 36.0039C412.807 35.1459 412.639 34.246 412.639 33.3043C412.639 32.3137 412.82 31.3023 413.183 30.2699C413.546 29.2305 414.087 28.2818 414.805 27.4238C415.524 26.5588 416.43 25.8612 417.526 25.3311C418.621 24.8009 419.869 24.5359 421.271 24.5359C422.381 24.5359 423.385 24.7137 424.285 25.0695C425.192 25.4183 425.973 25.9136 426.629 26.5553C427.284 27.1901 427.783 27.926 428.125 28.7631C428.467 29.5932 428.638 30.4826 428.638 31.4313ZM427.675 33.3252C427.675 32.1254 427.424 31.0302 426.922 30.0397C426.419 29.0491 425.767 28.2086 424.965 27.518C424.17 26.8204 423.312 26.2868 422.391 25.917C421.47 25.5404 420.619 25.352 419.838 25.352C418.875 25.352 417.927 25.6066 416.992 26.1159C416.057 26.6181 415.293 27.3331 414.7 28.2609C414.107 29.1817 413.811 30.2176 413.811 31.3685C413.811 32.7846 414.156 34.1274 414.847 35.397C415.544 36.6596 416.462 37.678 417.599 38.4523C418.736 39.2197 419.939 39.6033 421.209 39.6033C422.018 39.6033 422.817 39.4394 423.605 39.1115C424.393 38.7837 425.087 38.3407 425.687 37.7827C426.287 37.2176 426.768 36.548 427.131 35.7737C427.494 34.9924 427.675 34.1763 427.675 33.3252Z"/>
<path d="M444.551 24.7661H447.533V24.923C447.073 24.937 446.755 25.0346 446.581 25.216C446.413 25.3904 446.33 25.7636 446.33 26.3356V40.3672L434.035 27.2773V38.6825C434.035 38.9616 434.053 39.1918 434.087 39.3731C434.122 39.5475 434.185 39.6801 434.276 39.7707C434.366 39.8614 434.461 39.9172 434.558 39.9382C434.656 39.9591 434.851 39.9905 435.144 40.0323V40.1788H432.183V40.0323C432.574 40.0254 432.849 39.973 433.01 39.8754C433.177 39.7777 433.278 39.6312 433.313 39.4359C433.348 39.2336 433.365 38.8883 433.365 38.4V27.9679C433.365 27.0959 433.243 26.3635 432.999 25.7706C432.755 25.1707 432.162 24.8881 431.22 24.923V24.7661H434.119L445.67 37.0712V26.1891C445.67 25.6589 445.58 25.3171 445.398 25.1637C445.224 25.0032 444.941 24.923 444.551 24.923V24.7661Z"/>
<path d="M458.193 24.9649L458.926 26.8902L458.8 26.9111C458.793 26.8971 458.741 26.8413 458.643 26.7437C458.406 26.4646 458.134 26.1961 457.827 25.938C457.527 25.6799 457.158 25.4636 456.718 25.2892C456.279 25.1148 455.773 25.0276 455.201 25.0276C454.482 25.0276 453.862 25.1741 453.338 25.4671C452.815 25.7601 452.421 26.1472 452.156 26.6286C451.898 27.1029 451.769 27.5982 451.769 28.1144C451.769 28.5957 451.863 29.0073 452.051 29.3491C452.247 29.6839 452.498 29.9595 452.805 30.1757C453.112 30.385 453.52 30.5838 454.029 30.7721C454.538 30.9535 454.929 31.0895 455.201 31.1802C455.947 31.4104 456.638 31.679 457.273 31.9859C457.914 32.2858 458.49 32.7532 458.999 33.388C459.508 34.0158 459.763 34.8215 459.763 35.8051C459.763 36.7189 459.536 37.5211 459.083 38.2117C458.629 38.8953 458.064 39.408 457.388 39.7498C457.116 39.8754 456.648 39.98 455.986 40.0637C455.33 40.1405 454.873 40.1788 454.615 40.1788H450.503V35.7004H450.66C450.674 36.3631 450.737 36.9247 450.848 37.3851C450.967 37.8385 451.183 38.2431 451.497 38.5988C451.811 38.9476 452.243 39.2162 452.794 39.4045C453.352 39.5929 454.053 39.687 454.897 39.687C455.707 39.687 456.38 39.5719 456.917 39.3417C457.461 39.1115 457.88 38.8221 458.173 38.4733C458.466 38.1245 458.661 37.7827 458.758 37.4478C458.856 37.106 458.905 36.7956 458.905 36.5166C458.905 35.8888 458.731 35.3621 458.382 34.9366C458.033 34.5041 457.608 34.1658 457.105 33.9216C456.61 33.6775 455.93 33.4054 455.065 33.1055C454.186 32.8055 453.565 32.5649 453.202 32.3835C452.847 32.2021 452.526 31.9789 452.24 31.7138C451.856 31.3372 451.549 30.8977 451.319 30.3954C451.089 29.8862 450.974 29.3386 450.974 28.7527C450.974 27.9923 451.148 27.2947 451.497 26.66C451.853 26.0182 452.369 25.5055 453.045 25.1218C453.722 24.7312 454.517 24.5359 455.431 24.5359C456.177 24.5359 457.042 24.6649 458.026 24.923C458.047 24.923 458.078 24.93 458.12 24.9439C458.162 24.9579 458.186 24.9649 458.193 24.9649Z"/>
</mask>
<path d="M69.7288 24.7661H72.7109V24.923C72.2505 24.937 71.9331 25.0346 71.7587 25.216C71.5913 25.3904 71.5076 25.7636 71.5076 26.3356V40.3672L59.2131 27.2773V38.6825C59.2131 38.9616 59.2305 39.1918 59.2654 39.3731C59.3003 39.5475 59.3631 39.6801 59.4538 39.7707C59.5444 39.8614 59.6386 39.9172 59.7363 39.9382C59.8339 39.9591 60.0292 39.9905 60.3222 40.0323V40.1788H57.3611V40.0323C57.7517 40.0254 58.0272 39.973 58.1877 39.8754C58.3551 39.7777 58.4562 39.6312 58.4911 39.4359C58.526 39.2336 58.5434 38.8883 58.5434 38.4V27.9679C58.5434 27.0959 58.4214 26.3635 58.1772 25.7706C57.9331 25.1707 57.3401 24.8881 56.3984 24.923V24.7661H59.2968L70.8484 37.0712V26.1891C70.8484 25.6589 70.7577 25.3171 70.5764 25.1637C70.402 25.0032 70.1195 24.923 69.7288 24.923V24.7661Z" fill="black"/>
<path d="M84.1039 33.0846H79.6046L77.2713 38.9127C77.2015 39.0871 77.1666 39.1813 77.1666 39.1953C77.076 39.3766 77.0306 39.5406 77.0306 39.687C77.0306 39.9172 77.2015 40.0323 77.5433 40.0323V40.1788H75.2518V40.0323C75.6634 40.0254 75.9633 39.9103 76.1517 39.687C76.34 39.4638 76.5284 39.115 76.7167 38.6407L82.3042 24.5359H82.5658L88.0695 38.1594C88.0695 38.2152 88.0904 38.2745 88.1323 38.3372L88.216 38.5674C88.3904 38.9999 88.5892 39.3522 88.8124 39.6243C89.0426 39.8963 89.367 40.0323 89.7855 40.0323V40.1788H86.1861V40.0323C86.3884 40.0323 86.5209 39.987 86.5837 39.8963C86.6465 39.8056 86.6779 39.7219 86.6779 39.6452C86.6779 39.4499 86.5977 39.1708 86.4372 38.8081C86.4233 38.7802 86.4058 38.7383 86.3849 38.6825C86.364 38.6198 86.3465 38.5814 86.3326 38.5674L84.1039 33.0846ZM79.7511 32.6556H83.9155L81.8333 27.4029L79.7511 32.6556Z" fill="black"/>
<path d="M103.763 24.2324L103.031 26.0949H102.884C102.912 26.0042 102.926 25.8543 102.926 25.645C102.926 25.4706 102.863 25.366 102.738 25.3311C102.619 25.2892 102.441 25.2683 102.204 25.2683H98.1755V38.4628C98.1755 38.7628 98.1894 39.0174 98.2173 39.2266C98.2453 39.4289 98.2976 39.5929 98.3743 39.7184C98.451 39.837 98.5626 39.9207 98.7091 39.9696C98.8556 40.0114 99.0823 40.0323 99.3892 40.0323V40.1788H95.2143V40.0323C95.5631 39.9975 95.8143 39.9486 95.9677 39.8858C96.1282 39.8231 96.2398 39.708 96.3025 39.5406C96.3653 39.3662 96.3967 39.0802 96.3967 38.6825V25.2683H92.5357C92.1521 25.2683 91.8974 25.2892 91.7719 25.3311C91.6533 25.3729 91.594 25.488 91.594 25.6764C91.594 25.7531 91.6219 25.8926 91.6777 26.0949H91.5312L90.7988 24.2324H90.9453C91.0778 24.4835 91.2138 24.6405 91.3533 24.7033C91.4719 24.7451 91.7231 24.7661 92.1067 24.7661H102.35C102.762 24.7661 103.051 24.7416 103.219 24.6928C103.393 24.644 103.526 24.4905 103.616 24.2324H103.763Z" fill="black"/>
<path d="M120.66 40.1788H117.751V37.8036C116.272 39.4568 114.5 40.2835 112.435 40.2835C111.759 40.2835 111.128 40.1928 110.542 40.0114C109.956 39.83 109.429 39.544 108.962 39.1534C108.501 38.7628 108.135 38.2535 107.863 37.6257C107.591 36.9909 107.455 36.262 107.455 35.4389V26.21C107.455 25.8264 107.43 25.5473 107.382 25.3729C107.333 25.1986 107.225 25.08 107.057 25.0172C106.89 24.9474 106.646 24.916 106.325 24.923V24.7661H110.416V24.923C110.018 24.923 109.722 24.9893 109.527 25.1218C109.331 25.2474 109.234 25.5718 109.234 26.0949V34.5599C109.234 35.5714 109.356 36.3875 109.6 37.0084C109.844 37.6153 110.175 38.1036 110.594 38.4733C111.019 38.843 111.469 39.1046 111.944 39.258C112.418 39.4115 112.875 39.4882 113.314 39.4882C114.982 39.4882 116.46 38.7383 117.751 37.2386V26.8064C117.751 26.2833 117.726 25.8996 117.678 25.6555C117.636 25.4043 117.545 25.2195 117.406 25.1009C117.266 24.9823 117.05 24.923 116.757 24.923H116.61V24.7661H120.66V24.923C120.248 24.937 119.955 24.9997 119.781 25.1114C119.606 25.216 119.519 25.502 119.519 25.9694V38.5256C119.519 38.9232 119.537 39.2197 119.571 39.415C119.606 39.6103 119.708 39.7638 119.875 39.8754C120.049 39.987 120.311 40.0393 120.66 40.0323V40.1788Z" fill="black"/>
<path d="M124.09 24.923V24.7661H128.464C129.419 24.7661 130.11 24.7835 130.535 24.8184C130.968 24.8463 131.369 24.923 131.739 25.0486C132.415 25.2509 132.956 25.6206 133.361 26.1577C133.765 26.6879 133.967 27.361 133.967 28.1772C133.967 28.7422 133.842 29.2863 133.591 29.8095C133.347 30.3327 133.019 30.7965 132.607 31.2011C132.196 31.6057 131.749 31.9405 131.268 32.2056L132.356 33.8798L132.45 34.0263C132.583 34.2704 133.008 34.9017 133.727 35.9202C134.452 36.9316 135.104 37.7722 135.683 38.4419C135.949 38.7418 136.304 39.0243 136.751 39.2894C137.197 39.5545 137.692 39.687 138.237 39.687C138.627 39.687 138.976 39.6138 139.283 39.4673C139.381 39.4255 139.499 39.3662 139.639 39.2894C139.778 39.2127 139.904 39.1464 140.015 39.0906L140.078 39.2999C139.701 39.5929 139.307 39.8231 138.896 39.9905C138.673 40.0742 138.366 40.1509 137.975 40.2207C137.591 40.2904 137.204 40.3253 136.814 40.3253C136.493 40.3253 136.168 40.2869 135.84 40.2102C135.52 40.1335 135.178 39.9835 134.815 39.7603C134.452 39.5301 134.114 39.2197 133.8 38.829C132.991 37.8455 132.119 36.6526 131.184 35.2505C131.184 35.2366 131.177 35.2156 131.163 35.1877C131.149 35.1598 131.142 35.1459 131.142 35.1459L129.594 32.7602L129.018 32.7811C128.935 32.7951 128.67 32.802 128.223 32.802H126.978V38.7035C126.978 39.0871 127.016 39.3731 127.093 39.5615C127.17 39.7498 127.278 39.8719 127.417 39.9277C127.557 39.9835 127.777 40.0184 128.077 40.0323V40.1788H124.09V40.0323C124.578 40.0114 124.885 39.9137 125.011 39.7394C125.136 39.558 125.199 39.1674 125.199 38.5674V26.3147C125.199 25.8961 125.157 25.5892 125.074 25.3939C124.997 25.1986 124.889 25.0765 124.749 25.0276C124.61 24.9718 124.39 24.937 124.09 24.923ZM126.978 25.1741V32.4044H128.589C128.903 32.4044 129.287 32.3661 129.74 32.2893C130.201 32.2056 130.546 32.101 130.776 31.9754C131.216 31.7313 131.585 31.3755 131.885 30.9081C132.185 30.4338 132.335 29.8444 132.335 29.1398C132.335 28.8329 132.293 28.4946 132.21 28.1249C132.126 27.7482 131.997 27.3924 131.822 27.0576C131.655 26.7227 131.435 26.4193 131.163 26.1472C130.835 25.8194 130.445 25.5752 129.991 25.4148C129.545 25.2544 128.962 25.1741 128.244 25.1741H126.978Z" fill="black"/>
<path d="M165.815 40.0323V40.1788H159.599C159.041 40.1788 158.522 40.1579 158.04 40.116C157.566 40.0742 157.019 39.9626 156.398 39.7812C155.777 39.5929 155.173 39.3104 154.588 38.9337C153.374 38.1733 152.404 37.2037 151.679 36.0248C150.96 34.8459 150.601 33.6147 150.601 32.3312C150.601 31.4592 150.793 30.5629 151.176 29.6421C151.567 28.7213 152.139 27.8737 152.892 27.0994C153.646 26.3251 154.567 25.7043 155.655 25.2369C156.75 24.7695 157.964 24.5359 159.296 24.5359C160.831 24.5359 162.432 24.8707 164.099 25.5404L164.737 27.3192H164.591C164.046 26.6286 163.3 26.06 162.351 25.6136C161.41 25.1672 160.384 24.9439 159.275 24.9439C158.229 24.9439 157.277 25.1567 156.419 25.5822C155.561 26.0077 154.842 26.5867 154.263 27.3192C153.684 28.0516 153.241 28.8922 152.934 29.8409C152.634 30.7826 152.484 31.7557 152.484 32.7602C152.484 34.3855 152.809 35.6865 153.457 36.6631C154.106 37.6327 154.825 38.3407 155.613 38.7872C156.304 39.1778 157.074 39.4394 157.925 39.5719C158.783 39.7045 159.47 39.7707 159.987 39.7707L160.813 39.7498C161.434 39.7359 161.884 39.7045 162.163 39.6556C162.449 39.5998 162.644 39.4813 162.749 39.2999C162.861 39.1185 162.916 38.8255 162.916 38.421V36.0876C162.916 35.6342 162.826 35.3307 162.644 35.1773C162.463 35.0238 162.191 34.954 161.828 34.968V34.8215H165.815V34.968C165.333 34.975 165.027 35.0761 164.894 35.2714C164.761 35.4668 164.695 35.7876 164.695 36.2341V38.6616C164.695 39.1499 164.758 39.5022 164.884 39.7184C165.016 39.9277 165.253 40.0323 165.595 40.0323H165.815Z" fill="black"/>
<path d="M168.146 40.1788V40.0323C168.642 40.0323 168.956 39.9417 169.088 39.7603C169.228 39.5789 169.297 39.2685 169.297 38.829V26.21C169.297 25.6589 169.217 25.3102 169.057 25.1637C168.903 25.0172 168.593 24.937 168.125 24.923V24.7661H172.259V24.923C171.889 24.916 171.617 24.9684 171.442 25.08C171.268 25.1846 171.163 25.3276 171.128 25.509C171.094 25.6903 171.076 25.9589 171.076 26.3147V37.1339C171.076 37.6153 171.132 38.0164 171.244 38.3372C171.355 38.6512 171.526 38.9058 171.756 39.1011C171.993 39.2964 172.3 39.4394 172.677 39.5301C173.061 39.6208 173.514 39.6661 174.037 39.6661H175.921C176.604 39.6661 177.138 39.5475 177.522 39.3104C177.905 39.0732 178.174 38.7279 178.327 38.2745C178.488 37.8141 178.585 37.2142 178.62 36.4747H178.767V40.1788H168.146Z" fill="black"/>
<path d="M197.924 31.4313C197.924 32.6102 197.732 33.7438 197.348 34.832C196.964 35.9202 196.392 36.8863 195.632 37.7304C194.879 38.5744 193.954 39.2336 192.859 39.708C191.764 40.1823 190.547 40.4195 189.208 40.4195C188.126 40.4195 187.136 40.2346 186.236 39.8649C185.343 39.4882 184.569 38.9651 183.913 38.2954C183.264 37.6188 182.769 36.8549 182.427 36.0039C182.092 35.1459 181.925 34.246 181.925 33.3043C181.925 32.3137 182.106 31.3023 182.469 30.2699C182.832 29.2305 183.372 28.2818 184.091 27.4238C184.809 26.5588 185.716 25.8612 186.811 25.3311C187.907 24.8009 189.155 24.5359 190.557 24.5359C191.667 24.5359 192.671 24.7137 193.571 25.0695C194.478 25.4183 195.259 25.9136 195.915 26.5553C196.57 27.1901 197.069 27.926 197.411 28.7631C197.753 29.5932 197.924 30.4826 197.924 31.4313ZM196.961 33.3252C196.961 32.1254 196.71 31.0302 196.208 30.0397C195.705 29.0491 195.053 28.2086 194.251 27.518C193.456 26.8204 192.598 26.2868 191.677 25.917C190.756 25.5404 189.905 25.352 189.124 25.352C188.161 25.352 187.213 25.6066 186.278 26.1159C185.343 26.6181 184.579 27.3331 183.986 28.2609C183.393 29.1817 183.097 30.2176 183.097 31.3685C183.097 32.7846 183.442 34.1274 184.133 35.397C184.83 36.6596 185.748 37.678 186.885 38.4523C188.022 39.2197 189.225 39.6033 190.495 39.6033C191.304 39.6033 192.102 39.4394 192.891 39.1115C193.679 38.7837 194.373 38.3407 194.973 37.7827C195.573 37.2176 196.054 36.548 196.417 35.7737C196.78 34.9924 196.961 34.1763 196.961 33.3252Z" fill="black"/>
<path d="M201.239 24.923V24.7661H205.246C206.146 24.7661 206.84 24.794 207.329 24.8498C207.817 24.9056 208.253 25.0207 208.636 25.1951C209.292 25.502 209.808 25.938 210.185 26.503C210.562 27.0611 210.75 27.7063 210.75 28.4388C210.75 29.7502 210.108 30.7791 208.825 31.5255C209.753 31.6929 210.468 32.0208 210.97 32.5091C211.779 33.2764 212.184 34.2914 212.184 35.5539C212.184 36.4957 211.981 37.3153 211.577 38.0129C211.172 38.7035 210.698 39.2266 210.154 39.5824C209.923 39.7289 209.69 39.8405 209.453 39.9172C209.222 39.994 208.971 40.0533 208.699 40.0951C208.434 40.13 208.194 40.1544 207.977 40.1684C207.761 40.1753 207.492 40.1788 207.172 40.1788H201.218V40.0323C201.581 40.0323 201.839 39.98 201.992 39.8754C202.146 39.7707 202.24 39.6103 202.275 39.3941C202.31 39.1708 202.327 38.7976 202.327 38.2745V26.66C202.327 26.1298 202.31 25.7601 202.275 25.5508C202.247 25.3416 202.156 25.1881 202.003 25.0904C201.849 24.9858 201.595 24.93 201.239 24.923ZM204.106 25.0904V31.8603H205.979C207.248 31.8603 208.089 31.5011 208.5 30.7826C208.919 30.0571 209.128 29.3316 209.128 28.6062C209.128 27.1064 208.521 26.0775 207.308 25.5194C206.673 25.2334 205.742 25.0904 204.514 25.0904H204.106ZM205.309 32.1847H204.106V37.0712C204.106 37.5595 204.123 37.9431 204.158 38.2221C204.2 38.5012 204.319 38.7628 204.514 39.0069C204.709 39.2511 205.02 39.4394 205.445 39.5719C205.878 39.7045 206.467 39.7707 207.213 39.7707C208.092 39.7707 208.773 39.6277 209.254 39.3417C210.084 38.8465 210.499 37.8908 210.499 36.4747C210.499 35.7562 210.401 35.1075 210.206 34.5285C210.011 33.9495 209.728 33.4647 209.358 33.0741C208.996 32.6835 208.553 32.4358 208.03 32.3312C207.534 32.2335 206.628 32.1847 205.309 32.1847Z" fill="black"/>
<path d="M223.524 33.0846H219.025L216.692 38.9127C216.622 39.0871 216.587 39.1813 216.587 39.1953C216.496 39.3766 216.451 39.5406 216.451 39.687C216.451 39.9172 216.622 40.0323 216.964 40.0323V40.1788H214.672V40.0323C215.084 40.0254 215.384 39.9103 215.572 39.687C215.76 39.4638 215.949 39.115 216.137 38.6407L221.725 24.5359H221.986L227.49 38.1594C227.49 38.2152 227.511 38.2745 227.553 38.3372L227.636 38.5674C227.811 38.9999 228.01 39.3522 228.233 39.6243C228.463 39.8963 228.787 40.0323 229.206 40.0323V40.1788H225.606V40.0323C225.809 40.0323 225.941 39.987 226.004 39.8963C226.067 39.8056 226.098 39.7219 226.098 39.6452C226.098 39.4499 226.018 39.1708 225.858 38.8081C225.844 38.7802 225.826 38.7383 225.805 38.6825C225.784 38.6198 225.767 38.5814 225.753 38.5674L223.524 33.0846ZM219.171 32.6556H223.336L221.254 27.4029L219.171 32.6556Z" fill="black"/>
<path d="M231.297 40.1788V40.0323C231.792 40.0323 232.106 39.9417 232.239 39.7603C232.378 39.5789 232.448 39.2685 232.448 38.829V26.21C232.448 25.6589 232.368 25.3102 232.207 25.1637C232.054 25.0172 231.743 24.937 231.276 24.923V24.7661H235.409V24.923C235.039 24.916 234.767 24.9684 234.593 25.08C234.418 25.1846 234.314 25.3276 234.279 25.509C234.244 25.6903 234.227 25.9589 234.227 26.3147V37.1339C234.227 37.6153 234.282 38.0164 234.394 38.3372C234.506 38.6512 234.677 38.9058 234.907 39.1011C235.144 39.2964 235.451 39.4394 235.828 39.5301C236.211 39.6208 236.665 39.6661 237.188 39.6661H239.071C239.755 39.6661 240.288 39.5475 240.672 39.3104C241.056 39.0732 241.324 38.7279 241.478 38.2745C241.638 37.8141 241.736 37.2142 241.771 36.4747H241.917V40.1788H231.297Z" fill="black"/>
<path d="M266.419 25.5404L266.995 27.1727H266.848C266.534 26.8588 266.144 26.5379 265.676 26.21C265.216 25.8822 264.63 25.5892 263.918 25.3311C263.207 25.073 262.426 24.9439 261.575 24.9439C260.082 24.9439 258.802 25.2578 257.735 25.8857C256.674 26.5065 255.876 27.3052 255.338 28.2818C254.808 29.2584 254.543 30.2803 254.543 31.3476C254.543 32.108 254.69 32.9869 254.983 33.9844C255.276 34.9819 255.74 35.9376 256.374 36.8514C257.009 37.7652 257.85 38.5221 258.896 39.122C259.949 39.7149 261.198 40.0114 262.642 40.0114C263.807 40.0114 264.944 39.8231 266.053 39.4464C267.169 39.0697 267.996 38.5709 268.533 37.9501L268.669 37.9919L267.591 39.6452C266.022 39.987 264.961 40.1998 264.41 40.2835C263.859 40.3741 263.092 40.4195 262.108 40.4195C261.097 40.4195 260.193 40.3497 259.398 40.2102C258.603 40.0707 257.926 39.8824 257.368 39.6452C256.81 39.401 256.319 39.122 255.893 38.8081C255.042 38.1803 254.362 37.3327 253.853 36.2655C253.343 35.1982 253.089 34.0437 253.089 32.802C253.089 31.7975 253.274 30.8035 253.643 29.8199C254.02 28.8364 254.578 27.947 255.318 27.1517C256.064 26.3565 256.995 25.7217 258.111 25.2474C259.227 24.773 260.479 24.5359 261.868 24.5359C262.754 24.5359 263.528 24.6196 264.191 24.787C264.86 24.9544 265.544 25.1846 266.241 25.4776C266.255 25.4776 266.283 25.4846 266.325 25.4985C266.374 25.5125 266.405 25.5264 266.419 25.5404Z" fill="black"/>
<path d="M287.271 31.4313C287.271 32.6102 287.079 33.7438 286.696 34.832C286.312 35.9202 285.74 36.8863 284.98 37.7304C284.226 38.5744 283.302 39.2336 282.207 39.708C281.112 40.1823 279.894 40.4195 278.555 40.4195C277.474 40.4195 276.483 40.2346 275.583 39.8649C274.691 39.4882 273.916 38.9651 273.261 38.2954C272.612 37.6188 272.117 36.8549 271.775 36.0039C271.44 35.1459 271.273 34.246 271.273 33.3043C271.273 32.3137 271.454 31.3023 271.817 30.2699C272.179 29.2305 272.72 28.2818 273.438 27.4238C274.157 26.5588 275.064 25.8612 276.159 25.3311C277.254 24.8009 278.503 24.5359 279.905 24.5359C281.014 24.5359 282.018 24.7137 282.918 25.0695C283.825 25.4183 284.606 25.9136 285.262 26.5553C285.918 27.1901 286.417 27.926 286.758 28.7631C287.1 29.5932 287.271 30.4826 287.271 31.4313ZM286.308 33.3252C286.308 32.1254 286.057 31.0302 285.555 30.0397C285.053 29.0491 284.401 28.2086 283.598 27.518C282.803 26.8204 281.945 26.2868 281.024 25.917C280.104 25.5404 279.253 25.352 278.471 25.352C277.509 25.352 276.56 25.6066 275.625 26.1159C274.691 26.6181 273.927 27.3331 273.334 28.2609C272.741 29.1817 272.444 30.2176 272.444 31.3685C272.444 32.7846 272.79 34.1274 273.48 35.397C274.178 36.6596 275.095 37.678 276.232 38.4523C277.369 39.2197 278.573 39.6033 279.842 39.6033C280.651 39.6033 281.45 39.4394 282.238 39.1115C283.026 38.7837 283.721 38.3407 284.32 37.7827C284.92 37.2176 285.402 36.548 285.764 35.7737C286.127 34.9924 286.308 34.1763 286.308 33.3252Z" fill="black"/>
<path d="M303.184 24.7661H306.166V24.923C305.706 24.937 305.389 25.0346 305.214 25.216C305.047 25.3904 304.963 25.7636 304.963 26.3356V40.3672L292.669 27.2773V38.6825C292.669 38.9616 292.686 39.1918 292.721 39.3731C292.756 39.5475 292.819 39.6801 292.909 39.7707C293 39.8614 293.094 39.9172 293.192 39.9382C293.289 39.9591 293.485 39.9905 293.778 40.0323V40.1788H290.817V40.0323C291.207 40.0254 291.483 39.973 291.643 39.8754C291.811 39.7777 291.912 39.6312 291.947 39.4359C291.981 39.2336 291.999 38.8883 291.999 38.4V27.9679C291.999 27.0959 291.877 26.3635 291.633 25.7706C291.389 25.1707 290.796 24.8881 289.854 24.923V24.7661H292.752L304.304 37.0712V26.1891C304.304 25.6589 304.213 25.3171 304.032 25.1637C303.857 25.0032 303.575 24.923 303.184 24.923V24.7661Z" fill="black"/>
<path d="M316.827 24.9649L317.559 26.8902L317.434 26.9111C317.427 26.8971 317.374 26.8413 317.277 26.7437C317.04 26.4646 316.768 26.1961 316.461 25.938C316.161 25.6799 315.791 25.4636 315.352 25.2892C314.912 25.1148 314.406 25.0276 313.834 25.0276C313.116 25.0276 312.495 25.1741 311.972 25.4671C311.449 25.7601 311.055 26.1472 310.79 26.6286C310.531 27.1029 310.402 27.5982 310.402 28.1144C310.402 28.5957 310.497 29.0073 310.685 29.3491C310.88 29.6839 311.131 29.9595 311.438 30.1757C311.745 30.385 312.153 30.5838 312.662 30.7721C313.172 30.9535 313.562 31.0895 313.834 31.1802C314.581 31.4104 315.271 31.679 315.906 31.9859C316.548 32.2858 317.123 32.7532 317.633 33.388C318.142 34.0158 318.396 34.8215 318.396 35.8051C318.396 36.7189 318.17 37.5211 317.716 38.2117C317.263 38.8953 316.698 39.408 316.021 39.7498C315.749 39.8754 315.282 39.98 314.619 40.0637C313.963 40.1405 313.507 40.1788 313.248 40.1788H309.136V35.7004H309.293C309.307 36.3631 309.37 36.9247 309.482 37.3851C309.6 37.8385 309.816 38.2431 310.13 38.5988C310.444 38.9476 310.877 39.2162 311.428 39.4045C311.986 39.5929 312.687 39.687 313.531 39.687C314.34 39.687 315.013 39.5719 315.55 39.3417C316.094 39.1115 316.513 38.8221 316.806 38.4733C317.099 38.1245 317.294 37.7827 317.392 37.4478C317.49 37.106 317.538 36.7956 317.538 36.5166C317.538 35.8888 317.364 35.3621 317.015 34.9366C316.666 34.5041 316.241 34.1658 315.739 33.9216C315.243 33.6775 314.563 33.4054 313.698 33.1055C312.819 32.8055 312.199 32.5649 311.836 32.3835C311.48 32.2021 311.159 31.9789 310.873 31.7138C310.49 31.3372 310.183 30.8977 309.952 30.3954C309.722 29.8862 309.607 29.3386 309.607 28.7527C309.607 27.9923 309.782 27.2947 310.13 26.66C310.486 26.0182 311.002 25.5055 311.679 25.1218C312.356 24.7312 313.151 24.5359 314.065 24.5359C314.811 24.5359 315.676 24.6649 316.659 24.923C316.68 24.923 316.712 24.93 316.754 24.9439C316.796 24.9579 316.82 24.9649 316.827 24.9649Z" fill="black"/>
<path d="M333.556 24.2324L332.824 26.0949H332.677C332.705 26.0042 332.719 25.8543 332.719 25.645C332.719 25.4706 332.656 25.366 332.531 25.3311C332.412 25.2892 332.234 25.2683 331.997 25.2683H327.969V38.4628C327.969 38.7628 327.983 39.0174 328.011 39.2266C328.039 39.4289 328.091 39.5929 328.168 39.7184C328.244 39.837 328.356 39.9207 328.502 39.9696C328.649 40.0114 328.876 40.0323 329.182 40.0323V40.1788H325.008V40.0323C325.356 39.9975 325.608 39.9486 325.761 39.8858C325.921 39.8231 326.033 39.708 326.096 39.5406C326.159 39.3662 326.19 39.0802 326.19 38.6825V25.2683H322.329C321.945 25.2683 321.691 25.2892 321.565 25.3311C321.447 25.3729 321.387 25.488 321.387 25.6764C321.387 25.7531 321.415 25.8926 321.471 26.0949H321.324L320.592 24.2324H320.739C320.871 24.4835 321.007 24.6405 321.147 24.7033C321.265 24.7451 321.516 24.7661 321.9 24.7661H332.144C332.555 24.7661 332.845 24.7416 333.012 24.6928C333.186 24.644 333.319 24.4905 333.41 24.2324H333.556Z" fill="black"/>
<path d="M336.097 24.923V24.7661H340.471C341.427 24.7661 342.117 24.7835 342.543 24.8184C342.975 24.8463 343.376 24.923 343.746 25.0486C344.423 25.2509 344.963 25.6206 345.368 26.1577C345.772 26.6879 345.975 27.361 345.975 28.1772C345.975 28.7422 345.849 29.2863 345.598 29.8095C345.354 30.3327 345.026 30.7965 344.614 31.2011C344.203 31.6057 343.756 31.9405 343.275 32.2056L344.363 33.8798L344.457 34.0263C344.59 34.2704 345.015 34.9017 345.734 35.9202C346.459 36.9316 347.112 37.7722 347.691 38.4419C347.956 38.7418 348.311 39.0243 348.758 39.2894C349.204 39.5545 349.7 39.687 350.244 39.687C350.634 39.687 350.983 39.6138 351.29 39.4673C351.388 39.4255 351.506 39.3662 351.646 39.2894C351.785 39.2127 351.911 39.1464 352.022 39.0906L352.085 39.2999C351.709 39.5929 351.314 39.8231 350.903 39.9905C350.68 40.0742 350.373 40.1509 349.982 40.2207C349.598 40.2904 349.211 40.3253 348.821 40.3253C348.5 40.3253 348.175 40.2869 347.848 40.2102C347.527 40.1335 347.185 39.9835 346.822 39.7603C346.459 39.5301 346.121 39.2197 345.807 38.829C344.998 37.8455 344.126 36.6526 343.191 35.2505C343.191 35.2366 343.184 35.2156 343.17 35.1877C343.156 35.1598 343.15 35.1459 343.15 35.1459L341.601 32.7602L341.025 32.7811C340.942 32.7951 340.677 32.802 340.23 32.802H338.985V38.7035C338.985 39.0871 339.023 39.3731 339.1 39.5615C339.177 39.7498 339.285 39.8719 339.425 39.9277C339.564 39.9835 339.784 40.0184 340.084 40.0323V40.1788H336.097V40.0323C336.585 40.0114 336.892 39.9137 337.018 39.7394C337.143 39.558 337.206 39.1674 337.206 38.5674V26.3147C337.206 25.8961 337.164 25.5892 337.081 25.3939C337.004 25.1986 336.896 25.0765 336.756 25.0276C336.617 24.9718 336.397 24.937 336.097 24.923ZM338.985 25.1741V32.4044H340.596C340.91 32.4044 341.294 32.3661 341.747 32.2893C342.208 32.2056 342.553 32.101 342.783 31.9754C343.223 31.7313 343.592 31.3755 343.892 30.9081C344.192 30.4338 344.342 29.8444 344.342 29.1398C344.342 28.8329 344.3 28.4946 344.217 28.1249C344.133 27.7482 344.004 27.3924 343.83 27.0576C343.662 26.7227 343.442 26.4193 343.17 26.1472C342.843 25.8194 342.452 25.5752 341.999 25.4148C341.552 25.2544 340.97 25.1741 340.251 25.1741H338.985Z" fill="black"/>
<path d="M369.139 40.1788H366.23V37.8036C364.751 39.4568 362.979 40.2835 360.915 40.2835C360.238 40.2835 359.607 40.1928 359.021 40.0114C358.435 39.83 357.908 39.544 357.441 39.1534C356.98 38.7628 356.614 38.2535 356.342 37.6257C356.07 36.9909 355.934 36.262 355.934 35.4389V26.21C355.934 25.8264 355.91 25.5473 355.861 25.3729C355.812 25.1986 355.704 25.08 355.536 25.0172C355.369 24.9474 355.125 24.916 354.804 24.923V24.7661H358.895V24.923C358.498 24.923 358.201 24.9893 358.006 25.1218C357.811 25.2474 357.713 25.5718 357.713 26.0949V34.5599C357.713 35.5714 357.835 36.3875 358.079 37.0084C358.323 37.6153 358.655 38.1036 359.073 38.4733C359.499 38.843 359.949 39.1046 360.423 39.258C360.897 39.4115 361.354 39.4882 361.794 39.4882C363.461 39.4882 364.94 38.7383 366.23 37.2386V26.8064C366.23 26.2833 366.206 25.8996 366.157 25.6555C366.115 25.4043 366.024 25.2195 365.885 25.1009C365.745 24.9823 365.529 24.923 365.236 24.923H365.09V24.7661H369.139V24.923C368.727 24.937 368.434 24.9997 368.26 25.1114C368.086 25.216 367.998 25.502 367.998 25.9694V38.5256C367.998 38.9232 368.016 39.2197 368.051 39.415C368.086 39.6103 368.187 39.7638 368.354 39.8754C368.529 39.987 368.79 40.0393 369.139 40.0323V40.1788Z" fill="black"/>
<path d="M385.837 25.5404L386.412 27.1727H386.266C385.952 26.8588 385.561 26.5379 385.094 26.21C384.634 25.8822 384.048 25.5892 383.336 25.3311C382.625 25.073 381.843 24.9439 380.992 24.9439C379.5 24.9439 378.22 25.2578 377.152 25.8857C376.092 26.5065 375.293 27.3052 374.756 28.2818C374.226 29.2584 373.961 30.2803 373.961 31.3476C373.961 32.108 374.107 32.9869 374.4 33.9844C374.693 34.9819 375.157 35.9376 375.792 36.8514C376.427 37.7652 377.267 38.5221 378.314 39.122C379.367 39.7149 380.616 40.0114 382.06 40.0114C383.224 40.0114 384.362 39.8231 385.471 39.4464C386.587 39.0697 387.413 38.5709 387.95 37.9501L388.086 37.9919L387.009 39.6452C385.439 39.987 384.379 40.1998 383.828 40.2835C383.277 40.3741 382.509 40.4195 381.526 40.4195C380.514 40.4195 379.611 40.3497 378.816 40.2102C378.021 40.0707 377.344 39.8824 376.786 39.6452C376.228 39.401 375.736 39.122 375.311 38.8081C374.46 38.1803 373.78 37.3327 373.27 36.2655C372.761 35.1982 372.506 34.0437 372.506 32.802C372.506 31.7975 372.691 30.8035 373.061 29.8199C373.438 28.8364 373.996 27.947 374.735 27.1517C375.482 26.3565 376.413 25.7217 377.529 25.2474C378.645 24.773 379.897 24.5359 381.285 24.5359C382.171 24.5359 382.945 24.6196 383.608 24.787C384.278 24.9544 384.961 25.1846 385.659 25.4776C385.673 25.4776 385.701 25.4846 385.743 25.4985C385.792 25.5125 385.823 25.5264 385.837 25.5404Z" fill="black"/>
<path d="M402.943 24.2324L402.21 26.0949H402.064C402.092 26.0042 402.106 25.8543 402.106 25.645C402.106 25.4706 402.043 25.366 401.917 25.3311C401.799 25.2892 401.621 25.2683 401.384 25.2683H397.355V38.4628C397.355 38.7628 397.369 39.0174 397.397 39.2266C397.425 39.4289 397.477 39.5929 397.554 39.7184C397.631 39.837 397.743 39.9207 397.889 39.9696C398.036 40.0114 398.262 40.0323 398.569 40.0323V40.1788H394.394V40.0323C394.743 39.9975 394.994 39.9486 395.148 39.8858C395.308 39.8231 395.42 39.708 395.482 39.5406C395.545 39.3662 395.577 39.0802 395.577 38.6825V25.2683H391.716C391.332 25.2683 391.077 25.2892 390.952 25.3311C390.833 25.3729 390.774 25.488 390.774 25.6764C390.774 25.7531 390.802 25.8926 390.858 26.0949H390.711L389.979 24.2324H390.125C390.258 24.4835 390.394 24.6405 390.533 24.7033C390.652 24.7451 390.903 24.7661 391.287 24.7661H401.53C401.942 24.7661 402.231 24.7416 402.399 24.6928C402.573 24.644 402.706 24.4905 402.796 24.2324H402.943Z" fill="black"/>
<path d="M409.491 24.7661V24.923C409.254 24.9021 409 24.9439 408.727 25.0486C408.462 25.1462 408.33 25.3764 408.33 25.7392C408.316 25.8229 408.309 26.0845 408.309 26.5239V38.3582C408.309 38.8465 408.326 39.1987 408.361 39.415C408.396 39.6243 408.497 39.7812 408.665 39.8858C408.839 39.9905 409.115 40.0393 409.491 40.0323V40.1788H405.379V40.0323C405.749 40.0184 406.01 39.9696 406.164 39.8858C406.324 39.7952 406.426 39.6487 406.467 39.4464C406.509 39.2441 406.53 38.8883 406.53 38.3791V26.66C406.53 26.1926 406.513 25.8438 406.478 25.6136C406.443 25.3834 406.342 25.2055 406.174 25.08C406.007 24.9544 405.742 24.9021 405.379 24.923V24.7661H409.491Z" fill="black"/>
<path d="M428.638 31.4313C428.638 32.6102 428.446 33.7438 428.062 34.832C427.679 35.9202 427.107 36.8863 426.346 37.7304C425.593 38.5744 424.669 39.2336 423.573 39.708C422.478 40.1823 421.261 40.4195 419.922 40.4195C418.84 40.4195 417.85 40.2346 416.95 39.8649C416.057 39.4882 415.283 38.9651 414.627 38.2954C413.978 37.6188 413.483 36.8549 413.141 36.0039C412.807 35.1459 412.639 34.246 412.639 33.3043C412.639 32.3137 412.82 31.3023 413.183 30.2699C413.546 29.2305 414.087 28.2818 414.805 27.4238C415.524 26.5588 416.43 25.8612 417.526 25.3311C418.621 24.8009 419.869 24.5359 421.271 24.5359C422.381 24.5359 423.385 24.7137 424.285 25.0695C425.192 25.4183 425.973 25.9136 426.629 26.5553C427.284 27.1901 427.783 27.926 428.125 28.7631C428.467 29.5932 428.638 30.4826 428.638 31.4313ZM427.675 33.3252C427.675 32.1254 427.424 31.0302 426.922 30.0397C426.419 29.0491 425.767 28.2086 424.965 27.518C424.17 26.8204 423.312 26.2868 422.391 25.917C421.47 25.5404 420.619 25.352 419.838 25.352C418.875 25.352 417.927 25.6066 416.992 26.1159C416.057 26.6181 415.293 27.3331 414.7 28.2609C414.107 29.1817 413.811 30.2176 413.811 31.3685C413.811 32.7846 414.156 34.1274 414.847 35.397C415.544 36.6596 416.462 37.678 417.599 38.4523C418.736 39.2197 419.939 39.6033 421.209 39.6033C422.018 39.6033 422.817 39.4394 423.605 39.1115C424.393 38.7837 425.087 38.3407 425.687 37.7827C426.287 37.2176 426.768 36.548 427.131 35.7737C427.494 34.9924 427.675 34.1763 427.675 33.3252Z" fill="black"/>
<path d="M444.551 24.7661H447.533V24.923C447.073 24.937 446.755 25.0346 446.581 25.216C446.413 25.3904 446.33 25.7636 446.33 26.3356V40.3672L434.035 27.2773V38.6825C434.035 38.9616 434.053 39.1918 434.087 39.3731C434.122 39.5475 434.185 39.6801 434.276 39.7707C434.366 39.8614 434.461 39.9172 434.558 39.9382C434.656 39.9591 434.851 39.9905 435.144 40.0323V40.1788H432.183V40.0323C432.574 40.0254 432.849 39.973 433.01 39.8754C433.177 39.7777 433.278 39.6312 433.313 39.4359C433.348 39.2336 433.365 38.8883 433.365 38.4V27.9679C433.365 27.0959 433.243 26.3635 432.999 25.7706C432.755 25.1707 432.162 24.8881 431.22 24.923V24.7661H434.119L445.67 37.0712V26.1891C445.67 25.6589 445.58 25.3171 445.398 25.1637C445.224 25.0032 444.941 24.923 444.551 24.923V24.7661Z" fill="black"/>
<path d="M458.193 24.9649L458.926 26.8902L458.8 26.9111C458.793 26.8971 458.741 26.8413 458.643 26.7437C458.406 26.4646 458.134 26.1961 457.827 25.938C457.527 25.6799 457.158 25.4636 456.718 25.2892C456.279 25.1148 455.773 25.0276 455.201 25.0276C454.482 25.0276 453.862 25.1741 453.338 25.4671C452.815 25.7601 452.421 26.1472 452.156 26.6286C451.898 27.1029 451.769 27.5982 451.769 28.1144C451.769 28.5957 451.863 29.0073 452.051 29.3491C452.247 29.6839 452.498 29.9595 452.805 30.1757C453.112 30.385 453.52 30.5838 454.029 30.7721C454.538 30.9535 454.929 31.0895 455.201 31.1802C455.947 31.4104 456.638 31.679 457.273 31.9859C457.914 32.2858 458.49 32.7532 458.999 33.388C459.508 34.0158 459.763 34.8215 459.763 35.8051C459.763 36.7189 459.536 37.5211 459.083 38.2117C458.629 38.8953 458.064 39.408 457.388 39.7498C457.116 39.8754 456.648 39.98 455.986 40.0637C455.33 40.1405 454.873 40.1788 454.615 40.1788H450.503V35.7004H450.66C450.674 36.3631 450.737 36.9247 450.848 37.3851C450.967 37.8385 451.183 38.2431 451.497 38.5988C451.811 38.9476 452.243 39.2162 452.794 39.4045C453.352 39.5929 454.053 39.687 454.897 39.687C455.707 39.687 456.38 39.5719 456.917 39.3417C457.461 39.1115 457.88 38.8221 458.173 38.4733C458.466 38.1245 458.661 37.7827 458.758 37.4478C458.856 37.106 458.905 36.7956 458.905 36.5166C458.905 35.8888 458.731 35.3621 458.382 34.9366C458.033 34.5041 457.608 34.1658 457.105 33.9216C456.61 33.6775 455.93 33.4054 455.065 33.1055C454.186 32.8055 453.565 32.5649 453.202 32.3835C452.847 32.2021 452.526 31.9789 452.24 31.7138C451.856 31.3372 451.549 30.8977 451.319 30.3954C451.089 29.8862 450.974 29.3386 450.974 28.7527C450.974 27.9923 451.148 27.2947 451.497 26.66C451.853 26.0182 452.369 25.5055 453.045 25.1218C453.722 24.7312 454.517 24.5359 455.431 24.5359C456.177 24.5359 457.042 24.6649 458.026 24.923C458.047 24.923 458.078 24.93 458.12 24.9439C458.162 24.9579 458.186 24.9649 458.193 24.9649Z" fill="black"/>
<path d="M69.7288 24.7661H72.7109V24.923C72.2505 24.937 71.9331 25.0346 71.7587 25.216C71.5913 25.3904 71.5076 25.7636 71.5076 26.3356V40.3672L59.2131 27.2773V38.6825C59.2131 38.9616 59.2305 39.1918 59.2654 39.3731C59.3003 39.5475 59.3631 39.6801 59.4538 39.7707C59.5444 39.8614 59.6386 39.9172 59.7363 39.9382C59.8339 39.9591 60.0292 39.9905 60.3222 40.0323V40.1788H57.3611V40.0323C57.7517 40.0254 58.0272 39.973 58.1877 39.8754C58.3551 39.7777 58.4562 39.6312 58.4911 39.4359C58.526 39.2336 58.5434 38.8883 58.5434 38.4V27.9679C58.5434 27.0959 58.4214 26.3635 58.1772 25.7706C57.9331 25.1707 57.3401 24.8881 56.3984 24.923V24.7661H59.2968L70.8484 37.0712V26.1891C70.8484 25.6589 70.7577 25.3171 70.5764 25.1637C70.402 25.0032 70.1195 24.923 69.7288 24.923V24.7661Z" stroke="black" stroke-width="0.492859" mask="url(#path-6-outside-1_1_5907)"/>
<path d="M84.1039 33.0846H79.6046L77.2713 38.9127C77.2015 39.0871 77.1666 39.1813 77.1666 39.1953C77.076 39.3766 77.0306 39.5406 77.0306 39.687C77.0306 39.9172 77.2015 40.0323 77.5433 40.0323V40.1788H75.2518V40.0323C75.6634 40.0254 75.9633 39.9103 76.1517 39.687C76.34 39.4638 76.5284 39.115 76.7167 38.6407L82.3042 24.5359H82.5658L88.0695 38.1594C88.0695 38.2152 88.0904 38.2745 88.1323 38.3372L88.216 38.5674C88.3904 38.9999 88.5892 39.3522 88.8124 39.6243C89.0426 39.8963 89.367 40.0323 89.7855 40.0323V40.1788H86.1861V40.0323C86.3884 40.0323 86.5209 39.987 86.5837 39.8963C86.6465 39.8056 86.6779 39.7219 86.6779 39.6452C86.6779 39.4499 86.5977 39.1708 86.4372 38.8081C86.4233 38.7802 86.4058 38.7383 86.3849 38.6825C86.364 38.6198 86.3465 38.5814 86.3326 38.5674L84.1039 33.0846ZM79.7511 32.6556H83.9155L81.8333 27.4029L79.7511 32.6556Z" stroke="black" stroke-width="0.492859" mask="url(#path-6-outside-1_1_5907)"/>
<path d="M103.763 24.2324L103.031 26.0949H102.884C102.912 26.0042 102.926 25.8543 102.926 25.645C102.926 25.4706 102.863 25.366 102.738 25.3311C102.619 25.2892 102.441 25.2683 102.204 25.2683H98.1755V38.4628C98.1755 38.7628 98.1894 39.0174 98.2173 39.2266C98.2453 39.4289 98.2976 39.5929 98.3743 39.7184C98.451 39.837 98.5626 39.9207 98.7091 39.9696C98.8556 40.0114 99.0823 40.0323 99.3892 40.0323V40.1788H95.2143V40.0323C95.5631 39.9975 95.8143 39.9486 95.9677 39.8858C96.1282 39.8231 96.2398 39.708 96.3025 39.5406C96.3653 39.3662 96.3967 39.0802 96.3967 38.6825V25.2683H92.5357C92.1521 25.2683 91.8974 25.2892 91.7719 25.3311C91.6533 25.3729 91.594 25.488 91.594 25.6764C91.594 25.7531 91.6219 25.8926 91.6777 26.0949H91.5312L90.7988 24.2324H90.9453C91.0778 24.4835 91.2138 24.6405 91.3533 24.7033C91.4719 24.7451 91.7231 24.7661 92.1067 24.7661H102.35C102.762 24.7661 103.051 24.7416 103.219 24.6928C103.393 24.644 103.526 24.4905 103.616 24.2324H103.763Z" stroke="black" stroke-width="0.492859" mask="url(#path-6-outside-1_1_5907)"/>
<path d="M120.66 40.1788H117.751V37.8036C116.272 39.4568 114.5 40.2835 112.435 40.2835C111.759 40.2835 111.128 40.1928 110.542 40.0114C109.956 39.83 109.429 39.544 108.962 39.1534C108.501 38.7628 108.135 38.2535 107.863 37.6257C107.591 36.9909 107.455 36.262 107.455 35.4389V26.21C107.455 25.8264 107.43 25.5473 107.382 25.3729C107.333 25.1986 107.225 25.08 107.057 25.0172C106.89 24.9474 106.646 24.916 106.325 24.923V24.7661H110.416V24.923C110.018 24.923 109.722 24.9893 109.527 25.1218C109.331 25.2474 109.234 25.5718 109.234 26.0949V34.5599C109.234 35.5714 109.356 36.3875 109.6 37.0084C109.844 37.6153 110.175 38.1036 110.594 38.4733C111.019 38.843 111.469 39.1046 111.944 39.258C112.418 39.4115 112.875 39.4882 113.314 39.4882C114.982 39.4882 116.46 38.7383 117.751 37.2386V26.8064C117.751 26.2833 117.726 25.8996 117.678 25.6555C117.636 25.4043 117.545 25.2195 117.406 25.1009C117.266 24.9823 117.05 24.923 116.757 24.923H116.61V24.7661H120.66V24.923C120.248 24.937 119.955 24.9997 119.781 25.1114C119.606 25.216 119.519 25.502 119.519 25.9694V38.5256C119.519 38.9232 119.537 39.2197 119.571 39.415C119.606 39.6103 119.708 39.7638 119.875 39.8754C120.049 39.987 120.311 40.0393 120.66 40.0323V40.1788Z" stroke="black" stroke-width="0.492859" mask="url(#path-6-outside-1_1_5907)"/>
<path d="M124.09 24.923V24.7661H128.464C129.419 24.7661 130.11 24.7835 130.535 24.8184C130.968 24.8463 131.369 24.923 131.739 25.0486C132.415 25.2509 132.956 25.6206 133.361 26.1577C133.765 26.6879 133.967 27.361 133.967 28.1772C133.967 28.7422 133.842 29.2863 133.591 29.8095C133.347 30.3327 133.019 30.7965 132.607 31.2011C132.196 31.6057 131.749 31.9405 131.268 32.2056L132.356 33.8798L132.45 34.0263C132.583 34.2704 133.008 34.9017 133.727 35.9202C134.452 36.9316 135.104 37.7722 135.683 38.4419C135.949 38.7418 136.304 39.0243 136.751 39.2894C137.197 39.5545 137.692 39.687 138.237 39.687C138.627 39.687 138.976 39.6138 139.283 39.4673C139.381 39.4255 139.499 39.3662 139.639 39.2894C139.778 39.2127 139.904 39.1464 140.015 39.0906L140.078 39.2999C139.701 39.5929 139.307 39.8231 138.896 39.9905C138.673 40.0742 138.366 40.1509 137.975 40.2207C137.591 40.2904 137.204 40.3253 136.814 40.3253C136.493 40.3253 136.168 40.2869 135.84 40.2102C135.52 40.1335 135.178 39.9835 134.815 39.7603C134.452 39.5301 134.114 39.2197 133.8 38.829C132.991 37.8455 132.119 36.6526 131.184 35.2505C131.184 35.2366 131.177 35.2156 131.163 35.1877C131.149 35.1598 131.142 35.1459 131.142 35.1459L129.594 32.7602L129.018 32.7811C128.935 32.7951 128.67 32.802 128.223 32.802H126.978V38.7035C126.978 39.0871 127.016 39.3731 127.093 39.5615C127.17 39.7498 127.278 39.8719 127.417 39.9277C127.557 39.9835 127.777 40.0184 128.077 40.0323V40.1788H124.09V40.0323C124.578 40.0114 124.885 39.9137 125.011 39.7394C125.136 39.558 125.199 39.1674 125.199 38.5674V26.3147C125.199 25.8961 125.157 25.5892 125.074 25.3939C124.997 25.1986 124.889 25.0765 124.749 25.0276C124.61 24.9718 124.39 24.937 124.09 24.923ZM126.978 25.1741V32.4044H128.589C128.903 32.4044 129.287 32.3661 129.74 32.2893C130.201 32.2056 130.546 32.101 130.776 31.9754C131.216 31.7313 131.585 31.3755 131.885 30.9081C132.185 30.4338 132.335 29.8444 132.335 29.1398C132.335 28.8329 132.293 28.4946 132.21 28.1249C132.126 27.7482 131.997 27.3924 131.822 27.0576C131.655 26.7227 131.435 26.4193 131.163 26.1472C130.835 25.8194 130.445 25.5752 129.991 25.4148C129.545 25.2544 128.962 25.1741 128.244 25.1741H126.978Z" stroke="black" stroke-width="0.492859" mask="url(#path-6-outside-1_1_5907)"/>
<path d="M165.815 40.0323V40.1788H159.599C159.041 40.1788 158.522 40.1579 158.04 40.116C157.566 40.0742 157.019 39.9626 156.398 39.7812C155.777 39.5929 155.173 39.3104 154.588 38.9337C153.374 38.1733 152.404 37.2037 151.679 36.0248C150.96 34.8459 150.601 33.6147 150.601 32.3312C150.601 31.4592 150.793 30.5629 151.176 29.6421C151.567 28.7213 152.139 27.8737 152.892 27.0994C153.646 26.3251 154.567 25.7043 155.655 25.2369C156.75 24.7695 157.964 24.5359 159.296 24.5359C160.831 24.5359 162.432 24.8707 164.099 25.5404L164.737 27.3192H164.591C164.046 26.6286 163.3 26.06 162.351 25.6136C161.41 25.1672 160.384 24.9439 159.275 24.9439C158.229 24.9439 157.277 25.1567 156.419 25.5822C155.561 26.0077 154.842 26.5867 154.263 27.3192C153.684 28.0516 153.241 28.8922 152.934 29.8409C152.634 30.7826 152.484 31.7557 152.484 32.7602C152.484 34.3855 152.809 35.6865 153.457 36.6631C154.106 37.6327 154.825 38.3407 155.613 38.7872C156.304 39.1778 157.074 39.4394 157.925 39.5719C158.783 39.7045 159.47 39.7707 159.987 39.7707L160.813 39.7498C161.434 39.7359 161.884 39.7045 162.163 39.6556C162.449 39.5998 162.644 39.4813 162.749 39.2999C162.861 39.1185 162.916 38.8255 162.916 38.421V36.0876C162.916 35.6342 162.826 35.3307 162.644 35.1773C162.463 35.0238 162.191 34.954 161.828 34.968V34.8215H165.815V34.968C165.333 34.975 165.027 35.0761 164.894 35.2714C164.761 35.4668 164.695 35.7876 164.695 36.2341V38.6616C164.695 39.1499 164.758 39.5022 164.884 39.7184C165.016 39.9277 165.253 40.0323 165.595 40.0323H165.815Z" stroke="black" stroke-width="0.492859" mask="url(#path-6-outside-1_1_5907)"/>
<path d="M168.146 40.1788V40.0323C168.642 40.0323 168.956 39.9417 169.088 39.7603C169.228 39.5789 169.297 39.2685 169.297 38.829V26.21C169.297 25.6589 169.217 25.3102 169.057 25.1637C168.903 25.0172 168.593 24.937 168.125 24.923V24.7661H172.259V24.923C171.889 24.916 171.617 24.9684 171.442 25.08C171.268 25.1846 171.163 25.3276 171.128 25.509C171.094 25.6903 171.076 25.9589 171.076 26.3147V37.1339C171.076 37.6153 171.132 38.0164 171.244 38.3372C171.355 38.6512 171.526 38.9058 171.756 39.1011C171.993 39.2964 172.3 39.4394 172.677 39.5301C173.061 39.6208 173.514 39.6661 174.037 39.6661H175.921C176.604 39.6661 177.138 39.5475 177.522 39.3104C177.905 39.0732 178.174 38.7279 178.327 38.2745C178.488 37.8141 178.585 37.2142 178.62 36.4747H178.767V40.1788H168.146Z" stroke="black" stroke-width="0.492859" mask="url(#path-6-outside-1_1_5907)"/>
<path d="M197.924 31.4313C197.924 32.6102 197.732 33.7438 197.348 34.832C196.964 35.9202 196.392 36.8863 195.632 37.7304C194.879 38.5744 193.954 39.2336 192.859 39.708C191.764 40.1823 190.547 40.4195 189.208 40.4195C188.126 40.4195 187.136 40.2346 186.236 39.8649C185.343 39.4882 184.569 38.9651 183.913 38.2954C183.264 37.6188 182.769 36.8549 182.427 36.0039C182.092 35.1459 181.925 34.246 181.925 33.3043C181.925 32.3137 182.106 31.3023 182.469 30.2699C182.832 29.2305 183.372 28.2818 184.091 27.4238C184.809 26.5588 185.716 25.8612 186.811 25.3311C187.907 24.8009 189.155 24.5359 190.557 24.5359C191.667 24.5359 192.671 24.7137 193.571 25.0695C194.478 25.4183 195.259 25.9136 195.915 26.5553C196.57 27.1901 197.069 27.926 197.411 28.7631C197.753 29.5932 197.924 30.4826 197.924 31.4313ZM196.961 33.3252C196.961 32.1254 196.71 31.0302 196.208 30.0397C195.705 29.0491 195.053 28.2086 194.251 27.518C193.456 26.8204 192.598 26.2868 191.677 25.917C190.756 25.5404 189.905 25.352 189.124 25.352C188.161 25.352 187.213 25.6066 186.278 26.1159C185.343 26.6181 184.579 27.3331 183.986 28.2609C183.393 29.1817 183.097 30.2176 183.097 31.3685C183.097 32.7846 183.442 34.1274 184.133 35.397C184.83 36.6596 185.748 37.678 186.885 38.4523C188.022 39.2197 189.225 39.6033 190.495 39.6033C191.304 39.6033 192.102 39.4394 192.891 39.1115C193.679 38.7837 194.373 38.3407 194.973 37.7827C195.573 37.2176 196.054 36.548 196.417 35.7737C196.78 34.9924 196.961 34.1763 196.961 33.3252Z" stroke="black" stroke-width="0.492859" mask="url(#path-6-outside-1_1_5907)"/>
<path d="M201.239 24.923V24.7661H205.246C206.146 24.7661 206.84 24.794 207.329 24.8498C207.817 24.9056 208.253 25.0207 208.636 25.1951C209.292 25.502 209.808 25.938 210.185 26.503C210.562 27.0611 210.75 27.7063 210.75 28.4388C210.75 29.7502 210.108 30.7791 208.825 31.5255C209.753 31.6929 210.468 32.0208 210.97 32.5091C211.779 33.2764 212.184 34.2914 212.184 35.5539C212.184 36.4957 211.981 37.3153 211.577 38.0129C211.172 38.7035 210.698 39.2266 210.154 39.5824C209.923 39.7289 209.69 39.8405 209.453 39.9172C209.222 39.994 208.971 40.0533 208.699 40.0951C208.434 40.13 208.194 40.1544 207.977 40.1684C207.761 40.1753 207.492 40.1788 207.172 40.1788H201.218V40.0323C201.581 40.0323 201.839 39.98 201.992 39.8754C202.146 39.7707 202.24 39.6103 202.275 39.3941C202.31 39.1708 202.327 38.7976 202.327 38.2745V26.66C202.327 26.1298 202.31 25.7601 202.275 25.5508C202.247 25.3416 202.156 25.1881 202.003 25.0904C201.849 24.9858 201.595 24.93 201.239 24.923ZM204.106 25.0904V31.8603H205.979C207.248 31.8603 208.089 31.5011 208.5 30.7826C208.919 30.0571 209.128 29.3316 209.128 28.6062C209.128 27.1064 208.521 26.0775 207.308 25.5194C206.673 25.2334 205.742 25.0904 204.514 25.0904H204.106ZM205.309 32.1847H204.106V37.0712C204.106 37.5595 204.123 37.9431 204.158 38.2221C204.2 38.5012 204.319 38.7628 204.514 39.0069C204.709 39.2511 205.02 39.4394 205.445 39.5719C205.878 39.7045 206.467 39.7707 207.213 39.7707C208.092 39.7707 208.773 39.6277 209.254 39.3417C210.084 38.8465 210.499 37.8908 210.499 36.4747C210.499 35.7562 210.401 35.1075 210.206 34.5285C210.011 33.9495 209.728 33.4647 209.358 33.0741C208.996 32.6835 208.553 32.4358 208.03 32.3312C207.534 32.2335 206.628 32.1847 205.309 32.1847Z" stroke="black" stroke-width="0.492859" mask="url(#path-6-outside-1_1_5907)"/>
<path d="M223.524 33.0846H219.025L216.692 38.9127C216.622 39.0871 216.587 39.1813 216.587 39.1953C216.496 39.3766 216.451 39.5406 216.451 39.687C216.451 39.9172 216.622 40.0323 216.964 40.0323V40.1788H214.672V40.0323C215.084 40.0254 215.384 39.9103 215.572 39.687C215.76 39.4638 215.949 39.115 216.137 38.6407L221.725 24.5359H221.986L227.49 38.1594C227.49 38.2152 227.511 38.2745 227.553 38.3372L227.636 38.5674C227.811 38.9999 228.01 39.3522 228.233 39.6243C228.463 39.8963 228.787 40.0323 229.206 40.0323V40.1788H225.606V40.0323C225.809 40.0323 225.941 39.987 226.004 39.8963C226.067 39.8056 226.098 39.7219 226.098 39.6452C226.098 39.4499 226.018 39.1708 225.858 38.8081C225.844 38.7802 225.826 38.7383 225.805 38.6825C225.784 38.6198 225.767 38.5814 225.753 38.5674L223.524 33.0846ZM219.171 32.6556H223.336L221.254 27.4029L219.171 32.6556Z" stroke="black" stroke-width="0.492859" mask="url(#path-6-outside-1_1_5907)"/>
<path d="M231.297 40.1788V40.0323C231.792 40.0323 232.106 39.9417 232.239 39.7603C232.378 39.5789 232.448 39.2685 232.448 38.829V26.21C232.448 25.6589 232.368 25.3102 232.207 25.1637C232.054 25.0172 231.743 24.937 231.276 24.923V24.7661H235.409V24.923C235.039 24.916 234.767 24.9684 234.593 25.08C234.418 25.1846 234.314 25.3276 234.279 25.509C234.244 25.6903 234.227 25.9589 234.227 26.3147V37.1339C234.227 37.6153 234.282 38.0164 234.394 38.3372C234.506 38.6512 234.677 38.9058 234.907 39.1011C235.144 39.2964 235.451 39.4394 235.828 39.5301C236.211 39.6208 236.665 39.6661 237.188 39.6661H239.071C239.755 39.6661 240.288 39.5475 240.672 39.3104C241.056 39.0732 241.324 38.7279 241.478 38.2745C241.638 37.8141 241.736 37.2142 241.771 36.4747H241.917V40.1788H231.297Z" stroke="black" stroke-width="0.492859" mask="url(#path-6-outside-1_1_5907)"/>
<path d="M266.419 25.5404L266.995 27.1727H266.848C266.534 26.8588 266.144 26.5379 265.676 26.21C265.216 25.8822 264.63 25.5892 263.918 25.3311C263.207 25.073 262.426 24.9439 261.575 24.9439C260.082 24.9439 258.802 25.2578 257.735 25.8857C256.674 26.5065 255.876 27.3052 255.338 28.2818C254.808 29.2584 254.543 30.2803 254.543 31.3476C254.543 32.108 254.69 32.9869 254.983 33.9844C255.276 34.9819 255.74 35.9376 256.374 36.8514C257.009 37.7652 257.85 38.5221 258.896 39.122C259.949 39.7149 261.198 40.0114 262.642 40.0114C263.807 40.0114 264.944 39.8231 266.053 39.4464C267.169 39.0697 267.996 38.5709 268.533 37.9501L268.669 37.9919L267.591 39.6452C266.022 39.987 264.961 40.1998 264.41 40.2835C263.859 40.3741 263.092 40.4195 262.108 40.4195C261.097 40.4195 260.193 40.3497 259.398 40.2102C258.603 40.0707 257.926 39.8824 257.368 39.6452C256.81 39.401 256.319 39.122 255.893 38.8081C255.042 38.1803 254.362 37.3327 253.853 36.2655C253.343 35.1982 253.089 34.0437 253.089 32.802C253.089 31.7975 253.274 30.8035 253.643 29.8199C254.02 28.8364 254.578 27.947 255.318 27.1517C256.064 26.3565 256.995 25.7217 258.111 25.2474C259.227 24.773 260.479 24.5359 261.868 24.5359C262.754 24.5359 263.528 24.6196 264.191 24.787C264.86 24.9544 265.544 25.1846 266.241 25.4776C266.255 25.4776 266.283 25.4846 266.325 25.4985C266.374 25.5125 266.405 25.5264 266.419 25.5404Z" stroke="black" stroke-width="0.492859" mask="url(#path-6-outside-1_1_5907)"/>
<path d="M287.271 31.4313C287.271 32.6102 287.079 33.7438 286.696 34.832C286.312 35.9202 285.74 36.8863 284.98 37.7304C284.226 38.5744 283.302 39.2336 282.207 39.708C281.112 40.1823 279.894 40.4195 278.555 40.4195C277.474 40.4195 276.483 40.2346 275.583 39.8649C274.691 39.4882 273.916 38.9651 273.261 38.2954C272.612 37.6188 272.117 36.8549 271.775 36.0039C271.44 35.1459 271.273 34.246 271.273 33.3043C271.273 32.3137 271.454 31.3023 271.817 30.2699C272.179 29.2305 272.72 28.2818 273.438 27.4238C274.157 26.5588 275.064 25.8612 276.159 25.3311C277.254 24.8009 278.503 24.5359 279.905 24.5359C281.014 24.5359 282.018 24.7137 282.918 25.0695C283.825 25.4183 284.606 25.9136 285.262 26.5553C285.918 27.1901 286.417 27.926 286.758 28.7631C287.1 29.5932 287.271 30.4826 287.271 31.4313ZM286.308 33.3252C286.308 32.1254 286.057 31.0302 285.555 30.0397C285.053 29.0491 284.401 28.2086 283.598 27.518C282.803 26.8204 281.945 26.2868 281.024 25.917C280.104 25.5404 279.253 25.352 278.471 25.352C277.509 25.352 276.56 25.6066 275.625 26.1159C274.691 26.6181 273.927 27.3331 273.334 28.2609C272.741 29.1817 272.444 30.2176 272.444 31.3685C272.444 32.7846 272.79 34.1274 273.48 35.397C274.178 36.6596 275.095 37.678 276.232 38.4523C277.369 39.2197 278.573 39.6033 279.842 39.6033C280.651 39.6033 281.45 39.4394 282.238 39.1115C283.026 38.7837 283.721 38.3407 284.32 37.7827C284.92 37.2176 285.402 36.548 285.764 35.7737C286.127 34.9924 286.308 34.1763 286.308 33.3252Z" stroke="black" stroke-width="0.492859" mask="url(#path-6-outside-1_1_5907)"/>
<path d="M303.184 24.7661H306.166V24.923C305.706 24.937 305.389 25.0346 305.214 25.216C305.047 25.3904 304.963 25.7636 304.963 26.3356V40.3672L292.669 27.2773V38.6825C292.669 38.9616 292.686 39.1918 292.721 39.3731C292.756 39.5475 292.819 39.6801 292.909 39.7707C293 39.8614 293.094 39.9172 293.192 39.9382C293.289 39.9591 293.485 39.9905 293.778 40.0323V40.1788H290.817V40.0323C291.207 40.0254 291.483 39.973 291.643 39.8754C291.811 39.7777 291.912 39.6312 291.947 39.4359C291.981 39.2336 291.999 38.8883 291.999 38.4V27.9679C291.999 27.0959 291.877 26.3635 291.633 25.7706C291.389 25.1707 290.796 24.8881 289.854 24.923V24.7661H292.752L304.304 37.0712V26.1891C304.304 25.6589 304.213 25.3171 304.032 25.1637C303.857 25.0032 303.575 24.923 303.184 24.923V24.7661Z" stroke="black" stroke-width="0.492859" mask="url(#path-6-outside-1_1_5907)"/>
<path d="M316.827 24.9649L317.559 26.8902L317.434 26.9111C317.427 26.8971 317.374 26.8413 317.277 26.7437C317.04 26.4646 316.768 26.1961 316.461 25.938C316.161 25.6799 315.791 25.4636 315.352 25.2892C314.912 25.1148 314.406 25.0276 313.834 25.0276C313.116 25.0276 312.495 25.1741 311.972 25.4671C311.449 25.7601 311.055 26.1472 310.79 26.6286C310.531 27.1029 310.402 27.5982 310.402 28.1144C310.402 28.5957 310.497 29.0073 310.685 29.3491C310.88 29.6839 311.131 29.9595 311.438 30.1757C311.745 30.385 312.153 30.5838 312.662 30.7721C313.172 30.9535 313.562 31.0895 313.834 31.1802C314.581 31.4104 315.271 31.679 315.906 31.9859C316.548 32.2858 317.123 32.7532 317.633 33.388C318.142 34.0158 318.396 34.8215 318.396 35.8051C318.396 36.7189 318.17 37.5211 317.716 38.2117C317.263 38.8953 316.698 39.408 316.021 39.7498C315.749 39.8754 315.282 39.98 314.619 40.0637C313.963 40.1405 313.507 40.1788 313.248 40.1788H309.136V35.7004H309.293C309.307 36.3631 309.37 36.9247 309.482 37.3851C309.6 37.8385 309.816 38.2431 310.13 38.5988C310.444 38.9476 310.877 39.2162 311.428 39.4045C311.986 39.5929 312.687 39.687 313.531 39.687C314.34 39.687 315.013 39.5719 315.55 39.3417C316.094 39.1115 316.513 38.8221 316.806 38.4733C317.099 38.1245 317.294 37.7827 317.392 37.4478C317.49 37.106 317.538 36.7956 317.538 36.5166C317.538 35.8888 317.364 35.3621 317.015 34.9366C316.666 34.5041 316.241 34.1658 315.739 33.9216C315.243 33.6775 314.563 33.4054 313.698 33.1055C312.819 32.8055 312.199 32.5649 311.836 32.3835C311.48 32.2021 311.159 31.9789 310.873 31.7138C310.49 31.3372 310.183 30.8977 309.952 30.3954C309.722 29.8862 309.607 29.3386 309.607 28.7527C309.607 27.9923 309.782 27.2947 310.13 26.66C310.486 26.0182 311.002 25.5055 311.679 25.1218C312.356 24.7312 313.151 24.5359 314.065 24.5359C314.811 24.5359 315.676 24.6649 316.659 24.923C316.68 24.923 316.712 24.93 316.754 24.9439C316.796 24.9579 316.82 24.9649 316.827 24.9649Z" stroke="black" stroke-width="0.492859" mask="url(#path-6-outside-1_1_5907)"/>
<path d="M333.556 24.2324L332.824 26.0949H332.677C332.705 26.0042 332.719 25.8543 332.719 25.645C332.719 25.4706 332.656 25.366 332.531 25.3311C332.412 25.2892 332.234 25.2683 331.997 25.2683H327.969V38.4628C327.969 38.7628 327.983 39.0174 328.011 39.2266C328.039 39.4289 328.091 39.5929 328.168 39.7184C328.244 39.837 328.356 39.9207 328.502 39.9696C328.649 40.0114 328.876 40.0323 329.182 40.0323V40.1788H325.008V40.0323C325.356 39.9975 325.608 39.9486 325.761 39.8858C325.921 39.8231 326.033 39.708 326.096 39.5406C326.159 39.3662 326.19 39.0802 326.19 38.6825V25.2683H322.329C321.945 25.2683 321.691 25.2892 321.565 25.3311C321.447 25.3729 321.387 25.488 321.387 25.6764C321.387 25.7531 321.415 25.8926 321.471 26.0949H321.324L320.592 24.2324H320.739C320.871 24.4835 321.007 24.6405 321.147 24.7033C321.265 24.7451 321.516 24.7661 321.9 24.7661H332.144C332.555 24.7661 332.845 24.7416 333.012 24.6928C333.186 24.644 333.319 24.4905 333.41 24.2324H333.556Z" stroke="black" stroke-width="0.492859" mask="url(#path-6-outside-1_1_5907)"/>
<path d="M336.097 24.923V24.7661H340.471C341.427 24.7661 342.117 24.7835 342.543 24.8184C342.975 24.8463 343.376 24.923 343.746 25.0486C344.423 25.2509 344.963 25.6206 345.368 26.1577C345.772 26.6879 345.975 27.361 345.975 28.1772C345.975 28.7422 345.849 29.2863 345.598 29.8095C345.354 30.3327 345.026 30.7965 344.614 31.2011C344.203 31.6057 343.756 31.9405 343.275 32.2056L344.363 33.8798L344.457 34.0263C344.59 34.2704 345.015 34.9017 345.734 35.9202C346.459 36.9316 347.112 37.7722 347.691 38.4419C347.956 38.7418 348.311 39.0243 348.758 39.2894C349.204 39.5545 349.7 39.687 350.244 39.687C350.634 39.687 350.983 39.6138 351.29 39.4673C351.388 39.4255 351.506 39.3662 351.646 39.2894C351.785 39.2127 351.911 39.1464 352.022 39.0906L352.085 39.2999C351.709 39.5929 351.314 39.8231 350.903 39.9905C350.68 40.0742 350.373 40.1509 349.982 40.2207C349.598 40.2904 349.211 40.3253 348.821 40.3253C348.5 40.3253 348.175 40.2869 347.848 40.2102C347.527 40.1335 347.185 39.9835 346.822 39.7603C346.459 39.5301 346.121 39.2197 345.807 38.829C344.998 37.8455 344.126 36.6526 343.191 35.2505C343.191 35.2366 343.184 35.2156 343.17 35.1877C343.156 35.1598 343.15 35.1459 343.15 35.1459L341.601 32.7602L341.025 32.7811C340.942 32.7951 340.677 32.802 340.23 32.802H338.985V38.7035C338.985 39.0871 339.023 39.3731 339.1 39.5615C339.177 39.7498 339.285 39.8719 339.425 39.9277C339.564 39.9835 339.784 40.0184 340.084 40.0323V40.1788H336.097V40.0323C336.585 40.0114 336.892 39.9137 337.018 39.7394C337.143 39.558 337.206 39.1674 337.206 38.5674V26.3147C337.206 25.8961 337.164 25.5892 337.081 25.3939C337.004 25.1986 336.896 25.0765 336.756 25.0276C336.617 24.9718 336.397 24.937 336.097 24.923ZM338.985 25.1741V32.4044H340.596C340.91 32.4044 341.294 32.3661 341.747 32.2893C342.208 32.2056 342.553 32.101 342.783 31.9754C343.223 31.7313 343.592 31.3755 343.892 30.9081C344.192 30.4338 344.342 29.8444 344.342 29.1398C344.342 28.8329 344.3 28.4946 344.217 28.1249C344.133 27.7482 344.004 27.3924 343.83 27.0576C343.662 26.7227 343.442 26.4193 343.17 26.1472C342.843 25.8194 342.452 25.5752 341.999 25.4148C341.552 25.2544 340.97 25.1741 340.251 25.1741H338.985Z" stroke="black" stroke-width="0.492859" mask="url(#path-6-outside-1_1_5907)"/>
<path d="M369.139 40.1788H366.23V37.8036C364.751 39.4568 362.979 40.2835 360.915 40.2835C360.238 40.2835 359.607 40.1928 359.021 40.0114C358.435 39.83 357.908 39.544 357.441 39.1534C356.98 38.7628 356.614 38.2535 356.342 37.6257C356.07 36.9909 355.934 36.262 355.934 35.4389V26.21C355.934 25.8264 355.91 25.5473 355.861 25.3729C355.812 25.1986 355.704 25.08 355.536 25.0172C355.369 24.9474 355.125 24.916 354.804 24.923V24.7661H358.895V24.923C358.498 24.923 358.201 24.9893 358.006 25.1218C357.811 25.2474 357.713 25.5718 357.713 26.0949V34.5599C357.713 35.5714 357.835 36.3875 358.079 37.0084C358.323 37.6153 358.655 38.1036 359.073 38.4733C359.499 38.843 359.949 39.1046 360.423 39.258C360.897 39.4115 361.354 39.4882 361.794 39.4882C363.461 39.4882 364.94 38.7383 366.23 37.2386V26.8064C366.23 26.2833 366.206 25.8996 366.157 25.6555C366.115 25.4043 366.024 25.2195 365.885 25.1009C365.745 24.9823 365.529 24.923 365.236 24.923H365.09V24.7661H369.139V24.923C368.727 24.937 368.434 24.9997 368.26 25.1114C368.086 25.216 367.998 25.502 367.998 25.9694V38.5256C367.998 38.9232 368.016 39.2197 368.051 39.415C368.086 39.6103 368.187 39.7638 368.354 39.8754C368.529 39.987 368.79 40.0393 369.139 40.0323V40.1788Z" stroke="black" stroke-width="0.492859" mask="url(#path-6-outside-1_1_5907)"/>
<path d="M385.837 25.5404L386.412 27.1727H386.266C385.952 26.8588 385.561 26.5379 385.094 26.21C384.634 25.8822 384.048 25.5892 383.336 25.3311C382.625 25.073 381.843 24.9439 380.992 24.9439C379.5 24.9439 378.22 25.2578 377.152 25.8857C376.092 26.5065 375.293 27.3052 374.756 28.2818C374.226 29.2584 373.961 30.2803 373.961 31.3476C373.961 32.108 374.107 32.9869 374.4 33.9844C374.693 34.9819 375.157 35.9376 375.792 36.8514C376.427 37.7652 377.267 38.5221 378.314 39.122C379.367 39.7149 380.616 40.0114 382.06 40.0114C383.224 40.0114 384.362 39.8231 385.471 39.4464C386.587 39.0697 387.413 38.5709 387.95 37.9501L388.086 37.9919L387.009 39.6452C385.439 39.987 384.379 40.1998 383.828 40.2835C383.277 40.3741 382.509 40.4195 381.526 40.4195C380.514 40.4195 379.611 40.3497 378.816 40.2102C378.021 40.0707 377.344 39.8824 376.786 39.6452C376.228 39.401 375.736 39.122 375.311 38.8081C374.46 38.1803 373.78 37.3327 373.27 36.2655C372.761 35.1982 372.506 34.0437 372.506 32.802C372.506 31.7975 372.691 30.8035 373.061 29.8199C373.438 28.8364 373.996 27.947 374.735 27.1517C375.482 26.3565 376.413 25.7217 377.529 25.2474C378.645 24.773 379.897 24.5359 381.285 24.5359C382.171 24.5359 382.945 24.6196 383.608 24.787C384.278 24.9544 384.961 25.1846 385.659 25.4776C385.673 25.4776 385.701 25.4846 385.743 25.4985C385.792 25.5125 385.823 25.5264 385.837 25.5404Z" stroke="black" stroke-width="0.492859" mask="url(#path-6-outside-1_1_5907)"/>
<path d="M402.943 24.2324L402.21 26.0949H402.064C402.092 26.0042 402.106 25.8543 402.106 25.645C402.106 25.4706 402.043 25.366 401.917 25.3311C401.799 25.2892 401.621 25.2683 401.384 25.2683H397.355V38.4628C397.355 38.7628 397.369 39.0174 397.397 39.2266C397.425 39.4289 397.477 39.5929 397.554 39.7184C397.631 39.837 397.743 39.9207 397.889 39.9696C398.036 40.0114 398.262 40.0323 398.569 40.0323V40.1788H394.394V40.0323C394.743 39.9975 394.994 39.9486 395.148 39.8858C395.308 39.8231 395.42 39.708 395.482 39.5406C395.545 39.3662 395.577 39.0802 395.577 38.6825V25.2683H391.716C391.332 25.2683 391.077 25.2892 390.952 25.3311C390.833 25.3729 390.774 25.488 390.774 25.6764C390.774 25.7531 390.802 25.8926 390.858 26.0949H390.711L389.979 24.2324H390.125C390.258 24.4835 390.394 24.6405 390.533 24.7033C390.652 24.7451 390.903 24.7661 391.287 24.7661H401.53C401.942 24.7661 402.231 24.7416 402.399 24.6928C402.573 24.644 402.706 24.4905 402.796 24.2324H402.943Z" stroke="black" stroke-width="0.492859" mask="url(#path-6-outside-1_1_5907)"/>
<path d="M409.491 24.7661V24.923C409.254 24.9021 409 24.9439 408.727 25.0486C408.462 25.1462 408.33 25.3764 408.33 25.7392C408.316 25.8229 408.309 26.0845 408.309 26.5239V38.3582C408.309 38.8465 408.326 39.1987 408.361 39.415C408.396 39.6243 408.497 39.7812 408.665 39.8858C408.839 39.9905 409.115 40.0393 409.491 40.0323V40.1788H405.379V40.0323C405.749 40.0184 406.01 39.9696 406.164 39.8858C406.324 39.7952 406.426 39.6487 406.467 39.4464C406.509 39.2441 406.53 38.8883 406.53 38.3791V26.66C406.53 26.1926 406.513 25.8438 406.478 25.6136C406.443 25.3834 406.342 25.2055 406.174 25.08C406.007 24.9544 405.742 24.9021 405.379 24.923V24.7661H409.491Z" stroke="black" stroke-width="0.492859" mask="url(#path-6-outside-1_1_5907)"/>
<path d="M428.638 31.4313C428.638 32.6102 428.446 33.7438 428.062 34.832C427.679 35.9202 427.107 36.8863 426.346 37.7304C425.593 38.5744 424.669 39.2336 423.573 39.708C422.478 40.1823 421.261 40.4195 419.922 40.4195C418.84 40.4195 417.85 40.2346 416.95 39.8649C416.057 39.4882 415.283 38.9651 414.627 38.2954C413.978 37.6188 413.483 36.8549 413.141 36.0039C412.807 35.1459 412.639 34.246 412.639 33.3043C412.639 32.3137 412.82 31.3023 413.183 30.2699C413.546 29.2305 414.087 28.2818 414.805 27.4238C415.524 26.5588 416.43 25.8612 417.526 25.3311C418.621 24.8009 419.869 24.5359 421.271 24.5359C422.381 24.5359 423.385 24.7137 424.285 25.0695C425.192 25.4183 425.973 25.9136 426.629 26.5553C427.284 27.1901 427.783 27.926 428.125 28.7631C428.467 29.5932 428.638 30.4826 428.638 31.4313ZM427.675 33.3252C427.675 32.1254 427.424 31.0302 426.922 30.0397C426.419 29.0491 425.767 28.2086 424.965 27.518C424.17 26.8204 423.312 26.2868 422.391 25.917C421.47 25.5404 420.619 25.352 419.838 25.352C418.875 25.352 417.927 25.6066 416.992 26.1159C416.057 26.6181 415.293 27.3331 414.7 28.2609C414.107 29.1817 413.811 30.2176 413.811 31.3685C413.811 32.7846 414.156 34.1274 414.847 35.397C415.544 36.6596 416.462 37.678 417.599 38.4523C418.736 39.2197 419.939 39.6033 421.209 39.6033C422.018 39.6033 422.817 39.4394 423.605 39.1115C424.393 38.7837 425.087 38.3407 425.687 37.7827C426.287 37.2176 426.768 36.548 427.131 35.7737C427.494 34.9924 427.675 34.1763 427.675 33.3252Z" stroke="black" stroke-width="0.492859" mask="url(#path-6-outside-1_1_5907)"/>
<path d="M444.551 24.7661H447.533V24.923C447.073 24.937 446.755 25.0346 446.581 25.216C446.413 25.3904 446.33 25.7636 446.33 26.3356V40.3672L434.035 27.2773V38.6825C434.035 38.9616 434.053 39.1918 434.087 39.3731C434.122 39.5475 434.185 39.6801 434.276 39.7707C434.366 39.8614 434.461 39.9172 434.558 39.9382C434.656 39.9591 434.851 39.9905 435.144 40.0323V40.1788H432.183V40.0323C432.574 40.0254 432.849 39.973 433.01 39.8754C433.177 39.7777 433.278 39.6312 433.313 39.4359C433.348 39.2336 433.365 38.8883 433.365 38.4V27.9679C433.365 27.0959 433.243 26.3635 432.999 25.7706C432.755 25.1707 432.162 24.8881 431.22 24.923V24.7661H434.119L445.67 37.0712V26.1891C445.67 25.6589 445.58 25.3171 445.398 25.1637C445.224 25.0032 444.941 24.923 444.551 24.923V24.7661Z" stroke="black" stroke-width="0.492859" mask="url(#path-6-outside-1_1_5907)"/>
<path d="M458.193 24.9649L458.926 26.8902L458.8 26.9111C458.793 26.8971 458.741 26.8413 458.643 26.7437C458.406 26.4646 458.134 26.1961 457.827 25.938C457.527 25.6799 457.158 25.4636 456.718 25.2892C456.279 25.1148 455.773 25.0276 455.201 25.0276C454.482 25.0276 453.862 25.1741 453.338 25.4671C452.815 25.7601 452.421 26.1472 452.156 26.6286C451.898 27.1029 451.769 27.5982 451.769 28.1144C451.769 28.5957 451.863 29.0073 452.051 29.3491C452.247 29.6839 452.498 29.9595 452.805 30.1757C453.112 30.385 453.52 30.5838 454.029 30.7721C454.538 30.9535 454.929 31.0895 455.201 31.1802C455.947 31.4104 456.638 31.679 457.273 31.9859C457.914 32.2858 458.49 32.7532 458.999 33.388C459.508 34.0158 459.763 34.8215 459.763 35.8051C459.763 36.7189 459.536 37.5211 459.083 38.2117C458.629 38.8953 458.064 39.408 457.388 39.7498C457.116 39.8754 456.648 39.98 455.986 40.0637C455.33 40.1405 454.873 40.1788 454.615 40.1788H450.503V35.7004H450.66C450.674 36.3631 450.737 36.9247 450.848 37.3851C450.967 37.8385 451.183 38.2431 451.497 38.5988C451.811 38.9476 452.243 39.2162 452.794 39.4045C453.352 39.5929 454.053 39.687 454.897 39.687C455.707 39.687 456.38 39.5719 456.917 39.3417C457.461 39.1115 457.88 38.8221 458.173 38.4733C458.466 38.1245 458.661 37.7827 458.758 37.4478C458.856 37.106 458.905 36.7956 458.905 36.5166C458.905 35.8888 458.731 35.3621 458.382 34.9366C458.033 34.5041 457.608 34.1658 457.105 33.9216C456.61 33.6775 455.93 33.4054 455.065 33.1055C454.186 32.8055 453.565 32.5649 453.202 32.3835C452.847 32.2021 452.526 31.9789 452.24 31.7138C451.856 31.3372 451.549 30.8977 451.319 30.3954C451.089 29.8862 450.974 29.3386 450.974 28.7527C450.974 27.9923 451.148 27.2947 451.497 26.66C451.853 26.0182 452.369 25.5055 453.045 25.1218C453.722 24.7312 454.517 24.5359 455.431 24.5359C456.177 24.5359 457.042 24.6649 458.026 24.923C458.047 24.923 458.078 24.93 458.12 24.9439C458.162 24.9579 458.186 24.9649 458.193 24.9649Z" stroke="black" stroke-width="0.492859" mask="url(#path-6-outside-1_1_5907)"/>
</svg>
