<svg width="449" height="56" viewBox="0 0 449 56" fill="none" xmlns="http://www.w3.org/2000/svg">
<path d="M430.137 28.4016V28.2266H438.023C440.046 28.2266 441.582 28.3705 442.632 28.6582C443.682 28.946 444.572 29.331 445.303 29.8133C445.941 30.2255 446.513 30.7544 447.018 31.3999C447.524 32.0377 447.917 32.7766 448.197 33.6167C448.484 34.4567 448.628 35.355 448.628 36.3117C448.628 37.2139 448.504 38.0773 448.255 38.9017C448.006 39.7184 447.66 40.4884 447.217 41.2118C446.773 41.9351 446.283 42.5612 445.747 43.0901C445.21 43.6113 444.634 44.0507 444.02 44.4085C443.382 44.7818 442.608 45.0424 441.698 45.1902C440.788 45.338 439.626 45.4118 438.21 45.4118H430.137V45.2485H430.347C430.619 45.2485 430.825 45.1824 430.965 45.0502C431.113 44.918 431.218 44.6924 431.28 44.3735C431.342 44.0468 431.373 43.5568 431.373 42.9035V30.3849C431.373 29.5449 431.311 29.0082 431.187 28.7749C431.062 28.5338 430.712 28.4093 430.137 28.4016ZM435.993 28.5882H433.357V41.9235C433.357 42.6468 433.466 43.2224 433.683 43.6502C433.909 44.0779 434.356 44.4046 435.025 44.6302C435.694 44.8479 436.686 44.9568 438 44.9568C438.996 44.9568 439.874 44.8868 440.637 44.7468C441.407 44.6068 442.091 44.3929 442.69 44.1052C443.289 43.8174 443.833 43.4401 444.323 42.9735C445.047 42.289 445.63 41.4062 446.073 40.3251C446.517 39.2362 446.738 38.1512 446.738 37.07C446.738 36.3467 446.633 35.6195 446.423 34.8883C446.221 34.1494 445.898 33.43 445.455 32.73C445.019 32.03 444.421 31.3766 443.658 30.7699C442.904 30.1555 441.998 29.6694 440.94 29.3116C439.563 28.8294 437.914 28.5882 435.993 28.5882Z" fill="white"/>
<path fill-rule="evenodd" clip-rule="evenodd" d="M429.855 27.9414H438.022C440.052 27.9414 441.618 28.0852 442.704 28.383C443.776 28.6767 444.694 29.0721 445.455 29.5736C446.12 30.0038 446.714 30.5541 447.237 31.2215C447.764 31.8866 448.171 32.6544 448.461 33.5218C448.759 34.3929 448.907 35.3218 448.907 36.3065C448.907 37.2349 448.779 38.1256 448.522 38.9775L448.522 38.9782C448.266 39.8175 447.91 40.6092 447.454 41.353C447 42.0933 446.497 42.7377 445.942 43.2844L445.94 43.2859C445.388 43.8219 444.795 44.2753 444.16 44.6451C443.486 45.0395 442.678 45.3094 441.742 45.4614C440.811 45.6125 439.632 45.6867 438.209 45.6867H429.855V44.9634H430.345C430.576 44.9634 430.702 44.9074 430.772 44.8415L430.774 44.8389L430.777 44.8364C430.858 44.7636 430.946 44.6091 431.004 44.3154C431.061 44.0154 431.092 43.5471 431.092 42.8983V30.3798C431.092 29.9653 431.077 29.633 431.047 29.3795C431.017 29.1173 430.975 28.9692 430.938 28.9015L430.937 28.8982C430.917 28.861 430.869 28.8067 430.736 28.7594C430.601 28.7115 430.404 28.6801 430.132 28.6764L429.855 28.6727V27.9414ZM433.075 28.5014H431.34C431.376 28.5431 431.407 28.589 431.433 28.6396C431.521 28.8052 431.572 29.0414 431.604 29.315C431.636 29.5982 431.652 29.9542 431.652 30.3798V42.8983C431.652 43.5559 431.621 44.0673 431.554 44.4207L431.554 44.422C431.5 44.697 431.411 44.9417 431.268 45.1267H436.056C435.623 45.0712 435.25 44.9931 434.937 44.8913L434.934 44.8904C434.228 44.6523 433.706 44.2909 433.434 43.7756L433.433 43.7721C433.187 43.29 433.075 42.6653 433.075 41.9183V28.5014ZM438.866 28.5104C439.645 28.6328 440.367 28.8096 441.03 29.0417C442.114 29.4084 443.049 29.909 443.833 30.5467C444.615 31.1692 445.236 31.8451 445.691 32.5759C446.147 33.2967 446.482 34.0407 446.692 34.8076C446.908 35.562 447.017 36.3146 447.017 37.0649C447.017 38.1853 446.787 39.306 446.331 40.4255L446.331 40.4262C445.875 41.5376 445.271 42.4554 444.515 43.1715C444.004 43.6578 443.436 44.0518 442.81 44.3524C442.185 44.6528 441.476 44.8735 440.686 45.0172C440.643 45.025 440.6 45.0326 440.557 45.0399C440.958 45.006 441.323 44.9622 441.652 44.9086C442.536 44.7651 443.276 44.5139 443.877 44.1617L443.878 44.1614C444.471 43.8158 445.029 43.3906 445.55 42.8848C446.068 42.3738 446.544 41.7663 446.977 41.0603C447.407 40.3574 447.744 39.6092 447.986 38.8152C448.226 38.0183 448.347 37.1825 448.347 36.3065C448.347 35.3783 448.208 34.5109 447.93 33.7023L447.93 33.7C447.659 32.8882 447.281 32.1788 446.798 31.5687L446.797 31.5674C446.309 30.9444 445.76 30.4373 445.15 30.0433L445.148 30.0419C444.447 29.5793 443.585 29.2049 442.556 28.9231C441.69 28.6856 440.463 28.5459 438.866 28.5104ZM433.635 28.8631V41.9183C433.635 42.6168 433.741 43.1427 433.931 43.5162C434.11 43.8554 434.482 44.1466 435.112 44.3592C435.738 44.5628 436.694 44.6717 437.999 44.6717C438.982 44.6717 439.843 44.6025 440.585 44.4663L440.585 44.4662C441.335 44.3299 441.995 44.1228 442.567 43.8476C443.139 43.5728 443.66 43.2124 444.129 42.7656L444.13 42.7649C444.819 42.1122 445.382 41.2646 445.813 40.2142C446.244 39.1559 446.457 38.1067 446.457 37.0649C446.457 36.369 446.356 35.6678 446.153 34.9605L446.152 34.9571C445.958 34.2471 445.647 33.5531 445.217 32.8746L445.216 32.8727C444.8 32.2043 444.224 31.5742 443.483 30.9839L443.48 30.9819C442.755 30.3914 441.88 29.9203 440.849 29.5717L440.846 29.5707C439.507 29.1016 437.891 28.8631 435.992 28.8631H433.635Z" fill="white"/>
<path d="M427.324 27.6367L426.507 29.7134H426.344C426.375 29.6123 426.391 29.4451 426.391 29.2117C426.391 29.0173 426.321 28.9006 426.181 28.8617C426.049 28.8151 425.85 28.7917 425.586 28.7917H421.094V43.5037C421.094 43.8381 421.11 44.122 421.141 44.3553C421.172 44.5809 421.23 44.7637 421.316 44.9037C421.401 45.0359 421.526 45.1292 421.689 45.1837C421.852 45.2303 422.105 45.2537 422.447 45.2537V45.417H417.792V45.2537C418.181 45.2148 418.461 45.1603 418.632 45.0903C418.811 45.0203 418.936 44.892 419.006 44.7053C419.076 44.5109 419.111 44.192 419.111 43.7487V28.7917H414.806C414.378 28.7917 414.094 28.8151 413.954 28.8617C413.822 28.9084 413.756 29.0367 413.756 29.2467C413.756 29.3323 413.787 29.4879 413.849 29.7134H413.686L412.869 27.6367H413.032C413.18 27.9167 413.332 28.0917 413.487 28.1617C413.62 28.2084 413.9 28.2317 414.327 28.2317H425.749C426.208 28.2317 426.531 28.2045 426.717 28.1501C426.912 28.0956 427.06 27.9245 427.161 27.6367H427.324Z" fill="white"/>
<path fill-rule="evenodd" clip-rule="evenodd" d="M412.459 27.3516H413.202L413.281 27.5009C413.414 27.7536 413.524 27.8602 413.593 27.8961C413.629 27.9066 413.7 27.92 413.821 27.93C413.95 27.9408 414.119 27.9466 414.328 27.9466H425.75C426.208 27.9466 426.495 27.9183 426.64 27.8761L426.643 27.8753C426.711 27.8562 426.81 27.7864 426.897 27.5387L426.963 27.3516H427.736L426.699 29.9883H425.966L426.077 29.6259C426.095 29.568 426.112 29.4373 426.112 29.2066C426.112 29.1743 426.109 29.1517 426.105 29.1368C426.104 29.1319 426.103 29.1281 426.102 29.1251L426.097 29.1238L426.088 29.1206C426.002 29.0901 425.842 29.0666 425.587 29.0666H421.375V43.4985C421.375 43.825 421.39 44.0955 421.419 44.3126C421.447 44.5112 421.495 44.6525 421.554 44.7493C421.6 44.8204 421.668 44.8751 421.773 44.911C421.898 44.9455 422.117 44.9685 422.448 44.9685H422.728V45.6919H417.513V44.9951L417.765 44.9699C418.15 44.9314 418.396 44.8797 418.527 44.826L418.531 44.8244C418.632 44.7848 418.7 44.718 418.744 44.6036C418.796 44.4576 418.832 44.1812 418.832 43.7435V29.0666H414.807C414.597 29.0666 414.427 29.0723 414.296 29.0832C414.171 29.0934 414.094 29.1073 414.054 29.1191C414.048 29.1326 414.037 29.1686 414.037 29.2416C414.037 29.2838 414.057 29.4044 414.12 29.6338L414.218 29.9883H413.496L412.459 27.3516ZM421.14 45.1319C421.12 45.1061 421.1 45.0791 421.082 45.0506L421.08 45.0476L421.078 45.0445C420.966 44.8615 420.899 44.6383 420.864 44.3884L420.864 44.3872C420.831 44.1377 420.815 43.8406 420.815 43.4985V28.5066H419.392V43.7435C419.392 44.1908 419.358 44.5517 419.27 44.795L419.269 44.7985C419.22 44.9277 419.151 45.0397 419.061 45.1319H421.14ZM413.492 28.4482C413.575 28.4673 413.672 28.4796 413.774 28.4881C413.925 28.5007 414.11 28.5066 414.328 28.5066H414.807C414.588 28.5066 414.402 28.5125 414.25 28.525C414.102 28.5372 413.969 28.5567 413.866 28.591L413.862 28.5925C413.762 28.6277 413.68 28.6875 413.617 28.7665L413.492 28.4482ZM426.708 28.4363C426.479 28.4864 426.153 28.5066 425.75 28.5066H425.587C425.856 28.5066 426.089 28.529 426.266 28.5896C426.387 28.6253 426.491 28.6967 426.563 28.8039L426.708 28.4363Z" fill="white"/>
<path d="M399.814 45.4118V45.2485C400.367 45.2485 400.717 45.1474 400.864 44.9452C401.02 44.7429 401.098 44.3968 401.098 43.9068V29.8366C401.098 29.2221 401.008 28.8332 400.829 28.6699C400.658 28.5066 400.312 28.4171 399.791 28.4016V28.2266H404.399V28.4016C403.987 28.3938 403.684 28.4521 403.489 28.5766C403.295 28.6932 403.178 28.8527 403.139 29.0549C403.1 29.2571 403.081 29.5566 403.081 29.9533V42.0168C403.081 42.5535 403.143 43.0007 403.268 43.3585C403.392 43.7085 403.583 43.9924 403.839 44.2102C404.104 44.4279 404.446 44.5874 404.866 44.6885C405.294 44.7896 405.799 44.8402 406.383 44.8402H408.483C409.245 44.8402 409.84 44.7079 410.268 44.4435C410.695 44.179 410.995 43.794 411.166 43.2885C411.345 42.7751 411.454 42.1062 411.493 41.2818H411.656V45.4118H399.814Z" fill="white"/>
<path fill-rule="evenodd" clip-rule="evenodd" d="M399.516 27.9414H404.684V28.6818L404.399 28.6764C404.004 28.6689 403.769 28.728 403.645 28.8073L403.641 28.8094L403.638 28.8115C403.504 28.8919 403.441 28.987 403.419 29.1026C403.385 29.2781 403.366 29.5561 403.366 29.9481V42.0116C403.366 42.5285 403.426 42.9419 403.536 43.2604C403.646 43.5677 403.809 43.8079 404.023 43.9901C404.247 44.1741 404.548 44.3175 404.936 44.411C405.337 44.5057 405.819 44.555 406.387 44.555H408.487C409.222 44.555 409.759 44.4266 410.125 44.2002C410.494 43.9722 410.754 43.6415 410.905 43.1936L410.906 43.1912C411.073 42.7128 411.179 42.0734 411.218 41.2634L411.23 40.9966H411.941V45.6867H399.539V44.9634H399.819C400.081 44.9634 400.278 44.9391 400.418 44.8985C400.559 44.8576 400.619 44.8076 400.643 44.7748L400.645 44.772L400.647 44.7693C400.743 44.6441 400.822 44.3786 400.822 43.9017V29.8314C400.822 29.5353 400.8 29.3077 400.762 29.1417C400.723 28.9701 400.673 28.8972 400.645 28.8715L400.643 28.8694L400.641 28.8673C400.603 28.8313 400.525 28.7847 400.376 28.7463C400.23 28.7085 400.036 28.6837 399.787 28.6763L399.516 28.6682V27.9414ZM401.066 28.5014C401.19 28.6366 401.263 28.8207 401.308 29.0162C401.359 29.2391 401.382 29.5131 401.382 29.8314V43.9017C401.382 44.4032 401.306 44.8288 401.093 45.1081C401.088 45.1144 401.084 45.1206 401.079 45.1267H411.381V43.5225C411.183 44.0144 410.862 44.4028 410.419 44.6765C409.93 44.979 409.277 45.115 408.487 45.115H406.387C405.789 45.115 405.261 45.0633 404.806 44.9559L404.805 44.9556C404.354 44.8471 403.971 44.672 403.666 44.4212L403.663 44.4185C403.365 44.1656 403.148 43.8387 403.008 43.4471L403.008 43.4453C402.87 43.0484 402.806 42.5677 402.806 42.0116V29.9481C402.806 29.5468 402.825 29.2259 402.869 28.9969C402.907 28.8013 402.997 28.6356 403.13 28.5014H401.066Z" fill="white"/>
<path d="M376.09 45.4118V45.2485C376.642 45.2485 376.992 45.1474 377.14 44.9452C377.295 44.7429 377.373 44.3968 377.373 43.9068V29.8366C377.373 29.2221 377.284 28.8332 377.105 28.6699C376.934 28.5066 376.588 28.4171 376.066 28.4016V28.2266H380.675V28.4016C380.262 28.3938 379.959 28.4521 379.765 28.5766C379.57 28.6932 379.454 28.8527 379.415 29.0549C379.376 29.2571 379.356 29.5566 379.356 29.9533V42.0168C379.356 42.5535 379.419 43.0007 379.543 43.3585C379.667 43.7085 379.858 43.9924 380.115 44.2102C380.379 44.4279 380.721 44.5874 381.141 44.6885C381.569 44.7896 382.075 44.8402 382.658 44.8402H384.758C385.52 44.8402 386.115 44.7079 386.543 44.4435C386.971 44.179 387.27 43.794 387.441 43.2885C387.62 42.7751 387.729 42.1062 387.768 41.2818H387.931V45.4118H376.09Z" fill="white"/>
<path fill-rule="evenodd" clip-rule="evenodd" d="M375.785 27.9414H380.953V28.6818L380.668 28.6764C380.273 28.6689 380.038 28.728 379.914 28.8073L379.911 28.8094L379.908 28.8115C379.774 28.8919 379.711 28.987 379.688 29.1026C379.655 29.2781 379.635 29.5561 379.635 29.9481V42.0116C379.635 42.5285 379.695 42.9419 379.806 43.2604C379.915 43.5677 380.079 43.8079 380.293 43.9901C380.517 44.1741 380.817 44.3175 381.205 44.411C381.606 44.5057 382.089 44.555 382.657 44.555H384.757C385.492 44.555 386.028 44.4266 386.395 44.2002C386.763 43.9722 387.023 43.6415 387.175 43.1936L387.176 43.1912C387.342 42.7128 387.449 42.0734 387.487 41.2634L387.5 40.9966H388.21V45.6867H375.808V44.9634H376.088C376.35 44.9634 376.547 44.9391 376.687 44.8985C376.829 44.8576 376.888 44.8076 376.912 44.7748L376.914 44.772L376.917 44.7693C377.013 44.6441 377.092 44.3786 377.092 43.9017V29.8314C377.092 29.5353 377.07 29.3077 377.032 29.1417C376.992 28.9701 376.943 28.8972 376.915 28.8715L376.912 28.8694L376.91 28.8673C376.872 28.8313 376.794 28.7847 376.646 28.7463C376.5 28.7085 376.305 28.6837 376.057 28.6763L375.785 28.6682V27.9414ZM377.336 28.5014C377.46 28.6366 377.533 28.8207 377.578 29.0162C377.629 29.2391 377.652 29.5131 377.652 29.8314V43.9017C377.652 44.4032 377.576 44.8288 377.362 45.1081C377.358 45.1144 377.353 45.1206 377.348 45.1267H387.65V43.5225C387.452 44.0144 387.132 44.4028 386.689 44.6765C386.2 44.979 385.546 45.115 384.757 45.115H382.657C382.058 45.115 381.53 45.0633 381.076 44.9559L381.075 44.9556C380.624 44.8471 380.24 44.672 379.935 44.4212L379.932 44.4185C379.634 44.1656 379.417 43.8387 379.278 43.4471L379.277 43.4453C379.139 43.0484 379.075 42.5677 379.075 42.0116V29.9481C379.075 29.5468 379.094 29.2259 379.139 28.9969C379.176 28.8013 379.266 28.6356 379.4 28.5014H377.336Z" fill="white"/>
<path d="M367.425 37.5045H362.408L359.806 44.0029C359.729 44.1974 359.69 44.3024 359.69 44.3179C359.589 44.5202 359.538 44.7029 359.538 44.8663C359.538 45.1229 359.729 45.2513 360.11 45.2513V45.4146H357.555V45.2513C358.014 45.2435 358.348 45.1152 358.558 44.8663C358.768 44.6174 358.978 44.2285 359.188 43.6996L365.418 27.9727H365.71L371.846 43.1629C371.846 43.2251 371.87 43.2912 371.916 43.3612L372.01 43.6179C372.204 44.1001 372.426 44.4929 372.675 44.7963C372.931 45.0996 373.293 45.2513 373.76 45.2513V45.4146H369.746V45.2513C369.972 45.2513 370.12 45.2007 370.19 45.0996C370.26 44.9985 370.295 44.9052 370.295 44.8196C370.295 44.6018 370.205 44.2907 370.026 43.8863C370.011 43.8551 369.991 43.8085 369.968 43.7463C369.945 43.6763 369.925 43.6335 369.91 43.6179L367.425 37.5045ZM362.571 37.0261H367.215L364.893 31.1694L362.571 37.0261Z" fill="white"/>
<path fill-rule="evenodd" clip-rule="evenodd" d="M365.226 27.6875H365.897L372.125 43.1033V43.1556C372.126 43.1591 372.13 43.1736 372.148 43.2008L372.167 43.2288L372.27 43.5125C372.456 43.9733 372.664 44.3373 372.888 44.6118C373.082 44.8401 373.359 44.9661 373.758 44.9661H374.038V45.6895H369.465V44.9661H369.745C369.839 44.9661 369.9 44.9552 369.934 44.9433C369.95 44.9381 369.957 44.9337 369.961 44.9315C370.009 44.8599 370.013 44.823 370.013 44.8145C370.013 44.6591 369.946 44.3948 369.771 43.9997C369.75 43.9562 369.728 43.901 369.705 43.8394L369.703 43.8346L369.701 43.8296C369.698 43.8207 369.695 43.8127 369.693 43.8056C369.691 43.8011 369.69 43.7969 369.688 43.793C369.687 43.7903 369.686 43.7879 369.685 43.7857L369.67 43.7707L367.235 37.7793H362.596L360.065 44.1018C360.065 44.1018 360.065 44.1017 360.065 44.1018C360.026 44.1983 359.998 44.2705 359.98 44.3196C359.975 44.3327 359.971 44.3434 359.968 44.352V44.3789L359.939 44.438C359.85 44.6154 359.817 44.7547 359.817 44.8611C359.817 44.8905 359.822 44.9027 359.823 44.9054C359.824 44.9069 359.826 44.911 359.836 44.9176C359.864 44.9363 359.941 44.9661 360.108 44.9661H360.388V45.6895H357.273V44.9708L357.549 44.9662C357.961 44.9592 358.204 44.8456 358.343 44.6806C358.524 44.4658 358.721 44.1096 358.927 43.5911L365.226 27.6875ZM365.564 28.3568L359.447 43.7976C359.233 44.3369 359.01 44.7587 358.771 45.0417C358.745 45.0726 358.717 45.1018 358.689 45.1295H359.31C359.274 45.047 359.257 44.956 359.257 44.8611C359.257 44.6505 359.319 44.4342 359.423 44.2172C359.425 44.2104 359.427 44.2041 359.429 44.1984C359.436 44.1777 359.445 44.1527 359.455 44.1251C359.476 44.0692 359.506 43.9917 359.545 43.8938L362.185 37.301H362.158L364.892 30.4044L367.593 37.2193H367.612L370.155 43.4762C370.172 43.5025 370.183 43.5263 370.19 43.5407C370.204 43.573 370.218 43.6095 370.231 43.6473C370.252 43.7043 370.267 43.7386 370.275 43.7559L370.278 43.7618L370.281 43.7678C370.463 44.1787 370.573 44.535 370.573 44.8145C370.573 44.9268 370.542 45.0325 370.493 45.1295H372.613C372.559 45.0815 372.508 45.029 372.46 44.972L372.457 44.9688C372.185 44.6376 371.951 44.218 371.749 43.7175L371.747 43.713L371.662 43.4803C371.616 43.4036 371.58 43.3167 371.569 43.2216L365.564 28.3568ZM362.982 36.741H366.801L364.892 31.924L362.982 36.741Z" fill="white"/>
<path d="M357.801 27.6367L356.984 29.7134H356.821C356.852 29.6123 356.867 29.4451 356.867 29.2117C356.867 29.0173 356.797 28.9006 356.657 28.8617C356.525 28.8151 356.327 28.7917 356.062 28.7917H351.571V43.5037C351.571 43.8381 351.586 44.122 351.617 44.3553C351.648 44.5809 351.707 44.7637 351.792 44.9037C351.878 45.0359 352.002 45.1292 352.166 45.1837C352.329 45.2303 352.582 45.2537 352.924 45.2537V45.417H348.269V45.2537C348.658 45.2148 348.938 45.1603 349.109 45.0903C349.288 45.0203 349.412 44.892 349.482 44.7053C349.552 44.5109 349.587 44.192 349.587 43.7487V28.7917H345.282C344.855 28.7917 344.571 28.8151 344.431 28.8617C344.298 28.9084 344.232 29.0367 344.232 29.2467C344.232 29.3323 344.263 29.4879 344.326 29.7134H344.162L343.346 27.6367H343.509C343.657 27.9167 343.808 28.0917 343.964 28.1617C344.096 28.2084 344.376 28.2317 344.804 28.2317H356.226C356.685 28.2317 357.007 28.2045 357.194 28.1501C357.388 28.0956 357.536 27.9245 357.637 27.6367H357.801Z" fill="white"/>
<path fill-rule="evenodd" clip-rule="evenodd" d="M342.938 27.3516H343.681L343.759 27.5009C343.893 27.7536 344.003 27.8602 344.071 27.8961C344.107 27.9066 344.179 27.92 344.299 27.93C344.429 27.9408 344.597 27.9466 344.807 27.9466H356.228C356.687 27.9466 356.974 27.9183 357.118 27.8761L357.121 27.8753C357.189 27.8562 357.289 27.7864 357.376 27.5387L357.442 27.3516H358.214L357.178 29.9883H356.444L356.556 29.6259C356.574 29.568 356.59 29.4373 356.59 29.2066C356.59 29.1743 356.587 29.1517 356.584 29.1368C356.583 29.1319 356.582 29.1281 356.581 29.1251L356.576 29.1238L356.567 29.1206C356.48 29.0901 356.321 29.0666 356.065 29.0666H351.853V43.4985C351.853 43.825 351.869 44.0955 351.898 44.3126C351.925 44.5112 351.974 44.6525 352.032 44.7493C352.079 44.8204 352.147 44.8751 352.251 44.911C352.376 44.9455 352.595 44.9685 352.927 44.9685H353.207V45.6919H347.992V44.9951L348.244 44.9699C348.629 44.9314 348.875 44.8797 349.006 44.826L349.01 44.8244C349.111 44.7848 349.179 44.718 349.222 44.6036C349.274 44.4576 349.31 44.1812 349.31 43.7435V29.0666H345.285C345.076 29.0666 344.906 29.0723 344.774 29.0832C344.649 29.0934 344.573 29.1073 344.532 29.1191C344.526 29.1326 344.515 29.1686 344.515 29.2416C344.515 29.2838 344.535 29.4044 344.598 29.6338L344.696 29.9883H343.974L342.938 27.3516ZM351.619 45.1319C351.598 45.1061 351.578 45.0791 351.56 45.0506L351.558 45.0476L351.556 45.0445C351.444 44.8615 351.377 44.6383 351.343 44.3884L351.343 44.3872C351.309 44.1377 351.293 43.8406 351.293 43.4985V28.5066H349.87V43.7435C349.87 44.1908 349.836 44.5517 349.749 44.795L349.747 44.7985C349.699 44.9277 349.629 45.0397 349.54 45.1319H351.619ZM343.97 28.4482C344.054 28.4673 344.15 28.4796 344.253 28.4881C344.403 28.5007 344.589 28.5066 344.807 28.5066H345.285C345.067 28.5066 344.881 28.5125 344.728 28.525C344.581 28.5372 344.448 28.5567 344.345 28.591L344.34 28.5925C344.241 28.6277 344.158 28.6875 344.096 28.7665L343.97 28.4482ZM357.186 28.4363C356.958 28.4864 356.632 28.5066 356.228 28.5066H356.065C356.334 28.5066 356.568 28.529 356.745 28.5896C356.865 28.6253 356.969 28.6967 357.042 28.8039L357.186 28.4363Z" fill="white"/>
<path d="M340.632 28.2266V28.4016C340.367 28.3782 340.084 28.4249 339.78 28.5416C339.485 28.6505 339.337 28.9071 339.337 29.3116C339.321 29.4049 339.314 29.6966 339.314 30.1866V43.3818C339.314 43.9263 339.333 44.3191 339.372 44.5602C339.411 44.7935 339.524 44.9685 339.71 45.0852C339.905 45.2018 340.212 45.2563 340.632 45.2485V45.4118H336.047V45.2485C336.459 45.233 336.751 45.1785 336.922 45.0852C337.101 44.9841 337.214 44.8207 337.26 44.5952C337.307 44.3696 337.33 43.9729 337.33 43.4051V30.3383C337.33 29.8171 337.311 29.4282 337.272 29.1716C337.233 28.9149 337.12 28.7166 336.934 28.5766C336.747 28.4366 336.451 28.3782 336.047 28.4016V28.2266H340.632Z" fill="white"/>
<path fill-rule="evenodd" clip-rule="evenodd" d="M335.766 27.9414H340.911V28.7022L340.606 28.6753C340.393 28.6565 340.152 28.693 339.879 28.7978L339.876 28.7992C339.785 28.8325 339.728 28.8826 339.689 28.9503C339.647 29.0234 339.616 29.1361 339.616 29.3064V29.3296L339.612 29.3525C339.608 29.3766 339.602 29.4531 339.598 29.6026C339.594 29.7449 339.592 29.9375 339.592 30.1814V43.3767C339.592 43.9191 339.612 44.2923 339.647 44.5097C339.674 44.6691 339.743 44.7707 339.855 44.8412C339.981 44.9157 340.222 44.9709 340.625 44.9634L340.911 44.9581V45.6867H335.766V44.9737L336.035 44.9636C336.44 44.9483 336.674 44.8948 336.785 44.8352C336.883 44.7789 336.952 44.6895 336.985 44.5333C337.025 44.3389 337.049 43.9684 337.049 43.4V30.3331C337.049 29.815 337.029 29.4434 336.994 29.2084C336.965 29.0154 336.885 28.8862 336.764 28.7954C336.657 28.7153 336.444 28.6539 336.062 28.676L335.766 28.693V27.9414ZM339.33 28.5014H337.268C337.419 28.6719 337.511 28.8832 337.547 29.1245C337.59 29.4028 337.609 29.809 337.609 30.3331V43.4C337.609 43.9672 337.586 44.39 337.533 44.6468C337.495 44.8322 337.419 44.9951 337.303 45.1267H339.335C339.208 44.9825 339.128 44.8046 339.094 44.6011L339.094 44.5996C339.051 44.3346 339.032 43.9225 339.032 43.3767V30.1814C339.032 29.9354 339.034 29.7371 339.038 29.5877C339.042 29.4616 339.047 29.3561 339.056 29.2856C339.058 29.0594 339.101 28.849 339.204 28.6709C339.24 28.6082 339.282 28.5517 339.33 28.5014Z" fill="white"/>
<path d="M321.58 28.4016V28.2266H326.48C327.429 28.2266 328.323 28.3005 329.163 28.4482C330.003 28.596 330.777 28.9927 331.485 29.6383C332.193 30.276 332.547 31.2483 332.547 32.555C332.547 33.3405 332.403 34.0094 332.115 34.5617C331.835 35.1139 331.438 35.565 330.925 35.915C330.412 36.265 329.817 36.5178 329.14 36.6734C328.463 36.8289 327.736 36.8989 326.958 36.8834V36.72C327.627 36.72 328.242 36.58 328.802 36.3C329.369 36.0122 329.817 35.5922 330.143 35.04C330.47 34.48 330.633 33.8267 330.633 33.08C330.633 32.2866 330.478 31.5633 330.167 30.9099C329.863 30.2488 329.424 29.7394 328.848 29.3816C328.242 29.0005 327.293 28.8099 326.002 28.8099H324.777V43.5218C324.777 43.8796 324.788 44.1713 324.812 44.3968C324.843 44.6146 324.901 44.7857 324.987 44.9102C325.08 45.0346 325.205 45.1202 325.36 45.1668C325.516 45.2057 325.768 45.233 326.118 45.2485V45.4118H321.58V45.2485C321.953 45.233 322.249 45.1552 322.467 45.0152C322.685 44.8752 322.793 44.5835 322.793 44.1402V29.9066C322.793 29.5255 322.774 29.2377 322.735 29.0432C322.696 28.8488 322.587 28.6932 322.408 28.5766C322.237 28.4599 321.961 28.4016 321.58 28.4016Z" fill="white"/>
<path fill-rule="evenodd" clip-rule="evenodd" d="M321.301 27.9414H326.481C327.444 27.9414 328.355 28.0164 329.213 28.1673C330.111 28.3254 330.932 28.7492 331.674 29.4257C332.46 30.1341 332.827 31.1948 332.827 32.5498C332.827 33.3683 332.678 34.0835 332.365 34.6845C332.063 35.2784 331.635 35.765 331.083 36.1412C330.538 36.513 329.91 36.7787 329.203 36.9411C328.502 37.1024 327.752 37.1741 326.953 37.1582L326.679 37.1527V36.4349H326.959C327.587 36.4349 328.158 36.3038 328.677 36.0448C329.196 35.7815 329.603 35.3992 329.903 34.8931C330.2 34.3822 330.354 33.7792 330.354 33.0748C330.354 32.3191 330.206 31.6374 329.915 31.0252L329.913 31.0216C329.631 30.4065 329.227 29.9409 328.701 29.6142L328.7 29.6135C328.161 29.275 327.277 29.0848 326.002 29.0848H325.057V43.5167C325.057 43.8666 325.069 44.1458 325.09 44.3574C325.118 44.5436 325.164 44.6656 325.215 44.7417C325.269 44.8121 325.339 44.8618 325.435 44.8916C325.563 44.9225 325.789 44.9484 326.132 44.9636L326.399 44.9755V45.6867H321.301V44.9748L321.569 44.9636C321.913 44.9493 322.155 44.8783 322.316 44.7745C322.41 44.7144 322.514 44.5513 322.514 44.135V29.9014C322.514 29.5252 322.495 29.2597 322.461 29.093C322.438 28.9784 322.377 28.885 322.256 28.806L322.254 28.8044L322.251 28.8028C322.152 28.7348 321.946 28.6764 321.581 28.6764H321.301V27.9414ZM324.807 45.1267C324.792 45.1094 324.777 45.0915 324.763 45.073L324.76 45.0684L324.757 45.0637C324.638 44.8912 324.57 44.6737 324.535 44.4313L324.534 44.4259L324.534 44.4205C324.509 44.1815 324.497 43.8793 324.497 43.5167V28.5247H326.002C327.309 28.5247 328.323 28.7155 328.997 29.139C329.622 29.5276 330.097 30.0801 330.421 30.7862C330.751 31.4802 330.914 32.2446 330.914 33.0748C330.914 33.8635 330.741 34.567 330.386 35.1759L330.385 35.1774C330.1 35.6597 329.728 36.0505 329.271 36.3475C329.837 36.1973 330.335 35.9735 330.768 35.6785C331.242 35.355 331.607 34.9399 331.866 34.4299L331.867 34.4271C332.13 33.9239 332.267 33.3018 332.267 32.5498C332.267 31.2918 331.928 30.4083 331.298 29.8411L331.297 29.84C330.624 29.2257 329.897 28.8563 329.116 28.7189C328.293 28.5742 327.415 28.5014 326.481 28.5014H322.761C322.887 28.634 322.973 28.7953 323.01 28.9832C323.055 29.2054 323.074 29.5154 323.074 29.9014V44.135C323.074 44.5309 322.994 44.8914 322.765 45.1267H324.807Z" fill="white"/>
<path d="M312.249 37.5045H307.232L304.631 44.0029C304.553 44.1974 304.514 44.3024 304.514 44.3179C304.413 44.5202 304.362 44.7029 304.362 44.8663C304.362 45.1229 304.553 45.2513 304.934 45.2513V45.4146H302.379V45.2513C302.838 45.2435 303.172 45.1152 303.382 44.8663C303.592 44.6174 303.802 44.2285 304.012 43.6996L310.242 27.9727H310.534L316.671 43.1629C316.671 43.2251 316.694 43.2912 316.741 43.3612L316.834 43.6179C317.028 44.1001 317.25 44.4929 317.499 44.7963C317.755 45.0996 318.117 45.2513 318.584 45.2513V45.4146H314.571V45.2513C314.796 45.2513 314.944 45.2007 315.014 45.0996C315.084 44.9985 315.119 44.9052 315.119 44.8196C315.119 44.6018 315.029 44.2907 314.851 43.8863C314.835 43.8551 314.816 43.8085 314.792 43.7463C314.769 43.6763 314.749 43.6335 314.734 43.6179L312.249 37.5045ZM307.396 37.0261H312.039L309.717 31.1694L307.396 37.0261Z" fill="white"/>
<path fill-rule="evenodd" clip-rule="evenodd" d="M310.055 27.6875H310.725L316.953 43.1033V43.1556C316.954 43.1591 316.958 43.1736 316.976 43.2008L316.995 43.2288L317.098 43.5125C317.284 43.9733 317.492 44.3373 317.717 44.6118C317.91 44.8401 318.187 44.9661 318.586 44.9661H318.866V45.6895H314.293V44.9661H314.573C314.668 44.9661 314.728 44.9552 314.763 44.9433C314.778 44.9381 314.786 44.9337 314.789 44.9315C314.838 44.8599 314.841 44.823 314.841 44.8145C314.841 44.6591 314.774 44.3948 314.599 43.9997C314.578 43.9562 314.556 43.901 314.533 43.8394L314.531 43.8346L314.529 43.8296C314.526 43.8207 314.523 43.8127 314.521 43.8056C314.519 43.8011 314.518 43.7969 314.516 43.793C314.515 43.7903 314.514 43.7879 314.513 43.7857L314.498 43.7707L312.063 37.7793H307.424L304.893 44.1018C304.893 44.1018 304.893 44.1017 304.893 44.1018C304.855 44.1983 304.826 44.2705 304.808 44.3196C304.803 44.3327 304.8 44.3434 304.797 44.352V44.3789L304.767 44.438C304.678 44.6154 304.645 44.7547 304.645 44.8611C304.645 44.8905 304.65 44.9027 304.652 44.9054C304.652 44.9069 304.654 44.911 304.664 44.9176C304.692 44.9363 304.769 44.9661 304.937 44.9661H305.217V45.6895H302.102V44.9708L302.377 44.9662C302.789 44.9592 303.032 44.8456 303.171 44.6806C303.352 44.4658 303.549 44.1096 303.755 43.5911L310.055 27.6875ZM310.392 28.3568L304.275 43.7976C304.061 44.3369 303.838 44.7587 303.599 45.0417C303.573 45.0726 303.546 45.1018 303.517 45.1295H304.138C304.102 45.047 304.085 44.956 304.085 44.8611C304.085 44.6505 304.147 44.4342 304.252 44.2172C304.254 44.2104 304.256 44.2041 304.257 44.1984C304.264 44.1777 304.273 44.1527 304.283 44.1251C304.304 44.0692 304.334 43.9917 304.373 43.8938L307.013 37.301H306.986L309.72 30.4044L312.421 37.2193H312.44L314.983 43.4762C315 43.5025 315.011 43.5263 315.018 43.5407C315.032 43.573 315.046 43.6095 315.059 43.6473C315.08 43.7043 315.095 43.7386 315.104 43.7559L315.107 43.7618L315.109 43.7678C315.291 44.1787 315.401 44.535 315.401 44.8145C315.401 44.9268 315.37 45.0325 315.321 45.1295H317.441C317.387 45.0815 317.336 45.029 317.288 44.972L317.285 44.9688C317.013 44.6376 316.779 44.218 316.577 43.7175L316.575 43.713L316.49 43.4803C316.444 43.4036 316.408 43.3167 316.397 43.2216L310.392 28.3568ZM307.81 36.741H311.629L309.72 31.924L307.81 36.741Z" fill="white"/>
<path d="M297.645 29.0927L298.286 30.9127H298.123C297.773 30.5627 297.337 30.2049 296.816 29.8394C296.303 29.4738 295.65 29.1471 294.856 28.8593C294.063 28.5716 293.192 28.4277 292.243 28.4277C290.578 28.4277 289.151 28.7777 287.961 29.4777C286.779 30.1699 285.888 31.0605 285.29 32.1494C284.698 33.2383 284.403 34.3778 284.403 35.5678C284.403 36.4156 284.566 37.3956 284.893 38.5078C285.22 39.6201 285.737 40.6856 286.445 41.7046C287.152 42.7235 288.09 43.5674 289.256 44.2363C290.431 44.8974 291.823 45.2279 293.433 45.2279C294.732 45.2279 296 45.0179 297.236 44.5979C298.481 44.1779 299.402 43.6218 300.001 42.9296L300.153 42.9762L298.951 44.8196C297.201 45.2007 296.019 45.438 295.405 45.5313C294.79 45.6324 293.935 45.683 292.838 45.683C291.71 45.683 290.703 45.6052 289.816 45.4496C288.93 45.2941 288.175 45.0841 287.553 44.8196C286.931 44.5474 286.382 44.2363 285.908 43.8863C284.959 43.1862 284.201 42.2412 283.633 41.0512C283.065 39.8612 282.781 38.5739 282.781 37.1895C282.781 36.0695 282.987 34.9611 283.4 33.8644C283.82 32.7677 284.442 31.7761 285.266 30.8894C286.098 30.0027 287.137 29.2949 288.381 28.766C289.626 28.2371 291.022 27.9727 292.57 27.9727C293.557 27.9727 294.421 28.066 295.16 28.2527C295.906 28.4393 296.668 28.696 297.446 29.0227C297.462 29.0227 297.493 29.0305 297.54 29.046C297.594 29.0616 297.629 29.0771 297.645 29.0927Z" fill="white"/>
<path fill-rule="evenodd" clip-rule="evenodd" d="M294.045 28.3292C294.357 28.3975 294.66 28.4847 294.952 28.591C295.762 28.8845 296.439 29.2215 296.978 29.6055C297.252 29.7972 297.503 29.9877 297.732 30.1771L297.422 29.2975H297.39L297.338 29.2757C296.573 28.954 295.824 28.7021 295.092 28.5192L295.092 28.519C294.769 28.4376 294.421 28.3742 294.045 28.3292ZM286.744 29.9773C286.275 30.3056 285.851 30.6717 285.472 31.0754C284.671 31.9363 284.069 32.897 283.662 33.9586C283.261 35.025 283.062 36.0998 283.062 37.1843C283.062 38.5292 283.337 39.775 283.886 40.9255C284.437 42.079 285.167 42.9862 286.075 43.6558C286.53 43.9915 287.059 44.2924 287.665 44.5574C288.262 44.811 288.994 45.0158 289.865 45.1687C290.435 45.2686 291.058 45.3362 291.735 45.3707C290.776 45.2137 289.903 44.9162 289.12 44.4751L289.118 44.474C287.918 43.7862 286.949 42.915 286.215 41.8591C285.492 40.8173 284.961 39.7246 284.625 38.5816C284.293 37.4524 284.124 36.4449 284.124 35.5626C284.124 34.324 284.432 33.1388 285.044 32.0107L285.045 32.0093C285.472 31.2336 286.039 30.5564 286.744 29.9773ZM297.192 44.903C297.652 44.8079 298.181 44.6954 298.78 44.5653L299.135 44.0203C298.625 44.3456 298.02 44.6239 297.326 44.8581C297.282 44.8733 297.237 44.8883 297.192 44.903ZM288.272 28.5032C289.556 27.9576 290.99 27.6875 292.57 27.6875C293.575 27.6875 294.462 27.7823 295.228 27.9759C295.979 28.1637 296.744 28.4204 297.522 28.7454C297.533 28.7477 297.543 28.75 297.55 28.7517C297.573 28.7576 297.598 28.7651 297.623 28.7734C297.656 28.7829 297.689 28.7942 297.721 28.8083C297.75 28.8213 297.799 28.8458 297.843 28.8895L297.888 28.9345L298.682 31.1876H298.008L297.926 31.1055C297.59 30.7697 297.167 30.4222 296.656 30.0634L296.654 30.0623C296.167 29.7154 295.538 29.3993 294.761 29.1174C294.002 28.842 293.164 28.7025 292.244 28.7025C290.619 28.7025 289.243 29.0439 288.104 29.7139L288.103 29.7142C286.96 30.3834 286.108 31.2386 285.536 32.2785C284.966 33.3279 284.684 34.4215 284.684 35.5626C284.684 36.376 284.841 37.3285 285.162 38.4238C285.48 39.5052 285.983 40.5437 286.675 41.5397C287.357 42.5214 288.262 43.3377 289.395 43.9876C290.52 44.6206 291.863 44.9428 293.434 44.9428C294.702 44.9428 295.939 44.7379 297.147 44.3277L297.147 44.3275C298.364 43.9169 299.235 43.3827 299.79 42.7412L299.91 42.6031L300.591 42.8127L299.124 45.0636L299.011 45.088C297.264 45.4685 296.074 45.7076 295.449 45.8027C294.813 45.9073 293.94 45.9578 292.839 45.9578C291.698 45.9578 290.675 45.8792 289.769 45.7203C288.867 45.5621 288.091 45.3472 287.444 45.0721L287.441 45.071C286.803 44.7916 286.236 44.4705 285.742 44.1064C284.752 43.376 283.966 42.3932 283.381 41.1666C282.794 39.9371 282.502 38.6084 282.502 37.1843C282.502 36.0291 282.715 34.8875 283.138 33.7607L283.139 33.7591C283.572 32.6279 284.214 31.6057 285.062 30.6936L285.063 30.6926C285.924 29.7745 286.996 29.0456 288.272 28.5032Z" fill="white"/>
<path d="M258.484 45.4118V45.2485C259.036 45.2485 259.386 45.1474 259.534 44.9452C259.69 44.7429 259.768 44.3968 259.768 43.9068V29.8366C259.768 29.2221 259.678 28.8332 259.499 28.6699C259.328 28.5066 258.982 28.4171 258.461 28.4016V28.2266H263.069V28.4016C262.657 28.3938 262.354 28.4521 262.159 28.5766C261.965 28.6932 261.848 28.8527 261.809 29.0549C261.77 29.2571 261.751 29.5566 261.751 29.9533V42.0168C261.751 42.5535 261.813 43.0007 261.938 43.3585C262.062 43.7085 262.253 43.9924 262.509 44.2102C262.774 44.4279 263.116 44.5874 263.536 44.6885C263.964 44.7896 264.469 44.8402 265.053 44.8402H267.153C267.915 44.8402 268.51 44.7079 268.938 44.4435C269.365 44.179 269.665 43.794 269.836 43.2885C270.015 42.7751 270.124 42.1062 270.163 41.2818H270.326V45.4118H258.484Z" fill="white"/>
<path fill-rule="evenodd" clip-rule="evenodd" d="M258.178 27.9414H263.346V28.6818L263.061 28.6764C262.666 28.6689 262.431 28.728 262.307 28.8073L262.304 28.8094L262.3 28.8115C262.166 28.8919 262.103 28.987 262.081 29.1026C262.047 29.2781 262.028 29.5561 262.028 29.9481V42.0116C262.028 42.5285 262.088 42.9419 262.199 43.2604C262.308 43.5677 262.471 43.8079 262.686 43.9901C262.91 44.1741 263.21 44.3175 263.598 44.411C263.999 44.5057 264.481 44.555 265.049 44.555H267.149C267.884 44.555 268.421 44.4266 268.787 44.2002C269.156 43.9722 269.416 43.6415 269.567 43.1936L269.568 43.1912C269.735 42.7128 269.841 42.0734 269.88 41.2634L269.892 40.9966H270.603V45.6867H258.201V44.9634H258.481C258.743 44.9634 258.94 44.9391 259.08 44.8985C259.222 44.8576 259.281 44.8076 259.305 44.7748L259.307 44.772L259.309 44.7693C259.405 44.6441 259.484 44.3786 259.484 43.9017V29.8314C259.484 29.5353 259.463 29.3077 259.424 29.1417C259.385 28.9701 259.335 28.8972 259.307 28.8715L259.305 28.8694L259.303 28.8673C259.265 28.8313 259.187 28.7847 259.038 28.7463C258.892 28.7085 258.698 28.6837 258.449 28.6763L258.178 28.6682V27.9414ZM259.728 28.5014C259.852 28.6366 259.925 28.8207 259.97 29.0162C260.021 29.2391 260.044 29.5131 260.044 29.8314V43.9017C260.044 44.4032 259.968 44.8288 259.755 45.1081C259.75 45.1144 259.746 45.1206 259.741 45.1267H270.043V43.5225C269.845 44.0144 269.524 44.4028 269.082 44.6765C268.592 44.979 267.939 45.115 267.149 45.115H265.049C264.451 45.115 263.923 45.0633 263.468 44.9559L263.467 44.9556C263.016 44.8471 262.633 44.672 262.328 44.4212L262.325 44.4185C262.027 44.1656 261.81 43.8387 261.671 43.4471L261.67 43.4453C261.532 43.0484 261.468 42.5677 261.468 42.0116V29.9481C261.468 29.5468 261.487 29.2259 261.531 28.9969C261.569 28.8013 261.659 28.6356 261.793 28.5014H259.728Z" fill="white"/>
<path d="M249.815 37.5045H244.799L242.197 44.0029C242.119 44.1974 242.08 44.3024 242.08 44.3179C241.979 44.5202 241.929 44.7029 241.929 44.8663C241.929 45.1229 242.119 45.2513 242.5 45.2513V45.4146H239.945V45.2513C240.404 45.2435 240.739 45.1152 240.949 44.8663C241.159 44.6174 241.369 44.2285 241.579 43.6996L247.809 27.9727H248.1L254.237 43.1629C254.237 43.2251 254.26 43.2912 254.307 43.3612L254.4 43.6179C254.595 44.1001 254.816 44.4929 255.065 44.7963C255.322 45.0996 255.684 45.2513 256.15 45.2513V45.4146H252.137V45.2513C252.362 45.2513 252.51 45.2007 252.58 45.0996C252.65 44.9985 252.685 44.9052 252.685 44.8196C252.685 44.6018 252.596 44.2907 252.417 43.8863C252.401 43.8551 252.382 43.8085 252.359 43.7463C252.335 43.6763 252.316 43.6335 252.3 43.6179L249.815 37.5045ZM244.962 37.0261H249.605L247.284 31.1694L244.962 37.0261Z" fill="white"/>
<path fill-rule="evenodd" clip-rule="evenodd" d="M247.617 27.6875H248.288L254.516 43.1033V43.1556C254.516 43.1591 254.521 43.1736 254.539 43.2008L254.557 43.2288L254.66 43.5125C254.847 43.9733 255.054 44.3373 255.279 44.6118C255.473 44.8401 255.75 44.9661 256.149 44.9661H256.429V45.6895H251.856V44.9661H252.136C252.23 44.9661 252.29 44.9552 252.325 44.9433C252.34 44.9381 252.348 44.9337 252.351 44.9315C252.4 44.8599 252.404 44.823 252.404 44.8145C252.404 44.6591 252.336 44.3948 252.162 43.9997C252.141 43.9562 252.118 43.901 252.095 43.8394L252.093 43.8346L252.092 43.8296C252.089 43.8207 252.086 43.8127 252.083 43.8056C252.082 43.8011 252.08 43.7969 252.079 43.793C252.078 43.7903 252.077 43.7879 252.076 43.7857L252.061 43.7707L249.626 37.7793H244.987L242.456 44.1018C242.456 44.1018 242.456 44.1017 242.456 44.1018C242.417 44.1983 242.389 44.2705 242.371 44.3196C242.366 44.3327 242.362 44.3434 242.359 44.352V44.3789L242.329 44.438C242.241 44.6154 242.207 44.7547 242.207 44.8611C242.207 44.8905 242.213 44.9027 242.214 44.9054C242.215 44.9069 242.217 44.911 242.227 44.9176C242.254 44.9363 242.331 44.9661 242.499 44.9661H242.779V45.6895H239.664V44.9708L239.939 44.9662C240.352 44.9592 240.594 44.8456 240.733 44.6806C240.915 44.4658 241.111 44.1096 241.317 43.5911L247.617 27.6875ZM247.954 28.3568L241.838 43.7976C241.624 44.3369 241.4 44.7587 241.161 45.0417C241.135 45.0726 241.108 45.1018 241.08 45.1295H241.701C241.665 45.047 241.647 44.956 241.647 44.8611C241.647 44.6505 241.709 44.4342 241.814 44.2172C241.816 44.2104 241.818 44.2041 241.82 44.1984C241.827 44.1777 241.835 44.1527 241.846 44.1251C241.866 44.0692 241.897 43.9917 241.936 43.8938L244.575 37.301H244.549L247.282 30.4044L249.984 37.2193H250.002L252.546 43.4762C252.563 43.5025 252.574 43.5263 252.58 43.5407C252.595 43.573 252.608 43.6095 252.621 43.6473C252.643 43.7043 252.657 43.7386 252.666 43.7559L252.669 43.7618L252.672 43.7678C252.853 44.1787 252.964 44.535 252.964 44.8145C252.964 44.9268 252.932 45.0325 252.884 45.1295H255.004C254.95 45.0815 254.899 45.029 254.85 44.972L254.847 44.9688C254.576 44.6376 254.341 44.218 254.139 43.7175L254.137 43.713L254.053 43.4803C254.006 43.4036 253.971 43.3167 253.959 43.2216L247.954 28.3568ZM245.373 36.741H249.192L247.282 31.924L245.373 36.741Z" fill="white"/>
<path d="M224.973 28.4016V28.2266H229.441C230.444 28.2266 231.218 28.2577 231.763 28.3199C232.307 28.3821 232.793 28.5105 233.221 28.7049C233.952 29.0471 234.528 29.5333 234.948 30.1633C235.367 30.7855 235.577 31.505 235.577 32.3216C235.577 33.7839 234.862 34.9311 233.431 35.7634C234.465 35.95 235.262 36.3156 235.822 36.86C236.725 37.7156 237.176 38.8473 237.176 40.2551C237.176 41.3051 236.95 42.219 236.499 42.9968C236.048 43.7668 235.519 44.3502 234.913 44.7468C234.656 44.9102 234.395 45.0346 234.131 45.1202C233.874 45.2057 233.594 45.2718 233.291 45.3185C232.995 45.3574 232.727 45.3846 232.486 45.4002C232.245 45.408 231.945 45.4118 231.588 45.4118H224.949V45.2485C225.354 45.2485 225.641 45.1902 225.813 45.0735C225.984 44.9568 226.089 44.7779 226.128 44.5368C226.166 44.2879 226.186 43.8718 226.186 43.2885V30.3383C226.186 29.7471 226.166 29.3349 226.128 29.1016C226.096 28.8682 225.995 28.6971 225.824 28.5882C225.653 28.4716 225.369 28.4093 224.973 28.4016ZM228.169 28.5882V36.1367H230.258C231.673 36.1367 232.61 35.7361 233.069 34.935C233.536 34.1261 233.769 33.3172 233.769 32.5083C233.769 30.8361 233.093 29.6888 231.739 29.0666C231.031 28.7477 229.993 28.5882 228.624 28.5882H228.169ZM229.511 36.4984H228.169V41.9468C228.169 42.4912 228.189 42.919 228.228 43.2301C228.274 43.5413 228.406 43.8329 228.624 44.1052C228.842 44.3774 229.188 44.5874 229.663 44.7352C230.145 44.8829 230.802 44.9568 231.634 44.9568C232.614 44.9568 233.373 44.7974 233.909 44.4785C234.835 43.9263 235.297 42.8607 235.297 41.2818C235.297 40.4807 235.189 39.7573 234.971 39.1117C234.753 38.4662 234.438 37.9256 234.026 37.49C233.621 37.0545 233.128 36.7784 232.544 36.6617C231.992 36.5528 230.981 36.4984 229.511 36.4984Z" fill="white"/>
<path fill-rule="evenodd" clip-rule="evenodd" d="M224.687 27.9414H229.436C230.442 27.9414 231.229 27.9725 231.789 28.0366C232.358 28.1016 232.873 28.2365 233.332 28.4448L233.334 28.4461C234.108 28.8084 234.725 29.327 235.175 30.002C235.629 30.6745 235.852 31.4494 235.852 32.3165C235.852 33.6833 235.265 34.7914 234.129 35.6319C234.898 35.8483 235.53 36.1853 236.011 36.6529C236.976 37.5684 237.451 38.7771 237.451 40.2499C237.451 41.3409 237.216 42.305 236.736 43.1321L236.736 43.1332C236.268 43.9321 235.711 44.5508 235.061 44.976L235.058 44.9779C234.783 45.1526 234.502 45.2876 234.213 45.3811C233.94 45.472 233.645 45.5414 233.328 45.5901L233.325 45.5906L233.322 45.591C233.022 45.6305 232.747 45.6584 232.499 45.6745L232.494 45.6747L232.49 45.6749C232.245 45.6828 231.942 45.6867 231.582 45.6867H224.664V44.9634H224.944C225.337 44.9634 225.552 44.9037 225.65 44.837C225.746 44.7715 225.817 44.6673 225.846 44.4878C225.881 44.2622 225.901 43.8654 225.901 43.2833V30.3331C225.901 29.7413 225.881 29.3503 225.846 29.1425L225.845 29.138L225.845 29.1334C225.823 28.9674 225.759 28.8765 225.669 28.8193L225.665 28.8169L225.661 28.8144C225.56 28.7456 225.346 28.6839 224.962 28.6764L224.687 28.671V27.9414ZM226.154 28.5014C226.29 28.6504 226.37 28.8399 226.399 29.0548C226.442 29.3141 226.461 29.746 226.461 30.3331V43.2833C226.461 43.8673 226.442 44.3026 226.399 44.5749L226.399 44.5763C226.365 44.7879 226.286 44.9756 226.158 45.1267H230.136C229.932 45.0925 229.745 45.0496 229.575 44.9977L229.574 44.9974C229.068 44.8397 228.665 44.6057 228.4 44.2749C228.155 43.9684 228 43.6316 227.945 43.2665L227.945 43.2631L227.945 43.2597C227.904 42.9317 227.884 42.4906 227.884 41.9416V28.5014H226.154ZM231.044 28.538C231.343 28.6101 231.612 28.6992 231.849 28.8061L231.851 28.807C232.573 29.139 233.127 29.6178 233.498 30.2463C233.867 30.8727 234.044 31.6296 234.044 32.5031C234.044 33.3682 233.794 34.2248 233.307 35.0695C232.954 35.685 232.367 36.0742 231.587 36.2667C232.006 36.2941 232.342 36.3323 232.593 36.3818L232.594 36.382C233.234 36.5101 233.781 36.8152 234.225 37.2934C234.668 37.762 235.002 38.3388 235.231 39.0171C235.46 39.6961 235.572 40.4503 235.572 41.2766C235.572 42.9041 235.093 44.0898 234.047 44.7138L234.047 44.7141C233.831 44.8425 233.586 44.9457 233.315 45.0252C233.577 44.9815 233.817 44.9227 234.037 44.8494L234.039 44.8486C234.279 44.7712 234.518 44.6577 234.756 44.5064C235.318 44.1383 235.818 43.5909 236.252 42.8506C236.674 42.1223 236.891 41.2587 236.891 40.2499C236.891 38.9078 236.464 37.8535 235.625 37.0581L235.622 37.0557C235.114 36.5614 234.374 36.2139 233.376 36.0338L232.627 35.8986L233.285 35.5162C234.644 34.7261 235.292 33.6641 235.292 32.3165C235.292 31.5505 235.096 30.8866 234.71 30.3148L234.709 30.3134C234.32 29.7292 233.786 29.276 233.098 28.954C232.702 28.7738 232.245 28.6523 231.726 28.5929C231.53 28.5706 231.303 28.5523 231.044 28.538ZM228.444 28.8631V35.8515H230.252C231.625 35.8515 232.435 35.4641 232.821 34.7907L232.821 34.7899C233.267 34.0169 233.484 33.2558 233.484 32.5031C233.484 31.7044 233.323 31.0516 233.015 30.5308C232.71 30.0123 232.249 29.6065 231.618 29.3163C230.964 29.022 229.973 28.8631 228.619 28.8631H228.444ZM228.444 36.7732V41.9416C228.444 42.4794 228.463 42.8928 228.5 43.1867C228.539 43.4427 228.648 43.6882 228.838 43.9251C229.009 44.1387 229.298 44.3246 229.74 44.4625C230.184 44.5984 230.809 44.6717 231.629 44.6717C232.585 44.6717 233.285 44.5152 233.761 44.2328C234.566 43.7522 235.012 42.8068 235.012 41.2766C235.012 40.5007 234.907 39.8083 234.7 39.1961C234.494 38.5837 234.198 38.0797 233.817 37.6774L233.815 37.6754C233.451 37.2831 233.01 37.0364 232.485 36.9312C231.963 36.8283 230.977 36.7732 229.506 36.7732H228.444Z" fill="white"/>
<path d="M221.272 35.6611C221.272 36.9756 221.058 38.2395 220.63 39.4528C220.202 40.6662 219.565 41.7434 218.717 42.6846C217.877 43.6257 216.846 44.3607 215.625 44.8896C214.404 45.4185 213.047 45.683 211.554 45.683C210.348 45.683 209.244 45.4768 208.24 45.0646C207.245 44.6446 206.381 44.0613 205.65 43.3146C204.927 42.5601 204.375 41.7084 203.994 40.7595C203.62 39.8029 203.434 38.7995 203.434 37.7495C203.434 36.645 203.636 35.5172 204.04 34.3661C204.445 33.2072 205.047 32.1494 205.849 31.1927C206.65 30.2282 207.661 29.4505 208.882 28.8593C210.103 28.2682 211.495 27.9727 213.059 27.9727C214.295 27.9727 215.415 28.171 216.419 28.5677C217.43 28.9566 218.301 29.5088 219.032 30.2244C219.763 30.9322 220.319 31.7527 220.7 32.6861C221.081 33.6116 221.272 34.6033 221.272 35.6611ZM220.199 37.7728C220.199 36.435 219.919 35.2139 219.359 34.1094C218.799 33.005 218.071 32.0677 217.177 31.2977C216.29 30.5199 215.334 29.9249 214.307 29.5127C213.28 29.0927 212.331 28.8827 211.46 28.8827C210.387 28.8827 209.329 29.1666 208.287 29.7344C207.245 30.2944 206.393 31.0916 205.732 32.1261C205.071 33.1527 204.74 34.3078 204.74 35.5911C204.74 37.17 205.125 38.6673 205.895 40.0829C206.673 41.4907 207.696 42.6262 208.964 43.4896C210.231 44.3452 211.573 44.7729 212.989 44.7729C213.891 44.7729 214.781 44.5902 215.66 44.2246C216.539 43.859 217.313 43.3651 217.982 42.7429C218.651 42.1129 219.187 41.3662 219.592 40.5029C219.996 39.6317 220.199 38.7217 220.199 37.7728Z" fill="white"/>
<path fill-rule="evenodd" clip-rule="evenodd" d="M209.294 28.9742C210.007 28.7239 210.73 28.5975 211.463 28.5975C212.379 28.5975 213.364 28.8181 214.415 29.248C215.472 29.6726 216.455 30.2846 217.363 31.0812C218.286 31.8761 219.035 32.8426 219.611 33.9776C220.192 35.1245 220.481 36.3895 220.481 37.7677C220.481 38.6063 220.33 39.4163 220.027 40.196C220.153 39.9235 220.267 39.6431 220.369 39.3546C220.786 38.1718 220.994 36.9394 220.994 35.656C220.994 34.6326 220.81 33.6774 220.444 32.7875L220.444 32.7868C220.077 31.8897 219.543 31.1015 218.84 30.4204L218.839 30.4193C218.136 29.732 217.298 29.1999 216.321 28.8239L216.318 28.8229L216.318 28.8229C215.352 28.4409 214.268 28.2475 213.061 28.2475C211.656 28.2475 210.402 28.4916 209.294 28.9742ZM216.451 44.1595C216.231 44.2746 216.004 44.3807 215.77 44.478C214.859 44.8569 213.932 45.0478 212.991 45.0478C211.515 45.0478 210.12 44.6007 208.81 43.7165L208.809 43.7159C207.503 42.8266 206.451 41.6574 205.653 40.2131L205.652 40.2115C204.86 38.7557 204.463 37.2126 204.463 35.586C204.463 34.6394 204.636 33.7563 204.984 32.9395C204.716 33.4227 204.491 33.9273 204.307 34.4532L204.307 34.4538C203.912 35.5782 203.716 36.6746 203.716 37.7443C203.716 38.7599 203.897 39.7282 204.257 40.6513C204.624 41.5653 205.156 42.386 205.854 43.1146C206.558 43.833 207.389 44.3952 208.351 44.801C209.316 45.1975 210.384 45.3978 211.556 45.3978C213.016 45.3978 214.335 45.1394 215.517 44.6275C215.842 44.4865 216.154 44.3305 216.451 44.1595ZM208.763 28.6022C210.027 27.99 211.462 27.6875 213.061 27.6875C214.328 27.6875 215.483 27.8906 216.523 28.3017C217.567 28.7033 218.47 29.2753 219.23 30.0186C219.988 30.7529 220.566 31.6055 220.962 32.5746C221.358 33.5358 221.554 34.5638 221.554 35.656C221.554 37.0014 221.335 38.2969 220.897 39.5408C220.457 40.7883 219.801 41.8976 218.928 42.8665C218.059 43.8393 216.995 44.5974 215.739 45.1414C214.479 45.6873 213.083 45.9578 211.556 45.9578C210.318 45.9578 209.177 45.746 208.136 45.3185L208.134 45.3175L208.134 45.3174C207.105 44.8835 206.211 44.2795 205.453 43.5053L205.451 43.5032L205.451 43.5032C204.703 42.7235 204.131 41.8416 203.736 40.8587L203.735 40.8562L203.735 40.8562C203.349 39.8663 203.156 38.8284 203.156 37.7443C203.156 36.6052 203.365 35.4462 203.779 34.2684C204.194 33.0773 204.814 31.9902 205.636 31.0082C206.465 30.0107 207.509 29.2092 208.763 28.6022ZM211.463 29.1575C210.441 29.1575 209.429 29.4273 208.424 29.9751L208.422 29.9759L208.422 29.9759C207.424 30.5124 206.607 31.2759 205.971 32.2717L205.97 32.2725C205.34 33.2516 205.023 34.3535 205.023 35.586C205.023 37.1169 205.396 38.568 206.143 39.9432C206.901 41.3139 207.894 42.4154 209.123 43.2526C210.349 44.0794 211.636 44.4878 212.991 44.4878C213.855 44.4878 214.709 44.3131 215.555 43.9609C216.405 43.6077 217.15 43.1317 217.793 42.5333C218.435 41.9286 218.951 41.2114 219.341 40.3792C219.728 39.5448 219.921 38.6751 219.921 37.7677C219.921 36.4703 219.65 35.293 219.111 34.2309C218.567 33.1574 217.862 32.2497 216.997 31.5048L216.995 31.5031L216.995 31.5031C216.13 30.7447 215.201 30.1671 214.205 29.7674L214.204 29.7667L214.204 29.7667C213.202 29.3568 212.289 29.1575 211.463 29.1575Z" fill="white"/>
<path d="M188.068 45.4118V45.2485C188.62 45.2485 188.97 45.1474 189.118 44.9452C189.274 44.7429 189.352 44.3968 189.352 43.9068V29.8366C189.352 29.2221 189.262 28.8332 189.083 28.6699C188.912 28.5066 188.566 28.4171 188.045 28.4016V28.2266H192.653V28.4016C192.241 28.3938 191.938 28.4521 191.743 28.5766C191.549 28.6932 191.432 28.8527 191.393 29.0549C191.354 29.2571 191.335 29.5566 191.335 29.9533V42.0168C191.335 42.5535 191.397 43.0007 191.522 43.3585C191.646 43.7085 191.837 43.9924 192.093 44.2102C192.358 44.4279 192.7 44.5874 193.12 44.6885C193.548 44.7896 194.053 44.8402 194.637 44.8402H196.737C197.499 44.8402 198.094 44.7079 198.522 44.4435C198.949 44.179 199.249 43.794 199.42 43.2885C199.599 42.7751 199.708 42.1062 199.747 41.2818H199.91V45.4118H188.068Z" fill="white"/>
<path fill-rule="evenodd" clip-rule="evenodd" d="M187.766 27.9414H192.934V28.6818L192.649 28.6764C192.254 28.6689 192.019 28.728 191.895 28.8073L191.891 28.8094L191.888 28.8115C191.754 28.8919 191.691 28.987 191.669 29.1026C191.635 29.2781 191.616 29.5561 191.616 29.9481V42.0116C191.616 42.5285 191.676 42.9419 191.786 43.2604C191.896 43.5677 192.059 43.8079 192.273 43.9901C192.497 44.1741 192.798 44.3175 193.186 44.411C193.587 44.5057 194.069 44.555 194.637 44.555H196.737C197.472 44.555 198.009 44.4266 198.375 44.2002C198.744 43.9722 199.004 43.6415 199.155 43.1936L199.156 43.1912C199.323 42.7128 199.429 42.0734 199.468 41.2634L199.48 40.9966H200.191V45.6867H187.789V44.9634H188.069C188.331 44.9634 188.528 44.9391 188.668 44.8985C188.809 44.8576 188.869 44.8076 188.893 44.7748L188.895 44.772L188.897 44.7693C188.993 44.6441 189.072 44.3786 189.072 43.9017V29.8314C189.072 29.5353 189.05 29.3077 189.012 29.1417C188.973 28.9701 188.923 28.8972 188.895 28.8715L188.893 28.8694L188.891 28.8673C188.853 28.8313 188.775 28.7847 188.626 28.7463C188.48 28.7085 188.286 28.6837 188.037 28.6763L187.766 28.6682V27.9414ZM189.316 28.5014C189.44 28.6366 189.513 28.8207 189.558 29.0162C189.609 29.2391 189.632 29.5131 189.632 29.8314V43.9017C189.632 44.4032 189.556 44.8288 189.343 45.1081C189.338 45.1144 189.334 45.1206 189.329 45.1267H199.631V43.5225C199.433 44.0144 199.112 44.4028 198.669 44.6765C198.18 44.979 197.527 45.115 196.737 45.115H194.637C194.039 45.115 193.511 45.0633 193.056 44.9559L193.055 44.9556C192.604 44.8471 192.221 44.672 191.916 44.4212L191.913 44.4185C191.615 44.1656 191.398 43.8387 191.258 43.4471L191.258 43.4453C191.12 43.0484 191.056 42.5677 191.056 42.0116V29.9481C191.056 29.5468 191.075 29.2259 191.119 28.9969C191.157 28.8013 191.247 28.6356 191.38 28.5014H189.316Z" fill="white"/>
<path d="M185.475 45.2513V45.4146H178.545C177.923 45.4146 177.343 45.3913 176.807 45.3446C176.278 45.2979 175.667 45.1735 174.975 44.9713C174.283 44.7613 173.61 44.4463 172.957 44.0263C171.603 43.1785 170.522 42.0973 169.713 40.7829C168.912 39.4684 168.512 38.0956 168.512 36.6645C168.512 35.6922 168.726 34.6928 169.153 33.6661C169.589 32.6394 170.227 31.6944 171.067 30.831C171.907 29.9677 172.933 29.2755 174.147 28.7543C175.368 28.2332 176.721 27.9727 178.207 27.9727C179.918 27.9727 181.703 28.346 183.562 29.0927L184.273 31.076H184.11C183.503 30.306 182.671 29.6721 181.613 29.1743C180.563 28.6766 179.42 28.4277 178.183 28.4277C177.017 28.4277 175.955 28.6649 174.998 29.1393C174.042 29.6138 173.241 30.2594 172.595 31.076C171.949 31.8927 171.456 32.83 171.113 33.8878C170.779 34.9378 170.612 36.0228 170.612 37.1428C170.612 38.9551 170.973 40.4056 171.697 41.4945C172.42 42.5757 173.221 43.3651 174.1 43.8629C174.87 44.2985 175.729 44.5902 176.678 44.7379C177.635 44.8857 178.401 44.9596 178.977 44.9596L179.898 44.9363C180.591 44.9207 181.092 44.8857 181.403 44.8313C181.722 44.769 181.94 44.6368 182.057 44.4346C182.181 44.2324 182.243 43.9057 182.243 43.4546V40.8529C182.243 40.3473 182.142 40.009 181.94 39.8379C181.738 39.6667 181.434 39.589 181.03 39.6045V39.4412H185.475V39.6045C184.938 39.6123 184.596 39.7251 184.448 39.9429C184.301 40.1606 184.227 40.5184 184.227 41.0162V43.7229C184.227 44.2674 184.297 44.6602 184.437 44.9013C184.584 45.1346 184.849 45.2513 185.23 45.2513H185.475Z" fill="white"/>
<path fill-rule="evenodd" clip-rule="evenodd" d="M175.773 28.5125C175.243 28.635 174.736 28.7998 174.252 29.0066C173.069 29.5146 172.074 30.1867 171.262 31.0211C170.445 31.8614 169.827 32.7775 169.406 33.7695C168.991 34.7666 168.787 35.7292 168.787 36.6593C168.787 38.0349 169.171 39.3576 169.947 40.6314C170.732 41.9077 171.782 42.9582 173.1 43.7838L173.103 43.7856C173.736 44.1923 174.385 44.4958 175.05 44.6978C175.729 44.8963 176.321 45.0159 176.826 45.0605C176.934 45.0699 177.044 45.0783 177.155 45.0858C176.987 45.063 176.812 45.0375 176.63 45.0095C175.651 44.857 174.759 44.555 173.957 44.1015C173.031 43.5769 172.2 42.7524 171.459 41.6451L171.458 41.6443C170.695 40.4949 170.327 38.9845 170.327 37.1377C170.327 35.9893 170.498 34.8756 170.841 33.7976L170.842 33.7964C171.194 32.7091 171.703 31.7418 172.37 30.8973C173.042 30.0473 173.876 29.3757 174.869 28.8833C175.161 28.7383 175.463 28.6148 175.773 28.5125ZM180.638 28.4955C181.011 28.6085 181.375 28.7486 181.728 28.916C182.472 29.2662 183.113 29.6845 183.648 30.1725L183.336 29.301C182.416 28.9388 181.517 28.6706 180.638 28.4955ZM181.262 45.1295H184.254C184.233 45.1031 184.214 45.0753 184.195 45.0459L184.192 45.0414L184.189 45.0367C184.01 44.7286 183.941 44.2728 183.941 43.7178V41.0111C183.941 40.4997 184.015 40.0704 184.211 39.7805C184.227 39.758 184.243 39.7365 184.26 39.716H182.213C182.441 39.9815 182.518 40.3883 182.518 40.8477V43.4494C182.518 43.9113 182.457 44.3023 182.292 44.5729C182.12 44.8674 181.816 45.0298 181.452 45.1009L181.449 45.1015L181.446 45.1019C181.39 45.1118 181.329 45.1209 181.262 45.1295ZM174.032 28.4917C175.291 27.954 176.683 27.6875 178.202 27.6875C179.954 27.6875 181.774 28.0699 183.661 28.8277L183.778 28.8746L184.666 31.3509H183.969L183.885 31.2442C183.31 30.5143 182.515 29.9054 181.489 29.4225L181.488 29.4222C180.478 28.9433 179.376 28.7025 178.178 28.7025C177.051 28.7025 176.032 28.9315 175.118 29.385C174.197 29.8416 173.429 30.4612 172.81 31.2445C172.186 32.0332 171.707 32.9402 171.375 33.9682C171.049 34.9901 170.887 36.0462 170.887 37.1377C170.887 38.915 171.241 40.3055 171.924 41.3339C172.63 42.3887 173.401 43.1432 174.233 43.6141C174.971 44.0317 175.798 44.3131 176.716 44.4561C177.665 44.6026 178.414 44.6742 178.968 44.6745L179.886 44.6512L179.887 44.6512C180.575 44.6357 181.058 44.6011 181.347 44.5508C181.617 44.4976 181.747 44.3969 181.809 44.2895L181.811 44.2861L181.813 44.2827C181.895 44.149 181.958 43.8879 181.958 43.4494V40.8477C181.958 40.3564 181.855 40.1322 181.754 40.0465C181.627 39.9392 181.406 39.8649 181.036 39.8792L180.745 39.8903V39.156H185.75V39.8753L185.474 39.8793C185.221 39.883 185.033 39.9114 184.898 39.9557C184.764 39.9998 184.703 40.0531 184.675 40.0949C184.576 40.2405 184.501 40.5268 184.501 41.0111V43.7178C184.501 44.2468 184.571 44.5753 184.671 44.7507C184.75 44.8719 184.903 44.9661 185.225 44.9661H185.75V45.6895H178.54C177.911 45.6895 177.323 45.6659 176.777 45.6184C176.225 45.5697 175.595 45.4406 174.891 45.2349L174.889 45.2341C174.17 45.0162 173.475 44.6901 172.802 44.2576C171.414 43.3879 170.302 42.2765 169.47 40.9245L169.469 40.9234C168.643 39.5685 168.227 38.1458 168.227 36.6593C168.227 35.6452 168.45 34.6092 168.89 33.5532L168.89 33.5516C169.341 32.4905 169.999 31.5168 170.861 30.6306C171.729 29.7384 172.787 29.0262 174.031 28.4919L174.032 28.4917Z" fill="white"/>
<path d="M138.949 28.4016V28.2266H143.826C144.891 28.2266 145.661 28.246 146.136 28.2849C146.618 28.316 147.065 28.4016 147.478 28.5416C148.232 28.7671 148.835 29.1794 149.286 29.7783C149.737 30.3694 149.962 31.1199 149.962 32.03C149.962 32.66 149.822 33.2666 149.543 33.85C149.27 34.4333 148.905 34.9506 148.446 35.4017C147.987 35.8528 147.489 36.2261 146.953 36.5217L148.166 38.3884L148.271 38.5517C148.419 38.824 148.893 39.5279 149.694 40.6634C150.503 41.7912 151.23 42.7285 151.876 43.4752C152.171 43.8096 152.568 44.1246 153.066 44.4202C153.564 44.7157 154.116 44.8635 154.722 44.8635C155.158 44.8635 155.547 44.7818 155.889 44.6185C155.998 44.5718 156.13 44.5057 156.286 44.4202C156.441 44.3346 156.581 44.2607 156.706 44.1985L156.776 44.4318C156.356 44.7585 155.916 45.0152 155.457 45.2018C155.209 45.2952 154.866 45.3807 154.431 45.4585C154.003 45.5363 153.571 45.5752 153.136 45.5752C152.778 45.5752 152.416 45.5324 152.051 45.4468C151.693 45.3613 151.312 45.1941 150.907 44.9452C150.503 44.6885 150.126 44.3424 149.776 43.9068C148.874 42.8101 147.901 41.4801 146.859 39.9168C146.859 39.9012 146.851 39.8779 146.836 39.8468C146.82 39.8156 146.813 39.8001 146.813 39.8001L145.086 37.14L144.444 37.1634C144.351 37.1789 144.055 37.1867 143.558 37.1867H142.169V43.7668C142.169 44.1946 142.212 44.5135 142.298 44.7235C142.383 44.9335 142.504 45.0696 142.659 45.1318C142.815 45.1941 143.06 45.233 143.394 45.2485V45.4118H138.949V45.2485C139.494 45.2252 139.836 45.1163 139.976 44.9218C140.116 44.7196 140.186 44.2841 140.186 43.6152V29.9533C140.186 29.4866 140.139 29.1444 140.046 28.9266C139.96 28.7088 139.84 28.5727 139.684 28.5182C139.529 28.456 139.284 28.4171 138.949 28.4016ZM142.169 28.6816V36.7434H143.966C144.316 36.7434 144.744 36.7006 145.249 36.615C145.763 36.5217 146.148 36.405 146.404 36.265C146.894 35.9928 147.306 35.5961 147.641 35.075C147.975 34.5461 148.143 33.8889 148.143 33.1033C148.143 32.7611 148.096 32.3839 148.003 31.9716C147.909 31.5516 147.765 31.1549 147.571 30.7816C147.384 30.4083 147.139 30.0699 146.836 29.7666C146.47 29.401 146.035 29.1288 145.529 28.9499C145.031 28.771 144.382 28.6816 143.581 28.6816H142.169Z" fill="white"/>
<path fill-rule="evenodd" clip-rule="evenodd" d="M138.666 27.9414H143.823C144.887 27.9414 145.666 27.9607 146.153 28.0005C146.654 28.033 147.124 28.1221 147.559 28.2696C148.365 28.5116 149.018 28.9565 149.506 29.6039C150.001 30.2539 150.239 31.0678 150.239 32.0248C150.239 32.6974 150.09 33.3449 149.792 33.9646C149.506 34.5777 149.121 35.122 148.639 35.5962C148.237 35.991 147.806 36.3295 147.345 36.6109L148.398 38.2318L148.509 38.4039L148.514 38.413C148.652 38.6672 149.114 39.3549 149.919 40.4959C150.724 41.6184 151.446 42.5478 152.083 43.2858C152.355 43.5926 152.726 43.8898 153.206 44.1743C153.658 44.4429 154.16 44.5784 154.719 44.5784C155.119 44.5784 155.466 44.5035 155.765 44.3607L155.77 44.3582L155.776 44.356C155.873 44.3142 155.997 44.2528 156.148 44.1697C156.306 44.0828 156.449 44.0071 156.577 43.9429L156.875 43.794L157.096 44.5299L156.944 44.6477C156.506 44.989 156.044 45.259 155.56 45.4561L155.556 45.4575L155.553 45.4589C155.281 45.5607 154.92 45.6498 154.478 45.7289C154.033 45.8097 153.585 45.85 153.133 45.85C152.752 45.85 152.369 45.8045 151.984 45.7143L151.982 45.714C151.589 45.6199 151.18 45.4386 150.758 45.1785L150.754 45.1765C150.32 44.9011 149.921 44.5334 149.555 44.0784C148.646 42.9728 147.668 41.6352 146.623 40.0669L146.576 39.9964V39.9544L146.576 39.954L146.576 39.9535L146.575 39.9528L146.575 39.9523L146.575 39.9519L146.574 39.9504L146.574 39.9499L146.573 39.9492L146.573 39.9488L146.573 39.9484L146.573 39.9478L146.572 39.9464L146.572 39.9459L146.572 39.9455L146.571 39.9451L146.571 39.9437L146.57 39.9432L146.57 39.9427L146.57 39.9423L146.57 39.9417L146.569 39.9412L146.569 39.9403L146.569 39.9398L146.568 39.9393L146.568 39.9379L146.568 39.9375L146.566 39.9349L146.566 39.9345L144.934 37.4205L144.467 37.4375C144.396 37.447 144.287 37.4522 144.157 37.4556C144.005 37.4596 143.804 37.4616 143.554 37.4616H142.446V43.7617C142.446 44.1796 142.489 44.4542 142.554 44.6127C142.621 44.778 142.697 44.8416 142.76 44.8667C142.87 44.9108 143.076 44.9484 143.404 44.9637L143.671 44.9761V45.6867H138.666V44.9751L138.934 44.9636C139.193 44.9525 139.387 44.9215 139.526 44.8774C139.664 44.8335 139.722 44.7848 139.744 44.7551C139.778 44.7047 139.821 44.5951 139.854 44.3939C139.885 44.1963 139.903 43.9363 139.903 43.61V29.9481C139.903 29.4897 139.855 29.195 139.785 29.0317L139.784 29.0278L139.782 29.0238C139.713 28.849 139.639 28.7951 139.589 28.7774L139.583 28.7753L139.577 28.7731C139.467 28.729 139.261 28.6914 138.933 28.6761L138.666 28.6637V27.9414ZM146.809 39.7949L147.06 39.6697C147.06 39.6697 147.06 39.6697 147.06 39.6697L147.06 39.6701C147.06 39.67 147.06 39.6701 147.06 39.6705M147.06 39.671C147.06 39.6709 147.06 39.6711 147.06 39.671V39.671ZM147.06 39.6701C147.06 39.6702 147.06 39.6706 147.06 39.671L147.06 39.6701ZM140.124 28.5014C140.198 28.5926 140.256 28.6997 140.302 28.8151C140.417 29.0872 140.463 29.4755 140.463 29.9481V43.61C140.463 43.9526 140.445 44.2449 140.407 44.4828C140.369 44.7141 140.309 44.9232 140.203 45.0761L140.2 45.0803C140.188 45.0964 140.176 45.1118 140.163 45.1267H142.208C142.138 45.0382 142.08 44.9355 142.035 44.824C141.929 44.5625 141.886 44.1993 141.886 43.7617V28.5014H140.124ZM144.982 28.5112C145.462 28.5206 145.838 28.5365 146.11 28.5588L146.115 28.5592C146.575 28.5889 146.998 28.6703 147.384 28.8015L147.389 28.8032L147.394 28.8047C148.094 29.0141 148.646 29.3929 149.059 29.9416L149.06 29.943C149.466 30.4752 149.679 31.1621 149.679 32.0248C149.679 32.6117 149.549 33.1771 149.287 33.7237L149.286 33.7264C149.027 34.2795 148.681 34.7692 148.246 35.1969C147.902 35.5353 147.536 35.8273 147.148 36.0735C147.421 35.8342 147.663 35.5495 147.873 35.2211L147.874 35.2195C148.243 34.6357 148.419 33.9232 148.419 33.0982C148.419 32.7311 148.369 32.3329 148.272 31.9051M147.817 30.6491C147.617 30.249 147.354 29.8869 147.031 29.5634C146.635 29.1674 146.163 28.8733 145.62 28.681C145.426 28.6113 145.213 28.5549 144.982 28.5112M145.259 36.8917C145.27 36.8898 145.281 36.8879 145.293 36.886L145.296 36.8854C145.82 36.7902 146.239 36.6671 146.535 36.5057L146.537 36.5046C146.554 36.495 146.571 36.4853 146.589 36.4754L147.927 38.5347L147.928 38.5358L148.027 38.6896C148.189 38.9858 148.674 39.7022 149.462 40.8197L149.463 40.8215C150.275 41.9536 151.008 42.8981 151.661 43.6531L151.663 43.6554C151.982 44.0171 152.404 44.3495 152.92 44.6558C153.429 44.958 153.989 45.1176 154.597 45.1365C154.527 45.1504 154.454 45.1641 154.378 45.1777L154.378 45.1779C153.966 45.2526 153.551 45.29 153.133 45.29C152.798 45.29 152.458 45.25 152.112 45.1692C151.791 45.0923 151.438 44.9395 151.053 44.7026C150.679 44.4649 150.324 44.1412 149.991 43.7263L149.989 43.7238C149.102 42.6462 148.145 41.3383 147.117 39.7989C147.106 39.7628 147.092 39.7339 147.083 39.7164L147.082 39.7142L147.082 39.7139L147.082 39.7135L147.081 39.7121L147.081 39.7118L147.08 39.7101L147.08 39.7097L147.079 39.708L147.079 39.7075L147.078 39.7071L147.078 39.7066L147.078 39.7061L147.078 39.7056L147.077 39.7042L147.077 39.7036L147.076 39.7031L147.075 39.7011L147.075 39.7007L147.075 39.7002L147.075 39.6996L147.074 39.6991L147.073 39.6971L147.073 39.6967L147.073 39.6962L147.072 39.6944L147.072 39.694L147.071 39.6928L147.071 39.6923L147.071 39.6913L147.07 39.6909L147.07 39.6898L147.07 39.6895L147.069 39.6889L147.069 39.6884L147.068 39.687L147.068 39.6866L147.068 39.6862L147.068 39.6853L147.067 39.6849L147.067 39.6845L147.067 39.6841L147.067 39.6837L147.067 39.6833L147.066 39.6829L147.066 39.6825L147.066 39.6821L147.066 39.6817L147.066 39.6814L147.065 39.681L147.065 39.6807L147.065 39.6803L147.065 39.68L147.065 39.6796L147.064 39.6792L147.064 39.6786L147.064 39.6782L147.064 39.6777L147.064 39.6773L147.063 39.677L147.063 39.6766L147.063 39.6762L147.063 39.6757L147.063 39.6754L147.062 39.675L147.062 39.6746L147.062 39.6743L147.062 39.6739L147.062 39.6734L147.061 39.673L147.061 39.6723L147.061 39.6718L147.061 39.6714L147.06 39.671M145.259 36.8917L147.053 39.6557L147.06 39.6697L146.809 39.7949M142.446 28.9564H143.578C144.361 28.9564 144.975 29.0444 145.431 29.2083L145.433 29.2087C145.9 29.3742 146.3 29.6245 146.635 29.9594C146.917 30.2421 147.144 30.556 147.317 30.9017L147.319 30.9058C147.502 31.257 147.638 31.6305 147.726 32.0272L147.726 32.0283C147.816 32.4248 147.859 32.7809 147.859 33.0982C147.859 33.8438 147.701 34.4456 147.401 34.9194C147.09 35.405 146.711 35.7673 146.266 36.0146C146.049 36.1329 145.699 36.2428 145.198 36.3341C144.702 36.4179 144.291 36.4582 143.963 36.4582H142.446V28.9564Z" fill="white"/>
<path d="M135.126 45.4118H131.883V42.7635C130.234 44.6068 128.258 45.5285 125.956 45.5285C125.201 45.5285 124.498 45.4274 123.844 45.2252C123.191 45.023 122.604 44.7041 122.083 44.2685C121.569 43.8329 121.161 43.2651 120.858 42.5651C120.554 41.8573 120.403 41.0446 120.403 40.1268V29.8366C120.403 29.4088 120.375 29.0977 120.321 28.9032C120.266 28.7088 120.146 28.5766 119.959 28.5066C119.773 28.4288 119.5 28.3938 119.143 28.4016V28.2266H123.704V28.4016C123.261 28.4016 122.93 28.4755 122.713 28.6232C122.495 28.7632 122.386 29.1249 122.386 29.7083V39.1467C122.386 40.2745 122.522 41.1846 122.794 41.8768C123.066 42.5535 123.436 43.0979 123.903 43.5102C124.377 43.9224 124.879 44.2141 125.408 44.3852C125.936 44.5563 126.446 44.6418 126.936 44.6418C128.795 44.6418 130.444 43.8057 131.883 42.1335V30.5016C131.883 29.9183 131.855 29.4905 131.801 29.2182C131.754 28.9382 131.653 28.7321 131.498 28.5999C131.342 28.4677 131.101 28.4016 130.774 28.4016H130.611V28.2266H135.126V28.4016C134.667 28.4171 134.34 28.4871 134.146 28.6116C133.951 28.7282 133.854 29.0471 133.854 29.5683V43.5685C133.854 44.0118 133.874 44.3424 133.913 44.5602C133.951 44.778 134.064 44.9491 134.251 45.0735C134.445 45.198 134.737 45.2563 135.126 45.2485V45.4118Z" fill="white"/>
<path fill-rule="evenodd" clip-rule="evenodd" d="M118.857 27.9414H123.979V28.6764H123.699C123.277 28.6764 123.014 28.7484 122.865 28.8498L122.862 28.8517L122.859 28.8536C122.827 28.8742 122.774 28.9295 122.731 29.0751C122.687 29.2196 122.661 29.4256 122.661 29.7031V39.1416C122.661 40.25 122.795 41.121 123.049 41.7682C123.308 42.4104 123.654 42.9158 124.082 43.2943C124.531 43.6847 125 43.9556 125.489 44.1136C125.993 44.2769 126.474 44.3567 126.931 44.3567C128.664 44.3567 130.218 43.594 131.597 42.0236V30.4964C131.597 29.916 131.57 29.5115 131.521 29.268L131.52 29.2636L131.52 29.2591C131.479 29.0191 131.4 28.8834 131.311 28.8081C131.229 28.7382 131.067 28.6764 130.769 28.6764H130.326V27.9414H135.401V28.6671L135.13 28.6763C134.681 28.6915 134.419 28.7607 134.292 28.8423L134.288 28.8444L134.285 28.8465C134.27 28.8556 134.227 28.891 134.19 29.0147C134.152 29.1372 134.129 29.3165 134.129 29.5631V43.5633C134.129 44.0031 134.149 44.3134 134.183 44.5058C134.208 44.6465 134.276 44.7513 134.399 44.8339C134.525 44.9136 134.75 44.9707 135.115 44.9634L135.401 44.9577V45.6867H131.597V43.456C130 45.0151 128.114 45.8034 125.951 45.8034C125.171 45.8034 124.439 45.6988 123.756 45.4875C123.068 45.2744 122.448 44.9377 121.898 44.4782L121.896 44.4769C121.346 44.01 120.914 43.4055 120.595 42.6713L120.595 42.6703C120.274 41.9216 120.117 41.0702 120.117 40.1216V29.8314C120.117 29.4073 120.09 29.1288 120.046 28.9736C120.015 28.8638 119.958 28.8018 119.856 28.7636L119.851 28.7618L119.846 28.7599C119.714 28.7045 119.488 28.6689 119.144 28.6764L118.857 28.6826V27.9414ZM132.157 45.1267H133.885C133.754 44.9827 133.668 44.8071 133.632 44.6042C133.588 44.3611 133.569 44.0102 133.569 43.5633V29.5631C133.569 29.2886 133.594 29.0479 133.654 28.8514C133.693 28.7234 133.751 28.6009 133.837 28.5014H131.792C131.94 28.6788 132.028 28.9067 132.071 29.1626C132.131 29.4635 132.157 29.9131 132.157 30.4964V45.1267ZM129.418 44.3882C128.637 44.7391 127.807 44.9167 126.931 44.9167C126.408 44.9167 125.869 44.8254 125.316 44.6464C124.747 44.4623 124.213 44.1501 123.714 43.7164L123.712 43.7149C123.208 43.2692 122.815 42.6863 122.529 41.9761L122.528 41.9741C122.239 41.2369 122.101 40.2882 122.101 39.1416V29.7031C122.101 29.3972 122.129 29.1308 122.194 28.9136C122.241 28.7589 122.311 28.6147 122.415 28.5014H120.423C120.497 28.5924 120.551 28.7001 120.585 28.8226C120.651 29.0563 120.677 29.4 120.677 29.8314V40.1216C120.677 41.0084 120.824 41.7824 121.11 42.4492C121.398 43.1144 121.782 43.645 122.258 44.0491C122.75 44.4604 123.304 44.7613 123.922 44.9525C124.546 45.1457 125.221 45.2434 125.951 45.2434C127.207 45.2434 128.362 44.9597 129.418 44.3882Z" fill="white"/>
<path d="M116.281 27.6367L115.464 29.7134H115.301C115.332 29.6123 115.348 29.4451 115.348 29.2117C115.348 29.0173 115.278 28.9006 115.138 28.8617C115.006 28.8151 114.807 28.7917 114.543 28.7917H110.051V43.5037C110.051 43.8381 110.067 44.122 110.098 44.3553C110.129 44.5809 110.187 44.7637 110.273 44.9037C110.358 45.0359 110.483 45.1292 110.646 45.1837C110.809 45.2303 111.062 45.2537 111.404 45.2537V45.417H106.749V45.2537C107.138 45.2148 107.418 45.1603 107.589 45.0903C107.768 45.0203 107.893 44.892 107.963 44.7053C108.033 44.5109 108.068 44.192 108.068 43.7487V28.7917H103.763C103.335 28.7917 103.051 28.8151 102.911 28.8617C102.779 28.9084 102.713 29.0367 102.713 29.2467C102.713 29.3323 102.744 29.4879 102.806 29.7134H102.643L101.826 27.6367H101.99C102.137 27.9167 102.289 28.0917 102.445 28.1617C102.577 28.2084 102.857 28.2317 103.284 28.2317H114.706C115.165 28.2317 115.488 28.2045 115.674 28.1501C115.869 28.0956 116.017 27.9245 116.118 27.6367H116.281Z" fill="white"/>
<path fill-rule="evenodd" clip-rule="evenodd" d="M101.416 27.3516H102.159L102.238 27.5009C102.371 27.7536 102.481 27.8602 102.55 27.8961C102.586 27.9066 102.657 27.92 102.778 27.93C102.907 27.9408 103.076 27.9466 103.285 27.9466H114.707C115.165 27.9466 115.452 27.9183 115.597 27.8761L115.6 27.8753C115.668 27.8562 115.767 27.7864 115.854 27.5387L115.92 27.3516H116.693L115.656 29.9883H114.923L115.034 29.6259C115.052 29.568 115.069 29.4373 115.069 29.2066C115.069 29.1743 115.066 29.1517 115.062 29.1368C115.061 29.1319 115.06 29.1281 115.059 29.1251L115.054 29.1238L115.045 29.1206C114.959 29.0901 114.799 29.0666 114.544 29.0666H110.332V43.4985C110.332 43.825 110.347 44.0955 110.376 44.3126C110.404 44.5112 110.452 44.6525 110.511 44.7493C110.557 44.8204 110.625 44.8751 110.73 44.911C110.855 44.9455 111.074 44.9685 111.405 44.9685H111.685V45.6919H106.47V44.9951L106.722 44.9699C107.107 44.9314 107.353 44.8797 107.484 44.826L107.488 44.8244C107.59 44.7848 107.657 44.718 107.701 44.6036C107.753 44.4576 107.789 44.1812 107.789 43.7435V29.0666H103.764C103.554 29.0666 103.384 29.0723 103.253 29.0832C103.128 29.0934 103.051 29.1073 103.011 29.1191C103.005 29.1326 102.994 29.1686 102.994 29.2416C102.994 29.2838 103.014 29.4044 103.077 29.6338L103.175 29.9883H102.453L101.416 27.3516ZM110.097 45.1319C110.077 45.1061 110.057 45.0791 110.039 45.0506L110.037 45.0476L110.035 45.0445C109.923 44.8615 109.856 44.6383 109.821 44.3884L109.821 44.3872C109.788 44.1377 109.772 43.8406 109.772 43.4985V28.5066H108.349V43.7435C108.349 44.1908 108.315 44.5517 108.227 44.795L108.226 44.7985C108.177 44.9277 108.108 45.0397 108.018 45.1319H110.097ZM102.449 28.4482C102.532 28.4673 102.629 28.4796 102.731 28.4881C102.882 28.5007 103.067 28.5066 103.285 28.5066H103.764C103.545 28.5066 103.359 28.5125 103.207 28.525C103.059 28.5372 102.926 28.5567 102.823 28.591L102.819 28.5925C102.719 28.6277 102.637 28.6875 102.574 28.7665L102.449 28.4482ZM115.665 28.4363C115.436 28.4864 115.11 28.5066 114.707 28.5066H114.544C114.813 28.5066 115.046 28.529 115.223 28.5896C115.344 28.6253 115.448 28.6967 115.52 28.8039L115.665 28.4363Z" fill="white"/>
<path d="M94.3641 37.5045H89.3474L86.7458 44.0029C86.668 44.1974 86.6291 44.3024 86.6291 44.3179C86.528 44.5202 86.4775 44.7029 86.4775 44.8663C86.4775 45.1229 86.668 45.2513 87.0491 45.2513V45.4146H84.4941V45.2513C84.953 45.2435 85.2875 45.1152 85.4975 44.8663C85.7075 44.6174 85.9175 44.2285 86.1275 43.6996L92.3574 27.9727H92.6491L98.7857 43.1629C98.7857 43.2251 98.8091 43.2912 98.8557 43.3612L98.9491 43.6179C99.1435 44.1001 99.3652 44.4929 99.6141 44.7963C99.8707 45.0996 100.232 45.2513 100.699 45.2513V45.4146H96.6857V45.2513C96.9113 45.2513 97.0591 45.2007 97.1291 45.0996C97.1991 44.9985 97.2341 44.9052 97.2341 44.8196C97.2341 44.6018 97.1446 44.2907 96.9657 43.8863C96.9502 43.8551 96.9307 43.8085 96.9074 43.7463C96.8841 43.6763 96.8646 43.6335 96.8491 43.6179L94.3641 37.5045ZM89.5108 37.0261H94.1541L91.8324 31.1694L89.5108 37.0261Z" fill="white"/>
<path fill-rule="evenodd" clip-rule="evenodd" d="M92.164 27.6875H92.8348L99.0625 43.1033V43.1556C99.0633 43.1591 99.0674 43.1736 99.0855 43.2008L99.1042 43.2288L99.2073 43.5125C99.3935 43.9733 99.6011 44.3373 99.8259 44.6118C100.02 44.8401 100.297 44.9661 100.696 44.9661H100.976V45.6895H96.4025V44.9661H96.6825C96.777 44.9661 96.837 44.9552 96.8719 44.9433C96.8871 44.9381 96.8949 44.9337 96.8981 44.9315C96.9469 44.8599 96.9509 44.823 96.9509 44.8145C96.9509 44.6591 96.8831 44.3948 96.7088 43.9997C96.6876 43.9562 96.6651 43.901 96.642 43.8394L96.6402 43.8346L96.6386 43.8296C96.6337 43.815 96.6294 43.8029 96.6256 43.793C96.6246 43.7903 96.6237 43.7879 96.6228 43.7857L96.6078 43.7707L94.1725 37.7793H89.5337L87.0026 44.1018C87.0026 44.1018 87.0026 44.1017 87.0026 44.1018C86.964 44.1983 86.9358 44.2705 86.9177 44.3196C86.9128 44.3327 86.909 44.3434 86.9059 44.352V44.3789L86.8764 44.438C86.7876 44.6154 86.7543 44.7547 86.7543 44.8611C86.7543 44.8905 86.7596 44.9027 86.7609 44.9054C86.7617 44.9069 86.7637 44.911 86.7736 44.9176C86.8012 44.9363 86.878 44.9661 87.0459 44.9661H87.3259V45.6895H84.2109V44.9708L84.4862 44.9662C84.8985 44.9592 85.141 44.8456 85.2803 44.6806C85.4615 44.4658 85.6582 44.1096 85.864 43.5911L92.164 27.6875ZM92.5012 28.3568L86.3846 43.7976C86.1705 44.3369 85.9471 44.7587 85.7083 45.0417C85.6822 45.0726 85.6549 45.1018 85.6264 45.1295H86.2477C86.2116 45.047 86.1943 44.956 86.1943 44.8611C86.1943 44.6505 86.2562 44.4342 86.3609 44.2172C86.3629 44.2104 86.3649 44.2041 86.3667 44.1984C86.3734 44.1777 86.3823 44.1527 86.3925 44.1251C86.4132 44.0692 86.4435 43.9917 86.4826 43.8938L89.122 37.301H89.0954L91.8292 30.4044L94.5307 37.2193H94.5493L97.0926 43.4762C97.1094 43.5025 97.1205 43.5263 97.127 43.5407C97.1417 43.573 97.1553 43.6095 97.1681 43.6473C97.1895 43.7043 97.2043 43.7386 97.213 43.7559L97.2159 43.7618L97.2186 43.7678C97.4003 44.1787 97.5109 44.535 97.5109 44.8145C97.5109 44.9268 97.4793 45.0325 97.4305 45.1295H99.5505C99.4966 45.0815 99.4454 45.029 99.3971 44.972L99.3944 44.9688C99.1227 44.6376 98.888 44.218 98.6862 43.7175L98.6844 43.713L98.5998 43.4803C98.5533 43.4036 98.5177 43.3167 98.5063 43.2216L92.5012 28.3568ZM89.9198 36.741H93.7387L91.8292 31.924L89.9198 36.741Z" fill="white"/>
<path d="M78.3398 28.2266H81.6648V28.4016C81.1515 28.4171 80.7976 28.526 80.6031 28.7282C80.4165 28.9227 80.3231 29.3388 80.3231 29.9766V45.6219L66.6149 31.0266V43.7435C66.6149 44.0546 66.6343 44.3113 66.6732 44.5135C66.7121 44.708 66.7821 44.8557 66.8832 44.9568C66.9843 45.058 67.0893 45.1202 67.1982 45.1435C67.3071 45.1668 67.5249 45.2018 67.8515 45.2485V45.4118H64.5499V45.2485C64.9854 45.2407 65.2927 45.1824 65.4716 45.0735C65.6582 44.9646 65.771 44.8013 65.8099 44.5835C65.8488 44.3579 65.8682 43.9729 65.8682 43.4285V31.7966C65.8682 30.8244 65.7321 30.0077 65.4599 29.3466C65.1877 28.6777 64.5266 28.3627 63.4766 28.4016V28.2266H66.7082L79.5882 41.9468V29.8133C79.5882 29.2221 79.487 28.841 79.2848 28.6699C79.0904 28.491 78.7754 28.4016 78.3398 28.4016V28.2266Z" fill="white"/>
<path fill-rule="evenodd" clip-rule="evenodd" d="M63.1914 27.9414H66.8242L79.303 41.2343V29.8081C79.303 29.526 79.2786 29.3093 79.2365 29.1507C79.1939 28.99 79.1396 28.913 79.0988 28.8785L79.0944 28.8748L79.0901 28.8708C78.9719 28.7621 78.7427 28.6764 78.3347 28.6764H78.0547V27.9414H81.9396V28.6681L81.6681 28.6763C81.1732 28.6913 80.9153 28.7972 80.7999 28.9171C80.757 28.9618 80.7026 29.0578 80.6612 29.2423C80.6207 29.423 80.598 29.6641 80.598 29.9714V46.3238L66.8897 31.7286V43.7383C66.8897 44.0391 66.9086 44.2762 66.9428 44.4544C66.9749 44.6143 67.0265 44.7042 67.076 44.7537C67.1497 44.8274 67.2087 44.8554 67.2517 44.8646C67.3496 44.8855 67.5578 44.9193 67.886 44.9662L68.1264 45.0005V45.6867H64.2647V44.9683L64.5397 44.9634C64.9686 44.9557 65.2101 44.8966 65.3208 44.8292L65.3253 44.8265C65.4389 44.7602 65.504 44.6686 65.5289 44.5299C65.5633 44.3301 65.5831 43.9668 65.5831 43.4233V31.7915C65.5831 30.8435 65.4501 30.0655 65.1958 29.448L65.1954 29.447C65.086 29.1782 64.9028 28.9842 64.6343 28.8563C64.3584 28.7248 63.98 28.6578 63.4818 28.6762L63.1914 28.687V27.9414ZM66.5819 28.5014H65.1345C65.3946 28.6839 65.5894 28.9298 65.7138 29.2353C66.0039 29.94 66.1431 30.7952 66.1431 31.7915V43.4233C66.1431 43.968 66.124 44.3744 66.0807 44.6259L66.0804 44.6276C66.0455 44.8227 65.9641 44.9912 65.8384 45.1267H66.6579C66.5188 44.9767 66.4369 44.7804 66.3935 44.5633L66.3931 44.5612C66.3496 44.3352 66.3297 44.0592 66.3297 43.7383V30.3143L80.038 44.9096V29.9714C80.038 29.641 80.062 29.3552 80.1148 29.1197C80.1667 28.8882 80.2523 28.6789 80.396 28.5292C80.405 28.5198 80.4144 28.5104 80.4238 28.5014H79.5146C79.6442 28.6345 79.7262 28.8125 79.7778 29.0071C79.8368 29.2296 79.863 29.4991 79.863 29.8081V42.649L66.5819 28.5014Z" fill="white"/>
<path fill-rule="evenodd" clip-rule="evenodd" d="M28.0055 23.5176H55.9997V50.398H0V23.5176H16.8055V25.3809H10.8252V48.5279H51.8917V25.3809H28.0055V23.5176Z" fill="white"/>
<path d="M37.0792 29.6171C41.494 23.3326 40.9 17.8915 39.4304 16.4258C45.7929 19.9725 49.1148 27.9993 43.2526 36.3995C37.2324 45.0262 38.9406 52.9822 40.9 55.9998C28.988 43.4929 30.7149 38.6767 37.0792 29.6171Z" fill="white"/>
<path d="M29.8116 12.5691C34.8257 6.06469 33.2855 1.35508 31.923 0C36.7763 2.42671 41.4984 9.37872 35.843 19.0403C31.363 26.6938 31.5496 32.2939 32.8563 36.9606C24.083 30.8005 23.544 20.6996 29.8116 12.5691Z" fill="white"/>
<path d="M17.6734 19.6647C21.6239 14.355 20.4645 10.8152 19.391 9.70898C22.6115 12.4419 26.0467 17.9078 22.1821 24.7402C18.3789 31.464 19.0332 37.2987 20.4645 39.5762C12.5206 30.0109 12.7353 26.3019 17.6734 19.6647Z" fill="white"/>
<rect y="48.5352" width="55.9997" height="1.8667" fill="white"/>
</svg>
