<svg width="24" height="24" viewBox="0 0 24 24" fill="none" xmlns="http://www.w3.org/2000/svg">
<rect width="24" height="24" fill="#0E218F" fill-opacity="0.05"/>
<path fill-rule="evenodd" clip-rule="evenodd" d="M17.1043 6.74984V17.8332C17.1043 17.9953 17.0145 18.1441 16.871 18.2199C16.7275 18.2958 16.5542 18.2858 16.4201 18.1943L14.9647 17.2008L13.5886 18.1884C13.4235 18.3074 13.1983 18.2963 13.0455 18.1622L12.0002 17.2481L10.9548 18.1622C10.802 18.2963 10.5768 18.3074 10.4117 18.1884L9.03566 17.2008L7.58025 18.1943C7.44608 18.2858 7.27283 18.2958 7.12933 18.2199C6.98583 18.1441 6.896 17.9953 6.896 17.8332V6.74984C6.896 6.18634 7.35275 5.729 7.91683 5.729H16.0835C16.6476 5.729 17.1043 6.18634 17.1043 6.74984ZM9.66683 11.2707H14.3335C14.575 11.2707 14.771 11.0747 14.771 10.8332C14.771 10.5917 14.575 10.3957 14.3335 10.3957H9.66683C9.42533 10.3957 9.22933 10.5917 9.22933 10.8332C9.22933 11.0747 9.42533 11.2707 9.66683 11.2707ZM9.66683 8.93734H14.3335C14.575 8.93734 14.771 8.74134 14.771 8.49984C14.771 8.25834 14.575 8.06234 14.3335 8.06234H9.66683C9.42533 8.06234 9.22933 8.25834 9.22933 8.49984C9.22933 8.74134 9.42533 8.93734 9.66683 8.93734ZM9.66683 13.604H12.0002C12.2417 13.604 12.4377 13.408 12.4377 13.1665C12.4377 12.925 12.2417 12.729 12.0002 12.729H9.66683C9.42533 12.729 9.22933 12.925 9.22933 13.1665C9.22933 13.408 9.42533 13.604 9.66683 13.604Z" fill="#0E218F"/>
</svg>
