<svg width="24" height="18" viewBox="0 0 24 18" fill="none" xmlns="http://www.w3.org/2000/svg">
<path d="M19.6742 15.6744L4.32455 0.325219L4.32127 0.321469C4.23817 0.239045 4.13965 0.173795 4.03133 0.129446C3.92301 0.0850969 3.80701 0.0625169 3.68997 0.0629957C3.57292 0.0634745 3.45712 0.0870028 3.34917 0.132236C3.24121 0.17747 3.14323 0.243524 3.0608 0.326626C2.97838 0.409728 2.91313 0.508251 2.86878 0.61657C2.82443 0.724889 2.80185 0.840883 2.80233 0.957928C2.8033 1.19431 2.89813 1.42063 3.06596 1.58709L4.40986 2.931C2.78007 4.04721 1.37722 5.46295 0.275959 7.10288C0.0961223 7.36839 0 7.68172 0 8.00241C0 8.32309 0.0961223 8.63642 0.275959 8.90194C3.08705 13.0626 7.54346 15.5001 11.9999 15.4696C13.4434 15.4748 14.8772 15.2345 16.2402 14.759L18.4156 16.9344C18.5833 17.0966 18.8078 17.1866 19.0411 17.185C19.2743 17.1834 19.4976 17.0904 19.663 16.9259C19.8284 16.7615 19.9227 16.5387 19.9256 16.3055C19.9284 16.0722 19.8397 15.8472 19.6785 15.6787L19.6742 15.6744ZM11.9999 13.0504C11.1556 13.0501 10.3248 12.8382 9.58347 12.434C8.84216 12.0299 8.21395 11.4464 7.75626 10.7369C7.29857 10.0274 7.02599 9.21452 6.96343 8.37252C6.90087 7.53053 7.05033 6.68628 7.39815 5.91694L8.80205 7.32084C8.68897 7.85372 8.71082 8.4064 8.86562 8.92868C9.02042 9.45096 9.30326 9.92629 9.68845 10.3115C10.0736 10.6967 10.549 10.9795 11.0712 11.1343C11.5935 11.2891 12.1462 11.311 12.6791 11.1979L14.083 12.6018C13.4287 12.8985 12.7183 13.0514 11.9999 13.0504Z" fill="#ADB2D4"/>
<path d="M23.724 7.10056C20.9129 2.93759 16.4565 0.500087 12.0001 0.530556C10.5566 0.525327 9.1227 0.765628 7.75977 1.24118L9.91602 3.39743C10.8517 2.974 11.8942 2.84578 12.9046 3.02987C13.9149 3.21395 14.8452 3.70159 15.5714 4.4278C16.2976 5.15401 16.7853 6.08429 16.9694 7.09468C17.1534 8.10506 17.0252 9.14755 16.6018 10.0832L19.5896 13.071C21.2197 11.955 22.6227 10.5392 23.724 8.89915C23.9037 8.63368 23.9998 8.32044 23.9998 7.99985C23.9998 7.67926 23.9037 7.36602 23.724 7.10056Z" fill="#ADB2D4"/>
<path d="M11.9995 4.73096C11.7713 4.73099 11.5436 4.75487 11.3203 4.80221L15.1973 8.67877C15.2984 8.20248 15.2919 7.70961 15.1781 7.23618C15.0643 6.76276 14.8462 6.32072 14.5398 5.94237C14.2333 5.56401 13.8462 5.2589 13.4067 5.04931C12.9672 4.83973 12.4864 4.73096 11.9995 4.73096Z" fill="#ADB2D4"/>
</svg>
