<svg width="24" height="24" viewBox="0 0 24 24" fill="none" xmlns="http://www.w3.org/2000/svg">
<rect width="24" height="24" fill="#0E218F" fill-opacity="0.05"/>
<g clip-path="url(#clip0_1_5192)">
<path d="M12.0001 12.9869C12.9025 12.9869 13.7365 12.7326 14.4036 12.3006C14.9204 11.9697 15.5931 12.0244 16.047 12.4373C17.3076 13.5803 18.024 15.2018 18.0212 16.9053V17.6354C18.0212 18.3901 17.4087 18.9998 16.654 18.9998H7.34622C6.59154 18.9998 5.97903 18.3901 5.97903 17.6354V16.9053C5.97357 15.2045 6.68997 13.5803 7.95052 12.4401C8.40443 12.0272 9.07982 11.9725 9.59388 12.3033C10.2638 12.7326 11.0951 12.9869 12.0001 12.9869Z" fill="#0E218F"/>
<path d="M11.9999 11.7703C13.8695 11.7703 15.3851 10.2547 15.3851 8.38516C15.3851 6.51559 13.8695 5 11.9999 5C10.1303 5 8.61475 6.51559 8.61475 8.38516C8.61475 10.2547 10.1303 11.7703 11.9999 11.7703Z" fill="#0E218F"/>
</g>
<defs>
<clipPath id="clip0_1_5192">
<rect width="14" height="14" fill="white" transform="translate(5 5)"/>
</clipPath>
</defs>
</svg>
