<svg width="22" height="15" viewBox="0 0 22 15" fill="none" xmlns="http://www.w3.org/2000/svg">
<path d="M21.6563 6.67049L21.6552 6.66937L15.5319 0.575621C15.0732 0.119117 14.3312 0.120816 13.8746 0.579605C13.4181 1.03834 13.4198 1.78031 13.8786 2.23687L17.9897 6.32812L1.17187 6.32812C0.524648 6.32812 0 6.85277 0 7.5C0 8.14722 0.524648 8.67187 1.17187 8.67187L17.9897 8.67187L13.8786 12.7631C13.4199 13.2197 13.4181 13.9617 13.8747 14.4204C14.3313 14.8792 15.0733 14.8808 15.532 14.4244L21.6553 8.33062L21.6563 8.32951C22.1153 7.87142 22.1138 7.12705 21.6563 6.67049Z" fill="#0E218F"/>
</svg>
