<svg width="24" height="24" viewBox="0 0 24 24" fill="none" xmlns="http://www.w3.org/2000/svg">
<g clip-path="url(#clip0_1_299)">
<path d="M23.9474 13.123H0.0546875V13.1234H23.9474V13.123Z" fill="#C42126"/>
<path d="M22.7018 6.57227H1.29883V6.57262H22.7018V6.57227Z" fill="#C42126"/>
<path d="M23.5516 8.75391H0.447266V8.75426H23.5516V8.75391Z" fill="#C42126"/>
<path d="M5.15799 21.8562H18.843L18.8437 21.8555H5.15723L5.15799 21.8562Z" fill="#C42126"/>
<path d="M12.0005 0C11.7648 0 11.5309 0.00851213 11.2988 0.021787H12.7023C12.47 0.00851213 12.2362 0 12.0005 0Z" fill="#C42126"/>
<path d="M23.9501 10.9395H0.0498047V10.9398H23.9501V10.9395Z" fill="#C42126"/>
<path d="M15.5467 4.38826H21.2767C20.5961 3.5597 19.8051 2.82624 18.9288 2.20531H14.626C14.982 2.83171 15.2882 3.57085 15.5467 4.38826Z" fill="#E7E7E7"/>
<path d="M14.6258 2.205H18.9286C17.1498 0.944443 15.0142 0.155044 12.7015 0.0214844H12.332C13.4206 0.158489 13.9206 0.964101 14.6258 2.205Z" fill="#DC3027"/>
<path d="M23.5527 8.75502C23.3394 7.9941 23.0532 7.26403 22.7016 6.57207H16.1094C16.2429 7.27295 16.3483 8.00504 16.4264 8.75502H23.5527Z" fill="#E7E7E7"/>
<path d="M15.7383 6.57198H22.7011C22.3043 5.79155 21.8277 5.0592 21.2767 4.38867H15.1943C15.4088 5.06756 15.5909 5.79991 15.7383 6.57198Z" fill="#DC3027"/>
<path d="M16.6787 13.1226H23.946C23.9805 12.7533 24 12.3791 24 12.0009C24 11.643 23.9813 11.2896 23.9506 10.9395H16.6804C16.7041 11.6655 16.7037 12.3969 16.6787 13.1226Z" fill="#E7E7E7"/>
<path d="M23.9507 10.9388C23.885 10.189 23.7499 9.45958 23.5526 8.75586H16.1201C16.1948 9.47073 16.2441 10.2021 16.2681 10.9388H23.9507Z" fill="#DC3027"/>
<path d="M15.9834 17.488H22.6696C23.0262 16.7968 23.3168 16.0662 23.5347 15.3047H16.3067C16.2271 16.0558 16.119 16.7877 15.9834 17.488Z" fill="#E7E7E7"/>
<path d="M23.5355 15.306C23.7369 14.6025 23.8767 13.873 23.9462 13.123H16.4523C16.4267 13.8603 16.376 14.5915 16.2998 15.306H23.5355Z" fill="#DC3027"/>
<path d="M18.8429 21.8548C19.7319 21.2364 20.5341 20.5022 21.2256 19.6719H15.5953C15.3322 20.4927 15.0197 21.2307 14.6572 21.8548H18.8429Z" fill="#E7E7E7"/>
<path d="M15.3838 19.6716H21.2258C21.7833 19.0018 22.2672 18.2695 22.6698 17.4883H15.9346C15.7851 18.2609 15.6012 18.9936 15.3838 19.6716Z" fill="#DC3027"/>
<path d="M11.5649 23.991C11.5407 23.9903 11.5165 23.9892 11.4922 23.9884C11.5165 23.9891 11.5407 23.9903 11.5649 23.991Z" fill="#DC3027"/>
<path d="M12 23.9995C14.5441 23.9995 16.9013 23.2054 18.8427 21.8555H14.4997C13.7289 23.1834 13.2204 23.9995 12 23.9995Z" fill="#DC3027"/>
<path d="M12.0003 24.0007C11.8545 24.0007 11.7098 23.9973 11.5654 23.9922C11.7113 23.9971 11.8562 24.0007 12.0003 24.0007Z" fill="#C42126"/>
<path d="M15.0238 2.20508H5.07182C4.19532 2.82601 3.40445 3.55942 2.72363 4.38803H15.9442C15.6858 3.57062 15.3798 2.83148 15.0238 2.20508Z" fill="#F3F4F5"/>
<path d="M5.07129 2.205H15.0232C14.3178 0.964101 13.4207 0.158489 12.3321 0.0214844H11.2982C8.98545 0.155044 6.84987 0.944443 5.07129 2.205Z" fill="#E73625"/>
<path d="M0.447266 8.75522H16.8042C16.7262 8.00509 16.6208 7.27315 16.4873 6.57227H1.29838C0.946695 7.26428 0.660626 7.9943 0.447266 8.75522Z" fill="#F3F4F5"/>
<path d="M2.72309 4.38867C2.17249 5.0592 1.6954 5.7915 1.29883 6.57198H16.4875C16.3403 5.80006 16.1582 5.06777 15.9437 4.38867H2.72309Z" fill="#E73625"/>
<path d="M0 12.0007C0 12.3789 0.0197096 12.7531 0.0540115 13.1224H16.9511C16.9762 12.3967 16.9765 11.6655 16.9529 10.9395H0.0494514C0.018747 11.2895 0 11.6428 0 12.0007Z" fill="#F3F4F5"/>
<path d="M0.0498047 10.9388H16.953C16.929 10.202 16.8795 9.47078 16.805 8.75586H0.447696C0.250448 9.45973 0.115368 10.189 0.0498047 10.9388Z" fill="#E73625"/>
<path d="M16.7987 15.3047H0.464844C0.682764 16.0664 0.973596 16.7968 1.32999 17.488H16.4755C16.6111 16.7879 16.7189 16.0559 16.7987 15.3047Z" fill="#F3F4F5"/>
<path d="M0.464472 15.306H16.7983C16.8743 14.5915 16.9253 13.8601 16.9508 13.123H0.0537109C0.123227 13.8732 0.263271 14.6025 0.464472 15.306Z" fill="#E73625"/>
<path d="M5.15705 21.8548H14.987C15.3495 21.2305 15.6621 20.4927 15.9251 19.6719H2.77441C3.46582 20.5022 4.26784 21.2364 5.15705 21.8548Z" fill="#F3F4F5"/>
<path d="M1.33008 17.4883C1.73273 18.2695 2.21661 19.0018 2.77405 19.6716H15.9247C16.1419 18.9937 16.3259 18.261 16.4753 17.4883H1.33008Z" fill="#E73625"/>
<path d="M11.4919 23.9884C11.5162 23.9892 11.5404 23.9903 11.5647 23.9911C11.7091 23.9962 11.8538 23.9996 11.9995 23.9996C13.2199 23.9996 14.215 23.1835 14.986 21.8555H5.15723C6.96844 23.1152 9.14247 23.8905 11.4919 23.9884Z" fill="#E73625"/>
<path d="M11.7516 0.00585938C5.60221 0.130957 0.590187 4.87895 0.0507812 10.9185H11.7518V0.00585938H11.7516Z" fill="#283991"/>
<path d="M2.40114 6.79883L2.58395 7.36174H3.17625L2.69709 7.70983L2.8801 8.27315L2.40114 7.92486L1.92233 8.27315L2.10499 7.70983L1.62598 7.36174H2.21828L2.40114 6.79883Z" fill="#EFEFEF"/>
<path d="M2.40114 8.78906L2.58395 9.35233H3.17625L2.69709 9.70042L2.8801 10.2637L2.40114 9.91545L1.92233 10.2637L2.10499 9.70042L1.62598 9.35233H2.21828L2.40114 8.78906Z" fill="#EFEFEF"/>
<path d="M4.3906 3.81641L4.57346 4.37952H5.16556L4.68655 4.72781L4.86941 5.29073L4.3906 4.94284L3.91159 5.29073L4.09445 4.72781L3.61523 4.37952H4.20754L4.3906 3.81641Z" fill="#EFEFEF"/>
<path d="M4.3906 5.80458L4.57346 6.3677H5.16556L4.68655 6.71558L4.86941 7.2789L4.3906 6.93102L3.91159 7.2789L4.09445 6.71558L3.61523 6.3677H4.20754L4.3906 5.80458Z" fill="#EFEFEF"/>
<path d="M4.3906 7.79297L4.57346 8.35629H5.16556L4.68655 8.70397L4.86941 9.26729L4.3906 8.91905L3.91159 9.26729L4.09445 8.70397L3.61523 8.35629H4.20754L4.3906 7.79297Z" fill="#EFEFEF"/>
<path d="M0.891414 9.2687L0.708403 8.70538L1.18741 8.3575H0.595465L0.58219 8.31641C0.517184 8.51745 0.45846 8.72093 0.404297 8.9267L0.412657 8.92046L0.891414 9.2687Z" fill="#EFEFEF"/>
<path d="M1.92251 6.28502L2.40132 5.93678L2.88033 6.28502L2.69731 5.7217L3.17632 5.37346H2.58402L2.40116 4.81055L2.2183 5.37346H2.00003C1.9595 5.43487 1.92028 5.49663 1.88086 5.55896L2.10521 5.7217L1.92251 6.28502Z" fill="#EFEFEF"/>
<path d="M4.39055 2.95194L4.86936 3.29982L4.6865 2.73691L5.1653 2.38867H4.8233C4.53282 2.60583 4.25258 2.83566 3.98333 3.07815L3.91113 3.29982L4.39055 2.95194Z" fill="#EFEFEF"/>
<path d="M5.90039 2.30731L6.3794 1.95908L6.85821 2.30731L6.67535 1.74399L7.15416 1.39611H6.56206L6.53723 1.32031C6.33659 1.42281 6.13802 1.52947 5.94396 1.64296L6.08305 1.74394L5.90039 2.30731Z" fill="#EFEFEF"/>
<path d="M6.37981 2.82031L6.56266 3.38308H7.15476L6.67575 3.73131L6.85861 4.29463L6.37981 3.94635L5.9008 4.29463L6.08365 3.73131L5.60449 3.38308H6.19674L6.37981 2.82031Z" fill="#EFEFEF"/>
<path d="M6.37981 4.81055L6.56266 5.37331H7.15476L6.67575 5.72155L6.85861 6.28487L6.37981 5.93658L5.9008 6.28487L6.08365 5.72155L5.60449 5.37331H6.19674L6.37981 4.81055Z" fill="#EFEFEF"/>
<path d="M6.37981 6.79883L6.56266 7.36174H7.15476L6.67575 7.70983L6.85861 8.27315L6.37981 7.92486L5.9008 8.27315L6.08365 7.70983L5.60449 7.36174H6.19674L6.37981 6.79883Z" fill="#EFEFEF"/>
<path d="M6.37981 8.78906L6.56266 9.35233H7.15476L6.67575 9.70042L6.85861 10.2637L6.37981 9.91545L5.9008 10.2637L6.08365 9.70042L5.60449 9.35233H6.19674L6.37981 8.78906Z" fill="#EFEFEF"/>
<path d="M8.36906 1.82639L8.55192 2.3895H9.14402L8.66521 2.73779L8.84787 3.30071L8.36906 2.95282L7.8899 3.30071L8.07291 2.73779L7.59375 2.3895H8.186L8.36906 1.82639Z" fill="#EFEFEF"/>
<path d="M8.36906 3.81641L8.55192 4.37952H9.14402L8.66521 4.72781L8.84787 5.29073L8.36906 4.94284L7.8899 5.29073L8.07291 4.72781L7.59375 4.37952H8.186L8.36906 3.81641Z" fill="#EFEFEF"/>
<path d="M8.36906 5.80458L8.55192 6.3677H9.14402L8.66521 6.71558L8.84787 7.2789L8.36906 6.93102L7.8899 7.2789L8.07291 6.71558L7.59375 6.3677H8.186L8.36906 5.80458Z" fill="#EFEFEF"/>
<path d="M8.36906 7.79297L8.55192 8.35629H9.14402L8.66521 8.70397L8.84787 9.26729L8.36906 8.91905L7.8899 9.26729L8.07291 8.70397L7.59375 8.35629H8.186L8.36906 7.79297Z" fill="#EFEFEF"/>
<path d="M10.3583 0.832031L10.5412 1.39515H11.1333L10.6543 1.74303L10.8371 2.30635L10.3583 1.95806L9.87916 2.30635L10.0622 1.74303L9.58301 1.39515H10.1751L10.3583 0.832031Z" fill="#EFEFEF"/>
<path d="M10.3583 2.82031L10.5412 3.38308H11.1333L10.6543 3.73131L10.8371 4.29463L10.3583 3.94635L9.87916 4.29463L10.0622 3.73131L9.58301 3.38308H10.1751L10.3583 2.82031Z" fill="#EFEFEF"/>
<path d="M10.3583 4.81055L10.5412 5.37331H11.1333L10.6543 5.72155L10.8371 6.28487L10.3583 5.93658L9.87916 6.28487L10.0622 5.72155L9.58301 5.37331H10.1751L10.3583 4.81055Z" fill="#EFEFEF"/>
<path d="M10.3583 6.79883L10.5412 7.36174H11.1333L10.6543 7.70983L10.8371 8.27315L10.3583 7.92486L9.87916 8.27315L10.0622 7.70983L9.58301 7.36174H10.1751L10.3583 6.79883Z" fill="#EFEFEF"/>
<path d="M10.3583 8.78906L10.5412 9.35233H11.1333L10.6543 9.70042L10.8371 10.2637L10.3583 9.91545L9.87916 10.2637L10.0622 9.70042L9.58301 9.35233H10.1751L10.3583 8.78906Z" fill="#EFEFEF"/>
</g>
<defs>
<clipPath id="clip0_1_299">
<rect width="24" height="24" fill="white"/>
</clipPath>
</defs>
</svg>
