<svg width="24" height="24" viewBox="0 0 24 24" fill="none" xmlns="http://www.w3.org/2000/svg">
<g clip-path="url(#clip0_1_5921)">
<path d="M23.9474 13.123H0.0546875V13.1234H23.9474V13.123Z" fill="#C42126"/>
<path d="M22.7037 6.57227H1.30078V6.57262H22.7037V6.57227Z" fill="#C42126"/>
<path d="M23.5536 8.75391H0.449219V8.75426H23.5536V8.75391Z" fill="#C42126"/>
<path d="M5.15896 21.8562H18.844L18.8447 21.8555H5.1582L5.15896 21.8562Z" fill="#C42126"/>
<path d="M12.0024 0C11.7667 0 11.5329 0.00851213 11.3008 0.021787H12.7042C12.4719 0.00851213 12.2381 0 12.0024 0Z" fill="#C42126"/>
<path d="M23.9511 10.9395H0.0507812V10.9398H23.9511V10.9395Z" fill="#C42126"/>
<path d="M15.5476 4.38828H21.2777C20.5971 3.55971 19.8061 2.82625 18.9297 2.20532H14.627C14.983 2.83172 15.2892 3.57086 15.5476 4.38828Z" fill="#E7E7E7"/>
<path d="M14.6258 2.205H18.9286C17.1498 0.944443 15.0142 0.155044 12.7015 0.0214844H12.332C13.4206 0.158489 13.9206 0.964101 14.6258 2.205Z" fill="#DC3027"/>
<path d="M23.5527 8.75498C23.3394 7.99405 23.0532 7.26399 22.7016 6.57202H16.1094C16.2429 7.2729 16.3483 8.005 16.4264 8.75498H23.5527Z" fill="#E7E7E7"/>
<path d="M15.7393 6.57198H22.7021C22.3053 5.79155 21.8286 5.0592 21.2776 4.38867H15.1953C15.4098 5.06756 15.5919 5.79991 15.7393 6.57198Z" fill="#DC3027"/>
<path d="M16.6797 13.1226H23.947C23.9815 12.7533 24.001 12.3791 24.001 12.0009C24.001 11.643 23.9822 11.2896 23.9515 10.9395H16.6814C16.7051 11.6655 16.7047 12.3969 16.6797 13.1226Z" fill="#E7E7E7"/>
<path d="M23.9517 10.9388C23.8859 10.189 23.7509 9.45958 23.5536 8.75586H16.1211C16.1957 9.47073 16.245 10.2021 16.2691 10.9388H23.9517Z" fill="#DC3027"/>
<path d="M15.9844 17.488H22.6706C23.0271 16.7968 23.3178 16.0662 23.5357 15.3047H16.3076C16.228 16.0558 16.12 16.7877 15.9844 17.488Z" fill="#E7E7E7"/>
<path d="M23.5364 15.306C23.7378 14.6025 23.8777 13.873 23.9472 13.123H16.4533C16.4277 13.8603 16.3769 14.5915 16.3008 15.306H23.5364Z" fill="#DC3027"/>
<path d="M18.8419 21.8548C19.7309 21.2364 20.5332 20.5022 21.2246 19.6719H15.5944C15.3312 20.4927 15.0187 21.2307 14.6562 21.8548H18.8419Z" fill="#E7E7E7"/>
<path d="M15.3848 19.6716H21.2268C21.7843 19.0018 22.2682 18.2695 22.6708 17.4883H15.9356C15.7861 18.2609 15.6021 18.9936 15.3848 19.6716Z" fill="#DC3027"/>
<path d="M11.5649 23.9912C11.5407 23.9904 11.5165 23.9893 11.4922 23.9885C11.5165 23.9892 11.5407 23.9904 11.5649 23.9912Z" fill="#DC3027"/>
<path d="M12 23.9996C14.5441 23.9996 16.9013 23.2055 18.8427 21.8555H14.4997C13.7289 23.1835 13.2204 23.9996 12 23.9996Z" fill="#DC3027"/>
<path d="M12.0012 24.0007C11.8555 24.0007 11.7108 23.9973 11.5664 23.9922C11.7123 23.9971 11.8572 24.0007 12.0012 24.0007Z" fill="#C42126"/>
<path d="M15.0228 2.20508H5.07084C4.19434 2.82601 3.40347 3.55942 2.72266 4.38803H15.9433C15.6848 3.57062 15.3788 2.83148 15.0228 2.20508Z" fill="#F3F4F5"/>
<path d="M5.07031 2.205H15.0223C14.3169 0.964101 13.4197 0.158489 12.3312 0.0214844H11.2972C8.98447 0.155044 6.84889 0.944443 5.07031 2.205Z" fill="#E73625"/>
<path d="M0.447266 8.75522H16.8042C16.7262 8.00509 16.6208 7.27315 16.4873 6.57227H1.29838C0.946695 7.26428 0.660626 7.9943 0.447266 8.75522Z" fill="#F3F4F5"/>
<path d="M2.72309 4.38867C2.17249 5.0592 1.6954 5.7915 1.29883 6.57198H16.4875C16.3403 5.80006 16.1582 5.06777 15.9437 4.38867H2.72309Z" fill="#E73625"/>
<path d="M0 12.0007C0 12.3789 0.0197096 12.7531 0.0540115 13.1224H16.9511C16.9762 12.3967 16.9765 11.6655 16.9529 10.9395H0.0494514C0.018747 11.2895 0 11.6428 0 12.0007Z" fill="#F3F4F5"/>
<path d="M0.0507812 10.9388H16.954C16.9299 10.202 16.8805 9.47078 16.806 8.75586H0.448673C0.251424 9.45973 0.116345 10.189 0.0507812 10.9388Z" fill="#E73625"/>
<path d="M16.7987 15.3047H0.464844C0.682764 16.0664 0.973596 16.7968 1.32999 17.488H16.4755C16.6111 16.7879 16.7189 16.0559 16.7987 15.3047Z" fill="#F3F4F5"/>
<path d="M0.465448 15.306H16.7993C16.8753 14.5915 16.9262 13.8601 16.9518 13.123H0.0546875C0.124203 13.8732 0.264248 14.6025 0.465448 15.306Z" fill="#E73625"/>
<path d="M5.15607 21.8548H14.986C15.3485 21.2305 15.6611 20.4927 15.9241 19.6719H2.77344C3.46485 20.5022 4.26686 21.2364 5.15607 21.8548Z" fill="#F3F4F5"/>
<path d="M1.33008 17.4883C1.73273 18.2695 2.21661 19.0018 2.77405 19.6716H15.9247C16.1419 18.9937 16.3259 18.261 16.4753 17.4883H1.33008Z" fill="#E73625"/>
<path d="M11.4929 23.9884C11.5172 23.9892 11.5414 23.9903 11.5657 23.9911C11.7101 23.9962 11.8548 23.9996 12.0005 23.9996C13.2209 23.9996 14.216 23.1835 14.987 21.8555H5.1582C6.96941 23.1152 9.14345 23.8905 11.4929 23.9884Z" fill="#E73625"/>
<path d="M11.7516 0.00585938C5.60221 0.130957 0.590187 4.87895 0.0507812 10.9185H11.7518V0.00585938H11.7516Z" fill="white"/>
<path d="M2.40016 6.79883L2.58297 7.36174H3.17527L2.69611 7.70983L2.87912 8.27315L2.40016 7.92486L1.92135 8.27315L2.10401 7.70983L1.625 7.36174H2.2173L2.40016 6.79883Z" fill="#EFEFEF"/>
<path d="M2.40016 8.78906L2.58297 9.35233H3.17527L2.69611 9.70042L2.87912 10.2637L2.40016 9.91545L1.92135 10.2637L2.10401 9.70042L1.625 9.35233H2.2173L2.40016 8.78906Z" fill="#EFEFEF"/>
<path d="M4.3906 3.81641L4.57346 4.37952H5.16556L4.68655 4.72781L4.86941 5.29073L4.3906 4.94284L3.91159 5.29073L4.09445 4.72781L3.61523 4.37952H4.20754L4.3906 3.81641Z" fill="#EFEFEF"/>
<path d="M4.3906 5.80469L4.57346 6.36781H5.16556L4.68655 6.71569L4.86941 7.27901L4.3906 6.93113L3.91159 7.27901L4.09445 6.71569L3.61523 6.36781H4.20754L4.3906 5.80469Z" fill="#EFEFEF"/>
<path d="M4.3906 7.79297L4.57346 8.35629H5.16556L4.68655 8.70397L4.86941 9.26729L4.3906 8.91905L3.91159 9.26729L4.09445 8.70397L3.61523 8.35629H4.20754L4.3906 7.79297Z" fill="#EFEFEF"/>
<path d="M0.891414 9.2687L0.708403 8.70538L1.18741 8.3575H0.595465L0.58219 8.31641C0.517184 8.51745 0.45846 8.72093 0.404297 8.9267L0.412657 8.92046L0.891414 9.2687Z" fill="#EFEFEF"/>
<path d="M1.92251 6.28502L2.40132 5.93678L2.88033 6.28502L2.69731 5.7217L3.17632 5.37346H2.58402L2.40116 4.81055L2.2183 5.37346H2.00003C1.9595 5.43487 1.92028 5.49663 1.88086 5.55896L2.10521 5.7217L1.92251 6.28502Z" fill="#EFEFEF"/>
<path d="M4.38957 2.95194L4.86838 3.29982L4.68552 2.73691L5.16433 2.38867H4.82232C4.53185 2.60583 4.2516 2.83566 3.98236 3.07815L3.91016 3.29982L4.38957 2.95194Z" fill="#EFEFEF"/>
<path d="M5.90039 2.30731L6.3794 1.95908L6.85821 2.30731L6.67535 1.74399L7.15416 1.39611H6.56206L6.53723 1.32031C6.33659 1.42281 6.13802 1.52947 5.94396 1.64296L6.08305 1.74394L5.90039 2.30731Z" fill="#EFEFEF"/>
<path d="M6.38078 2.82031L6.56364 3.38308H7.15574L6.67673 3.73131L6.85959 4.29463L6.38078 3.94635L5.90177 4.29463L6.08463 3.73131L5.60547 3.38308H6.19772L6.38078 2.82031Z" fill="#EFEFEF"/>
<path d="M6.38078 4.81055L6.56364 5.37331H7.15574L6.67673 5.72155L6.85959 6.28487L6.38078 5.93658L5.90177 6.28487L6.08463 5.72155L5.60547 5.37331H6.19772L6.38078 4.81055Z" fill="#EFEFEF"/>
<path d="M6.38078 6.79883L6.56364 7.36174H7.15574L6.67673 7.70983L6.85959 8.27315L6.38078 7.92486L5.90177 8.27315L6.08463 7.70983L5.60547 7.36174H6.19772L6.38078 6.79883Z" fill="#EFEFEF"/>
<path d="M6.38078 8.78906L6.56364 9.35233H7.15574L6.67673 9.70042L6.85959 10.2637L6.38078 9.91545L5.90177 10.2637L6.08463 9.70042L5.60547 9.35233H6.19772L6.38078 8.78906Z" fill="#EFEFEF"/>
<path d="M8.36906 1.82642L8.55192 2.38953H9.14402L8.66521 2.73782L8.84787 3.30074L8.36906 2.95285L7.8899 3.30074L8.07291 2.73782L7.59375 2.38953H8.186L8.36906 1.82642Z" fill="#EFEFEF"/>
<path d="M8.36906 3.81641L8.55192 4.37952H9.14402L8.66521 4.72781L8.84787 5.29073L8.36906 4.94284L7.8899 5.29073L8.07291 4.72781L7.59375 4.37952H8.186L8.36906 3.81641Z" fill="#EFEFEF"/>
<path d="M8.36906 5.80469L8.55192 6.36781H9.14402L8.66521 6.71569L8.84787 7.27901L8.36906 6.93113L7.8899 7.27901L8.07291 6.71569L7.59375 6.36781H8.186L8.36906 5.80469Z" fill="#EFEFEF"/>
<path d="M8.36906 7.79297L8.55192 8.35629H9.14402L8.66521 8.70397L8.84787 9.26729L8.36906 8.91905L7.8899 9.26729L8.07291 8.70397L7.59375 8.35629H8.186L8.36906 7.79297Z" fill="#EFEFEF"/>
<path d="M10.3573 0.832031L10.5402 1.39515H11.1323L10.6533 1.74303L10.8362 2.30635L10.3573 1.95806L9.87818 2.30635L10.0612 1.74303L9.58203 1.39515H10.1741L10.3573 0.832031Z" fill="#EFEFEF"/>
<path d="M10.3573 2.82031L10.5402 3.38308H11.1323L10.6533 3.73131L10.8362 4.29463L10.3573 3.94635L9.87818 4.29463L10.0612 3.73131L9.58203 3.38308H10.1741L10.3573 2.82031Z" fill="#EFEFEF"/>
<path d="M10.3573 4.81055L10.5402 5.37331H11.1323L10.6533 5.72155L10.8362 6.28487L10.3573 5.93658L9.87818 6.28487L10.0612 5.72155L9.58203 5.37331H10.1741L10.3573 4.81055Z" fill="#EFEFEF"/>
<path d="M10.3573 6.79883L10.5402 7.36174H11.1323L10.6533 7.70983L10.8362 8.27315L10.3573 7.92486L9.87818 8.27315L10.0612 7.70983L9.58203 7.36174H10.1741L10.3573 6.79883Z" fill="#EFEFEF"/>
<path d="M10.3573 8.78906L10.5402 9.35233H11.1323L10.6533 9.70042L10.8362 10.2637L10.3573 9.91545L9.87818 10.2637L10.0612 9.70042L9.58203 9.35233H10.1741L10.3573 8.78906Z" fill="#EFEFEF"/>
</g>
<defs>
<clipPath id="clip0_1_5921">
<rect width="24" height="24" fill="white"/>
</clipPath>
</defs>
</svg>
