<svg width="16" height="16" viewBox="0 0 16 16" fill="none" xmlns="http://www.w3.org/2000/svg">
<path d="M14.3058 0.463457L14.3044 0.463377L6.21679 0.248166C5.61091 0.232053 5.13511 0.710167 5.15413 1.31625C5.17316 1.92225 5.67976 2.42659 6.28568 2.44275L11.7156 2.58717L0.90471 13.3981C0.488657 13.8141 0.508821 14.5088 0.949748 14.9497C1.39067 15.3907 2.08535 15.4108 2.5014 14.9948L13.3123 4.18391L13.4568 9.61378C13.4729 10.2197 13.9773 10.7263 14.5833 10.7453C15.1894 10.7644 15.6675 10.2885 15.6514 9.68267L15.4362 1.59508L15.4361 1.59364C15.419 0.986531 14.911 0.480364 14.3058 0.463457Z" fill="#333333"/>
</svg>
