<svg width="14" height="14" viewBox="0 0 14 14" fill="none" xmlns="http://www.w3.org/2000/svg">
<path d="M13.2099 0.0449844C13.2096 0.0449844 13.2093 0.0449321 13.2089 0.0449591L7.722 0.0582212C7.31094 0.0592208 6.97847 0.393221 6.97944 0.804352C6.98042 1.21543 7.31444 1.54788 7.72552 1.5469L11.4094 1.53796L0.263156 12.6842C-0.0275283 12.9749 -0.0275281 13.4462 0.263156 13.7368C0.55384 14.0275 1.0251 14.0275 1.31579 13.7368L12.462 2.59062L12.4531 6.27446C12.4522 6.68554 12.7846 7.01956 13.1957 7.02054C13.6068 7.02154 13.9408 6.68898 13.9418 6.27798L13.9551 0.791037C13.9551 0.790721 13.955 0.790405 13.955 0.790064C13.9554 0.378195 13.6205 0.0445369 13.2099 0.0449844Z" fill="white"/>
</svg>
