<svg width="16" height="16" viewBox="0 0 16 16" fill="none" xmlns="http://www.w3.org/2000/svg">
<path d="M14.3058 1.0848L14.3044 1.08472L6.21679 0.869503C5.61091 0.85339 5.13511 1.33151 5.15413 1.93759C5.17316 2.54359 5.67976 3.04793 6.28568 3.06408L11.7156 3.20851L0.90471 14.0194C0.488657 14.4355 0.508821 15.1302 0.949748 15.5711C1.39067 16.012 2.08535 16.0322 2.5014 15.6161L13.3123 4.80524L13.4568 10.2351C13.4729 10.841 13.9773 11.3476 14.5833 11.3667C15.1894 11.3857 15.6675 10.9098 15.6514 10.304L15.4362 2.21641L15.4361 2.21498C15.419 1.60787 14.911 1.1017 14.3058 1.0848Z" fill="#0E218F"/>
</svg>
